<svg width="35" height="35" viewBox="0 0 35 35" fill="none" xmlns="http://www.w3.org/2000/svg">
<g clip-path="url(#clip0_1_25)">
<path d="M17.5 2.125C15.4611 4.16385 14.3157 6.92913 14.3157 9.8125C14.3157 12.6959 15.4611 15.4611 17.5 17.5C19.5388 19.5389 22.3041 20.6843 25.1875 20.6843C28.0709 20.6843 30.8361 19.5389 32.875 17.5C32.875 20.5409 31.9733 23.5135 30.2838 26.0419C28.5944 28.5703 26.1932 30.541 23.3838 31.7046C20.5743 32.8683 17.4829 33.1728 14.5005 32.5796C11.518 31.9863 8.77846 30.522 6.62823 28.3718C4.478 26.2215 3.01367 23.482 2.42043 20.4995C1.82718 17.5171 2.13165 14.4257 3.29535 11.6162C4.45905 8.80683 6.4297 6.40558 8.95811 4.71616C11.4865 3.02673 14.4591 2.125 17.5 2.125Z" stroke="#efc42a" stroke-width="3" stroke-linecap="round" stroke-linejoin="round"/>
</g>
<defs>
<clipPath id="clip0_1_25">
<rect width="35" height="35" fill="white"/>
</clipPath>
</defs>
</svg>
