<?xml version="1.0" standalone="no"?>
<!DOCTYPE svg PUBLIC "-//W3C//DTD SVG 1.1//EN" "http://www.w3.org/Graphics/SVG/1.1/DTD/svg11.dtd" >
<svg xmlns="http://www.w3.org/2000/svg" xmlns:xlink="http://www.w3.org/1999/xlink" version="1.1">
<metadata>
Created by FontForge 20201107 at Fri May 24 21:06:21 2024
 By 
Copyright 2016 The Inter Project Authors (https://github.com/rsms/inter)
</metadata>
<defs>
<font id="Inter18pt-Medium" horiz-adv-x="0" >
  <font-face 
    font-family="Inter 18pt Medium"
    font-weight="500"
    font-stretch="normal"
    units-per-em="2048"
    panose-1="2 0 5 3 0 0 0 2 0 4"
    ascent="1638"
    descent="-410"
    x-height="1104"
    cap-height="1490"
    bbox="-1552.02 -448 2676 1933"
    underline-thickness="158"
    underline-position="-385"
    unicode-range="U+0020-A69F"
  />
<missing-glyph horiz-adv-x="1344" 
d="M1016 -416h-688v2272h688v-2272zM512 -192v-64h320v64h-215l215 127v65h-320v-64h216zM512 320v-256h320v256h-320zM768 128h-192v128h192v-128zM512 704v-256h320v256h-192v-128h64v64h64v-128h-192v192h-64zM512 832v-64h320v224h-64v-160h-256zM512 960v-64h192v160
h128v64h-320v-64h128v-96h-128zM640 1248h-64v96h64v-96zM512 1408v-224h320v64h-128v160h-192zM512 1536v-64h320v64h-144v96h144v64h-320v-64h112v-96h-112z" />
    <glyph glyph-name=".notdef" horiz-adv-x="1344" 
d="M1016 -416h-688v2272h688v-2272zM512 -192v-64h320v64h-215l215 127v65h-320v-64h216zM512 320v-256h320v256h-320zM768 128h-192v128h192v-128zM512 704v-256h320v256h-192v-128h64v64h64v-128h-192v192h-64zM512 832v-64h320v224h-64v-160h-256zM512 960v-64h192v160
h128v64h-320v-64h128v-96h-128zM640 1248h-64v96h64v-96zM512 1408v-224h320v64h-128v160h-192zM512 1536v-64h320v64h-144v96h144v64h-320v-64h112v-96h-112z" />
    <glyph glyph-name=".null" horiz-adv-x="981" 
 />
    <glyph glyph-name="nonmarkingreturn" horiz-adv-x="682" 
 />
    <glyph glyph-name="space" unicode=" " horiz-adv-x="533" 
 />
    <glyph glyph-name="three" horiz-adv-x="1274" 
d="M639 -21q-154 0 -272 55t-186 151.5t-71 223.5h228q4 -73 43 -126.5t105.5 -82t150.5 -28.5q89 0 157 31t107 87t39 129q0 75 -39 131t-112.5 88t-175.5 32h-126v185h126q84 0 148 29t99.5 81.5t35.5 122.5q0 71 -31.5 123t-89.5 81t-136 29q-76 0 -138.5 -27.5t-101 -79
t-40.5 -123.5h-218q3 124 69.5 218.5t179 148t252.5 53.5q143 0 250 -55.5t165.5 -148t58.5 -205.5q0 -123 -71 -210t-190 -118v-10q99 -15 169.5 -63.5t107.5 -122.5t37 -166q0 -125 -68.5 -223t-188.5 -154t-273 -56z" />
    <glyph glyph-name="A" horiz-adv-x="1436" 
d="M43 0l533 1490h277l539 -1490h-245l-290 831q-34 103 -74.5 237.5t-94.5 325.5h50q-53 -192 -93 -328t-73 -235l-284 -831h-245zM334 391v190h768v-190h-768z" />
    <glyph glyph-name="B" horiz-adv-x="1338" 
d="M158 0v1490h551q158 0 263 -51.5t158 -139.5t53 -200q0 -92 -33.5 -155.5t-90.5 -103t-128 -58.5v-12q77 -6 148 -49.5t116.5 -123t45.5 -192.5q0 -116 -55 -208t-167.5 -144.5t-286.5 -52.5h-574zM385 194h325q159 0 231.5 61.5t72.5 158.5q0 72 -35.5 129.5t-101.5 91
t-158 33.5h-334v-474zM385 846h307q77 0 137.5 28.5t95 81t34.5 123.5q0 95 -65.5 156.5t-196.5 61.5h-312v-451z" />
    <glyph glyph-name="C" horiz-adv-x="1498" 
d="M782 -21q-196 0 -349 93t-240 264.5t-87 407.5q0 237 87.5 409t240.5 265t348 93q119 0 223 -34.5t186 -100t136 -159.5t73 -213h-229q-15 73 -50 128.5t-86.5 94t-115 58t-135.5 19.5q-132 0 -234.5 -66t-160.5 -191t-58 -303t58.5 -303t161 -190t233.5 -65
q71 0 134.5 19.5t115 57.5t87 94t50.5 128h229q-17 -112 -70 -204.5t-134 -160.5t-186 -104.5t-228 -36.5z" />
    <glyph glyph-name="E" horiz-adv-x="1229" 
d="M158 0v1490h953v-196h-725v-443h673v-194h-673v-461h730v-196h-958z" />
    <glyph glyph-name="H" horiz-adv-x="1509" 
d="M158 0v1490h228v-630h738v630h227v-1490h-227v664h-738v-664h-228z" />
    <glyph glyph-name="I" horiz-adv-x="544" 
d="M386 1490v-1490h-228v1490h228z" />
    <glyph glyph-name="J" horiz-adv-x="1164" 
d="M546 -20q-207 0 -334 117.5t-127 335.5v83h226v-84q0 -127 64 -193t171 -66q106 0 170.5 66t64.5 193v1058h226v-1057q0 -218 -126.5 -335.5t-334.5 -117.5z" />
    <glyph glyph-name="M" horiz-adv-x="1850" 
d="M158 0v1490h331l328 -859q13 -37 31 -94.5t37 -123.5t36.5 -129t29.5 -112h-49q13 47 30 109.5t36 128.5t37 124.5t32 96.5l322 859h332v-1490h-225v804q0 47 1 110t3 133t3.5 141.5t2.5 137.5h20q-22 -74 -45.5 -149.5t-46 -146t-42.5 -129t-34 -97.5l-307 -804h-193
l-310 804q-15 38 -34.5 95.5t-42 127.5t-47 146.5t-48.5 152.5h24q1 -62 2.5 -132t3 -141t3 -135.5t1.5 -113.5v-804h-222z" />
    <glyph glyph-name="O" horiz-adv-x="1562" 
d="M782 -21q-195 0 -347.5 93t-240.5 264.5t-88 407.5q0 237 88 409t240.5 265t347.5 93q194 0 346.5 -93t240 -265t87.5 -409q0 -236 -87.5 -407.5t-240 -264.5t-346.5 -93zM782 186q127 0 228.5 64t160.5 189t59 305q0 182 -59 307t-160.5 189t-228.5 64
q-128 0 -230 -64.5t-161.5 -189.5t-59.5 -306q0 -180 59.5 -304.5t161.5 -189t230 -64.5z" />
    <glyph glyph-name="P" horiz-adv-x="1304" 
d="M158 0v1490h538q170 0 285 -62t173.5 -170.5t58.5 -246.5q0 -139 -59 -247.5t-174.5 -171t-286.5 -62.5h-379v194h361q107 0 175.5 36.5t101.5 101.5t33 149t-33 148t-102 100t-176 36h-288v-1295h-228z" />
    <glyph glyph-name="S" horiz-adv-x="1314" 
d="M662 -24q-169 0 -293.5 54.5t-194 156.5t-75.5 242h227q6 -84 51 -141t119 -86t165 -29q96 0 170.5 30t117 84t42.5 126q0 64 -35.5 105.5t-99 70t-148.5 50.5l-173 45q-192 51 -294.5 147t-102.5 250q0 129 68.5 226t188 150.5t271.5 53.5q155 0 272 -54.5t183 -150
t70 -220.5h-221q-10 108 -94 168t-214 60q-90 0 -157 -28.5t-104 -78.5t-37 -114q0 -67 40 -110t102.5 -69t129.5 -44l148 -38q80 -20 157 -52t139 -81t98.5 -119t36.5 -166q0 -128 -65.5 -227t-189.5 -155t-298 -56z" />
    <glyph glyph-name="T" horiz-adv-x="1322" 
d="M81 1294v196h1159v-196h-465v-1294h-227v1294h-467z" />
    <glyph glyph-name="X" horiz-adv-x="1418" 
d="M47 0l593 846v-169l-555 813h263l198 -295q44 -65 74.5 -115.5t57 -99t57.5 -106.5h-48q32 58 58.5 106t58 99t75.5 116l202 295h256l-551 -803v166l585 -853h-265l-244 357q-39 59 -67 103t-52.5 87t-54.5 98h43q-29 -53 -54 -96t-53.5 -88t-69.5 -104l-247 -357h-260z
" />
    <glyph glyph-name="Y" horiz-adv-x="1408" 
d="M593 0v594l-550 896h264l281 -474q45 -76 81.5 -147t74.5 -169h-73q38 99 74.5 171t79.5 145l278 474h262l-546 -896v-594h-226z" />
    <glyph glyph-name="a" horiz-adv-x="1145" 
d="M456 -23q-106 0 -191 38.5t-134.5 113.5t-49.5 184q0 94 36.5 154.5t97.5 95.5t137.5 53t156.5 27q99 12 159.5 20t89 25t28.5 56v6q0 61 -24 103.5t-72 65.5t-118 23q-71 0 -123 -22.5t-84.5 -58t-45.5 -75.5l-207 41q31 101 98.5 165.5t160.5 96t199 31.5
q74 0 150.5 -18t141 -61t103.5 -117t39 -186v-738h-212v152h-9q-22 -43 -64 -83t-107 -66t-156 -26zM504 152q91 0 154 35t96 92t33 122v139q-11 -11 -43 -20t-73 -16.5t-81 -13t-70 -9.5q-60 -8 -111.5 -26.5t-82 -53t-30.5 -91.5q0 -52 26.5 -87t73.5 -53t108 -18z" />
    <glyph glyph-name="c" horiz-adv-x="1162" 
d="M607 -23q-155 0 -271.5 71.5t-181 200t-64.5 298.5q0 172 64.5 301t181 200.5t271.5 71.5q89 0 166 -23.5t138.5 -68t103 -108t59.5 -142.5l-209 -39q-10 44 -32.5 80t-55 62t-75 40t-93.5 14q-99 0 -165 -51.5t-99 -139t-33 -197.5q0 -108 33 -195t98.5 -138.5
t165.5 -51.5q52 0 95 14.5t75.5 41t55 64t33.5 82.5l208 -38q-17 -81 -59 -145t-103.5 -110t-139 -70t-167.5 -24z" />
    <glyph glyph-name="e" horiz-adv-x="1183" 
d="M617 -23q-164 0 -282 71t-181.5 199t-63.5 299q0 169 63 298.5t178 202.5t268 73q100 0 189.5 -33t159 -101.5t109.5 -174t40 -250.5v-74h-891v164h778l-100 -53q0 101 -32.5 178.5t-96 120.5t-155.5 43t-157.5 -44t-100.5 -117t-35 -163v-107q0 -111 38.5 -190
t109 -120.5t164.5 -41.5q63 0 114 18.5t87 54.5t54 88l206 -38q-25 -90 -89 -158.5t-159.5 -106.5t-214.5 -38z" />
    <glyph glyph-name="h" horiz-adv-x="1213" 
d="M360 650v-650h-219v1490h217v-657h-34q49 148 142 217.5t225 69.5q113 0 198.5 -48t134 -141.5t48.5 -231.5v-699h-219v672q0 122 -62.5 189.5t-171.5 67.5q-74 0 -133 -32t-92.5 -94t-33.5 -153z" />
    <glyph glyph-name="l" horiz-adv-x="501" 
d="M360 1490v-1490h-219v1490h219z" />
    <glyph glyph-name="o" horiz-adv-x="1217" 
d="M608 -23q-156 0 -272.5 71.5t-181 200t-64.5 298.5q0 172 64.5 301t181 200.5t272.5 71.5q157 0 273.5 -71.5t181 -200.5t64.5 -301q0 -170 -64.5 -298.5t-181 -200t-273.5 -71.5zM608 162q99 0 165.5 51.5t99.5 139t33 194.5q0 109 -33 196.5t-99.5 139.5t-165.5 52
t-164.5 -52t-98.5 -139.5t-33 -196.5q0 -107 33 -194.5t98.5 -139t164.5 -51.5z" />
    <glyph glyph-name="p" horiz-adv-x="1247" 
d="M141 -418v1522h213v-175h15q23 40 61.5 84t102 75.5t159.5 31.5q136 0 240.5 -68.5t164.5 -196t60 -305.5q0 -177 -59.5 -305t-164 -197.5t-241.5 -69.5q-94 0 -157 31.5t-102.5 76t-62.5 85.5h-10v-589h-219zM645 164q93 0 158 50t98.5 137.5t33.5 199.5
q0 113 -33.5 199t-98 135t-158.5 49t-159 -48t-98.5 -133.5t-33.5 -201.5q0 -115 34 -202t99.5 -136t157.5 -49z" />
    <glyph glyph-name="s" horiz-adv-x="1081" 
d="M541 -24q-122 0 -217 36t-155 106.5t-78 172.5l208 34q20 -87 81.5 -129.5t160.5 -42.5q105 0 167 43.5t62 105.5q0 54 -39.5 88.5t-116.5 51.5l-186 41q-154 35 -230 111.5t-76 196.5q0 99 54.5 173t150.5 115t221 41q121 0 208.5 -36.5t141 -102.5t72.5 -154l-199 -34
q-16 63 -69 109t-151 46q-91 0 -150.5 -41t-59.5 -105q0 -55 41 -89t128 -54l179 -40q156 -35 230.5 -109t74.5 -191q0 -101 -58 -178.5t-160 -121t-235 -43.5z" />
    <glyph glyph-name="x" horiz-adv-x="1123" 
d="M50 0l438 647l-1 -161l-414 618h246l127 -200q49 -80 88.5 -153.5t80.5 -143.5h-98q42 70 79 143.5t88 153.5l130 200h242l-418 -623v158l435 -639h-245l-150 232q-50 79 -88.5 150.5t-79.5 139.5h98q-40 -68 -76.5 -139.5t-86.5 -150.5l-151 -232h-244z" />
    <glyph glyph-name="y" horiz-adv-x="1156" 
d="M133 -406l42 180l45 -6q51 -11 92 -3t71.5 41.5t49.5 99.5l29 92l-421 1106h235l219 -623q36 -100 61 -199.5t53 -198.5h-66q28 99 55 199t62 199l222 623h232l-484 -1266q-33 -86 -81.5 -144.5t-114.5 -88t-152 -29.5q-47 0 -86.5 6t-62.5 12z" />
    <glyph glyph-name="AE" horiz-adv-x="2046" 
d="M43 0l685 1490h1198v-196h-723v-449h673v-194h-673v-455h730v-196h-950v1333h-98l-594 -1333h-248zM387 400v180h706v-180h-706z" />
    <glyph glyph-name="ae" horiz-adv-x="1856" 
d="M467 -22q-112 0 -199.5 39t-137 114t-49.5 182q0 92 40.5 156.5t110 104.5t157 58.5t181.5 18.5h1065l-83 -58q9 101 -23 179t-97 123t-157 45t-158 -44t-101.5 -117t-35.5 -163v-107q0 -112 38.5 -190.5t108.5 -120t163 -41.5q64 0 115 18.5t87 54.5t55 88l208 -28
q-24 -94 -87.5 -164t-160 -109.5t-219.5 -39.5q-116 0 -209 37.5t-156 105t-91 157.5l20 577q39 82 99.5 142t141.5 92t181 32t189 -33t158.5 -101.5t109 -174t39.5 -250.5v-74h-1197q-80 0 -142.5 -20t-98.5 -59t-36 -96q0 -79 58.5 -119.5t149.5 -40.5t153.5 35t95.5 92
t33 122v349q0 60 -24.5 103t-72 66t-117.5 23q-71 0 -123 -22.5t-84.5 -58t-45.5 -75.5l-207 41q30 100 98 164.5t161 96.5t198 32q92 0 172.5 -28t137.5 -91t77 -170l-27 -621h-38q-19 -53 -60 -96t-98 -73t-125 -46.5t-141 -16.5z" />
    <glyph glyph-name="dotlessi" horiz-adv-x="501" 
d="M141 0v1104h219v-1104h-219z" />
    <glyph glyph-name="eturn" horiz-adv-x="1183" 
d="M567 1128q163 0 281 -71.5t181.5 -199.5t63.5 -298q0 -169 -63 -299t-177.5 -203t-268.5 -73q-99 0 -189 33t-159.5 101.5t-109.5 174.5t-40 250v74h891v-164h-778l100 54q0 -102 33 -179t96 -120.5t155 -43.5t157.5 44t100.5 117.5t35 162.5v107q0 113 -38.5 191.5
t-108.5 119.5t-165 41q-63 0 -114 -18.5t-87 -54.5t-54 -88l-206 38q25 91 89 159t160 106.5t215 38.5z" />
    <glyph glyph-name="uni0237" horiz-adv-x="501" 
d="M141 1104h219v-1189q0 -107 -40 -181.5t-117 -113t-189 -38.5h-54v187h41q74 0 107 39t33 115v1181z" />
    <glyph glyph-name="h.sc" horiz-adv-x="1213" 
d="M907 662v-189h-604v189h604zM360 1104v-1104h-219v1104h219zM1071 1104v-1104h-218v1104h218z" />
    <glyph glyph-name="hungarumlaut" horiz-adv-x="1011" 
d="M318 1246h-167l116 301h222zM648 1246h-170l170 301h229z" />
    <glyph glyph-name="gravecomb" 
d="M336 1246l-201 301h226l142 -301h-167z" />
    <glyph glyph-name="acutecomb" 
d="M150 1246l142 301h226l-201 -301h-167z" />
    <glyph glyph-name="uni0304" 
d="M742 1481v-158h-562v158h562z" />
    <glyph glyph-name="uni0306" 
d="M407 1254q-86 0 -155.5 38.5t-110.5 105t-41 147.5h146q0 -66 45.5 -109t115.5 -43t115.5 43t45.5 109h147q0 -81 -41 -147t-110.5 -105t-156.5 -39z" />
    <glyph glyph-name="uni0307" 
d="M256 1277q-57 0 -97 38.5t-40 92.5q0 55 40 92.5t97 37.5t97 -37.5t40 -92.5q0 -54 -40 -92.5t-97 -38.5z" />
    <glyph glyph-name="uni0308" 
d="M821 1280q-54 0 -92 37.5t-38 90.5t38 90t92 37q53 0 91 -37t38 -90t-38 -90.5t-91 -37.5zM393 1280q-54 0 -92 37.5t-38 90.5t38 90t92 37q53 0 91 -37t38 -90t-38 -90.5t-91 -37.5z" />
    <glyph glyph-name="uni030F" 
d="M693 1246l-170 301h221l116 -301h-167zM363 1246l-228 301h228l170 -301h-170z" />
    <glyph glyph-name="uni0327" 
d="M177 -418v110h121q51 0 72.5 14.5t21.5 49.5t-21.5 49.5t-72.5 14.5h-85l32 227h102v-47l-2 -86q95 -2 143 -42.5t48 -118.5q0 -89 -57.5 -130t-175.5 -41h-126z" />
    <glyph glyph-name="Pi" horiz-adv-x="1509" 
d="M1351 1490v-1490h-227v1294h-738v-1294h-228v1490h1193z" />
    <glyph glyph-name="Psi" horiz-adv-x="1797" 
d="M1417 1490h222v-398q0 -171 -44 -297.5t-129 -210.5t-208 -125.5t-282 -41.5h-155q-158 0 -281 41.5t-208 125.5t-129.5 210.5t-44.5 297.5v398h222v-387q0 -180 43 -288.5t139 -157.5t255 -49h163q160 0 256 49t138.5 157.5t42.5 288.5v387zM789 1490h219v-1490h-219
v1490z" />
    <glyph glyph-name="gamma" horiz-adv-x="1155" 
d="M472 -36l-431 1140h235l219 -623q35 -99 61.5 -199.5t53.5 -198.5h-62q28 98 54 198t60 200l218 623h233l-431 -1140h-210zM468 -418v426h218v-426h-218z" />
    <glyph glyph-name="psi" horiz-adv-x="1614" 
d="M698 -20q-177 0 -301.5 68t-190 198.5t-65.5 317.5v540h217v-538q0 -135 39 -223.5t115 -132t186 -43.5h217q112 0 187.5 43.5t114.5 132t39 223.5v538h217v-540q0 -187 -65.5 -317.5t-190 -198.5t-302.5 -68h-217zM698 -418v1793h217v-1793h-217z" />
    <glyph glyph-name="uni03F4" horiz-adv-x="1562" 
d="M1282 831v-173h-1004v173h1004zM782 -21q-195 0 -347.5 93t-240.5 264.5t-88 407.5q0 237 88 409t240.5 265t347.5 93q194 0 346.5 -93t240 -265t87.5 -409q0 -236 -87.5 -407.5t-240 -264.5t-346.5 -93zM782 186q127 0 228.5 64t160.5 189t59 305q0 182 -59 307
t-160.5 189t-228.5 64q-128 0 -230 -64.5t-161.5 -189.5t-59.5 -306q0 -180 59.5 -304.5t161.5 -189t230 -64.5z" />
    <glyph glyph-name="uni0400" unicode="&#x400;" horiz-adv-x="1229" 
d="M158 0v1490h953v-196h-725v-443h673v-194h-673v-461h730v-196h-958zM558 1632l-201 301h226l142 -301h-167z" />
    <glyph glyph-name="uni0401" unicode="&#x401;" horiz-adv-x="1229" 
d="M158 0v1490h953v-196h-725v-443h673v-194h-673v-461h730v-196h-958zM852 1666q-54 0 -92 37.5t-38 90.5t38 90t92 37q53 0 91 -37t38 -90t-38 -90.5t-91 -37.5zM424 1666q-54 0 -92 37.5t-38 90.5t38 90t92 37q53 0 91 -37t38 -90t-38 -90.5t-91 -37.5z" />
    <glyph glyph-name="uni0402" unicode="&#x402;" horiz-adv-x="1721" 
d="M81 1294v196h1159v-196h-465v-1294h-227v1294h-467zM980 -97v206h107q144 0 229 80.5t85 218.5q0 139 -85.5 221.5t-228.5 82.5q-145 0 -229.5 -86.5t-84.5 -236.5h-109q0 171 49 289.5t146.5 180t240.5 61.5q154 0 273.5 -65t188.5 -180.5t69 -266.5q0 -150 -69.5 -264
t-192 -177.5t-282.5 -63.5h-107z" />
    <glyph glyph-name="uni0403" unicode="&#x403;" horiz-adv-x="1171" 
d="M1090 1490v-195h-704v-1295h-228v1490h932zM540 1632l142 301h226l-201 -301h-167z" />
    <glyph glyph-name="uni0404" unicode="&#x404;" horiz-adv-x="1498" 
d="M782 -21q-196 0 -349 93t-240 264.5t-87 407.5q0 237 87.5 409t240.5 265t348 93q119 0 223 -34.5t186 -100t136 -159.5t73 -213h-229q-15 75 -50.5 130.5t-87 94t-115.5 57.5t-137 19q-131 0 -233 -65.5t-159.5 -190.5t-57.5 -305t57.5 -304.5t159.5 -189.5t233 -65
q73 0 137 19t115.5 57.5t87 94.5t50.5 129h229q-17 -112 -70 -204.5t-134 -160.5t-186 -104.5t-228 -36.5zM270 663v193h658v-193h-658z" />
    <glyph glyph-name="uni0405" unicode="&#x405;" horiz-adv-x="1314" 
d="M662 -24q-169 0 -293.5 54.5t-194 156.5t-75.5 242h227q6 -84 51 -141t119 -86t165 -29q96 0 170.5 30t117 84t42.5 126q0 64 -35.5 105.5t-99 70t-148.5 50.5l-173 45q-192 51 -294.5 147t-102.5 250q0 129 68.5 226t188 150.5t271.5 53.5q155 0 272 -54.5t183 -150
t70 -220.5h-221q-10 108 -94 168t-214 60q-90 0 -157 -28.5t-104 -78.5t-37 -114q0 -67 40 -110t102.5 -69t129.5 -44l148 -38q80 -20 157 -52t139 -81t98.5 -119t36.5 -166q0 -128 -65.5 -227t-189.5 -155t-298 -56z" />
    <glyph glyph-name="uni0406" unicode="&#x406;" horiz-adv-x="544" 
d="M386 1490v-1490h-228v1490h228z" />
    <glyph glyph-name="uni0407" unicode="&#x407;" horiz-adv-x="544" 
d="M386 1490v-1490h-228v1490h228zM487 1666q-54 0 -92 37.5t-38 90.5t38 90t92 37q53 0 91 -37t38 -90t-38 -90.5t-91 -37.5zM59 1666q-54 0 -92 37.5t-38 90.5t38 90t92 37q53 0 91 -37t38 -90t-38 -90.5t-91 -37.5z" />
    <glyph glyph-name="uni0408" unicode="&#x408;" horiz-adv-x="1164" 
d="M546 -20q-207 0 -334 117.5t-127 335.5v83h226v-84q0 -127 64 -193t171 -66q106 0 170.5 66t64.5 193v1058h226v-1057q0 -218 -126.5 -335.5t-334.5 -117.5z" />
    <glyph glyph-name="uni0409" unicode="&#x409;" horiz-adv-x="2267" 
d="M81 0v191h40q72 0 114 31t65 113.5t35 237.5l76 917h722v-191h-521l-63 -761q-12 -143 -39 -245t-74.5 -167t-121.5 -95.5t-180 -30.5h-53zM1258 922h398q160 0 277 -55t181 -157t64 -242q0 -143 -63.5 -248.5t-180 -162.5t-277.5 -57h-557v1490h227v-1298h326
q139 0 219 75t80 203q0 81 -36.5 139t-103 89.5t-159.5 31.5h-395v192z" />
    <glyph glyph-name="uni040A" unicode="&#x40a;" horiz-adv-x="2291" 
d="M158 0v1490h221v-572h846v-188h-846v-730h-221zM1282 922h397q161 0 278 -55t180.5 -157t63.5 -242q0 -143 -63 -248.5t-179.5 -162.5t-277.5 -57h-557v1490h227v-1298h326q139 0 219 75t80 203q0 81 -36.5 139t-103 89.5t-159.5 31.5h-395v192z" />
    <glyph glyph-name="uni040B" unicode="&#x40b;" horiz-adv-x="1803" 
d="M1160 914q156 0 268.5 -50.5t173 -157t60.5 -275.5v-431h-227v423q0 103 -37.5 168t-107 96.5t-166.5 31.5q-117 0 -219 -37.5t-191 -101.5v195q92 65 199.5 102t246.5 37zM774 1336v-1336h-227v1336h227zM81 1295v195h1221v-195h-1221z" />
    <glyph glyph-name="uni040C" unicode="&#x40c;" horiz-adv-x="1392" 
d="M158 0v1490h228v-634h194l468 634h272l-549 -723l573 -767h-271l-487 662h-200v-662h-228zM594 1632l142 301h226l-201 -301h-167z" />
    <glyph glyph-name="uni040D" unicode="&#x40d;" horiz-adv-x="1530" 
d="M1372 0h-230v797q0 43 2.5 115.5t7 167.5t9.5 206l35 -10q-65 -119 -112.5 -205t-85.5 -151t-75 -124l-504 -796h-261v1490h229v-857q0 -47 -1.5 -119t-5.5 -154t-12 -161l-27 11q38 83 76 156.5t73 133t60 100.5l563 890h259v-1490zM680 1632l-201 301h226l142 -301
h-167z" />
    <glyph glyph-name="uni040E" unicode="&#x40e;" horiz-adv-x="1314" 
d="M254 0v200h109q75 0 117.5 23t62.5 76l25 65l-525 1126h255l186 -420q52 -116 89.5 -218t68 -197t61.5 -189h-66q45 130 95 278t122 326l168 420h249l-520 -1230q-34 -79 -78.5 -137.5t-116 -90.5t-184.5 -32h-118zM657 1640q-86 0 -155.5 38.5t-110.5 105t-41 147.5h146
q0 -66 45.5 -109t115.5 -43t115.5 43t45.5 109h147q0 -81 -41 -147t-110.5 -105t-156.5 -39z" />
    <glyph glyph-name="uni040F" unicode="&#x40f;" horiz-adv-x="1468" 
d="M1310 0h-1152v1490h228v-1295h697v1295h227v-1490zM625 -320l-1 384h220l-2 -384h-217z" />
    <glyph glyph-name="uni0410" unicode="&#x410;" horiz-adv-x="1436" 
d="M43 0l533 1490h277l539 -1490h-245l-290 831q-34 103 -74.5 237.5t-94.5 325.5h50q-53 -192 -93 -328t-73 -235l-284 -831h-245zM334 391v190h768v-190h-768z" />
    <glyph glyph-name="uni0411" unicode="&#x411;" horiz-adv-x="1309" 
d="M158 0v1490h919v-194h-692v-426h335q151 0 261.5 -51t170.5 -145.5t60 -227.5q0 -136 -59.5 -236.5t-170 -155t-262.5 -54.5h-562zM385 190h318q138 0 213 67.5t75 188.5q0 114 -75 177t-213 63h-318v-496z" />
    <glyph glyph-name="uni0412" unicode="&#x412;" horiz-adv-x="1338" 
d="M158 0v1490h551q158 0 263 -51.5t158 -139.5t53 -200q0 -92 -33.5 -155.5t-90.5 -103t-128 -58.5v-12q77 -6 148 -49.5t116.5 -123t45.5 -192.5q0 -116 -55 -208t-167.5 -144.5t-286.5 -52.5h-574zM385 194h325q159 0 231.5 61.5t72.5 158.5q0 72 -35.5 129.5t-101.5 91
t-158 33.5h-334v-474zM385 846h307q77 0 137.5 28.5t95 81t34.5 123.5q0 95 -65.5 156.5t-196.5 61.5h-312v-451z" />
    <glyph glyph-name="uni0413" unicode="&#x413;" horiz-adv-x="1171" 
d="M1090 1490v-195h-704v-1295h-228v1490h932z" />
    <glyph glyph-name="uni0414" unicode="&#x414;" horiz-adv-x="1686" 
d="M81 -320v515h126q37 32 69.5 81.5t60 126t47.5 189t33 269.5l51 629h966v-1295h171v-515h-220v320h-1085v-320h-219zM467 195h741v1099h-532l-35 -433q-13 -154 -36 -284t-57 -227.5t-81 -154.5z" />
    <glyph glyph-name="uni0415" unicode="&#x415;" horiz-adv-x="1229" 
d="M158 0v1490h953v-196h-725v-443h673v-194h-673v-461h730v-196h-958z" />
    <glyph glyph-name="uni0416" unicode="&#x416;" horiz-adv-x="2017" 
d="M1122 1490v-1490h-226v1490h226zM47 0l475 776l-439 714h272l368 -652h577l363 652h272l-436 -715l471 -775h-263l-375 643h-645l-380 -643h-260z" />
    <glyph glyph-name="uni0417" unicode="&#x417;" horiz-adv-x="1274" 
d="M639 -21q-154 0 -272 55t-186 151.5t-71 223.5h228q4 -73 43 -126.5t105.5 -82t150.5 -28.5q89 0 157 31t107 87t39 129q0 75 -39 131t-112.5 88t-175.5 32h-126v185h126q84 0 148 29t99.5 81.5t35.5 122.5q0 71 -31.5 123t-89.5 81t-136 29q-76 0 -138.5 -27.5t-101 -79
t-40.5 -123.5h-218q3 124 69.5 218.5t179 148t252.5 53.5q143 0 250 -55.5t165.5 -148t58.5 -205.5q0 -123 -71 -210t-190 -118v-10q99 -15 169.5 -63.5t107.5 -122.5t37 -166q0 -125 -68.5 -223t-188.5 -154t-273 -56z" />
    <glyph glyph-name="uni0418" unicode="&#x418;" horiz-adv-x="1530" 
d="M1372 0h-230v797q0 43 2.5 115.5t7 167.5t9.5 206l35 -10q-65 -119 -112.5 -205t-85.5 -151t-75 -124l-504 -796h-261v1490h229v-857q0 -47 -1.5 -119t-5.5 -154t-12 -161l-27 11q38 83 76 156.5t73 133t60 100.5l563 890h259v-1490z" />
    <glyph glyph-name="uni0419" unicode="&#x419;" horiz-adv-x="1530" 
d="M1372 0h-230v797q0 43 2.5 115.5t7 167.5t9.5 206l35 -10q-65 -119 -112.5 -205t-85.5 -151t-75 -124l-504 -796h-261v1490h229v-857q0 -47 -1.5 -119t-5.5 -154t-12 -161l-27 11q38 83 76 156.5t73 133t60 100.5l563 890h259v-1490zM760 1640q-86 0 -155.5 38.5
t-110.5 105t-41 147.5h146q0 -66 45.5 -109t115.5 -43t115.5 43t45.5 109h147q0 -81 -41 -147t-110.5 -105t-156.5 -39z" />
    <glyph glyph-name="Kacyr" unicode="&#x41a;" horiz-adv-x="1392" 
d="M158 0v1490h228v-634h194l468 634h272l-549 -723l573 -767h-271l-487 662h-200v-662h-228z" />
    <glyph glyph-name="uni041B" unicode="&#x41b;" horiz-adv-x="1516" 
d="M81 0v195h40q72 0 113.5 31.5t65 115t35.5 240.5l75 908h948v-1490h-227v1295h-514l-62 -751q-13 -147 -40.5 -250.5t-76 -168.5t-123.5 -95t-181 -30h-53z" />
    <glyph glyph-name="uni041C" unicode="&#x41c;" horiz-adv-x="1850" 
d="M158 0v1490h331l328 -859q13 -37 31 -94.5t37 -123.5t36.5 -129t29.5 -112h-49q13 47 30 109.5t36 128.5t37 124.5t32 96.5l322 859h332v-1490h-225v804q0 47 1 110t3 133t3.5 141.5t2.5 137.5h20q-22 -74 -45.5 -149.5t-46 -146t-42.5 -129t-34 -97.5l-307 -804h-193
l-310 804q-15 38 -34.5 95.5t-42 127.5t-47 146.5t-48.5 152.5h24q1 -62 2.5 -132t3 -141t3 -135.5t1.5 -113.5v-804h-222z" />
    <glyph glyph-name="uni041D" unicode="&#x41d;" horiz-adv-x="1509" 
d="M158 0v1490h228v-630h738v630h227v-1490h-227v664h-738v-664h-228z" />
    <glyph glyph-name="uni041E" unicode="&#x41e;" horiz-adv-x="1562" 
d="M782 -21q-195 0 -347.5 93t-240.5 264.5t-88 407.5q0 237 88 409t240.5 265t347.5 93q194 0 346.5 -93t240 -265t87.5 -409q0 -236 -87.5 -407.5t-240 -264.5t-346.5 -93zM782 186q127 0 228.5 64t160.5 189t59 305q0 182 -59 307t-160.5 189t-228.5 64
q-128 0 -230 -64.5t-161.5 -189.5t-59.5 -306q0 -180 59.5 -304.5t161.5 -189t230 -64.5z" />
    <glyph glyph-name="uni041F" unicode="&#x41f;" horiz-adv-x="1509" 
d="M1351 1490v-1490h-227v1294h-738v-1294h-228v1490h1193z" />
    <glyph glyph-name="uni0420" unicode="&#x420;" horiz-adv-x="1304" 
d="M158 0v1490h538q170 0 285 -62t173.5 -170.5t58.5 -246.5q0 -139 -59 -247.5t-174.5 -171t-286.5 -62.5h-379v194h361q107 0 175.5 36.5t101.5 101.5t33 149t-33 148t-102 100t-176 36h-288v-1295h-228z" />
    <glyph glyph-name="uni0421" unicode="&#x421;" horiz-adv-x="1498" 
d="M782 -21q-196 0 -349 93t-240 264.5t-87 407.5q0 237 87.5 409t240.5 265t348 93q119 0 223 -34.5t186 -100t136 -159.5t73 -213h-229q-15 73 -50 128.5t-86.5 94t-115 58t-135.5 19.5q-132 0 -234.5 -66t-160.5 -191t-58 -303t58.5 -303t161 -190t233.5 -65
q71 0 134.5 19.5t115 57.5t87 94t50.5 128h229q-17 -112 -70 -204.5t-134 -160.5t-186 -104.5t-228 -36.5z" />
    <glyph glyph-name="uni0422" unicode="&#x422;" horiz-adv-x="1322" 
d="M81 1294v196h1159v-196h-465v-1294h-227v1294h-467z" />
    <glyph glyph-name="uni0423" unicode="&#x423;" horiz-adv-x="1314" 
d="M254 0v200h109q75 0 117.5 23t62.5 76l25 65l-525 1126h255l186 -420q52 -116 89.5 -218t68 -197t61.5 -189h-66q45 130 95 278t122 326l168 420h249l-520 -1230q-34 -79 -78.5 -137.5t-116 -90.5t-184.5 -32h-118z" />
    <glyph glyph-name="uni0424" unicode="&#x424;" horiz-adv-x="1694" 
d="M779 105q-208 0 -359 78t-232.5 221.5t-81.5 340.5t81.5 340.5t232.5 221.5t359 78h136q209 0 359.5 -78t232 -221.5t81.5 -340.5t-81.5 -340.5t-232 -221.5t-359.5 -78h-136zM787 305h120q151 0 253 50.5t154.5 148.5t52.5 241t-52.5 241.5t-154.5 148.5t-253 50h-120
q-150 0 -252.5 -50t-155 -148.5t-52.5 -241.5t52.5 -241t155 -148.5t252.5 -50.5zM734 -83v1656h225v-1656h-225z" />
    <glyph glyph-name="uni0425" unicode="&#x425;" horiz-adv-x="1418" 
d="M47 0l593 846v-169l-555 813h263l198 -295q44 -65 74.5 -115.5t57 -99t57.5 -106.5h-48q32 58 58.5 106t58 99t75.5 116l202 295h256l-551 -803v166l585 -853h-265l-244 357q-39 59 -67 103t-52.5 87t-54.5 98h43q-29 -53 -54 -96t-53.5 -88t-69.5 -104l-247 -357h-260z
" />
    <glyph glyph-name="uni0426" unicode="&#x426;" horiz-adv-x="1496" 
d="M1310 0h-1152v1490h228v-1295h697v1295h227v-1490zM1239 -320v320h-79v191h299l-5 -511h-215z" />
    <glyph glyph-name="uni0427" unicode="&#x427;" horiz-adv-x="1424" 
d="M651 547q-157 0 -271.5 50.5t-176.5 157.5t-62 275v460h228v-452q0 -154 86 -225t231 -71q119 0 222.5 38t191.5 101v-195q-95 -66 -204 -102.5t-245 -36.5zM1039 0v1490h227v-1490h-227z" />
    <glyph glyph-name="uni0428" unicode="&#x428;" horiz-adv-x="1967" 
d="M158 1490h228v-1295h486v1295h224v-1295h486v1295h227v-1490h-1651v1490z" />
    <glyph glyph-name="uni0429" unicode="&#x429;" horiz-adv-x="2004" 
d="M158 1490h228v-1295h486v1295h224v-1295h486v1295h227v-1490h-1651v1490zM1738 -320v320h-79v191h299l-5 -511h-215z" />
    <glyph glyph-name="uni042A" unicode="&#x42a;" horiz-adv-x="1667" 
d="M81 1299v191h483v-191h-483zM657 922h398q161 0 278 -55t180.5 -157t63.5 -242q0 -143 -63 -248.5t-179.5 -162.5t-277.5 -57h-558v1490h227v-1298h326q139 0 219.5 75t80.5 203q0 81 -36.5 139t-103.5 89.5t-160 31.5h-395v192z" />
    <glyph glyph-name="uni042B" unicode="&#x42b;" horiz-adv-x="1806" 
d="M316 922h398q161 0 278 -55t180.5 -157t63.5 -242q0 -143 -63 -248.5t-179.5 -162.5t-277.5 -57h-558v1490h228v-1298h326q138 0 218.5 75t80.5 203q0 81 -36.5 139t-103.5 89.5t-159 31.5h-396v192zM1648 1490v-1490h-228v1490h228z" />
    <glyph glyph-name="uni042C" unicode="&#x42c;" horiz-adv-x="1326" 
d="M316 922h398q161 0 278 -55t180.5 -157t63.5 -242q0 -143 -63 -248.5t-179.5 -162.5t-277.5 -57h-558v1490h228v-1298h326q138 0 218.5 75t80.5 203q0 81 -36.5 139t-103.5 89.5t-159 31.5h-396v192z" />
    <glyph glyph-name="uni042D" unicode="&#x42d;" horiz-adv-x="1498" 
d="M716 -21q-123 0 -228.5 37t-186.5 104.5t-133 160t-70 204.5h228q16 -73 51.5 -129t87 -94.5t116 -57.5t136.5 -19q132 0 233 65t158.5 189.5t57.5 304.5t-57 305t-158.5 190.5t-234.5 65.5q-72 0 -136 -19t-115.5 -57.5t-87 -94t-50.5 -130.5h-229q19 119 73 213
t136 159.5t186 100t223 34.5q196 0 348.5 -93t240 -265t87.5 -409q0 -235 -87.5 -407t-240 -265t-348.5 -93zM570 663v193h658v-193h-658z" />
    <glyph glyph-name="uni042E" unicode="&#x42e;" horiz-adv-x="2089" 
d="M703 845v-186h-429v186h429zM386 1490v-1490h-228v1490h228zM1309 -21q-195 0 -347.5 93t-240.5 264.5t-88 407.5q0 237 88 409t240.5 265t347.5 93q194 0 346.5 -93t240 -265t87.5 -409q0 -236 -87.5 -407.5t-240 -264.5t-346.5 -93zM1309 186q127 0 228.5 64t160.5 189
t59 305q0 182 -59 307t-160.5 189t-228.5 64q-128 0 -230 -64.5t-161 -189.5t-59 -306q0 -180 59 -304.5t161 -189t230 -64.5z" />
    <glyph glyph-name="uni042F" unicode="&#x42f;" horiz-adv-x="1323" 
d="M1164 0h-227v1295h-292q-106 0 -175 -33t-102.5 -94t-33.5 -145q0 -83 33.5 -143t102 -91.5t173.5 -31.5h391v-194h-406q-170 0 -286.5 57t-176 160.5t-59.5 242.5q0 138 58.5 243.5t173.5 164.5t285 59h541v-1490zM314 0h-257l366 673h251z" />
    <glyph glyph-name="uni0430" unicode="&#x430;" horiz-adv-x="1145" 
d="M456 -23q-106 0 -191 38.5t-134.5 113.5t-49.5 184q0 94 36.5 154.5t97.5 95.5t137.5 53t156.5 27q99 12 159.5 20t89 25t28.5 56v6q0 61 -24 103.5t-72 65.5t-118 23q-71 0 -123 -22.5t-84.5 -58t-45.5 -75.5l-207 41q31 101 98.5 165.5t160.5 96t199 31.5
q74 0 150.5 -18t141 -61t103.5 -117t39 -186v-738h-212v152h-9q-22 -43 -64 -83t-107 -66t-156 -26zM504 152q91 0 154 35t96 92t33 122v139q-11 -11 -43 -20t-73 -16.5t-81 -13t-70 -9.5q-60 -8 -111.5 -26.5t-82 -53t-30.5 -91.5q0 -52 26.5 -87t73.5 -53t108 -18z" />
    <glyph glyph-name="uni0431" unicode="&#x431;" horiz-adv-x="1208" 
d="M608 -24q-149 0 -266 68.5t-184.5 197.5t-67.5 308v36q0 159 19 283t62 215t114 152.5t173.5 95.5t242.5 43q68 5 102.5 18t47 36.5t12.5 60.5h186q-1 -93 -34 -153.5t-107.5 -93t-199.5 -41.5q-146 -11 -237.5 -48.5t-138.5 -125t-63 -250.5h4q31 74 91 135.5t142 99
t177 37.5q125 0 223 -67.5t155 -185t57 -267.5q0 -159 -65.5 -284.5t-180.5 -197.5t-264 -72zM610 158q91 0 156.5 43.5t100 124.5t34.5 194q0 112 -33.5 192t-97.5 123t-154 43q-92 0 -162 -45.5t-108.5 -127.5t-38.5 -191q0 -105 36.5 -185.5t104.5 -125.5t162 -45z" />
    <glyph glyph-name="uni0432" unicode="&#x432;" horiz-adv-x="1147" 
d="M141 0v1104h460q189 0 300.5 -78.5t111.5 -216.5q0 -95 -59.5 -152.5t-163.5 -77.5q74 -8 135 -43.5t98 -94t37 -140.5q0 -89 -46 -157t-132.5 -106t-208.5 -38h-532zM347 184h325q80 0 125 37.5t45 101.5q0 77 -45 119.5t-125 42.5h-325v-301zM347 644h258q92 0 143 38
t51 103q0 64 -52.5 99t-145.5 35h-254v-275z" />
    <glyph glyph-name="uni0433" unicode="&#x433;" horiz-adv-x="899" 
d="M857 1104v-190h-497v-914h-219v1104h716z" />
    <glyph glyph-name="uni0434" unicode="&#x434;" horiz-adv-x="1279" 
d="M36 -323v513h90q35 32 59.5 75t41.5 103t29 140t21 184l34 412h761v-914h171v-513h-213v323h-778v-323h-216zM361 190h499v726h-357l-20 -224q-14 -174 -40.5 -299.5t-81.5 -202.5z" />
    <glyph glyph-name="uni0435" unicode="&#x435;" horiz-adv-x="1183" 
d="M617 -23q-164 0 -282 71t-181.5 199t-63.5 299q0 169 63 298.5t178 202.5t268 73q100 0 189.5 -33t159 -101.5t109.5 -174t40 -250.5v-74h-891v164h778l-100 -53q0 101 -32.5 178.5t-96 120.5t-155.5 43t-157.5 -44t-100.5 -117t-35 -163v-107q0 -111 38.5 -190
t109 -120.5t164.5 -41.5q63 0 114 18.5t87 54.5t54 88l206 -38q-25 -90 -89 -158.5t-159.5 -106.5t-214.5 -38z" />
    <glyph glyph-name="uni0436" unicode="&#x436;" horiz-adv-x="1679" 
d="M50 0l432 565l-427 539h254l346 -458h76v458h218v-458h75l344 458h256l-426 -539l431 -565h-260l-347 458h-73v-458h-218v458h-72l-349 -458h-260z" />
    <glyph glyph-name="uni0437" unicode="&#x437;" horiz-adv-x="1017" 
d="M507 -14q-123 0 -218 40.5t-149.5 111.5t-56.5 163h217q3 -60 62 -98.5t143 -38.5q92 0 149 45.5t57 114.5q0 75 -61 120t-166 45h-79v149h79q88 0 145 42.5t57 114.5q0 67 -48.5 109.5t-127.5 42.5t-136 -38.5t-59 -104.5h-209q2 93 55.5 164t145 111t205.5 40
q116 0 202 -41t133.5 -111t47.5 -156q0 -97 -61.5 -159t-154.5 -78v-6q127 -17 192.5 -87.5t65.5 -172.5q0 -93 -55 -166t-152 -114.5t-223 -41.5z" />
    <glyph glyph-name="uni0438" unicode="&#x438;" horiz-adv-x="1217" 
d="M1076 0h-218v752h-10l-508 -752h-199v1104h218v-753h10l508 753h199v-1104z" />
    <glyph glyph-name="uni0439" unicode="&#x439;" horiz-adv-x="1217" 
d="M1076 0h-218v752h-10l-508 -752h-199v1104h218v-753h10l508 753h199v-1104zM608 1254q-86 0 -155.5 38.5t-110.5 105t-41 147.5h146q0 -66 45.5 -109t115.5 -43t115.5 43t45.5 109h147q0 -81 -41 -147t-110.5 -105t-156.5 -39z" />
    <glyph glyph-name="uni043A" unicode="&#x43a;" horiz-adv-x="1123" 
d="M141 0v1104h219v-467h103l372 467h268l-431 -538l436 -566h-269l-337 447h-142v-447h-219z" />
    <glyph glyph-name="uni043B" unicode="&#x43b;" horiz-adv-x="1189" 
d="M19 0v189h39q47 0 78.5 18t51.5 63.5t31.5 127.5t16.5 210l20 496h791v-1104h-218v915h-365l-17 -366q-8 -188 -45 -310t-111.5 -180.5t-196.5 -58.5h-75z" />
    <glyph glyph-name="uni043C" unicode="&#x43c;" horiz-adv-x="1588" 
d="M141 0v1104h330l225 -561q21 -54 38 -107.5t30.5 -106.5t25.5 -103t22 -97h-35q10 45 21.5 95t25.5 103t30.5 107.5t37.5 108.5l222 561h332v-1104h-216v525q0 58 1 118t2 121.5t2 123.5t2 123h23q-23 -88 -46.5 -167.5t-50.5 -156.5t-61 -161l-215 -526h-188l-217 526
q-35 84 -62 161.5t-51 156.5t-47 167h27q0 -55 1.5 -116t3 -123.5t2 -124.5t0.5 -122v-525h-215z" />
    <glyph glyph-name="uni043D" unicode="&#x43d;" horiz-adv-x="1213" 
d="M907 662v-189h-604v189h604zM360 1104v-1104h-219v1104h219zM1071 1104v-1104h-218v1104h218z" />
    <glyph glyph-name="uni043E" unicode="&#x43e;" horiz-adv-x="1217" 
d="M608 -23q-156 0 -272.5 71.5t-181 200t-64.5 298.5q0 172 64.5 301t181 200.5t272.5 71.5q157 0 273.5 -71.5t181 -200.5t64.5 -301q0 -170 -64.5 -298.5t-181 -200t-273.5 -71.5zM608 162q99 0 165.5 51.5t99.5 139t33 194.5q0 109 -33 196.5t-99.5 139.5t-165.5 52
t-164.5 -52t-98.5 -139.5t-33 -196.5q0 -107 33 -194.5t98.5 -139t164.5 -51.5z" />
    <glyph glyph-name="uni043F" unicode="&#x43f;" horiz-adv-x="1206" 
d="M1065 1104v-1104h-218v914h-487v-914h-219v1104h924z" />
    <glyph glyph-name="uni0440" unicode="&#x440;" horiz-adv-x="1247" 
d="M141 -418v1522h213v-175h15q23 40 61.5 84t102 75.5t159.5 31.5q136 0 240.5 -68.5t164.5 -196t60 -305.5q0 -177 -59.5 -305t-164 -197.5t-241.5 -69.5q-94 0 -157 31.5t-102.5 76t-62.5 85.5h-10v-589h-219zM645 164q93 0 158 50t98.5 137.5t33.5 199.5
q0 113 -33.5 199t-98 135t-158.5 49t-159 -48t-98.5 -133.5t-33.5 -201.5q0 -115 34 -202t99.5 -136t157.5 -49z" />
    <glyph glyph-name="uni0441" unicode="&#x441;" horiz-adv-x="1162" 
d="M607 -23q-155 0 -271.5 71.5t-181 200t-64.5 298.5q0 172 64.5 301t181 200.5t271.5 71.5q89 0 166 -23.5t138.5 -68t103 -108t59.5 -142.5l-209 -39q-10 44 -32.5 80t-55 62t-75 40t-93.5 14q-99 0 -165 -51.5t-99 -139t-33 -197.5q0 -108 33 -195t98.5 -138.5
t165.5 -51.5q52 0 95 14.5t75.5 41t55 64t33.5 82.5l208 -38q-17 -81 -59 -145t-103.5 -110t-139 -70t-167.5 -24z" />
    <glyph glyph-name="uni0442" unicode="&#x442;" horiz-adv-x="981" 
d="M382 0v919h-363v185h943v-185h-362v-919h-218z" />
    <glyph glyph-name="uni0443" unicode="&#x443;" horiz-adv-x="1156" 
d="M133 -406l42 180l45 -6q51 -11 92 -3t71.5 41.5t49.5 99.5l29 92l-421 1106h235l219 -623q36 -100 61 -199.5t53 -198.5h-66q28 99 55 199t62 199l222 623h232l-484 -1266q-33 -86 -81.5 -144.5t-114.5 -88t-152 -29.5q-47 0 -86.5 6t-62.5 12z" />
    <glyph glyph-name="uni0444" unicode="&#x444;" horiz-adv-x="1451" 
d="M616 -23q-156 0 -274.5 71.5t-185 200t-66.5 298.5q0 172 66.5 301t185 200.5t274.5 71.5h219q156 0 274.5 -71.5t185 -200.5t66.5 -301q0 -170 -66.5 -298.5t-185 -200t-274.5 -71.5h-219zM616 151h219q101 0 170 54t105 144t36 198q0 110 -36 201.5t-105 147t-170 55.5
h-219q-100 0 -169 -55.5t-105 -147t-36 -201.5q0 -108 36 -198t105 -144t169 -54zM616 -418v1908h219v-1908h-219z" />
    <glyph glyph-name="uni0445" unicode="&#x445;" horiz-adv-x="1123" 
d="M50 0l438 647l-1 -161l-414 618h246l127 -200q49 -80 88.5 -153.5t80.5 -143.5h-98q42 70 79 143.5t88 153.5l130 200h242l-418 -623v158l435 -639h-245l-150 232q-50 79 -88.5 150.5t-79.5 139.5h98q-40 -68 -76.5 -139.5t-86.5 -150.5l-151 -232h-244z" />
    <glyph glyph-name="uni0446" unicode="&#x446;" horiz-adv-x="1251" 
d="M141 0v1104h219v-914h486v914h219v-1104h-924zM994 -320v320h-79v191h299l-5 -511h-215z" />
    <glyph glyph-name="uni0447" unicode="&#x447;" horiz-adv-x="1184" 
d="M593 335q-211 0 -331.5 102.5t-120.5 309.5v357h219v-356q0 -118 64 -171t169 -53q98 0 182 19t171 50v-190q-51 -19 -107 -35t-117 -24.5t-129 -8.5zM825 0v1104h218v-1104h-218z" />
    <glyph glyph-name="uni0448" unicode="&#x448;" horiz-adv-x="1694" 
d="M141 1104h219v-914h380v914h214v-914h381v914h218v-1104h-1412v1104z" />
    <glyph glyph-name="uni0449" unicode="&#x449;" horiz-adv-x="1732" 
d="M141 1104h219v-914h380v914h214v-914h381v914h218v-1104h-1412v1104zM1482 -320v320h-79v191h299l-5 -511h-215z" />
    <glyph glyph-name="uni044A" unicode="&#x44a;" horiz-adv-x="1329" 
d="M19 931v173h393v-173h-393zM489 727h325q134 0 229 -46t145.5 -127t50.5 -188q0 -105 -50.5 -188t-145.5 -130.5t-229 -47.5h-490v1104h218v-915h271q93 0 151 47.5t58 124.5q0 80 -58 128.5t-151 48.5h-324v189z" />
    <glyph glyph-name="uni044B" unicode="&#x44b;" horiz-adv-x="1529" 
d="M307 727h325q134 0 229 -46t145.5 -127t50.5 -188q0 -105 -50.5 -188t-145.5 -130.5t-229 -47.5h-491v1104h219v-915h271q93 0 151 47.5t58 124.5q0 80 -58 128.5t-151 48.5h-324v189zM1169 0v1104h219v-1104h-219z" />
    <glyph glyph-name="uni044C" unicode="&#x44c;" horiz-adv-x="1147" 
d="M307 727h325q134 0 229 -46t145.5 -127t50.5 -188q0 -105 -50.5 -188t-145.5 -130.5t-229 -47.5h-491v1104h219v-915h271q93 0 151 47.5t58 124.5q0 80 -58 128.5t-151 48.5h-324v189z" />
    <glyph glyph-name="uni044D" unicode="&#x44d;" horiz-adv-x="1162" 
d="M555 -23q-89 0 -167 24t-139.5 70t-103 110t-59.5 145l205 38q11 -46 33.5 -83.5t56 -64t77.5 -41t97 -14.5q101 0 167.5 51.5t99.5 139t33 195.5q0 109 -33 197t-99.5 140t-167.5 52q-52 0 -95.5 -14t-77 -40t-56 -62t-32.5 -79l-205 37q18 79 59.5 142.5t102.5 108
t138 68t166 23.5q156 0 272.5 -71.5t180.5 -200.5t64 -301q0 -170 -64 -298.5t-180.5 -200t-272.5 -71.5zM882 470h-473v168h473v-168z" />
    <glyph glyph-name="uni044E" unicode="&#x44e;" horiz-adv-x="1719" 
d="M141 0v1104h212v-1104h-212zM299 459v186h385v-186h-385zM1110 -23q-156 0 -272.5 71.5t-181 200t-64.5 298.5q0 172 64.5 301t181 200.5t272.5 71.5q157 0 273.5 -71.5t181 -200.5t64.5 -301q0 -170 -64.5 -298.5t-181 -200t-273.5 -71.5zM1110 162q100 0 166 51.5
t99 139t33 194.5q0 109 -33 196.5t-99 139.5t-166 52q-98 0 -164 -52t-99 -139.5t-33 -196.5q0 -107 33 -194.5t99 -139t164 -51.5z" />
    <glyph glyph-name="uni044F" unicode="&#x44f;" horiz-adv-x="1138" 
d="M997 0h-213v923h-238q-128 0 -186 -45.5t-58 -132.5q0 -85 58.5 -130t186.5 -45h327v-170h-346q-218 0 -330 94t-112 252q0 162 111 260t327 98h473v-1104zM282 0h-245l314 500h238z" />
    <glyph glyph-name="uni0450" unicode="&#x450;" horiz-adv-x="1183" 
d="M617 -23q-164 0 -282 71t-181.5 199t-63.5 299q0 169 63 298.5t178 202.5t268 73q100 0 189.5 -33t159 -101.5t109.5 -174t40 -250.5v-74h-891v164h778l-100 -53q0 101 -32.5 178.5t-96 120.5t-155.5 43t-157.5 -44t-100.5 -117t-35 -163v-107q0 -111 38.5 -190
t109 -120.5t164.5 -41.5q63 0 114 18.5t87 54.5t54 88l206 -38q-25 -90 -89 -158.5t-159.5 -106.5t-214.5 -38zM516 1246l-201 301h226l142 -301h-167z" />
    <glyph glyph-name="uni0451" unicode="&#x451;" horiz-adv-x="1183" 
d="M617 -23q-164 0 -282 71t-181.5 199t-63.5 299q0 169 63 298.5t178 202.5t268 73q100 0 189.5 -33t159 -101.5t109.5 -174t40 -250.5v-74h-891v164h778l-100 -53q0 101 -32.5 178.5t-96 120.5t-155.5 43t-157.5 -44t-100.5 -117t-35 -163v-107q0 -111 38.5 -190
t109 -120.5t164.5 -41.5q63 0 114 18.5t87 54.5t54 88l206 -38q-25 -90 -89 -158.5t-159.5 -106.5t-214.5 -38zM811 1280q-54 0 -92 37.5t-38 90.5t38 90t92 37q53 0 91 -37t38 -90t-38 -90.5t-91 -37.5zM383 1280q-54 0 -92 37.5t-38 90.5t38 90t92 37q53 0 91 -37t38 -90
t-38 -90.5t-91 -37.5z" />
    <glyph glyph-name="uni0452" unicode="&#x452;" horiz-adv-x="1213" 
d="M760 -427q-37 0 -69 2.5t-53 6.5v174q17 -2 39 -3t38 -1q75 0 106.5 23t31.5 74v151h218v-152q0 -134 -78.5 -204.5t-232.5 -70.5zM360 650v-650h-219v1490h217v-657h-34q49 148 142 217.5t225 69.5q113 0 198.5 -48t134 -141.5t48.5 -231.5v-699h-219v672
q0 122 -62.5 189.5t-171.5 67.5q-74 0 -133 -32t-92.5 -94t-33.5 -153zM-4 1218v153h673v-153h-673z" />
    <glyph glyph-name="uni0453" unicode="&#x453;" horiz-adv-x="899" 
d="M857 1104v-190h-497v-914h-219v1104h716zM409 1246l142 301h226l-201 -301h-167z" />
    <glyph glyph-name="uni0454" unicode="&#x454;" horiz-adv-x="1162" 
d="M607 -23q-155 0 -271.5 71.5t-181 200t-64.5 298.5q0 172 64.5 301t181 200.5t271.5 71.5q89 0 166 -23.5t138.5 -68t103 -108t59.5 -142.5l-205 -37q-11 43 -33.5 79t-55.5 62t-76.5 40t-96.5 14q-100 0 -167 -52t-100 -140t-33 -197q0 -108 33 -195.5t99.5 -139
t167.5 -51.5q54 0 97.5 14.5t77 41t56 64t33.5 83.5l205 -38q-17 -81 -59 -145t-103.5 -110t-139 -70t-167.5 -24zM281 470v168h472v-168h-472z" />
    <glyph glyph-name="uni0455" unicode="&#x455;" horiz-adv-x="1081" 
d="M541 -24q-122 0 -217 36t-155 106.5t-78 172.5l208 34q20 -87 81.5 -129.5t160.5 -42.5q105 0 167 43.5t62 105.5q0 54 -39.5 88.5t-116.5 51.5l-186 41q-154 35 -230 111.5t-76 196.5q0 99 54.5 173t150.5 115t221 41q121 0 208.5 -36.5t141 -102.5t72.5 -154l-199 -34
q-16 63 -69 109t-151 46q-91 0 -150.5 -41t-59.5 -105q0 -55 41 -89t128 -54l179 -40q156 -35 230.5 -109t74.5 -191q0 -101 -58 -178.5t-160 -121t-235 -43.5z" />
    <glyph glyph-name="uni0456" unicode="&#x456;" horiz-adv-x="501" 
d="M141 0v1104h219v-1104h-219zM251 1277q-57 0 -97 38.5t-40 92.5q0 55 40 92.5t97 37.5t97 -37.5t40 -92.5q0 -54 -40 -92.5t-97 -38.5z" />
    <glyph glyph-name="uni0457" unicode="&#x457;" horiz-adv-x="501" 
d="M141 0v1104h219v-1104h-219zM466 1280q-54 0 -92 37.5t-38 90.5t38 90t92 37q53 0 91 -37t38 -90t-38 -90.5t-91 -37.5zM38 1280q-54 0 -92 37.5t-38 90.5t38 90t92 37q53 0 91 -37t38 -90t-38 -90.5t-91 -37.5z" />
    <glyph glyph-name="uni0458" unicode="&#x458;" horiz-adv-x="501" 
d="M141 1104h219v-1189q0 -107 -40 -181.5t-117 -113t-189 -38.5h-54v187h41q74 0 107 39t33 115v1181zM251 1277q-57 0 -97 38.5t-40 92.5q0 55 40 92.5t97 37.5t97 -37.5t40 -92.5q0 -54 -40 -92.5t-97 -38.5z" />
    <glyph glyph-name="uni0459" unicode="&#x459;" horiz-adv-x="1891" 
d="M41 0v189h39q47 0 78.5 18t51.5 63.5t31.5 127.5t16.5 210l20 496h791v-1104h-218v915h-365l-17 -366q-8 -188 -45 -310t-111.5 -180.5t-196.5 -58.5h-75zM1051 727h325q134 0 229 -46t145.5 -127t50.5 -188q0 -105 -50.5 -188t-145.5 -130.5t-229 -47.5h-491v1104h219
v-915h271q93 0 151 47.5t58 124.5q0 80 -58 128.5t-151 48.5h-324v189z" />
    <glyph glyph-name="uni045A" unicode="&#x45a;" horiz-adv-x="1841" 
d="M1024 0v189h315q95 0 145.5 37t50.5 106q0 72 -50.5 110t-145.5 38h-332v188h333q191 0 301 -89t110 -243q0 -155 -110 -245.5t-301 -90.5h-316zM141 0v1104h219v-1104h-219zM303 470v191h602v-191h-602zM850 0v1104h218v-1104h-218z" />
    <glyph glyph-name="uni045B" unicode="&#x45b;" horiz-adv-x="1213" 
d="M360 650v-650h-219v1490h217v-657h-34q49 148 142 217.5t225 69.5q113 0 198.5 -48t134 -141.5t48.5 -231.5v-699h-219v672q0 122 -62.5 189.5t-171.5 67.5q-74 0 -133 -32t-92.5 -94t-33.5 -153zM-4 1218v154h673v-154h-673z" />
    <glyph glyph-name="uni045C" unicode="&#x45c;" horiz-adv-x="1123" 
d="M141 0v1104h219v-467h103l372 467h268l-431 -538l436 -566h-269l-337 447h-142v-447h-219zM473 1246l142 301h226l-201 -301h-167z" />
    <glyph glyph-name="uni045D" unicode="&#x45d;" horiz-adv-x="1217" 
d="M1076 0h-218v752h-10l-508 -752h-199v1104h218v-753h10l508 753h199v-1104zM529 1246l-201 301h226l142 -301h-167z" />
    <glyph glyph-name="uni045E" unicode="&#x45e;" horiz-adv-x="1156" 
d="M133 -406l42 180l45 -6q51 -11 92 -3t71.5 41.5t49.5 99.5l29 92l-421 1106h235l219 -623q36 -100 61 -199.5t53 -198.5h-66q28 99 55 199t62 199l222 623h232l-484 -1266q-33 -86 -81.5 -144.5t-114.5 -88t-152 -29.5q-47 0 -86.5 6t-62.5 12zM577 1254
q-86 0 -155.5 38.5t-110.5 105t-41 147.5h146q0 -66 45.5 -109t115.5 -43t115.5 43t45.5 109h147q0 -81 -41 -147t-110.5 -105t-156.5 -39z" />
    <glyph glyph-name="uni045F" unicode="&#x45f;" horiz-adv-x="1206" 
d="M141 0v1104h219v-914h486v914h219v-1104h-924zM494 -320l-1 384h220l-2 -384h-217z" />
    <glyph glyph-name="uni0460" unicode="&#x460;" horiz-adv-x="1874" 
d="M158 424v1066h227v-1066q0 -124 63 -186t153 -62q101 0 162.5 62t61.5 186v1066h226v-1066q0 -124 58.5 -186t153.5 -62q96 0 161 62t65 186v1066h227v-1066q0 -147 -60.5 -246t-162.5 -148.5t-230 -49.5q-105 0 -187.5 37t-137.5 110q-57 -74 -144 -110.5t-193 -36.5
q-128 0 -228 49.5t-157.5 148.5t-57.5 246z" />
    <glyph glyph-name="uni0461" unicode="&#x461;" horiz-adv-x="1686" 
d="M511 -20q-110 0 -193.5 49t-130 137t-46.5 203v735h218v-732q0 -93 50.5 -148t138.5 -55q89 0 139 55t50 148v732h216v-732q0 -93 50 -148t137 -55q88 0 137.5 55t49.5 148v732h218v-735q0 -115 -46.5 -203t-129 -137t-192.5 -49q-115 0 -196.5 49.5t-125.5 137.5
t-47 202h72q-2 -114 -46 -201.5t-125.5 -137.5t-197.5 -50z" />
    <glyph glyph-name="uni0462" unicode="&#x462;" horiz-adv-x="1418" 
d="M408 922h398q161 0 278 -55t180.5 -157t63.5 -242q0 -143 -63 -248.5t-179.5 -162.5t-277.5 -57h-558v1490h228v-1298h326q138 0 218.5 75t80.5 203q0 81 -36.5 139t-103.5 89.5t-159 31.5h-396v192zM22 1102v172h830v-172h-830z" />
    <glyph glyph-name="uni0463" unicode="&#x463;" horiz-adv-x="1263" 
d="M19 943v161h808v-161h-808zM258 1104v386h212v-386h-212zM424 727h325q134 0 228.5 -46t145 -127t50.5 -188q0 -105 -50.5 -188t-145 -130.5t-228.5 -47.5h-491v1104h218v-915h271q94 0 152 47.5t58 124.5q0 80 -58 128.5t-152 48.5h-323v189z" />
    <glyph glyph-name="uni0464" unicode="&#x464;" horiz-adv-x="1975" 
d="M1357 847v-190h-1023v190h1023zM1877 1024l-223 -15q-16 72 -52.5 127t-88.5 92t-114.5 56t-131.5 19q-125 0 -225.5 -62.5t-158.5 -187t-58 -309.5t58 -308.5t158.5 -186t225.5 -62.5q68 0 130.5 18.5t114 55.5t88 91.5t52.5 125.5l225 -14q-24 -113 -78.5 -203
t-135.5 -152.5t-181.5 -95.5t-214.5 -33q-192 0 -342.5 92t-236.5 263t-86 409t86 409.5t236.5 264t342.5 92.5q112 0 212.5 -32.5t181.5 -95t136.5 -153t79.5 -205.5zM385 1490v-1490h-227v1490h227z" />
    <glyph glyph-name="uni0465" unicode="&#x465;" horiz-adv-x="1617" 
d="M1175 637v-170h-880v170h880zM359 1104v-1104h-218v1104h218zM1070 -23q-159 0 -275.5 73t-179.5 201.5t-63 295.5q0 169 64.5 298t180.5 202t272 73q127 0 227 -47t162 -132.5t74 -199.5h-215q-10 53 -42 97t-83 70.5t-122 26.5q-90 0 -157.5 -47t-104.5 -133t-37 -204
q0 -119 37 -206.5t104 -135t158 -47.5q97 0 162 52t85 143h215q-12 -110 -71.5 -196t-159 -135t-231.5 -49z" />
    <glyph glyph-name="uni0466" unicode="&#x466;" horiz-adv-x="1436" 
d="M820 552v-552h-206v552h206zM43 0l533 1490h277l539 -1490h-245l-290 831q-34 103 -74.5 237.5t-94.5 325.5h50q-53 -192 -93 -328t-73 -235l-284 -831h-245zM334 465v174h768v-174h-768z" />
    <glyph glyph-name="uni0467" unicode="&#x467;" horiz-adv-x="1172" 
d="M903 0l-282 757l-101 347h176l434 -1104h-227zM497 0v228q0 69 -29 102t-98 35v167q65 0 123.5 -25.5t92.5 -96.5q35 71 93 96.5t123 25.5v-167q-68 -2 -98 -34.5t-30 -102.5v-228h-177zM41 0l432 1104h175l-104 -347l-278 -757h-225z" />
    <glyph glyph-name="uni0468" unicode="&#x468;" horiz-adv-x="1944" 
d="M386 1490v-1490h-228v1490h228zM1329 552v-552h-205v552h205zM552 0l534 1490h276l539 -1490h-245l-289 831q-33 99 -74 235.5t-96 327.5h50q-53 -192 -93.5 -328t-72.5 -235l-284 -831h-245zM297 465v174h1314v-174h-1314z" />
    <glyph glyph-name="uni0469" unicode="&#x469;" horiz-adv-x="1617" 
d="M1348 0l-282 757l-101 347h176l435 -1104h-228zM141 0v1104h220v-1104h-220zM257 367v166h523v-166h-523zM942 0v228q0 69 -29 102t-98 35v167q65 0 123.5 -25.5t92.5 -96.5q35 71 93 96.5t123 25.5v-167q-68 -2 -97.5 -35t-29.5 -102v-228h-178zM486 0l432 1104h176
l-104 -347l-279 -757h-225z" />
    <glyph glyph-name="uni046A" unicode="&#x46a;" horiz-adv-x="1753" 
d="M141 0v352q0 146 55 250t164 159.5t270 55.5h493q161 0 269.5 -55.5t163.5 -159.5t55 -250v-352h-226v357q0 130 -69.5 200.5t-196.5 70.5h-486q-127 0 -196.5 -70.5t-69.5 -200.5v-357h-226zM767 0v753h217v-753h-217zM789 602l-542 888h249l444 -788l-30 -100h-121z
M840 602l-20 108l440 780h244l-542 -888h-122zM413 1300v190h915v-190h-915z" />
    <glyph glyph-name="uni046B" unicode="&#x46b;" horiz-adv-x="1455" 
d="M99 0v167q0 232 124 335.5t342 103.5h327q216 0 340 -103.5t124 -335.5v-167h-213v168q0 93 -30.5 148.5t-86.5 80t-134 24.5h-327q-77 0 -133.5 -23.5t-88 -79t-31.5 -150.5v-168h-213zM623 0v553h212v-553h-212zM614 431l-408 673h247l336 -618l-24 -55h-151zM705 431
l-19 61l331 612h249l-414 -673h-147zM376 932v172h753v-172h-753z" />
    <glyph glyph-name="uni046C" unicode="&#x46c;" horiz-adv-x="2358" 
d="M748 0v352q0 146 54.5 250t163.5 159.5t270 55.5h493q161 0 269.5 -55.5t163.5 -159.5t55 -250v-352h-226v357q0 130 -69.5 200.5t-196.5 70.5h-486q-127 0 -196 -70.5t-69 -200.5v-357h-226zM158 0v1490h227v-1490h-227zM335 628v189h945v-189h-945zM1373 0v753h218
v-753h-218zM1395 602l-541 888h249l442 -788l-29 -100h-121zM1446 602l-20 108l440 780h244l-541 -888h-123zM1021 1300v190h912v-190h-912z" />
    <glyph glyph-name="uni046D" unicode="&#x46d;" horiz-adv-x="1993" 
d="M637 0v142q0 113 38.5 190t100 126t130.5 75t131.5 36t102.5 10l291 25q234 2 349 -110t115 -327v-167h-213v168q0 93 -30.5 148.5t-86.5 80t-134 24.5h-327q-77 0 -134 -23.5t-88 -79t-31 -150.5v-168h-214zM141 0v1104h218v-1104h-218zM256 421v184h879v-181zM1161 0
v553h212v-553h-212zM1153 431l-408 673h247l335 -618l-24 -55h-150zM1244 431l-19 61l331 612h249l-415 -673h-146zM915 932v172h753v-172h-753z" />
    <glyph glyph-name="uni046E" unicode="&#x46e;" horiz-adv-x="1119" 
d="M190 1490h289q151 0 263 -45.5t174.5 -131t62.5 -204.5t-62 -207.5t-175.5 -136.5t-268.5 -48h-151v139h147q145 0 209 64.5t64 160.5q0 102 -64 159.5t-199 57.5h-289v192zM322 797h148q256 0 398.5 -99t142.5 -291q0 -134 -63 -229.5t-174 -146.5t-256 -51h-55
q-69 0 -100 -30t-31 -76q0 -48 25.5 -81.5t62 -56t67.5 -36.5l-84 -148q-77 26 -143.5 73t-106.5 116t-40 160q0 137 94 204t255 67h49q83 0 141.5 30.5t89.5 86t31 130.5q0 122 -79 183t-227 61h-145v134zM447 1911l169 -162l170 162h179v-11l-284 -276h-130l-283 276v11
h179z" />
    <glyph glyph-name="uni046F" unicode="&#x46f;" horiz-adv-x="1066" 
d="M454 -418q-112 0 -197 36.5t-132.5 103.5t-47.5 158t46.5 157.5t130.5 103.5t194 37h71q94 0 144 36t50 102q0 67 -50 103.5t-144 36.5h-253v185h234q93 0 142.5 36.5t49.5 104.5q0 66 -49.5 101.5t-142.5 35.5h-359v185h359q122 0 212.5 -35.5t141 -103t50.5 -162.5
q0 -97 -54 -157t-145.5 -86.5t-205.5 -26.5h-233v64h249q117 0 209.5 -33t146.5 -97.5t54 -160.5t-50.5 -166.5t-142 -109t-216.5 -38.5h-68q-77 0 -118.5 -29t-41.5 -83t43 -83.5t123 -29.5h45v-185h-45zM370 1547l143 -173l141 173h203v-7l-250 -278h-190l-249 278v7h202z
" />
    <glyph glyph-name="uni0470" unicode="&#x470;" horiz-adv-x="1797" 
d="M1417 1490h222v-398q0 -171 -44 -297.5t-129 -210.5t-208 -125.5t-282 -41.5h-155q-158 0 -281 41.5t-208 125.5t-129.5 210.5t-44.5 297.5v398h222v-387q0 -180 43 -288.5t139 -157.5t255 -49h163q160 0 256 49t138.5 157.5t42.5 288.5v387zM789 1490h219v-1490h-219
v1490z" />
    <glyph glyph-name="uni0471" unicode="&#x471;" horiz-adv-x="1614" 
d="M698 -20q-177 0 -301.5 68t-190 198.5t-65.5 317.5v540h217v-538q0 -135 39 -223.5t115 -132t186 -43.5h217q112 0 187.5 43.5t114.5 132t39 223.5v538h217v-540q0 -187 -65.5 -317.5t-190 -198.5t-302.5 -68h-217zM698 -418v1793h217v-1793h-217z" />
    <glyph glyph-name="uni0472" unicode="&#x472;" horiz-adv-x="1562" 
d="M1282 831v-173h-1004v173h1004zM782 -21q-195 0 -347.5 93t-240.5 264.5t-88 407.5q0 237 88 409t240.5 265t347.5 93q194 0 346.5 -93t240 -265t87.5 -409q0 -236 -87.5 -407.5t-240 -264.5t-346.5 -93zM782 186q127 0 228.5 64t160.5 189t59 305q0 182 -59 307
t-160.5 189t-228.5 64q-128 0 -230 -64.5t-161.5 -189.5t-59.5 -306q0 -180 59.5 -304.5t161.5 -189t230 -64.5z" />
    <glyph glyph-name="uni0473" unicode="&#x473;" horiz-adv-x="1217" 
d="M608 -23q-156 0 -272.5 71.5t-181 200t-64.5 298.5q0 172 64.5 301t181 200.5t272.5 71.5q157 0 273.5 -71.5t181 -200.5t64.5 -301q0 -170 -64.5 -298.5t-181 -200t-273.5 -71.5zM608 162q99 0 165.5 51.5t99.5 139t33 194.5q0 109 -33 196.5t-99.5 139.5t-165.5 52
t-164.5 -52t-98.5 -139.5t-33 -196.5q0 -107 33 -194.5t98.5 -139t164.5 -51.5zM278 414l-81 63q63 80 125 133.5t140 53.5q63 0 115.5 -21.5t96 -43.5t80.5 -22q52 0 94.5 24t85.5 89l84 -57q-61 -90 -122 -140t-145 -50q-64 0 -115.5 21.5t-94.5 43t-82 21.5
q-46 0 -90.5 -28.5t-90.5 -86.5z" />
    <glyph glyph-name="uni0474" unicode="&#x474;" horiz-adv-x="1464" 
d="M1035 1187q52 155 123.5 237t202.5 82h59v-205h-26q-58 0 -81.5 -36t-48.5 -105l-418 -1160h-266l-537 1490h246l418 -1222h13z" />
    <glyph glyph-name="uni0475" unicode="&#x475;" horiz-adv-x="1216" 
d="M444 0l-403 1104h235l283 -847h10l212 631q36 111 110 163.5t187 52.5h97v-183h-86q-71 0 -96 -67l-313 -854h-236z" />
    <glyph glyph-name="uni0476" unicode="&#x476;" horiz-adv-x="1464" 
d="M1035 1187q52 155 123.5 237t202.5 82h59v-205h-26q-58 0 -81.5 -36t-48.5 -105l-418 -1160h-266l-537 1490h246l418 -1222h13zM814 1632l-170 301h221l116 -301h-167zM484 1632l-228 301h228l170 -301h-170z" />
    <glyph glyph-name="uni0477" unicode="&#x477;" horiz-adv-x="1216" 
d="M444 0l-403 1104h235l283 -847h10l212 631q36 111 110 163.5t187 52.5h97v-183h-86q-71 0 -96 -67l-313 -854h-236zM646 1246l-170 301h221l116 -301h-167zM316 1246l-228 301h228l170 -301h-170z" />
    <glyph glyph-name="uni0478" unicode="&#x478;" horiz-adv-x="2717" 
d="M782 -21q-195 0 -347.5 93t-240.5 264.5t-88 407.5q0 237 88 409t240.5 265t347.5 93q194 0 346.5 -93t240 -265t87.5 -409q0 -236 -87.5 -407.5t-240 -264.5t-346.5 -93zM782 186q127 0 228.5 64t160.5 189t59 305q0 182 -59 307t-160.5 189t-228.5 64
q-128 0 -230 -64.5t-161.5 -189.5t-59.5 -306q0 -180 59.5 -304.5t161.5 -189t230 -64.5zM1695 -406l42 180l45 -6q51 -11 92 -3t71.5 41.5t49.5 99.5l29 92l-421 1106h235l219 -623q36 -100 61 -199.5t53 -198.5h-66q28 99 55 199t62 199l222 623h232l-484 -1266
q-33 -86 -81.5 -144.5t-114.5 -88t-152 -29.5q-47 0 -86.5 6t-62.5 12z" />
    <glyph glyph-name="uni0479" unicode="&#x479;" horiz-adv-x="2334" 
d="M608 -23q-156 0 -272.5 71.5t-181 200t-64.5 298.5q0 172 64.5 301t181 200.5t272.5 71.5q157 0 273.5 -71.5t181 -200.5t64.5 -301q0 -170 -64.5 -298.5t-181 -200t-273.5 -71.5zM608 162q99 0 165.5 51.5t99.5 139t33 194.5q0 109 -33 196.5t-99.5 139.5t-165.5 52
t-164.5 -52t-98.5 -139.5t-33 -196.5q0 -107 33 -194.5t98.5 -139t164.5 -51.5zM1311 -406l42 180l45 -6q51 -11 92 -3t71.5 41.5t49.5 99.5l29 92l-421 1106h235l219 -623q36 -100 61 -199.5t53 -198.5h-66q28 99 55 199t62 199l222 623h232l-484 -1266
q-33 -86 -81.5 -144.5t-114.5 -88t-152 -29.5q-47 0 -86.5 6t-62.5 12z" />
    <glyph glyph-name="uni0480" unicode="&#x480;" horiz-adv-x="1454" 
d="M715 135q-125 0 -235 47t-194 136.5t-132 217t-48 288.5q0 214 83.5 368.5t229.5 237.5t333 83q113 0 213 -31t178.5 -91.5t129.5 -147t69 -197.5h-229q-17 85 -68.5 143.5t-127 89t-163.5 30.5q-124 0 -219.5 -57.5t-149 -166t-53.5 -261.5q0 -155 54 -263t149 -164.5
t218 -56.5q89 0 164 29.5t126.5 87t69.5 139.5h90q-5 -96 -41 -180.5t-99.5 -147.5t-151 -98t-196.5 -35zM1116 0l5 596h220v-596h-225z" />
    <glyph glyph-name="uni0481" unicode="&#x481;" horiz-adv-x="1155" 
d="M732 162v-509h-213v509h213zM607 -23q-159 0 -275 73t-179 201.5t-63 295.5q0 169 64 298.5t180 202t272 72.5q128 0 227.5 -47t161.5 -132.5t74 -199.5h-214q-11 54 -42.5 98t-82.5 70t-121 26q-90 0 -157 -47t-103.5 -133t-36.5 -204q0 -119 36.5 -206t103 -135
t157.5 -48z" />
    <glyph glyph-name="uni0482" unicode="&#x482;" horiz-adv-x="1306" 
d="M823 808l-209 -360l294 -172l-73 -128l-293 172l-184 -320h-176l227 398l-292 172l71 128l297 -172l202 362l-292 168l76 130l293 -170l186 326h173l-229 -406l296 -170l-76 -126z" />
    <glyph glyph-name="uni0483" unicode="&#x483;" 
d="M-231 1312h-550v-126h-178l1 240h551v108h176v-222z" />
    <glyph glyph-name="uni0484" unicode="&#x484;" 
d="M-943 1438h36q81 0 146.5 18t121.5 41t110.5 41t114.5 18q112 0 176.5 -52.5t64.5 -161.5v-38h-138v16q0 53 -30.5 77.5t-76.5 24.5q-43 0 -92 -18t-107 -41t-129 -41t-159 -18h-38v134z" />
    <glyph glyph-name="uni0485" unicode="&#x485;" 
d="M-509 1303l-167 199v130h192l-3 -148l61 -113z" />
    <glyph glyph-name="uni0486" unicode="&#x486;" 
d="M-378 1502l-167 -199l-83 68l60 113l-3 148h193v-130z" />
    <glyph glyph-name="uni0487" unicode="&#x487;" 
d="M-345 1438h162v-134h-177q-51 0 -91 18t-79 41t-89 41t-122 18q-47 0 -90.5 -23.5t-43.5 -78.5v-16h-137v38q0 98 75 156t206 58q80 0 136 -18t97.5 -41.5t77.5 -41t75 -17.5z" />
    <glyph glyph-name="uni0488" unicode="&#x488;" 
d="M-683 1268h-115q1 81 58.5 133.5t157.5 52.5q96 0 153 -52.5t57 -133.5h-111q0 40 -23.5 70t-75.5 30q-55 0 -78 -31t-23 -69zM-83 990h-116q0 83 57.5 135.5t155.5 52.5t156 -52.5t58 -135.5h-115q1 40 -21.5 70t-77.5 30q-53 0 -75 -30t-22 -70zM105 488h-115
q0 80 57.5 133t154.5 53q99 0 156.5 -52.5t57.5 -133.5h-114q0 40 -22 70t-78 30q-50 0 -73.5 -30t-23.5 -70zM-95 -32h-115q1 81 58.5 135.5t156.5 54.5q96 0 153.5 -53.5t57.5 -136.5h-111q0 39 -23 70.5t-77 31.5q-53 0 -76.5 -31.5t-23.5 -70.5zM-677 -318h-115
q1 83 58 136.5t154 53.5q99 0 156.5 -53.5t57.5 -136.5h-113q-1 40 -23.5 71t-77.5 31q-52 0 -74.5 -31.5t-22.5 -70.5zM-1259 990h-116q0 83 57.5 135.5t155.5 52.5q99 0 156.5 -52.5t57.5 -135.5h-113q-1 40 -23.5 70t-77.5 30q-52 0 -74.5 -30t-22.5 -70zM-1439 488h-113
q-1 81 56.5 133.5t154.5 52.5q100 0 157.5 -52.5t57.5 -133.5h-114q0 40 -23 70t-78 30q-53 0 -75 -31t-23 -69zM-1271 -32h-114q0 81 57.5 135.5t153.5 54.5q98 0 156 -53.5t58 -136.5h-113q-1 39 -23 70.5t-78 31.5q-52 0 -74 -32.5t-23 -69.5z" />
    <glyph glyph-name="uni0489" unicode="&#x489;" 
d="M-675 1126l-12 14l124 338h97l-71 -352h-138zM-135 904l-97 100v14l328 154l67 -70zM360 422l-349 70v140l15 10l334 -122v-98zM10 -238l-200 300l97 98h18l151 -326zM-687 -414l71 352h138l12 -14l-124 -338h-97zM-1249 -148l-71 66l298 202l98 -100l-1 -14zM-1180 422
l-335 122v98l349 -68v-140zM-1082 862l-149 328l65 66l200 -298l-100 -96h-16z" />
    <glyph glyph-name="uni048A" unicode="&#x48a;" horiz-adv-x="1530" 
d="M1372 0h-230v797q0 43 2.5 115.5t7 167.5t9.5 206l35 -10q-65 -119 -112.5 -205t-85.5 -151t-75 -124l-504 -796h-261v1490h229v-857q0 -47 -1.5 -119t-5.5 -154t-12 -161l-27 11q38 83 76 156.5t73 133t60 100.5l563 890h259v-1490zM760 1640q-86 0 -155.5 38.5
t-110.5 105t-41 147.5h146q0 -66 45.5 -109t115.5 -43t115.5 43t45.5 109h147q0 -81 -41 -147t-110.5 -105t-156.5 -39zM1190 -320l97 320h-71v189h339l-155 -509h-210z" />
    <glyph glyph-name="uni048B" unicode="&#x48b;" horiz-adv-x="1217" 
d="M1076 0h-218v752h-10l-508 -752h-199v1104h218v-753h10l508 753h199v-1104zM608 1254q-86 0 -155.5 38.5t-110.5 105t-41 147.5h146q0 -66 45.5 -109t115.5 -43t115.5 43t45.5 109h147q0 -81 -41 -147t-110.5 -105t-156.5 -39zM904 -320l97 320h-71v189h339l-155 -509
h-210z" />
    <glyph glyph-name="uni048C" unicode="&#x48c;" horiz-adv-x="1418" 
d="M408 922h398q161 0 278 -55t180.5 -157t63.5 -242q0 -143 -63 -248.5t-179.5 -162.5t-277.5 -57h-558v1490h228v-1298h326q138 0 218.5 75t80.5 203q0 81 -36.5 139t-103.5 89.5t-159 31.5h-396v192zM22 1102v172h830v-172h-830z" />
    <glyph glyph-name="uni048D" unicode="&#x48d;" horiz-adv-x="1263" 
d="M19 943v161h808v-161h-808zM258 1104v271h212v-271h-212zM424 727h325q134 0 228.5 -46t145 -127t50.5 -188q0 -105 -50.5 -188t-145 -130.5t-228.5 -47.5h-491v1104h218v-915h271q94 0 152 47.5t58 124.5q0 80 -58 128.5t-152 48.5h-323v189z" />
    <glyph glyph-name="uni048E" unicode="&#x48e;" horiz-adv-x="1303" 
d="M800 964l322 -496l-134 -85l-322 495zM161 0v1490h537q170 0 285 -62t173.5 -170.5t58.5 -246.5q0 -139 -59 -247.5t-174.5 -171t-285.5 -62.5h-380v194h361q107 0 175.5 36.5t101.5 101.5t33 149t-33 148t-101.5 100t-176.5 36h-288v-1295h-227z" />
    <glyph glyph-name="uni048F" unicode="&#x48f;" horiz-adv-x="1236" 
d="M774 409l356 -405l-114 -103l-355 406zM144 -418v1522h212v-175h15q23 40 61.5 84t102 75.5t159.5 31.5q136 0 240.5 -68.5t164.5 -196t60 -305.5q0 -177 -59 -305t-164 -197.5t-242 -69.5q-93 0 -156.5 31.5t-103 76t-62.5 85.5h-10v-589h-218zM647 164q94 0 158.5 50
t98 137.5t33.5 199.5q0 113 -33 199t-98 135t-159 49t-159 -48t-98.5 -133.5t-33.5 -201.5q0 -115 34 -202t99.5 -136t157.5 -49z" />
    <glyph glyph-name="uni0490" unicode="&#x490;" horiz-adv-x="1171" 
d="M873 1299v497h212v-497h-212zM1090 1490v-195h-704v-1295h-228v1490h932z" />
    <glyph glyph-name="uni0491" unicode="&#x491;" horiz-adv-x="899" 
d="M653 1104v279h204v-279h-204zM857 1104v-190h-497v-914h-219v1104h716z" />
    <glyph glyph-name="uni0492" unicode="&#x492;" horiz-adv-x="1171" 
d="M1090 1490v-195h-704v-1295h-228v1490h932zM-31 659v172h830v-172h-830z" />
    <glyph glyph-name="uni0493" unicode="&#x493;" horiz-adv-x="899" 
d="M857 1104v-190h-497v-914h-219v1104h716zM-5 480v154h673v-154h-673z" />
    <glyph glyph-name="uni0494" unicode="&#x494;" horiz-adv-x="1330" 
d="M1090 1490v-195h-704v-1295h-228v1490h932zM590 -97v206h107q144 0 229 80.5t85 218.5q0 139 -85.5 221.5t-228.5 82.5q-145 0 -229.5 -86.5t-84.5 -236.5h-109q0 171 49 289.5t146.5 180t240.5 61.5q154 0 273.5 -65t188.5 -180.5t69 -266.5q0 -150 -69.5 -264
t-192 -177.5t-282.5 -63.5h-107z" />
    <glyph glyph-name="uni0495" unicode="&#x495;" horiz-adv-x="1117" 
d="M472 -330v182h74q86 0 148.5 36.5t95.5 106t33 169.5q0 87 -28 148t-81 93t-128 32q-74 0 -126 -31.5t-79.5 -92t-27.5 -146.5h-47q0 125 33.5 228t105 163.5t183.5 60.5q109 0 199.5 -59t145 -161.5t54.5 -234.5q0 -143 -62 -255t-170.5 -175.5t-246.5 -63.5h-76z
M857 1104v-190h-497v-914h-219v1104h716z" />
    <glyph glyph-name="uni0496" unicode="&#x496;" horiz-adv-x="2066" 
d="M1122 1490v-1490h-226v1490h226zM47 0l475 776l-439 714h272l368 -652h577l363 652h272l-436 -715l471 -775h-263l-375 643h-645l-380 -643h-260zM1837 -320v320h-79v191h299l-5 -511h-215z" />
    <glyph glyph-name="uni0497" unicode="&#x497;" horiz-adv-x="1728" 
d="M50 0l432 565l-427 539h254l346 -458h76v458h218v-458h75l344 458h256l-426 -539l431 -565h-260l-347 458h-73v-458h-218v458h-72l-349 -458h-260zM1494 -320v320h-79v191h299l-5 -511h-215z" />
    <glyph glyph-name="uni0498" unicode="&#x498;" horiz-adv-x="1274" 
d="M639 -21q-154 0 -272 55t-186 151.5t-71 223.5h228q4 -73 43 -126.5t105.5 -82t150.5 -28.5q89 0 157 31t107 87t39 129q0 75 -39 131t-112.5 88t-175.5 32h-126v185h126q84 0 148 29t99.5 81.5t35.5 122.5q0 71 -31.5 123t-89.5 81t-136 29q-76 0 -138.5 -27.5t-101 -79
t-40.5 -123.5h-218q3 124 69.5 218.5t179 148t252.5 53.5q143 0 250 -55.5t165.5 -148t58.5 -205.5q0 -123 -71 -210t-190 -118v-10q99 -15 169.5 -63.5t107.5 -122.5t37 -166q0 -125 -68.5 -223t-188.5 -154t-273 -56zM541 -418v110h121q51 0 72.5 14.5t21.5 49.5
t-21.5 49.5t-72.5 14.5h-85l32 227h102v-47l-2 -86q95 -2 143 -42.5t48 -118.5q0 -89 -57.5 -130t-175.5 -41h-126z" />
    <glyph glyph-name="uni0499" unicode="&#x499;" horiz-adv-x="1017" 
d="M507 -14q-123 0 -218 40.5t-149.5 111.5t-56.5 163h217q3 -60 62 -98.5t143 -38.5q92 0 149 45.5t57 114.5q0 75 -61 120t-166 45h-79v149h79q88 0 145 42.5t57 114.5q0 67 -48.5 109.5t-127.5 42.5t-136 -38.5t-59 -104.5h-209q2 93 55.5 164t145 111t205.5 40
q116 0 202 -41t133.5 -111t47.5 -156q0 -97 -61.5 -159t-154.5 -78v-6q127 -17 192.5 -87.5t65.5 -172.5q0 -93 -55 -166t-152 -114.5t-223 -41.5zM392 -418v110h121q51 0 72.5 14.5t21.5 49.5t-21.5 49.5t-72.5 14.5h-85l32 227h102v-47l-2 -86q95 -2 143 -42.5t48 -118.5
q0 -89 -57.5 -130t-175.5 -41h-126z" />
    <glyph glyph-name="uni049A" unicode="&#x49a;" horiz-adv-x="1471" 
d="M158 0v1490h228v-634h194l468 634h272l-549 -723l573 -767h-271l-487 662h-200v-662h-228zM1210 -320v320h-79v191h299l-5 -511h-215z" />
    <glyph glyph-name="uni049B" unicode="&#x49b;" horiz-adv-x="1176" 
d="M141 0v1104h219v-467h103l372 467h268l-431 -538l436 -566h-269l-337 447h-142v-447h-219zM959 -320v320h-79v191h299l-5 -511h-215z" />
    <glyph glyph-name="uni049C" unicode="&#x49c;" horiz-adv-x="1384" 
d="M494 1092h165v-697h-165v697zM158 0v1490h226v-651h333l324 651h266l-391 -731l421 -759h-261l-343 625h-349v-625h-226z" />
    <glyph glyph-name="uni049D" unicode="&#x49d;" horiz-adv-x="1217" 
d="M141 0v1104h219v-467h294l289 467h253l-344 -538l350 -566h-254l-262 447h-326v-447h-219zM458 837h158v-593h-158v593z" />
    <glyph glyph-name="uni04A0" unicode="&#x4a0;" horiz-adv-x="1732" 
d="M608 1490v-191h-527v191h527zM499 0v1490h227v-634h195l468 634h272l-549 -723l573 -767h-271l-488 662h-200v-662h-227z" />
    <glyph glyph-name="uni04A1" unicode="&#x4a1;" horiz-adv-x="1305" 
d="M19 931v173h401v-173h-401zM324 0v1104h218v-467h103l372 467h268l-431 -538l436 -566h-269l-337 447h-142v-447h-218z" />
    <glyph glyph-name="uni04A2" unicode="&#x4a2;" horiz-adv-x="1547" 
d="M158 0v1490h228v-630h738v630h227v-1490h-227v664h-738v-664h-228zM1280 -320v320h-79v191h299l-5 -511h-215z" />
    <glyph glyph-name="uni04A3" unicode="&#x4a3;" horiz-adv-x="1250" 
d="M907 662v-189h-604v189h604zM360 1104v-1104h-219v1104h219zM1071 1104v-1104h-218v1104h218zM1000 -320v320h-79v191h299l-5 -511h-215z" />
    <glyph glyph-name="uni04A4" unicode="&#x4a4;" horiz-adv-x="2015" 
d="M1934 1490v-190h-638l-166 190h804zM158 0v1490h228v-630h738v630h227v-1490h-227v664h-738v-664h-228z" />
    <glyph glyph-name="uni04A5" unicode="&#x4a5;" horiz-adv-x="1405" 
d="M982 931v173h393v-173h-393zM907 662v-189h-604v189h604zM360 1104v-1104h-219v1104h219zM1071 1104v-1104h-218v1104h218z" />
    <glyph glyph-name="uni04A6" unicode="&#x4a6;" horiz-adv-x="2267" 
d="M1351 1490v-1490h-227v1294h-738v-1294h-228v1490h1193zM1526 -97v206h107q144 0 229 80.5t85 218.5q0 139 -85.5 221.5t-228.5 82.5q-145 0 -229.5 -86.5t-84.5 -236.5h-109q0 171 49 289.5t146.5 180t240.5 61.5q154 0 273.5 -65t188.5 -180.5t69 -266.5
q0 -150 -69.5 -264t-192 -177.5t-282.5 -63.5h-107z" />
    <glyph glyph-name="uni04A7" unicode="&#x4a7;" horiz-adv-x="1888" 
d="M1362 -293l-58 173q143 30 214 103t71 187q0 95 -45.5 160t-126.5 99t-186 34h-253v186h253q167 1 295 -55.5t200 -163.5t72 -259q0 -71 -25 -144.5t-78 -139.5t-135.5 -114t-197.5 -66zM1065 1104v-1104h-218v914h-487v-914h-219v1104h924z" />
    <glyph glyph-name="uni04A8" unicode="&#x4a8;" horiz-adv-x="2046" 
d="M1652 -22q-88 0 -176 17.5t-166 51t-138 79.5q-102 73 -180 173t-122 222t-44 257q0 168 65 292.5t180.5 193.5t266.5 69q152 0 267.5 -67.5t181 -187.5t65.5 -278q0 -157 -57.5 -286.5t-156.5 -229t-227 -167.5t-270.5 -103t-285.5 -35q-229 0 -397.5 93t-260 264
t-91.5 408q0 236 87.5 408t240.5 265.5t348 93.5v-207q-128 0 -230 -64t-161.5 -189t-59.5 -307q0 -175 61 -300t178 -191.5t285 -66.5q155 0 293.5 46.5t246 130t169 195.5t61.5 242q0 100 -36.5 173.5t-100.5 114t-150 40.5t-150 -43t-99.5 -120t-35.5 -183
q0 -112 42 -218.5t118.5 -192t181.5 -134.5q51 -39 114 -51t147 -12q53 0 112.5 10.5t129.5 40.5l67 -182q-41 -20 -92 -34.5t-107 -22.5t-114 -8z" />
    <glyph glyph-name="uni04A9" unicode="&#x4a9;" horiz-adv-x="1625" 
d="M705 -23q-198 0 -335 69t-208.5 197t-71.5 304q0 172 65.5 301t184 200.5t274.5 71.5v-185q-99 0 -166.5 -52t-101.5 -139.5t-34 -196.5q0 -120 44 -207t134 -133.5t226 -46.5q94 0 187 22t169 69.5t121.5 122t45.5 177.5q0 72 -25 125t-69.5 83t-104.5 30
q-59 0 -103.5 -30t-69 -84t-24.5 -127q0 -95 37.5 -167t100.5 -121.5t141 -77.5q45 -21 96.5 -27t95.5 -6q58 0 107.5 13.5t97.5 35.5l65 -162q-65 -30 -137 -42t-145 -12q-113 0 -218.5 27t-191.5 82q-118 70 -193 188t-75 270q0 125 53 221.5t147 151t216 54.5
q123 0 217 -54.5t147 -150t53 -218.5q0 -137 -64.5 -243.5t-173 -181t-242.5 -113t-272 -38.5z" />
    <glyph glyph-name="uni04AA" unicode="&#x4aa;" horiz-adv-x="1498" 
d="M782 -21q-196 0 -349 93t-240 264.5t-87 407.5q0 237 87.5 409t240.5 265t348 93q119 0 223 -34.5t186 -100t136 -159.5t73 -213h-229q-15 73 -50 128.5t-86.5 94t-115 58t-135.5 19.5q-132 0 -234.5 -66t-160.5 -191t-58 -303t58.5 -303t161 -190t233.5 -65
q71 0 134.5 19.5t115 57.5t87 94t50.5 128h229q-17 -112 -70 -204.5t-134 -160.5t-186 -104.5t-228 -36.5zM659 -424v110h121q51 0 72.5 14.5t21.5 49.5t-21.5 49.5t-72.5 14.5h-85l32 227h102v-47l-2 -86q95 -2 143 -42.5t48 -118.5q0 -89 -57.5 -130t-175.5 -41h-126z" />
    <glyph glyph-name="uni04AB" unicode="&#x4ab;" horiz-adv-x="1162" 
d="M607 -23q-155 0 -271.5 71.5t-181 200t-64.5 298.5q0 172 64.5 301t181 200.5t271.5 71.5q89 0 166 -23.5t138.5 -68t103 -108t59.5 -142.5l-209 -39q-10 44 -32.5 80t-55 62t-75 40t-93.5 14q-99 0 -165 -51.5t-99 -139t-33 -197.5q0 -108 33 -195t98.5 -138.5
t165.5 -51.5q52 0 95 14.5t75.5 41t55 64t33.5 82.5l208 -38q-17 -81 -59 -145t-103.5 -110t-139 -70t-167.5 -24zM490 -418v110h121q51 0 72.5 14.5t21.5 49.5t-21.5 49.5t-72.5 14.5h-85l32 227h102v-47l-2 -86q95 -2 143 -42.5t48 -118.5q0 -89 -57.5 -130t-175.5 -41
h-126z" />
    <glyph glyph-name="uni04AC" unicode="&#x4ac;" horiz-adv-x="1322" 
d="M81 1294v196h1159v-196h-465v-1294h-227v1294h-467zM704 -320v320h-79v191h299l-5 -511h-215z" />
    <glyph glyph-name="uni04AD" unicode="&#x4ad;" horiz-adv-x="981" 
d="M382 0v919h-363v185h943v-185h-362v-919h-218zM529 -320v320h-79v191h299l-5 -511h-215z" />
    <glyph glyph-name="uni04AE" unicode="&#x4ae;" horiz-adv-x="1408" 
d="M593 0v594l-550 896h264l281 -474q45 -76 81.5 -147t74.5 -169h-73q38 99 74.5 171t79.5 145l278 474h262l-546 -896v-594h-226z" />
    <glyph glyph-name="uni04AF" unicode="&#x4af;" horiz-adv-x="1155" 
d="M472 -36l-431 1140h235l219 -623q35 -99 61.5 -199.5t53.5 -198.5h-62q28 98 54 198t60 200l218 623h233l-431 -1140h-210zM468 -418v426h218v-426h-218z" />
    <glyph glyph-name="uni04B0" unicode="&#x4b0;" horiz-adv-x="1408" 
d="M593 0v594l-550 896h264l281 -474q45 -76 81.5 -147t74.5 -169h-73q38 99 74.5 171t79.5 145l278 474h262l-546 -896v-594h-226zM291 290v172h830v-172h-830z" />
    <glyph glyph-name="uni04B1" unicode="&#x4b1;" horiz-adv-x="1155" 
d="M472 -36l-431 1140h235l219 -623q35 -99 61.5 -199.5t53.5 -198.5h-62q28 98 54 198t60 200l218 623h233l-431 -1140h-210zM468 -418v426h218v-426h-218zM240 -154v154h673v-154h-673z" />
    <glyph glyph-name="uni04B2" unicode="&#x4b2;" horiz-adv-x="1467" 
d="M47 0l593 846v-169l-555 813h263l198 -295q44 -65 74.5 -115.5t57 -99t57.5 -106.5h-48q32 58 58.5 106t58 99t75.5 116l202 295h256l-551 -803v166l585 -853h-265l-244 357q-39 59 -67 103t-52.5 87t-54.5 98h43q-29 -53 -54 -96t-53.5 -88t-69.5 -104l-247 -357h-260z
M1233 -320v320h-79v191h299l-5 -511h-215z" />
    <glyph glyph-name="uni04B3" unicode="&#x4b3;" horiz-adv-x="1176" 
d="M50 0l438 647l-1 -161l-414 618h246l127 -200q49 -80 88.5 -153.5t80.5 -143.5h-98q42 70 79 143.5t88 153.5l130 200h242l-418 -623v158l435 -639h-245l-150 232q-50 79 -88.5 150.5t-79.5 139.5h98q-40 -68 -76.5 -139.5t-86.5 -150.5l-151 -232h-244zM950 -320v320
h-79v191h299l-5 -511h-215z" />
    <glyph glyph-name="uni04B4" unicode="&#x4b4;" horiz-adv-x="1888" 
d="M81 1299v191h1137v-191h-1137zM1698 0h-1151v1490h227v-1295h697v1295h227v-1490zM1627 -320v320h-79v191h299l-5 -511h-215z" />
    <glyph glyph-name="uni04B5" unicode="&#x4b5;" horiz-adv-x="1378" 
d="M733 1104v-186h-714v186h714zM269 0v1104h218v-914h487v914h218v-1104h-923zM1121 -320v320h-79v191h299l-5 -511h-215z" />
    <glyph glyph-name="uni04B6" unicode="&#x4b6;" horiz-adv-x="1462" 
d="M651 547q-157 0 -271.5 50.5t-176.5 157.5t-62 275v460h228v-452q0 -154 86 -225t231 -71q119 0 222.5 38t191.5 101v-195q-95 -66 -204 -102.5t-245 -36.5zM1039 0v1490h227v-1490h-227zM1195 -320v320h-79v191h299l-5 -511h-215z" />
    <glyph glyph-name="uni04B7" unicode="&#x4b7;" horiz-adv-x="1222" 
d="M593 335q-211 0 -331.5 102.5t-120.5 309.5v357h219v-356q0 -118 64 -171t169 -53q98 0 182 19t171 50v-190q-51 -19 -107 -35t-117 -24.5t-129 -8.5zM825 0v1104h218v-1104h-218zM972 -320v320h-79v191h299l-5 -511h-215z" />
    <glyph glyph-name="uni04B8" unicode="&#x4b8;" horiz-adv-x="1424" 
d="M651 547q-157 0 -271.5 50.5t-176.5 157.5t-62 275v460h228v-452q0 -154 86 -225t231 -71q119 0 222.5 38t191.5 101v-195q-95 -66 -204 -102.5t-245 -36.5zM1039 0v1490h227v-1490h-227zM619 313v668h169v-668h-169z" />
    <glyph glyph-name="uni04B9" unicode="&#x4b9;" horiz-adv-x="1184" 
d="M593 335q-211 0 -331.5 102.5t-120.5 309.5v357h219v-356q0 -118 64 -171t169 -53q98 0 182 19t171 50v-190q-51 -19 -107 -35t-117 -24.5t-129 -8.5zM825 0v1104h218v-1104h-218zM509 98v668h169v-668h-169z" />
    <glyph glyph-name="uni04BA" unicode="&#x4ba;" horiz-adv-x="1424" 
d="M774 943q156 0 270.5 -50.5t176.5 -157t62 -275.5v-460h-227v452q0 154 -86 225t-231 71q-119 0 -223 -38t-191 -101v195q95 66 203.5 102.5t245.5 36.5zM386 1490v-1490h-228v1490h228z" />
    <glyph glyph-name="uni04BB" unicode="&#x4bb;" horiz-adv-x="1213" 
d="M360 650v-650h-219v1490h217v-657h-34q49 148 142 217.5t225 69.5q113 0 198.5 -48t134 -141.5t48.5 -231.5v-699h-219v672q0 122 -62.5 189.5t-171.5 67.5q-74 0 -133 -32t-92.5 -94t-33.5 -153z" />
    <glyph glyph-name="uni04BC" unicode="&#x4bc;" horiz-adv-x="1749" 
d="M1004 -21q-194 0 -346 93.5t-239 266t-87 407.5q0 175 49 316t139.5 241.5t215 154t275.5 53.5q195 0 335 -90t216 -249t76 -365v-156h-1142v187h981l-60 -24q0 140 -46 251t-136 175t-223 64t-235.5 -66t-161 -191t-58.5 -302t58.5 -302.5t160.5 -191t230 -65.5
q75 0 137.5 20t112 58t84.5 91.5t54 119.5h233q-19 -110 -72.5 -201t-136 -157t-187.5 -102t-227 -36zM19 1057h205v-81q0 -64 8 -93t35 -36.5t83 -7.5h56v-188h-66q-160 0 -240.5 82t-80.5 244v80z" />
    <glyph glyph-name="uni04BD" unicode="&#x4bd;" horiz-adv-x="1476" 
d="M398 488q-188 0 -283.5 98.5t-95.5 275.5h178q0 -103 46.5 -158t154.5 -55v-161zM909 -23q-163 0 -281.5 71t-182 199t-63.5 299q0 169 63.5 298.5t178 202.5t268.5 73q99 0 188.5 -33t159.5 -101.5t110 -174t40 -250.5v-74h-891v164h778l-101 -53q0 101 -32.5 178.5
t-95.5 120.5t-155 43t-158 -44t-100.5 -117t-34.5 -163v-107q0 -111 38.5 -190t108.5 -120.5t164 -41.5q63 0 114 18.5t87 54.5t55 88l205 -38q-25 -90 -89 -158.5t-159 -106.5t-215 -38z" />
    <glyph glyph-name="uni04BE" unicode="&#x4be;" horiz-adv-x="1749" 
d="M1004 -21q-194 0 -346 93.5t-239 266t-87 407.5q0 175 49 316t139.5 241.5t215 154t275.5 53.5q195 0 335 -90t216 -249t76 -365v-156h-1142v187h981l-60 -24q0 140 -46 251t-136 175t-223 64t-235.5 -66t-161 -191t-58.5 -302t58.5 -302.5t160.5 -191t230 -65.5
q75 0 137.5 20t112 58t84.5 91.5t54 119.5h233q-19 -110 -72.5 -201t-136 -157t-187.5 -102t-227 -36zM19 1057h205v-81q0 -64 8 -93t35 -36.5t83 -7.5h56v-188h-66q-160 0 -240.5 82t-80.5 244v80zM890 -320l-1 384h220l-2 -384h-217z" />
    <glyph glyph-name="uni04BF" unicode="&#x4bf;" horiz-adv-x="1476" 
d="M398 488q-188 0 -283.5 98.5t-95.5 275.5h178q0 -103 46.5 -158t154.5 -55v-161zM909 -23q-163 0 -281.5 71t-182 199t-63.5 299q0 169 63.5 298.5t178 202.5t268.5 73q99 0 188.5 -33t159.5 -101.5t110 -174t40 -250.5v-74h-891v164h778l-101 -53q0 101 -32.5 178.5
t-95.5 120.5t-155 43t-158 -44t-100.5 -117t-34.5 -163v-107q0 -111 38.5 -190t108.5 -120.5t164 -41.5q63 0 114 18.5t87 54.5t55 88l205 -38q-25 -90 -89 -158.5t-159 -106.5t-215 -38zM775 -418v110h121q51 0 72.5 14.5t21.5 49.5t-21.5 49.5t-72.5 14.5h-85l32 227h102
v-47l-2 -86q95 -2 143 -42.5t48 -118.5q0 -89 -57.5 -130t-175.5 -41h-126z" />
    <glyph glyph-name="uni04C0" unicode="&#x4c0;" horiz-adv-x="544" 
d="M386 1490v-1490h-228v1490h228z" />
    <glyph glyph-name="uni04C1" unicode="&#x4c1;" horiz-adv-x="2017" 
d="M1122 1490v-1490h-226v1490h226zM47 0l475 776l-439 714h272l368 -652h577l363 652h272l-436 -715l471 -775h-263l-375 643h-645l-380 -643h-260zM1008 1640q-86 0 -155.5 38.5t-110.5 105t-41 147.5h146q0 -66 45.5 -109t115.5 -43t115.5 43t45.5 109h147
q0 -81 -41 -147t-110.5 -105t-156.5 -39z" />
    <glyph glyph-name="uni04C2" unicode="&#x4c2;" horiz-adv-x="1679" 
d="M50 0l432 565l-427 539h254l346 -458h76v458h218v-458h75l344 458h256l-426 -539l431 -565h-260l-347 458h-73v-458h-218v458h-72l-349 -458h-260zM839 1254q-86 0 -155.5 38.5t-110.5 105t-41 147.5h146q0 -66 45.5 -109t115.5 -43t115.5 43t45.5 109h147
q0 -81 -41 -147t-110.5 -105t-156.5 -39z" />
    <glyph glyph-name="uni04C3" unicode="&#x4c3;" horiz-adv-x="1391" 
d="M458 649v181h211q190 0 326.5 -69.5t210 -199.5t73.5 -311q0 -176 -62 -303t-177.5 -195.5t-275.5 -68.5l-2 188q141 0 219 105.5t74 286.5q-4 184 -109 285t-277 101h-211zM158 0v1490h224v-639h148l483 639h277l-662 -841h-246v-649h-224z" />
    <glyph glyph-name="uni04C4" unicode="&#x4c4;" horiz-adv-x="1211" 
d="M273 447v180h299q123 0 223.5 -33.5t173 -95t111.5 -144.5t39 -181q0 -110 -48 -200t-133 -154t-197 -96l-78 167q73 23 128 63t86 95.5t31 124.5q0 81 -43 142.5t-120.5 96.5t-180.5 35h-291zM141 0v1104h219v-467h103l370 467h270l-525 -657h-218v-447h-219z" />
    <glyph glyph-name="uni04C5" unicode="&#x4c5;" horiz-adv-x="1516" 
d="M81 0v195h40q72 0 113.5 31.5t65 115t35.5 240.5l75 908h948v-1490h-227v1295h-514l-62 -751q-13 -147 -40.5 -250.5t-76 -168.5t-123.5 -95t-181 -30h-53zM1186 -320l97 320h-71v189h339l-155 -509h-210z" />
    <glyph glyph-name="uni04C6" unicode="&#x4c6;" horiz-adv-x="1189" 
d="M19 0v189h39q47 0 78.5 18t51.5 63.5t31.5 127.5t16.5 210l20 496h791v-1104h-218v915h-365l-17 -366q-8 -188 -45 -310t-111.5 -180.5t-196.5 -58.5h-75zM875 -320l97 320h-71v189h339l-155 -509h-210z" />
    <glyph glyph-name="uni04C7" unicode="&#x4c7;" horiz-adv-x="1509" 
d="M915 -418v184q19 -2 40.5 -3t36.5 -1q75 0 103.5 23t28.5 74v268h227v-279q0 -134 -79.5 -204.5t-233.5 -70.5q-37 0 -69.5 2.5t-53.5 6.5zM158 0v1490h228v-630h738v630h227v-1490h-227v664h-738v-664h-228z" />
    <glyph glyph-name="uni04C8" unicode="&#x4c8;" horiz-adv-x="1213" 
d="M760 -427q-37 0 -69.5 2.5t-52.5 6.5v174q17 -2 39 -3t38 -1q75 0 106.5 23t31.5 74v151h218v-152q0 -134 -78.5 -204.5t-232.5 -70.5zM907 662v-189h-604v189h604zM360 1104v-1104h-219v1104h219zM1071 1104v-1104h-218v1104h218z" />
    <glyph glyph-name="uni04C9" unicode="&#x4c9;" horiz-adv-x="1509" 
d="M158 0v1490h228v-630h738v630h227v-1490h-227v664h-738v-664h-228zM1179 -320l97 320h-71v189h339l-155 -509h-210z" />
    <glyph glyph-name="uni04CA" unicode="&#x4ca;" horiz-adv-x="1213" 
d="M907 662v-189h-604v189h604zM360 1104v-1104h-219v1104h219zM1071 1104v-1104h-218v1104h218zM899 -320l97 320h-71v189h339l-155 -509h-210z" />
    <glyph glyph-name="uni04CB" unicode="&#x4cb;" horiz-adv-x="1462" 
d="M651 547q-157 0 -271.5 50.5t-176.5 157.5t-62 275v460h228v-452q0 -154 86 -225t231 -71q119 0 222.5 38t191.5 101v-195q-95 -66 -204 -102.5t-245 -36.5zM1039 0v1490h227v-1490h-227zM1195 -320v320h-79v191h299l-5 -511h-215z" />
    <glyph glyph-name="uni04CC" unicode="&#x4cc;" horiz-adv-x="1222" 
d="M593 335q-211 0 -331.5 102.5t-120.5 309.5v357h219v-356q0 -118 64 -171t169 -53q98 0 182 19t171 50v-190q-51 -19 -107 -35t-117 -24.5t-129 -8.5zM825 0v1104h218v-1104h-218zM972 -320v320h-79v191h299l-5 -511h-215z" />
    <glyph glyph-name="uni04CD" unicode="&#x4cd;" horiz-adv-x="1850" 
d="M158 0v1490h331l328 -859q13 -37 31 -94.5t37 -123.5t36.5 -129t29.5 -112h-49q13 47 30 109.5t36 128.5t37 124.5t32 96.5l322 859h332v-1490h-225v804q0 47 1 110t3 133t3.5 141.5t2.5 137.5h20q-22 -74 -45.5 -149.5t-46 -146t-42.5 -129t-34 -97.5l-307 -804h-193
l-310 804q-15 38 -34.5 95.5t-42 127.5t-47 146.5t-48.5 152.5h24q1 -62 2.5 -132t3 -141t3 -135.5t1.5 -113.5v-804h-222zM1516 -320l97 320h-71v189h339l-155 -509h-210z" />
    <glyph glyph-name="uni04CE" unicode="&#x4ce;" horiz-adv-x="1588" 
d="M141 0v1104h330l225 -561q21 -54 38 -107.5t30.5 -106.5t25.5 -103t22 -97h-35q10 45 21.5 95t25.5 103t30.5 107.5t37.5 108.5l222 561h332v-1104h-216v525q0 58 1 118t2 121.5t2 123.5t2 123h23q-23 -88 -46.5 -167.5t-50.5 -156.5t-61 -161l-215 -526h-188l-217 526
q-35 84 -62 161.5t-51 156.5t-47 167h27q0 -55 1.5 -116t3 -123.5t2 -124.5t0.5 -122v-525h-215zM1274 -320l97 320h-71v189h339l-155 -509h-210z" />
    <glyph glyph-name="uni04CF" unicode="&#x4cf;" horiz-adv-x="501" 
d="M360 1490v-1490h-219v1490h219z" />
    <glyph glyph-name="uni04D0" unicode="&#x4d0;" horiz-adv-x="1436" 
d="M43 0l533 1490h277l539 -1490h-245l-290 831q-34 103 -74.5 237.5t-94.5 325.5h50q-53 -192 -93 -328t-73 -235l-284 -831h-245zM334 391v190h768v-190h-768zM717 1640q-86 0 -155.5 38.5t-110.5 105t-41 147.5h146q0 -66 45.5 -109t115.5 -43t115.5 43t45.5 109h147
q0 -81 -41 -147t-110.5 -105t-156.5 -39z" />
    <glyph glyph-name="uni04D1" unicode="&#x4d1;" horiz-adv-x="1145" 
d="M456 -23q-106 0 -191 38.5t-134.5 113.5t-49.5 184q0 94 36.5 154.5t97.5 95.5t137.5 53t156.5 27q99 12 159.5 20t89 25t28.5 56v6q0 61 -24 103.5t-72 65.5t-118 23q-71 0 -123 -22.5t-84.5 -58t-45.5 -75.5l-207 41q31 101 98.5 165.5t160.5 96t199 31.5
q74 0 150.5 -18t141 -61t103.5 -117t39 -186v-738h-212v152h-9q-22 -43 -64 -83t-107 -66t-156 -26zM504 152q91 0 154 35t96 92t33 122v139q-11 -11 -43 -20t-73 -16.5t-81 -13t-70 -9.5q-60 -8 -111.5 -26.5t-82 -53t-30.5 -91.5q0 -52 26.5 -87t73.5 -53t108 -18z
M561 1254q-86 0 -155.5 38.5t-110.5 105t-41 147.5h146q0 -66 45.5 -109t115.5 -43t115.5 43t45.5 109h147q0 -81 -41 -147t-110.5 -105t-156.5 -39z" />
    <glyph glyph-name="uni04D2" unicode="&#x4d2;" horiz-adv-x="1436" 
d="M43 0l533 1490h277l539 -1490h-245l-290 831q-34 103 -74.5 237.5t-94.5 325.5h50q-53 -192 -93 -328t-73 -235l-284 -831h-245zM334 391v190h768v-190h-768zM932 1666q-54 0 -92 37.5t-38 90.5t38 90t92 37q53 0 91 -37t38 -90t-38 -90.5t-91 -37.5zM504 1666
q-54 0 -92 37.5t-38 90.5t38 90t92 37q53 0 91 -37t38 -90t-38 -90.5t-91 -37.5z" />
    <glyph glyph-name="uni04D3" unicode="&#x4d3;" horiz-adv-x="1145" 
d="M456 -23q-106 0 -191 38.5t-134.5 113.5t-49.5 184q0 94 36.5 154.5t97.5 95.5t137.5 53t156.5 27q99 12 159.5 20t89 25t28.5 56v6q0 61 -24 103.5t-72 65.5t-118 23q-71 0 -123 -22.5t-84.5 -58t-45.5 -75.5l-207 41q31 101 98.5 165.5t160.5 96t199 31.5
q74 0 150.5 -18t141 -61t103.5 -117t39 -186v-738h-212v152h-9q-22 -43 -64 -83t-107 -66t-156 -26zM504 152q91 0 154 35t96 92t33 122v139q-11 -11 -43 -20t-73 -16.5t-81 -13t-70 -9.5q-60 -8 -111.5 -26.5t-82 -53t-30.5 -91.5q0 -52 26.5 -87t73.5 -53t108 -18z
M776 1280q-54 0 -92 37.5t-38 90.5t38 90t92 37q53 0 91 -37t38 -90t-38 -90.5t-91 -37.5zM348 1280q-54 0 -92 37.5t-38 90.5t38 90t92 37q53 0 91 -37t38 -90t-38 -90.5t-91 -37.5z" />
    <glyph glyph-name="uni04D4" unicode="&#x4d4;" horiz-adv-x="2046" 
d="M43 0l685 1490h1198v-196h-723v-449h673v-194h-673v-455h730v-196h-950v1333h-98l-594 -1333h-248zM387 400v180h706v-180h-706z" />
    <glyph glyph-name="uni04D5" unicode="&#x4d5;" horiz-adv-x="1856" 
d="M467 -22q-112 0 -199.5 39t-137 114t-49.5 182q0 92 40.5 156.5t110 104.5t157 58.5t181.5 18.5h1065l-83 -58q9 101 -23 179t-97 123t-157 45t-158 -44t-101.5 -117t-35.5 -163v-107q0 -112 38.5 -190.5t108.5 -120t163 -41.5q64 0 115 18.5t87 54.5t55 88l208 -28
q-24 -94 -87.5 -164t-160 -109.5t-219.5 -39.5q-116 0 -209 37.5t-156 105t-91 157.5l20 577q39 82 99.5 142t141.5 92t181 32t189 -33t158.5 -101.5t109 -174t39.5 -250.5v-74h-1197q-80 0 -142.5 -20t-98.5 -59t-36 -96q0 -79 58.5 -119.5t149.5 -40.5t153.5 35t95.5 92
t33 122v349q0 60 -24.5 103t-72 66t-117.5 23q-71 0 -123 -22.5t-84.5 -58t-45.5 -75.5l-207 41q30 100 98 164.5t161 96.5t198 32q92 0 172.5 -28t137.5 -91t77 -170l-27 -621h-38q-19 -53 -60 -96t-98 -73t-125 -46.5t-141 -16.5z" />
    <glyph glyph-name="uni04D6" unicode="&#x4d6;" horiz-adv-x="1229" 
d="M158 0v1490h953v-196h-725v-443h673v-194h-673v-461h730v-196h-958zM637 1640q-86 0 -155.5 38.5t-110.5 105t-41 147.5h146q0 -66 45.5 -109t115.5 -43t115.5 43t45.5 109h147q0 -81 -41 -147t-110.5 -105t-156.5 -39z" />
    <glyph glyph-name="uni04D7" unicode="&#x4d7;" horiz-adv-x="1183" 
d="M617 -23q-164 0 -282 71t-181.5 199t-63.5 299q0 169 63 298.5t178 202.5t268 73q100 0 189.5 -33t159 -101.5t109.5 -174t40 -250.5v-74h-891v164h778l-100 -53q0 101 -32.5 178.5t-96 120.5t-155.5 43t-157.5 -44t-100.5 -117t-35 -163v-107q0 -111 38.5 -190
t109 -120.5t164.5 -41.5q63 0 114 18.5t87 54.5t54 88l206 -38q-25 -90 -89 -158.5t-159.5 -106.5t-214.5 -38zM595 1254q-86 0 -155.5 38.5t-110.5 105t-41 147.5h146q0 -66 45.5 -109t115.5 -43t115.5 43t45.5 109h147q0 -81 -41 -147t-110.5 -105t-156.5 -39z" />
    <glyph glyph-name="uni04D8" unicode="&#x4d8;" horiz-adv-x="1522" 
d="M737 -21q-194 0 -334 90t-215.5 249t-75.5 365v156h1140v-187h-980l59 24q0 -139 46 -250.5t136.5 -175.5t222.5 -64q134 0 236 66t160.5 191t58.5 302t-58.5 302.5t-160 191t-230.5 65.5q-74 0 -137 -20t-112.5 -58t-84.5 -91.5t-54 -119.5h-233q19 110 72.5 201
t136 157t188 102t226.5 36q194 0 346 -93.5t239 -265.5t87 -408q0 -175 -49 -316t-139.5 -241.5t-215 -154t-275.5 -53.5z" />
    <glyph glyph-name="uni04D9" unicode="&#x4d9;" horiz-adv-x="1183" 
d="M567 1128q163 0 281 -71.5t181.5 -199.5t63.5 -298q0 -169 -63 -299t-177.5 -203t-268.5 -73q-99 0 -189 33t-159.5 101.5t-109.5 174.5t-40 250v74h891v-164h-778l100 54q0 -102 33 -179t96 -120.5t155 -43.5t157.5 44t100.5 117.5t35 162.5v107q0 113 -38.5 191.5
t-108.5 119.5t-165 41q-63 0 -114 -18.5t-87 -54.5t-54 -88l-206 38q25 91 89 159t160 106.5t215 38.5z" />
    <glyph glyph-name="uni04DA" unicode="&#x4da;" horiz-adv-x="1522" 
d="M737 -21q-194 0 -334 90t-215.5 249t-75.5 365v156h1140v-187h-980l59 24q0 -139 46 -250.5t136.5 -175.5t222.5 -64q134 0 236 66t160.5 191t58.5 302t-58.5 302.5t-160 191t-230.5 65.5q-74 0 -137 -20t-112.5 -58t-84.5 -91.5t-54 -119.5h-233q19 110 72.5 201
t136 157t188 102t226.5 36q194 0 346 -93.5t239 -265.5t87 -408q0 -175 -49 -316t-139.5 -241.5t-215 -154t-275.5 -53.5zM960 1666q-54 0 -92 37.5t-38 90.5t38 90t92 37q53 0 91 -37t38 -90t-38 -90.5t-91 -37.5zM532 1666q-54 0 -92 37.5t-38 90.5t38 90t92 37
q53 0 91 -37t38 -90t-38 -90.5t-91 -37.5z" />
    <glyph glyph-name="uni04DB" unicode="&#x4db;" horiz-adv-x="1183" 
d="M567 1128q163 0 281 -71.5t181.5 -199.5t63.5 -298q0 -169 -63 -299t-177.5 -203t-268.5 -73q-99 0 -189 33t-159.5 101.5t-109.5 174.5t-40 250v74h891v-164h-778l100 54q0 -102 33 -179t96 -120.5t155 -43.5t157.5 44t100.5 117.5t35 162.5v107q0 113 -38.5 191.5
t-108.5 119.5t-165 41q-63 0 -114 -18.5t-87 -54.5t-54 -88l-206 38q25 91 89 159t160 106.5t215 38.5zM819 1280q-54 0 -92 37.5t-38 90.5t38 90t92 37q53 0 91 -37t38 -90t-38 -90.5t-91 -37.5zM391 1280q-54 0 -92 37.5t-38 90.5t38 90t92 37q53 0 91 -37t38 -90
t-38 -90.5t-91 -37.5z" />
    <glyph glyph-name="uni04DC" unicode="&#x4dc;" horiz-adv-x="2017" 
d="M1122 1490v-1490h-226v1490h226zM47 0l475 776l-439 714h272l368 -652h577l363 652h272l-436 -715l471 -775h-263l-375 643h-645l-380 -643h-260zM1223 1666q-54 0 -92 37.5t-38 90.5t38 90t92 37q53 0 91 -37t38 -90t-38 -90.5t-91 -37.5zM795 1666q-54 0 -92 37.5
t-38 90.5t38 90t92 37q53 0 91 -37t38 -90t-38 -90.5t-91 -37.5z" />
    <glyph glyph-name="uni04DD" unicode="&#x4dd;" horiz-adv-x="1679" 
d="M50 0l432 565l-427 539h254l346 -458h76v458h218v-458h75l344 458h256l-426 -539l431 -565h-260l-347 458h-73v-458h-218v458h-72l-349 -458h-260zM1054 1280q-54 0 -92 37.5t-38 90.5t38 90t92 37q53 0 91 -37t38 -90t-38 -90.5t-91 -37.5zM626 1280q-54 0 -92 37.5
t-38 90.5t38 90t92 37q53 0 91 -37t38 -90t-38 -90.5t-91 -37.5z" />
    <glyph glyph-name="uni04DE" unicode="&#x4de;" horiz-adv-x="1274" 
d="M639 -21q-154 0 -272 55t-186 151.5t-71 223.5h228q4 -73 43 -126.5t105.5 -82t150.5 -28.5q89 0 157 31t107 87t39 129q0 75 -39 131t-112.5 88t-175.5 32h-126v185h126q84 0 148 29t99.5 81.5t35.5 122.5q0 71 -31.5 123t-89.5 81t-136 29q-76 0 -138.5 -27.5t-101 -79
t-40.5 -123.5h-218q3 124 69.5 218.5t179 148t252.5 53.5q143 0 250 -55.5t165.5 -148t58.5 -205.5q0 -123 -71 -210t-190 -118v-10q99 -15 169.5 -63.5t107.5 -122.5t37 -166q0 -125 -68.5 -223t-188.5 -154t-273 -56zM854 1666q-54 0 -92 37.5t-38 90.5t38 90t92 37
q53 0 91 -37t38 -90t-38 -90.5t-91 -37.5zM426 1666q-54 0 -92 37.5t-38 90.5t38 90t92 37q53 0 91 -37t38 -90t-38 -90.5t-91 -37.5z" />
    <glyph glyph-name="uni04DF" unicode="&#x4df;" horiz-adv-x="1017" 
d="M507 -14q-123 0 -218 40.5t-149.5 111.5t-56.5 163h217q3 -60 62 -98.5t143 -38.5q92 0 149 45.5t57 114.5q0 75 -61 120t-166 45h-79v149h79q88 0 145 42.5t57 114.5q0 67 -48.5 109.5t-127.5 42.5t-136 -38.5t-59 -104.5h-209q2 93 55.5 164t145 111t205.5 40
q116 0 202 -41t133.5 -111t47.5 -156q0 -97 -61.5 -159t-154.5 -78v-6q127 -17 192.5 -87.5t65.5 -172.5q0 -93 -55 -166t-152 -114.5t-223 -41.5zM724 1280q-54 0 -92 37.5t-38 90.5t38 90t92 37q53 0 91 -37t38 -90t-38 -90.5t-91 -37.5zM296 1280q-54 0 -92 37.5
t-38 90.5t38 90t92 37q53 0 91 -37t38 -90t-38 -90.5t-91 -37.5z" />
    <glyph glyph-name="uni04E0" unicode="&#x4e0;" horiz-adv-x="1274" 
d="M639 -21q-147 0 -265 53t-188 149.5t-76 227.5h229q5 -74 45 -127.5t106.5 -81.5t149.5 -28q87 0 154.5 31.5t106.5 91t39 143.5q0 78 -37 141.5t-113.5 101t-195.5 37.5h-148v167l373 402v9h-631v194h918v-171l-479 -507v43q168 17 289.5 -36.5t187 -155.5t65.5 -231
q0 -133 -68.5 -235.5t-187.5 -160t-274 -57.5z" />
    <glyph glyph-name="uni04E1" unicode="&#x4e1;" horiz-adv-x="1274" 
d="M639 -407q-147 0 -265 53t-188 149.5t-76 227.5h229q5 -74 45 -127.5t106.5 -81.5t149.5 -28q87 0 154.5 31.5t106.5 91t39 143.5q0 78 -37 141.5t-113.5 101t-195.5 37.5h-148v167l373 402v9h-631v194h918v-171l-479 -507v43q168 17 289.5 -36.5t187 -155.5t65.5 -231
q0 -133 -68.5 -235.5t-187.5 -160t-274 -57.5z" />
    <glyph glyph-name="uni04E2" unicode="&#x4e2;" horiz-adv-x="1530" 
d="M1372 0h-230v797q0 43 2.5 115.5t7 167.5t9.5 206l35 -10q-65 -119 -112.5 -205t-85.5 -151t-75 -124l-504 -796h-261v1490h229v-857q0 -47 -1.5 -119t-5.5 -154t-12 -161l-27 11q38 83 76 156.5t73 133t60 100.5l563 890h259v-1490zM1041 1867v-158h-562v158h562z" />
    <glyph glyph-name="uni04E3" unicode="&#x4e3;" horiz-adv-x="1217" 
d="M1076 0h-218v752h-10l-508 -752h-199v1104h218v-753h10l508 753h199v-1104zM889 1481v-158h-562v158h562z" />
    <glyph glyph-name="uni04E4" unicode="&#x4e4;" horiz-adv-x="1530" 
d="M1372 0h-230v797q0 43 2.5 115.5t7 167.5t9.5 206l35 -10q-65 -119 -112.5 -205t-85.5 -151t-75 -124l-504 -796h-261v1490h229v-857q0 -47 -1.5 -119t-5.5 -154t-12 -161l-27 11q38 83 76 156.5t73 133t60 100.5l563 890h259v-1490zM975 1666q-54 0 -92 37.5t-38 90.5
t38 90t92 37q53 0 91 -37t38 -90t-38 -90.5t-91 -37.5zM547 1666q-54 0 -92 37.5t-38 90.5t38 90t92 37q53 0 91 -37t38 -90t-38 -90.5t-91 -37.5z" />
    <glyph glyph-name="uni04E5" unicode="&#x4e5;" horiz-adv-x="1217" 
d="M1076 0h-218v752h-10l-508 -752h-199v1104h218v-753h10l508 753h199v-1104zM823 1280q-54 0 -92 37.5t-38 90.5t38 90t92 37q53 0 91 -37t38 -90t-38 -90.5t-91 -37.5zM395 1280q-54 0 -92 37.5t-38 90.5t38 90t92 37q53 0 91 -37t38 -90t-38 -90.5t-91 -37.5z" />
    <glyph glyph-name="uni04E6" unicode="&#x4e6;" horiz-adv-x="1562" 
d="M782 -21q-195 0 -347.5 93t-240.5 264.5t-88 407.5q0 237 88 409t240.5 265t347.5 93q194 0 346.5 -93t240 -265t87.5 -409q0 -236 -87.5 -407.5t-240 -264.5t-346.5 -93zM782 186q127 0 228.5 64t160.5 189t59 305q0 182 -59 307t-160.5 189t-228.5 64
q-128 0 -230 -64.5t-161.5 -189.5t-59.5 -306q0 -180 59.5 -304.5t161.5 -189t230 -64.5zM996 1666q-54 0 -92 37.5t-38 90.5t38 90t92 37q53 0 91 -37t38 -90t-38 -90.5t-91 -37.5zM568 1666q-54 0 -92 37.5t-38 90.5t38 90t92 37q53 0 91 -37t38 -90t-38 -90.5t-91 -37.5z
" />
    <glyph glyph-name="uni04E7" unicode="&#x4e7;" horiz-adv-x="1217" 
d="M608 -23q-156 0 -272.5 71.5t-181 200t-64.5 298.5q0 172 64.5 301t181 200.5t272.5 71.5q157 0 273.5 -71.5t181 -200.5t64.5 -301q0 -170 -64.5 -298.5t-181 -200t-273.5 -71.5zM608 162q99 0 165.5 51.5t99.5 139t33 194.5q0 109 -33 196.5t-99.5 139.5t-165.5 52
t-164.5 -52t-98.5 -139.5t-33 -196.5q0 -107 33 -194.5t98.5 -139t164.5 -51.5zM823 1280q-54 0 -92 37.5t-38 90.5t38 90t92 37q53 0 91 -37t38 -90t-38 -90.5t-91 -37.5zM395 1280q-54 0 -92 37.5t-38 90.5t38 90t92 37q53 0 91 -37t38 -90t-38 -90.5t-91 -37.5z" />
    <glyph glyph-name="uni04E8" unicode="&#x4e8;" horiz-adv-x="1562" 
d="M1282 831v-173h-1004v173h1004zM782 -21q-195 0 -347.5 93t-240.5 264.5t-88 407.5q0 237 88 409t240.5 265t347.5 93q194 0 346.5 -93t240 -265t87.5 -409q0 -236 -87.5 -407.5t-240 -264.5t-346.5 -93zM782 186q127 0 228.5 64t160.5 189t59 305q0 182 -59 307
t-160.5 189t-228.5 64q-128 0 -230 -64.5t-161.5 -189.5t-59.5 -306q0 -180 59.5 -304.5t161.5 -189t230 -64.5z" />
    <glyph glyph-name="uni04E9" unicode="&#x4e9;" horiz-adv-x="1217" 
d="M608 -23q-156 0 -272.5 71.5t-181 200t-64.5 298.5q0 172 64.5 301t181 200.5t272.5 71.5q157 0 273.5 -71.5t181 -200.5t64.5 -301q0 -170 -64.5 -298.5t-181 -200t-273.5 -71.5zM608 162q99 0 165.5 51.5t99.5 139t33 194.5q0 109 -33 196.5t-99.5 139.5t-165.5 52
t-164.5 -52t-98.5 -139.5t-33 -196.5q0 -107 33 -194.5t98.5 -139t164.5 -51.5zM278 414l-81 63q63 80 125 133.5t140 53.5q63 0 115.5 -21.5t96 -43.5t80.5 -22q52 0 94.5 24t85.5 89l84 -57q-61 -90 -122 -140t-145 -50q-64 0 -115.5 21.5t-94.5 43t-82 21.5
q-46 0 -90.5 -28.5t-90.5 -86.5z" />
    <glyph glyph-name="uni04EA" unicode="&#x4ea;" horiz-adv-x="1562" 
d="M1282 831v-173h-1004v173h1004zM782 -21q-195 0 -347.5 93t-240.5 264.5t-88 407.5q0 237 88 409t240.5 265t347.5 93q194 0 346.5 -93t240 -265t87.5 -409q0 -236 -87.5 -407.5t-240 -264.5t-346.5 -93zM782 186q127 0 228.5 64t160.5 189t59 305q0 182 -59 307
t-160.5 189t-228.5 64q-128 0 -230 -64.5t-161.5 -189.5t-59.5 -306q0 -180 59.5 -304.5t161.5 -189t230 -64.5zM996 1666q-54 0 -92 37.5t-38 90.5t38 90t92 37q53 0 91 -37t38 -90t-38 -90.5t-91 -37.5zM568 1666q-54 0 -92 37.5t-38 90.5t38 90t92 37q53 0 91 -37t38 -90
t-38 -90.5t-91 -37.5z" />
    <glyph glyph-name="uni04EB" unicode="&#x4eb;" horiz-adv-x="1217" 
d="M608 -23q-156 0 -272.5 71.5t-181 200t-64.5 298.5q0 172 64.5 301t181 200.5t272.5 71.5q157 0 273.5 -71.5t181 -200.5t64.5 -301q0 -170 -64.5 -298.5t-181 -200t-273.5 -71.5zM608 162q99 0 165.5 51.5t99.5 139t33 194.5q0 109 -33 196.5t-99.5 139.5t-165.5 52
t-164.5 -52t-98.5 -139.5t-33 -196.5q0 -107 33 -194.5t98.5 -139t164.5 -51.5zM278 414l-81 63q63 80 125 133.5t140 53.5q63 0 115.5 -21.5t96 -43.5t80.5 -22q52 0 94.5 24t85.5 89l84 -57q-61 -90 -122 -140t-145 -50q-64 0 -115.5 21.5t-94.5 43t-82 21.5
q-46 0 -90.5 -28.5t-90.5 -86.5zM823 1280q-54 0 -92 37.5t-38 90.5t38 90t92 37q53 0 91 -37t38 -90t-38 -90.5t-91 -37.5zM395 1280q-54 0 -92 37.5t-38 90.5t38 90t92 37q53 0 91 -37t38 -90t-38 -90.5t-91 -37.5z" />
    <glyph glyph-name="uni04EC" unicode="&#x4ec;" horiz-adv-x="1498" 
d="M716 -21q-123 0 -228.5 37t-186.5 104.5t-133 160t-70 204.5h228q16 -73 51.5 -129t87 -94.5t116 -57.5t136.5 -19q132 0 233 65t158.5 189.5t57.5 304.5t-57 305t-158.5 190.5t-234.5 65.5q-72 0 -136 -19t-115.5 -57.5t-87 -94t-50.5 -130.5h-229q19 119 73 213
t136 159.5t186 100t223 34.5q196 0 348.5 -93t240 -265t87.5 -409q0 -235 -87.5 -407t-240 -265t-348.5 -93zM570 663v193h658v-193h-658zM931 1666q-54 0 -92 37.5t-38 90.5t38 90t92 37q53 0 91 -37t38 -90t-38 -90.5t-91 -37.5zM503 1666q-54 0 -92 37.5t-38 90.5t38 90
t92 37q53 0 91 -37t38 -90t-38 -90.5t-91 -37.5z" />
    <glyph glyph-name="uni04ED" unicode="&#x4ed;" horiz-adv-x="1162" 
d="M555 -23q-89 0 -167 24t-139.5 70t-103 110t-59.5 145l205 38q11 -46 33.5 -83.5t56 -64t77.5 -41t97 -14.5q101 0 167.5 51.5t99.5 139t33 195.5q0 109 -33 197t-99.5 140t-167.5 52q-52 0 -95.5 -14t-77 -40t-56 -62t-32.5 -79l-205 37q18 79 59.5 142.5t102.5 108
t138 68t166 23.5q156 0 272.5 -71.5t180.5 -200.5t64 -301q0 -170 -64 -298.5t-180.5 -200t-272.5 -71.5zM882 470h-473v168h473v-168zM770 1280q-54 0 -92 37.5t-38 90.5t38 90t92 37q53 0 91 -37t38 -90t-38 -90.5t-91 -37.5zM342 1280q-54 0 -92 37.5t-38 90.5t38 90
t92 37q53 0 91 -37t38 -90t-38 -90.5t-91 -37.5z" />
    <glyph glyph-name="uni04EE" unicode="&#x4ee;" horiz-adv-x="1314" 
d="M254 0v200h109q75 0 117.5 23t62.5 76l25 65l-525 1126h255l186 -420q52 -116 89.5 -218t68 -197t61.5 -189h-66q45 130 95 278t122 326l168 420h249l-520 -1230q-34 -79 -78.5 -137.5t-116 -90.5t-184.5 -32h-118zM938 1867v-158h-562v158h562z" />
    <glyph glyph-name="uni04EF" unicode="&#x4ef;" horiz-adv-x="1156" 
d="M133 -406l42 180l45 -6q51 -11 92 -3t71.5 41.5t49.5 99.5l29 92l-421 1106h235l219 -623q36 -100 61 -199.5t53 -198.5h-66q28 99 55 199t62 199l222 623h232l-484 -1266q-33 -86 -81.5 -144.5t-114.5 -88t-152 -29.5q-47 0 -86.5 6t-62.5 12zM858 1481v-158h-562v158
h562z" />
    <glyph glyph-name="uni04F0" unicode="&#x4f0;" horiz-adv-x="1314" 
d="M254 0v200h109q75 0 117.5 23t62.5 76l25 65l-525 1126h255l186 -420q52 -116 89.5 -218t68 -197t61.5 -189h-66q45 130 95 278t122 326l168 420h249l-520 -1230q-34 -79 -78.5 -137.5t-116 -90.5t-184.5 -32h-118zM872 1666q-54 0 -92 37.5t-38 90.5t38 90t92 37
q53 0 91 -37t38 -90t-38 -90.5t-91 -37.5zM444 1666q-54 0 -92 37.5t-38 90.5t38 90t92 37q53 0 91 -37t38 -90t-38 -90.5t-91 -37.5z" />
    <glyph glyph-name="uni04F1" unicode="&#x4f1;" horiz-adv-x="1156" 
d="M133 -406l42 180l45 -6q51 -11 92 -3t71.5 41.5t49.5 99.5l29 92l-421 1106h235l219 -623q36 -100 61 -199.5t53 -198.5h-66q28 99 55 199t62 199l222 623h232l-484 -1266q-33 -86 -81.5 -144.5t-114.5 -88t-152 -29.5q-47 0 -86.5 6t-62.5 12zM792 1280q-54 0 -92 37.5
t-38 90.5t38 90t92 37q53 0 91 -37t38 -90t-38 -90.5t-91 -37.5zM364 1280q-54 0 -92 37.5t-38 90.5t38 90t92 37q53 0 91 -37t38 -90t-38 -90.5t-91 -37.5z" />
    <glyph glyph-name="uni04F2" unicode="&#x4f2;" horiz-adv-x="1314" 
d="M254 0v200h109q75 0 117.5 23t62.5 76l25 65l-525 1126h255l186 -420q52 -116 89.5 -218t68 -197t61.5 -189h-66q45 130 95 278t122 326l168 420h249l-520 -1230q-34 -79 -78.5 -137.5t-116 -90.5t-184.5 -32h-118zM501 1632h-167l116 301h222zM831 1632h-170l170 301
h229z" />
    <glyph glyph-name="uni04F3" unicode="&#x4f3;" horiz-adv-x="1156" 
d="M133 -406l42 180l45 -6q51 -11 92 -3t71.5 41.5t49.5 99.5l29 92l-421 1106h235l219 -623q36 -100 61 -199.5t53 -198.5h-66q28 99 55 199t62 199l222 623h232l-484 -1266q-33 -86 -81.5 -144.5t-114.5 -88t-152 -29.5q-47 0 -86.5 6t-62.5 12zM421 1246h-167l116 301
h222zM751 1246h-170l170 301h229z" />
    <glyph glyph-name="uni04F4" unicode="&#x4f4;" horiz-adv-x="1424" 
d="M651 547q-157 0 -271.5 50.5t-176.5 157.5t-62 275v460h228v-452q0 -154 86 -225t231 -71q119 0 222.5 38t191.5 101v-195q-95 -66 -204 -102.5t-245 -36.5zM1039 0v1490h227v-1490h-227zM919 1666q-54 0 -92 37.5t-38 90.5t38 90t92 37q53 0 91 -37t38 -90t-38 -90.5
t-91 -37.5zM491 1666q-54 0 -92 37.5t-38 90.5t38 90t92 37q53 0 91 -37t38 -90t-38 -90.5t-91 -37.5z" />
    <glyph glyph-name="uni04F5" unicode="&#x4f5;" horiz-adv-x="1184" 
d="M593 335q-211 0 -331.5 102.5t-120.5 309.5v357h219v-356q0 -118 64 -171t169 -53q98 0 182 19t171 50v-190q-51 -19 -107 -35t-117 -24.5t-129 -8.5zM825 0v1104h218v-1104h-218zM808 1280q-54 0 -92 37.5t-38 90.5t38 90t92 37q53 0 91 -37t38 -90t-38 -90.5t-91 -37.5
zM380 1280q-54 0 -92 37.5t-38 90.5t38 90t92 37q53 0 91 -37t38 -90t-38 -90.5t-91 -37.5z" />
    <glyph glyph-name="uni04F6" unicode="&#x4f6;" horiz-adv-x="1171" 
d="M1090 1490v-195h-704v-1295h-228v1490h932zM315 -320v320h-79v191h299l-5 -511h-215z" />
    <glyph glyph-name="uni04F7" unicode="&#x4f7;" horiz-adv-x="899" 
d="M857 1104v-190h-497v-914h-219v1104h716zM289 -320v320h-79v191h299l-5 -511h-215z" />
    <glyph glyph-name="uni04F8" unicode="&#x4f8;" horiz-adv-x="1806" 
d="M316 922h398q161 0 278 -55t180.5 -157t63.5 -242q0 -143 -63 -248.5t-179.5 -162.5t-277.5 -57h-558v1490h228v-1298h326q138 0 218.5 75t80.5 203q0 81 -36.5 139t-103.5 89.5t-159 31.5h-396v192zM1648 1490v-1490h-228v1490h228zM1086 1666q-54 0 -92 37.5t-38 90.5
t38 90t92 37q53 0 91 -37t38 -90t-38 -90.5t-91 -37.5zM658 1666q-54 0 -92 37.5t-38 90.5t38 90t92 37q53 0 91 -37t38 -90t-38 -90.5t-91 -37.5z" />
    <glyph glyph-name="uni04F9" unicode="&#x4f9;" horiz-adv-x="1529" 
d="M307 727h325q134 0 229 -46t145.5 -127t50.5 -188q0 -105 -50.5 -188t-145.5 -130.5t-229 -47.5h-491v1104h219v-915h271q93 0 151 47.5t58 124.5q0 80 -58 128.5t-151 48.5h-324v189zM1169 0v1104h219v-1104h-219zM976 1280q-54 0 -92 37.5t-38 90.5t38 90t92 37
q53 0 91 -37t38 -90t-38 -90.5t-91 -37.5zM548 1280q-54 0 -92 37.5t-38 90.5t38 90t92 37q53 0 91 -37t38 -90t-38 -90.5t-91 -37.5z" />
    <glyph glyph-name="uni04FA" unicode="&#x4fa;" horiz-adv-x="1222" 
d="M1142 1490v-195h-704v-1295h-228v1490h932zM21 659v172h830v-172h-830zM267 -427q-32 0 -63 2.5t-59 8.5l11 177q25 -3 52.5 -4.5t51.5 -1.5q62 0 97.5 38.5t35.5 121.5v85h-85v177h295l-2 -244q-1 -176 -86.5 -268t-247.5 -92z" />
    <glyph glyph-name="uni04FB" unicode="&#x4fb;" horiz-adv-x="899" 
d="M857 1104v-190h-497v-914h-219v1104h716zM-5 480v154h673v-154h-673zM189 -427q-32 0 -63 2.5t-59 8.5l11 177q25 -3 52.5 -4.5t51.5 -1.5q62 0 97.5 38.5t35.5 121.5v85h-85v177h295l-2 -244q-1 -176 -86.5 -268t-247.5 -92z" />
    <glyph glyph-name="uni04FC" unicode="&#x4fc;" horiz-adv-x="1487" 
d="M47 0l593 846v-169l-555 813h263l198 -295q44 -65 74.5 -115.5t57 -99t57.5 -106.5h-48q32 58 58.5 106t58 99t75.5 116l202 295h256l-551 -803v166l585 -853h-265l-244 357q-39 59 -67 103t-52.5 87t-54.5 98h43q-29 -53 -54 -96t-53.5 -88t-69.5 -104l-247 -357h-260z
M1133 -427q-32 0 -63 2.5t-59 8.5l11 177q25 -3 52.5 -4.5t51.5 -1.5q62 0 97.5 38.5t35.5 121.5v85h-85v177h295l-2 -244q-1 -176 -86.5 -268t-247.5 -92z" />
    <glyph glyph-name="uni04FD" unicode="&#x4fd;" horiz-adv-x="1065" 
d="M665 -432q-31 0 -63 2.5t-60 8.5l11 189q19 -5 51 -8.5t56 -3.5q64 0 99 39t35 118q0 32 -8 60.5t-27.5 65t-54.5 91.5l-171 267l-243 -397h-240l344 551l-340 553h240l239 -414l242 414h239l-344 -553l217 -346q42 -67 67.5 -121.5t37 -103t11.5 -96.5q0 -98 -40.5 -169
t-116 -109t-181.5 -38z" />
    <glyph glyph-name="uni04FE" unicode="&#x4fe;" horiz-adv-x="1418" 
d="M165 692v148h1081v-148h-1081zM47 0l593 846v-169l-555 813h263l198 -295q44 -65 74.5 -115.5t57 -99t57.5 -106.5h-48q32 58 58.5 106t58 99t75.5 116l202 295h256l-551 -803v166l585 -853h-265l-244 357q-39 59 -67 103t-52.5 87t-54.5 98h43q-29 -53 -54 -96
t-53.5 -88t-69.5 -104l-247 -357h-260z" />
    <glyph glyph-name="uni04FF" unicode="&#x4ff;" horiz-adv-x="1123" 
d="M103 493v140h911v-140h-911zM50 0l438 647l-1 -161l-414 618h246l127 -200q49 -80 88.5 -153.5t80.5 -143.5h-98q42 70 79 143.5t88 153.5l130 200h242l-418 -623v158l435 -639h-245l-150 232q-50 79 -88.5 150.5t-79.5 139.5h98q-40 -68 -76.5 -139.5t-86.5 -150.5
l-151 -232h-244z" />
    <glyph glyph-name="uni052F" unicode="&#x52f;" horiz-adv-x="1226" 
d="M19 0v189h39q47 0 78.5 18t51.5 63.5t31.5 127.5t16.5 210l20 496h791v-1104h-218v915h-365l-17 -366q-8 -188 -45 -310t-111.5 -180.5t-196.5 -58.5h-75zM976 -320v320h-79v191h299l-5 -511h-215z" />
    <glyph glyph-name="m.sc" horiz-adv-x="1588" 
d="M141 0v1104h330l225 -561q21 -54 38 -107.5t30.5 -106.5t25.5 -103t22 -97h-35q10 45 21.5 95t25.5 103t30.5 107.5t37.5 108.5l222 561h332v-1104h-216v525q0 58 1 118t2 121.5t2 123.5t2 123h23q-23 -88 -46.5 -167.5t-50.5 -156.5t-61 -161l-215 -526h-188l-217 526
q-35 84 -62 161.5t-51 156.5t-47 167h27q0 -55 1.5 -116t3 -123.5t2 -124.5t0.5 -122v-525h-215z" />
    <glyph glyph-name="t.sc" horiz-adv-x="981" 
d="M382 0v919h-363v185h943v-185h-362v-919h-218z" />
    <glyph glyph-name="uni20B4" unicode="&#x20b4;" horiz-adv-x="1353" 
d="M683 1317q-71 0 -115 -18t-67.5 -47t-32.5 -62t-10 -62h-238q3 109 51.5 195t148.5 136.5t262 50.5q142 0 241.5 -40.5t151.5 -117.5t52 -187q0 -68 -31.5 -129.5t-85.5 -106.5l-196 57q37 40 62 82t25 90q0 72 -54.5 115.5t-163.5 43.5zM1228 820h-1102v176h1102v-176z
M1228 514h-1102v175h1102v-175zM677 -20q-223 0 -347 91.5t-124 260.5q0 69 34.5 134t91.5 102l207 -36q-53 -45 -76 -92t-23 -100q0 -77 61.5 -120.5t175.5 -43.5q110 0 178.5 44t70.5 144h237q-2 -131 -60.5 -216.5t-166 -126.5t-259.5 -41z" />
    </font>
</defs>
</svg>
