<?xml version="1.0" standalone="no"?>
<!DOCTYPE svg PUBLIC "-//W3C//DTD SVG 1.1//EN" "http://www.w3.org/Graphics/SVG/1.1/DTD/svg11.dtd" >
<svg xmlns="http://www.w3.org/2000/svg" xmlns:xlink="http://www.w3.org/1999/xlink" version="1.1">
<metadata>
Created by FontForge 20201107 at Fri May 24 21:06:21 2024
 By 
Copyright 2016 The Inter Project Authors (https://github.com/rsms/inter)
</metadata>
<defs>
<font id="Inter18pt-Regular" horiz-adv-x="0" >
  <font-face 
    font-family="Inter 18pt"
    font-weight="400"
    font-stretch="normal"
    units-per-em="2048"
    panose-1="2 0 5 3 0 0 0 2 0 4"
    ascent="1638"
    descent="-410"
    x-height="1104"
    cap-height="1490"
    bbox="-1519.02 -448 2638 1929"
    underline-thickness="140"
    underline-position="-387"
    unicode-range="U+0020-A69F"
  />
<missing-glyph horiz-adv-x="1344" 
d="M1016 -416h-688v2272h688v-2272zM512 -192v-64h320v64h-215l215 127v65h-320v-64h216zM512 320v-256h320v256h-320zM768 128h-192v128h192v-128zM512 704v-256h320v256h-192v-128h64v64h64v-128h-192v192h-64zM512 832v-64h320v224h-64v-160h-256zM512 960v-64h192v160
h128v64h-320v-64h128v-96h-128zM640 1248h-64v96h64v-96zM512 1408v-224h320v64h-128v160h-192zM512 1536v-64h320v64h-144v96h144v64h-320v-64h112v-96h-112z" />
    <glyph glyph-name=".notdef" horiz-adv-x="1344" 
d="M1016 -416h-688v2272h688v-2272zM512 -192v-64h320v64h-215l215 127v65h-320v-64h216zM512 320v-256h320v256h-320zM768 128h-192v128h192v-128zM512 704v-256h320v256h-192v-128h64v64h64v-128h-192v192h-64zM512 832v-64h320v224h-64v-160h-256zM512 960v-64h192v160
h128v64h-320v-64h128v-96h-128zM640 1248h-64v96h64v-96zM512 1408v-224h320v64h-128v160h-192zM512 1536v-64h320v64h-144v96h144v64h-320v-64h112v-96h-112z" />
    <glyph glyph-name=".null" horiz-adv-x="933" 
 />
    <glyph glyph-name="nonmarkingreturn" horiz-adv-x="682" 
 />
    <glyph glyph-name="space" unicode=" " horiz-adv-x="562" 
 />
    <glyph glyph-name="three" horiz-adv-x="1256" 
d="M632 -21q-148 0 -262 53t-181 146.5t-70 217.5h189q5 -78 47 -135t113 -87t160 -30q96 0 169.5 33t116 93.5t42.5 139.5q0 81 -42 142t-120 95.5t-189 34.5h-121v164h121q89 0 157 31t105.5 87.5t37.5 132.5t-33.5 132.5t-95.5 87t-145 30.5q-81 0 -148 -29t-108 -83.5
t-43 -132.5h-181q3 121 68 213t173.5 144t241.5 52q138 0 240.5 -55.5t158.5 -147.5t56 -201q0 -123 -67.5 -211t-183.5 -123v-10q95 -15 163 -64t104 -123.5t36 -167.5q0 -123 -66 -220t-181.5 -153t-261.5 -56z" />
    <glyph glyph-name="A" horiz-adv-x="1396" 
d="M45 0l543 1490h216l547 -1490h-198l-315 887q-30 84 -68.5 204.5t-93.5 309.5h39q-55 -190 -94.5 -312.5t-66.5 -201.5l-310 -887h-199zM320 416v165h757v-165h-757z" />
    <glyph glyph-name="B" horiz-adv-x="1333" 
d="M173 0v1490h530q155 0 257.5 -52.5t154 -141.5t51.5 -201q0 -94 -33 -156.5t-88 -100.5t-123 -58v-12q74 -6 143 -49.5t114.5 -123t45.5 -193.5q0 -116 -53 -206.5t-165 -143t-289 -52.5h-545zM361 166h353q173 0 250.5 66.5t77.5 169.5q0 76 -38.5 138.5t-109.5 99
t-170 36.5h-363v-510zM361 836h336q83 0 148 31t102.5 88t37.5 134q0 101 -70 168t-213 67h-341v-488z" />
    <glyph glyph-name="C" horiz-adv-x="1492" 
d="M782 -21q-194 0 -345 94t-236.5 266t-85.5 405q0 235 85.5 406.5t236.5 266t345 94.5q114 0 215 -33.5t181.5 -97.5t134 -155t73.5 -207h-189q-16 78 -54.5 137t-94.5 100t-123.5 61.5t-142.5 20.5q-139 0 -248.5 -70t-172 -202.5t-62.5 -320.5q0 -187 63 -319.5
t172.5 -202t247.5 -69.5q75 0 142.5 21t123 61.5t94.5 99.5t56 136h188q-19 -114 -73 -204.5t-134 -155t-181 -98.5t-216 -34z" />
    <glyph glyph-name="E" horiz-adv-x="1221" 
d="M173 0v1490h921v-166h-733v-486h682v-167h-682v-505h740v-166h-928z" />
    <glyph glyph-name="H" horiz-adv-x="1506" 
d="M173 0v1490h188v-645h784v645h188v-1490h-188v679h-784v-679h-188z" />
    <glyph glyph-name="I" horiz-adv-x="534" 
d="M361 1490v-1490h-188v1490h188z" />
    <glyph glyph-name="J" horiz-adv-x="1153" 
d="M538 -20q-196 0 -320 116t-124 330v80h188v-80q0 -137 70.5 -209t185.5 -72t185.5 72t70.5 209v1064h187v-1064q0 -214 -123 -330t-320 -116z" />
    <glyph glyph-name="M" horiz-adv-x="1829" 
d="M173 0v1490h264l370 -945q13 -33 29.5 -82t35.5 -105t36 -111t29 -100h-42q13 43 30 97t35.5 110.5t36 107t30.5 83.5l364 945h265v-1490h-185v854q0 46 0.5 104.5t2 121.5t3 128.5t2.5 126.5h18q-21 -69 -45 -139t-46 -135t-41.5 -118t-33.5 -89l-336 -854h-161
l-341 854q-14 35 -32.5 87t-41 116t-47 135t-49.5 143h21q2 -56 3.5 -119.5t2.5 -128t2 -124.5t1 -109v-854h-180z" />
    <glyph glyph-name="O" horiz-adv-x="1559" 
d="M780 -21q-192 0 -342.5 94t-236.5 266t-86 405q0 234 86 406t236.5 266.5t342.5 94.5q193 0 342.5 -94.5t235.5 -266.5t86 -406q0 -233 -86 -405t-235.5 -266t-342.5 -94zM780 153q134 0 242.5 68t173 200t64.5 323q0 192 -64.5 324.5t-173 200.5t-242.5 68t-243 -68.5
t-173.5 -200.5t-64.5 -324q0 -191 64.5 -322.5t173.5 -200t243 -68.5z" />
    <glyph glyph-name="P" horiz-adv-x="1296" 
d="M173 0v1490h515q170 0 283 -61.5t169 -167.5t56 -240t-56.5 -241t-169.5 -169t-283 -62h-377v166h371q115 0 187.5 39t106.5 108.5t34 158.5t-34 157.5t-107 107.5t-189 39h-318v-1325h-188z" />
    <glyph glyph-name="S" horiz-adv-x="1302" 
d="M653 -26q-163 0 -283.5 54.5t-187.5 152t-74 229.5h192q6 -89 54 -148.5t126.5 -89t172.5 -29.5q103 0 183.5 33t127 92.5t46.5 138.5q0 70 -38 115.5t-104.5 75.5t-152.5 53l-177 49q-191 52 -291 146.5t-100 243.5q0 127 67 221.5t183 147t262 52.5q149 0 262.5 -53
t178.5 -146t69 -212h-184q-12 116 -103 180t-229 64q-96 0 -169 -32t-113.5 -87t-40.5 -126q0 -73 44.5 -119.5t111 -74.5t132.5 -46l153 -41q71 -18 145 -48.5t137 -77.5t102 -117t39 -168q0 -124 -64.5 -222t-185.5 -154.5t-291 -56.5z" />
    <glyph glyph-name="T" horiz-adv-x="1306" 
d="M87 1324v166h1132v-166h-471v-1324h-188v1324h-473z" />
    <glyph glyph-name="X" horiz-adv-x="1380" 
d="M50 0l582 832v-139l-549 797h217l216 -317q45 -65 75.5 -113t57.5 -94.5t59 -107.5h-32q32 60 59 106.5t59 95t76 113.5l220 317h213l-549 -789v138l576 -839h-216l-262 379q-39 59 -68.5 103.5t-55.5 89t-57 103.5h41q-30 -56 -57 -101t-57 -90t-71 -105l-264 -379h-213
z" />
    <glyph glyph-name="Y" horiz-adv-x="1374" 
d="M593 0v611l-548 879h217l296 -481q49 -79 88.5 -152.5t80.5 -176.5h-76q41 105 80.5 179t85.5 150l295 481h217l-548 -879v-611h-188z" />
    <glyph glyph-name="a" horiz-adv-x="1130" 
d="M466 -24q-106 0 -191.5 39t-136 115t-50.5 185q0 95 37.5 154t100 93.5t139 51.5t154.5 27q101 13 162.5 20t91 23.5t29.5 57.5v7q0 67 -26.5 115t-78.5 73.5t-129 25.5q-79 0 -135.5 -24.5t-92 -63t-49.5 -81.5l-173 45q34 101 103 162.5t158.5 90t184.5 28.5
q64 0 136 -16.5t135.5 -57.5t103.5 -116.5t40 -194.5v-735h-175v152h-10q-19 -39 -60 -80t-107 -68.5t-161 -27.5zM495 134q101 0 169 38.5t103 100.5t35 130v150q-11 -12 -45.5 -22t-80 -18t-90 -13.5t-75.5 -9.5q-64 -8 -120 -27.5t-90 -56.5t-34 -100q0 -56 29.5 -94.5
t80.5 -58t118 -19.5z" />
    <glyph glyph-name="c" horiz-adv-x="1148" 
d="M602 -24q-151 0 -264.5 71.5t-177 200.5t-63.5 298q0 172 63.5 301.5t177 201t264.5 71.5q83 0 156 -22t132 -64t101 -101.5t62 -134.5l-173 -38q-11 44 -35.5 80.5t-59.5 63.5t-81 42t-102 15q-109 0 -181 -56.5t-108 -150.5t-36 -208q0 -112 36 -205.5t107.5 -149.5
t181.5 -56q56 0 102.5 15t82.5 43t60 66.5t36 83.5l173 -38q-20 -76 -62 -136t-101.5 -103.5t-133.5 -66.5t-157 -23z" />
    <glyph glyph-name="e" horiz-adv-x="1173" 
d="M613 -24q-160 0 -276 72t-178 200t-62 297t61.5 299t174 203t261.5 73q94 0 181 -31.5t156 -99t109 -173.5t40 -253v-69h-868v150h771l-81 -54q0 109 -35.5 193t-104 131.5t-168.5 47.5q-99 0 -170.5 -48t-109.5 -127.5t-38 -174.5v-94q0 -121 41.5 -207t118 -131
t178.5 -45q68 0 122.5 20t93.5 59t59 96l173 -38q-25 -87 -87 -154t-154.5 -104.5t-207.5 -37.5z" />
    <glyph glyph-name="h" horiz-adv-x="1191" 
d="M329 658v-658h-178v1490h178v-653h-36q51 152 145 217.5t221 65.5q112 0 198 -46.5t134.5 -140t48.5 -235.5v-698h-179v684q0 130 -67 202.5t-184 72.5q-80 0 -143.5 -34t-100.5 -101t-37 -166z" />
    <glyph glyph-name="l" horiz-adv-x="480" 
d="M329 1490v-1490h-178v1490h178z" />
    <glyph glyph-name="o" horiz-adv-x="1205" 
d="M602 -24q-151 0 -264.5 71.5t-177 200.5t-63.5 298q0 172 63.5 301.5t177 201t264.5 71.5t265 -71.5t177.5 -201t63.5 -301.5q0 -169 -63.5 -298t-177.5 -200.5t-265 -71.5zM602 135q110 0 182.5 56t108 149.5t35.5 205.5q0 113 -35.5 207.5t-108 151t-182.5 56.5
q-109 0 -181 -56.5t-108 -150.5t-36 -208q0 -112 36 -205.5t107.5 -149.5t181.5 -56z" />
    <glyph glyph-name="p" horiz-adv-x="1233" 
d="M151 -418v1522h172v-174h16q22 37 60 81t102 76.5t164 32.5q140 0 245.5 -70t165.5 -198t60 -302q0 -175 -59.5 -303.5t-165 -199t-245.5 -70.5q-97 0 -161.5 32.5t-103 77.5t-61.5 83h-11v-588h-178zM639 136q102 0 172.5 54t107 148t36.5 213t-36 211.5t-106.5 145.5
t-173.5 53q-102 0 -172 -51.5t-106.5 -143.5t-36.5 -215t36.5 -216.5t107.5 -146t171 -52.5z" />
    <glyph glyph-name="s" horiz-adv-x="1057" 
d="M528 -24q-114 0 -204 34.5t-148 102.5t-75 168l170 32q21 -93 86.5 -137.5t168.5 -44.5q115 0 183.5 49.5t68.5 118.5q0 58 -41.5 96t-121.5 56l-183 44q-151 35 -225 110.5t-74 192.5q0 95 52.5 167.5t144.5 113.5t210 41q114 0 196 -36t132.5 -100t70.5 -148l-163 -33
q-18 65 -73.5 115.5t-161.5 50.5q-100 0 -164.5 -46t-64.5 -116q0 -62 45 -99t138 -59l169 -40q152 -36 224.5 -110.5t72.5 -189.5q0 -98 -55 -173t-152.5 -117.5t-225.5 -42.5z" />
    <glyph glyph-name="x" horiz-adv-x="1100" 
d="M57 0l441 634l-1 -136l-417 606h208l140 -215q51 -79 91 -149.5t82 -137.5h-92q43 67 80 137.5t89 149.5l143 215h204l-419 -612v132l437 -624h-207l-165 249q-50 77 -89 145t-80 132h93q-41 -64 -77.5 -132t-87.5 -145l-167 -249h-206z" />
    <glyph glyph-name="y" horiz-adv-x="1128" 
d="M139 -408l35 155l38 -4q50 -11 91 -3t73.5 44t57.5 108l38 105l-423 1107h194l236 -651q36 -97 62 -193.5t54 -187.5h-61q28 91 54.5 187.5t61.5 193.5l237 651h192l-490 -1277q-32 -85 -78.5 -141t-108 -83t-138.5 -27q-43 0 -76 5.5t-49 10.5z" />
    <glyph glyph-name="AE" horiz-adv-x="2023" 
d="M45 0l707 1490h1143v-166h-733v-494h684v-166h-684v-498h741v-166h-922v1359h-104l-628 -1359h-204zM385 423v159h686v-159h-686z" />
    <glyph glyph-name="ae" horiz-adv-x="1858" 
d="M472 -23q-110 0 -197 40t-137 116t-50 182q0 91 40.5 154t109 101.5t153.5 56t174 17.5h1097l-81 -60q11 109 -23.5 194.5t-105 134.5t-170.5 49q-99 0 -171.5 -48t-111.5 -127.5t-39 -174.5v-94q0 -121 42 -206.5t118 -131t177 -45.5q69 0 123.5 20t93.5 59t59 96
l174 -35q-24 -89 -86.5 -156t-155 -105t-208.5 -38q-120 0 -215.5 41t-157.5 114t-86 169l24 539q37 86 96.5 149t141 97.5t182.5 34.5q94 0 180.5 -31.5t155 -99t108 -173.5t39.5 -253v-69h-1199q-83 0 -151 -20.5t-108 -62t-40 -104.5q0 -86 64 -129.5t164 -43.5
q101 0 169 38.5t102 100.5t34 130v346q0 67 -26 115t-77.5 73.5t-128.5 25.5q-79 0 -135.5 -24.5t-92 -63t-49.5 -81.5l-173 45q34 101 103 162.5t158.5 90t184.5 28.5q78 0 156 -23.5t138.5 -82.5t84.5 -165l-32 -640h-19q-18 -50 -58 -92.5t-96 -73.5t-124 -48.5
t-142 -17.5z" />
    <glyph glyph-name="dotlessi" horiz-adv-x="480" 
d="M151 0v1104h178v-1104h-178z" />
    <glyph glyph-name="eturn" horiz-adv-x="1173" 
d="M559 1128q161 0 276.5 -71.5t178 -199.5t62.5 -297t-62 -299t-174 -203.5t-262 -73.5q-93 0 -180 31.5t-156 99t-109 173.5t-40 254v68h868v-150h-772l82 55q0 -110 35.5 -194t104 -131.5t167.5 -47.5q100 0 171.5 48t109.5 128t38 174v95q0 121 -42 206.5t-117.5 131
t-178.5 45.5q-68 0 -123 -20t-93.5 -59.5t-58.5 -96.5l-173 38q25 88 87 154.5t154.5 104t206.5 37.5z" />
    <glyph glyph-name="uni0237" horiz-adv-x="480" 
d="M150 1104h179v-1199q0 -99 -36 -172t-106.5 -112t-174.5 -39h-45v162h39q75 0 109.5 42.5t34.5 124.5v1193z" />
    <glyph glyph-name="h.sc" horiz-adv-x="1188" 
d="M900 650v-165h-614v165h614zM329 1104v-1104h-178v1104h178zM1037 1104v-1104h-177v1104h177z" />
    <glyph glyph-name="hungarumlaut" horiz-adv-x="970" 
d="M298 1248h-146l118 295h199zM618 1248h-148l168 295h200z" />
    <glyph glyph-name="gravecomb" 
d="M325 1248l-193 295h200l140 -295h-147z" />
    <glyph glyph-name="acutecomb" 
d="M150 1248l140 295h200l-194 -295h-146z" />
    <glyph glyph-name="uni0304" 
d="M750 1474v-141h-554v141h554z" />
    <glyph glyph-name="uni0306" 
d="M391 1261q-80 0 -145.5 37.5t-104 101.5t-38.5 143h131q0 -68 44.5 -111.5t112.5 -43.5q69 0 113.5 43.5t44.5 111.5h131q0 -79 -38 -143t-103.5 -101.5t-147.5 -37.5z" />
    <glyph glyph-name="uni0307" 
d="M239 1292q-50 0 -86.5 35t-36.5 84t36.5 83.5t86.5 34.5q51 0 87.5 -34.5t36.5 -83.5t-36.5 -84t-87.5 -35z" />
    <glyph glyph-name="uni0308" 
d="M806 1292q-49 0 -84 35t-35 84q0 48 35 82.5t84 34.5q48 0 82.5 -34.5t34.5 -82.5q0 -49 -34.5 -84t-82.5 -35zM385 1292q-49 0 -83.5 35t-34.5 84q0 48 35 82.5t83 34.5q49 0 83.5 -34.5t34.5 -82.5q0 -49 -34.5 -84t-83.5 -35z" />
    <glyph glyph-name="uni030F" 
d="M672 1248l-171 295h199l118 -295h-146zM352 1248l-220 295h200l168 -295h-148z" />
    <glyph glyph-name="uni0327" 
d="M150 -418v105h117q54 0 76.5 15t22.5 51t-22.5 50.5t-76.5 14.5h-81l30 230h94v-48v-86q96 -4 142.5 -43.5t46.5 -118.5q0 -88 -57 -129t-174 -41h-118z" />
    <glyph glyph-name="Pi" horiz-adv-x="1506" 
d="M1333 1490v-1490h-188v1324h-784v-1324h-188v1490h1160z" />
    <glyph glyph-name="Psi" horiz-adv-x="1786" 
d="M1431 1490h182v-384q0 -168 -41.5 -293.5t-124 -209t-204.5 -125.5t-284 -42h-133q-160 0 -282.5 42t-204.5 125.5t-124 209t-42 293.5v384h182v-373q0 -188 47 -302.5t150.5 -166.5t273.5 -52h134q171 0 274.5 52t150 166.5t46.5 302.5v373zM802 1490h182v-1490h-182
v1490z" />
    <glyph glyph-name="gamma" horiz-adv-x="1128" 
d="M478 -19l-429 1123h194l236 -651q36 -97 62 -193.5t54 -187.5h-60q28 91 54.5 187.5t61.5 193.5l235 651h193l-430 -1123h-171zM475 -418v426h178v-426h-178z" />
    <glyph glyph-name="psi" horiz-adv-x="1575" 
d="M698 -20q-173 0 -295.5 69.5t-187 202t-64.5 320.5v532h178v-530q0 -145 42.5 -241.5t125.5 -145t201 -48.5h178q120 0 202 48.5t125.5 145t43.5 241.5v530h178v-532q0 -188 -65 -320.5t-187.5 -202t-296.5 -69.5h-178zM698 -418v1793h178v-1793h-178z" />
    <glyph glyph-name="uni03F4" horiz-adv-x="1559" 
d="M1285 824v-160h-1024v160h1024zM780 -21q-192 0 -342.5 94t-236.5 266t-86 405q0 234 86 406t236.5 266.5t342.5 94.5q193 0 342.5 -94.5t235.5 -266.5t86 -406q0 -233 -86 -405t-235.5 -266t-342.5 -94zM780 153q134 0 242.5 68t173 200t64.5 323q0 192 -64.5 324.5
t-173 200.5t-242.5 68t-243 -68.5t-173.5 -200.5t-64.5 -324q0 -191 64.5 -322.5t173.5 -200t243 -68.5z" />
    <glyph glyph-name="uni0400" unicode="&#x400;" horiz-adv-x="1221" 
d="M173 0v1490h921v-166h-733v-486h682v-167h-682v-505h740v-166h-928zM567 1634l-193 295h200l140 -295h-147z" />
    <glyph glyph-name="uni0401" unicode="&#x401;" horiz-adv-x="1221" 
d="M173 0v1490h921v-166h-733v-486h682v-167h-682v-505h740v-166h-928zM848 1678q-49 0 -84 35t-35 84q0 48 35 82.5t84 34.5q48 0 82.5 -34.5t34.5 -82.5q0 -49 -34.5 -84t-82.5 -35zM427 1678q-49 0 -83.5 35t-34.5 84q0 48 35 82.5t83 34.5q49 0 83.5 -34.5t34.5 -82.5
q0 -49 -34.5 -84t-83.5 -35z" />
    <glyph glyph-name="uni0402" unicode="&#x402;" horiz-adv-x="1708" 
d="M87 1324v166h1132v-166h-471v-1324h-188v1324h-473zM977 -89v175h107q156 0 248 88t92 238q0 152 -92.5 242.5t-247.5 90.5q-156 0 -247.5 -95.5t-91.5 -260.5h-88q0 174 48 292.5t144 178.5t238 60q154 0 272 -64.5t185 -179t67 -264.5q0 -149 -67 -262t-186 -176
t-274 -63h-107z" />
    <glyph glyph-name="uni0403" unicode="&#x403;" horiz-adv-x="1166" 
d="M1078 1490v-165h-717v-1325h-188v1490h905zM549 1634l140 295h200l-194 -295h-146z" />
    <glyph glyph-name="uni0404" unicode="&#x404;" horiz-adv-x="1492" 
d="M782 -21q-194 0 -345 94t-236.5 266t-85.5 405q0 235 85.5 406.5t236.5 266t345 94.5q114 0 215 -33.5t181.5 -97.5t134 -155t73.5 -207h-189q-16 78 -54.5 137t-94.5 100t-123.5 61.5t-143.5 20.5q-138 0 -247.5 -69.5t-172 -202t-62.5 -321.5q0 -188 62.5 -320
t172 -201.5t247.5 -69.5q76 0 143.5 20.5t123 61.5t94.5 100t56 136h188q-19 -114 -73 -204.5t-134 -155t-181 -98.5t-216 -34zM235 678v165h690v-165h-690z" />
    <glyph glyph-name="uni0405" unicode="&#x405;" horiz-adv-x="1302" 
d="M653 -26q-163 0 -283.5 54.5t-187.5 152t-74 229.5h192q6 -89 54 -148.5t126.5 -89t172.5 -29.5q103 0 183.5 33t127 92.5t46.5 138.5q0 70 -38 115.5t-104.5 75.5t-152.5 53l-177 49q-191 52 -291 146.5t-100 243.5q0 127 67 221.5t183 147t262 52.5q149 0 262.5 -53
t178.5 -146t69 -212h-184q-12 116 -103 180t-229 64q-96 0 -169 -32t-113.5 -87t-40.5 -126q0 -73 44.5 -119.5t111 -74.5t132.5 -46l153 -41q71 -18 145 -48.5t137 -77.5t102 -117t39 -168q0 -124 -64.5 -222t-185.5 -154.5t-291 -56.5z" />
    <glyph glyph-name="uni0406" unicode="&#x406;" horiz-adv-x="534" 
d="M361 1490v-1490h-188v1490h188z" />
    <glyph glyph-name="uni0407" unicode="&#x407;" horiz-adv-x="534" 
d="M361 1490v-1490h-188v1490h188zM478 1678q-49 0 -84 35t-35 84q0 48 35 82.5t84 34.5q48 0 82.5 -34.5t34.5 -82.5q0 -49 -34.5 -84t-82.5 -35zM57 1678q-49 0 -83.5 35t-34.5 84q0 48 35 82.5t83 34.5q49 0 83.5 -34.5t34.5 -82.5q0 -49 -34.5 -84t-83.5 -35z" />
    <glyph glyph-name="uni0408" unicode="&#x408;" horiz-adv-x="1153" 
d="M538 -20q-196 0 -320 116t-124 330v80h188v-80q0 -137 70.5 -209t185.5 -72t185.5 72t70.5 209v1064h187v-1064q0 -214 -123 -330t-320 -116z" />
    <glyph glyph-name="uni0409" unicode="&#x409;" horiz-adv-x="2264" 
d="M87 0v160h40q71 0 113.5 28t66 104.5t35.5 223.5l80 974h733v-160h-569l-67 -823q-10 -129 -32.5 -224t-64 -158t-109.5 -94t-170 -31h-56zM1258 901h408q154 0 266.5 -54t173.5 -153.5t61 -235.5q0 -140 -60.5 -243t-173 -159t-267.5 -56h-546v1490h188v-1326h356
q146 0 231.5 80t85.5 216q0 85 -39 146.5t-109.5 95t-168.5 33.5h-406v166z" />
    <glyph glyph-name="uni040A" unicode="&#x40a;" horiz-adv-x="2290" 
d="M173 0v1490h180v-594h882v-160h-882v-736h-180zM1285 901h407q155 0 267 -54t173 -153.5t61 -235.5q0 -140 -60.5 -243t-173 -159t-267.5 -56h-545v1490h188v-1326h355q147 0 232 80t85 216q0 85 -39 146.5t-109.5 95t-168.5 33.5h-405v166z" />
    <glyph glyph-name="uni040B" unicode="&#x40b;" horiz-adv-x="1795" 
d="M1153 909q155 0 265 -50t168.5 -155t58.5 -271v-433h-188v432q0 110 -42 177.5t-115.5 99.5t-170.5 32q-121 0 -230 -40t-209 -113v186q93 58 205.5 96.5t257.5 38.5zM747 1358v-1358h-188v1358h188zM87 1325v165h1199v-165h-1199z" />
    <glyph glyph-name="uni040C" unicode="&#x40c;" horiz-adv-x="1359" 
d="M173 0v1490h188v-649h209l488 649h227l-555 -722l579 -768h-226l-505 676h-217v-676h-188zM598 1634l140 295h200l-194 -295h-146z" />
    <glyph glyph-name="uni040D" unicode="&#x40d;" horiz-adv-x="1523" 
d="M1350 0h-188v853q0 40 2 109t6 162.5t8 205.5l32 -11q-68 -120 -116.5 -205t-85.5 -147t-72 -116l-541 -851h-222v1490h188v-925q0 -42 -1 -107.5t-4.5 -142.5t-11.5 -156l-25 8q38 78 76 148t71.5 126.5t55.5 91.5l608 957h220v-1490zM694 1634l-193 295h200l140 -295
h-147z" />
    <glyph glyph-name="uni040E" unicode="&#x40e;" horiz-adv-x="1270" 
d="M251 0v167h103q74 0 118.5 23.5t66.5 78.5l29 71l-523 1150h205l197 -445q51 -116 89.5 -216t71 -194.5t67.5 -194.5h-53q49 136 100.5 281.5t122.5 323.5l179 445h201l-515 -1245q-29 -71 -69 -126.5t-108 -87t-182 -31.5h-100zM634 1647q-80 0 -145.5 37.5t-104 101.5
t-38.5 143h131q0 -68 44.5 -111.5t112.5 -43.5q69 0 113.5 43.5t44.5 111.5h131q0 -79 -38 -143t-103.5 -101.5t-147.5 -37.5z" />
    <glyph glyph-name="uni040F" unicode="&#x40f;" horiz-adv-x="1463" 
d="M1290 0h-1117v1490h188v-1325h741v1325h188v-1490zM642 -320v384h179l-1 -384h-178z" />
    <glyph glyph-name="uni0410" unicode="&#x410;" horiz-adv-x="1396" 
d="M45 0l543 1490h216l547 -1490h-198l-315 887q-30 84 -68.5 204.5t-93.5 309.5h39q-55 -190 -94.5 -312.5t-66.5 -201.5l-310 -887h-199zM320 416v165h757v-165h-757z" />
    <glyph glyph-name="uni0411" unicode="&#x411;" horiz-adv-x="1307" 
d="M173 0v1490h889v-165h-701v-460h343q152 0 263 -51.5t171.5 -146.5t60.5 -226q0 -135 -60 -234t-171 -153t-264 -54h-531zM361 165h339q151 0 232.5 72t81.5 206q0 123 -81.5 190.5t-232.5 67.5h-339v-536z" />
    <glyph glyph-name="uni0412" unicode="&#x412;" horiz-adv-x="1333" 
d="M173 0v1490h530q155 0 257.5 -52.5t154 -141.5t51.5 -201q0 -94 -33 -156.5t-88 -100.5t-123 -58v-12q74 -6 143 -49.5t114.5 -123t45.5 -193.5q0 -116 -53 -206.5t-165 -143t-289 -52.5h-545zM361 166h353q173 0 250.5 66.5t77.5 169.5q0 76 -38.5 138.5t-109.5 99
t-170 36.5h-363v-510zM361 836h336q83 0 148 31t102.5 88t37.5 134q0 101 -70 168t-213 67h-341v-488z" />
    <glyph glyph-name="uni0413" unicode="&#x413;" horiz-adv-x="1166" 
d="M1078 1490v-165h-717v-1325h-188v1490h905z" />
    <glyph glyph-name="uni0414" unicode="&#x414;" horiz-adv-x="1654" 
d="M87 -320v485h122q37 34 69.5 86.5t59.5 133.5t47.5 198t33.5 279l51 628h931v-1325h165v-485h-180v320h-1119v-320h-180zM425 165h788v1160h-571l-38 -463q-13 -158 -36.5 -295.5t-58 -241t-84.5 -160.5z" />
    <glyph glyph-name="uni0415" unicode="&#x415;" horiz-adv-x="1221" 
d="M173 0v1490h921v-166h-733v-486h682v-167h-682v-505h740v-166h-928z" />
    <glyph glyph-name="uni0416" unicode="&#x416;" horiz-adv-x="1947" 
d="M1068 1490v-1490h-188v1490h188zM50 0l481 774l-439 716h224l384 -663h552l381 663h224l-440 -718l480 -772h-215l-401 661h-615l-404 -661h-212z" />
    <glyph glyph-name="uni0417" unicode="&#x417;" horiz-adv-x="1256" 
d="M632 -21q-148 0 -262 53t-181 146.5t-70 217.5h189q5 -78 47 -135t113 -87t160 -30q96 0 169.5 33t116 93.5t42.5 139.5q0 81 -42 142t-120 95.5t-189 34.5h-121v164h121q89 0 157 31t105.5 87.5t37.5 132.5t-33.5 132.5t-95.5 87t-145 30.5q-81 0 -148 -29t-108 -83.5
t-43 -132.5h-181q3 121 68 213t173.5 144t241.5 52q138 0 240.5 -55.5t158.5 -147.5t56 -201q0 -123 -67.5 -211t-183.5 -123v-10q95 -15 163 -64t104 -123.5t36 -167.5q0 -123 -66 -220t-181.5 -153t-261.5 -56z" />
    <glyph glyph-name="uni0418" unicode="&#x418;" horiz-adv-x="1523" 
d="M1350 0h-188v853q0 40 2 109t6 162.5t8 205.5l32 -11q-68 -120 -116.5 -205t-85.5 -147t-72 -116l-541 -851h-222v1490h188v-925q0 -42 -1 -107.5t-4.5 -142.5t-11.5 -156l-25 8q38 78 76 148t71.5 126.5t55.5 91.5l608 957h220v-1490z" />
    <glyph glyph-name="uni0419" unicode="&#x419;" horiz-adv-x="1523" 
d="M1350 0h-188v853q0 40 2 109t6 162.5t8 205.5l32 -11q-68 -120 -116.5 -205t-85.5 -147t-72 -116l-541 -851h-222v1490h188v-925q0 -42 -1 -107.5t-4.5 -142.5t-11.5 -156l-25 8q38 78 76 148t71.5 126.5t55.5 91.5l608 957h220v-1490zM764 1647q-80 0 -145.5 37.5
t-104 101.5t-38.5 143h131q0 -68 44.5 -111.5t112.5 -43.5q69 0 113.5 43.5t44.5 111.5h131q0 -79 -38 -143t-103.5 -101.5t-147.5 -37.5z" />
    <glyph glyph-name="Kacyr" unicode="&#x41a;" horiz-adv-x="1359" 
d="M173 0v1490h188v-649h209l488 649h227l-555 -722l579 -768h-226l-505 676h-217v-676h-188z" />
    <glyph glyph-name="uni041B" unicode="&#x41b;" horiz-adv-x="1513" 
d="M87 0v165h40q71 0 113.5 28t66 106.5t35.5 228.5l80 962h918v-1490h-188v1325h-559l-67 -812q-10 -132 -33.5 -229t-66 -160t-112 -93.5t-171.5 -30.5h-56z" />
    <glyph glyph-name="uni041C" unicode="&#x41c;" horiz-adv-x="1829" 
d="M173 0v1490h264l370 -945q13 -33 29.5 -82t35.5 -105t36 -111t29 -100h-42q13 43 30 97t35.5 110.5t36 107t30.5 83.5l364 945h265v-1490h-185v854q0 46 0.5 104.5t2 121.5t3 128.5t2.5 126.5h18q-21 -69 -45 -139t-46 -135t-41.5 -118t-33.5 -89l-336 -854h-161
l-341 854q-14 35 -32.5 87t-41 116t-47 135t-49.5 143h21q2 -56 3.5 -119.5t2.5 -128t2 -124.5t1 -109v-854h-180z" />
    <glyph glyph-name="uni041D" unicode="&#x41d;" horiz-adv-x="1506" 
d="M173 0v1490h188v-645h784v645h188v-1490h-188v679h-784v-679h-188z" />
    <glyph glyph-name="uni041E" unicode="&#x41e;" horiz-adv-x="1559" 
d="M780 -21q-192 0 -342.5 94t-236.5 266t-86 405q0 234 86 406t236.5 266.5t342.5 94.5q193 0 342.5 -94.5t235.5 -266.5t86 -406q0 -233 -86 -405t-235.5 -266t-342.5 -94zM780 153q134 0 242.5 68t173 200t64.5 323q0 192 -64.5 324.5t-173 200.5t-242.5 68t-243 -68.5
t-173.5 -200.5t-64.5 -324q0 -191 64.5 -322.5t173.5 -200t243 -68.5z" />
    <glyph glyph-name="uni041F" unicode="&#x41f;" horiz-adv-x="1506" 
d="M1333 1490v-1490h-188v1324h-784v-1324h-188v1490h1160z" />
    <glyph glyph-name="uni0420" unicode="&#x420;" horiz-adv-x="1296" 
d="M173 0v1490h515q170 0 283 -61.5t169 -167.5t56 -240t-56.5 -241t-169.5 -169t-283 -62h-377v166h371q115 0 187.5 39t106.5 108.5t34 158.5t-34 157.5t-107 107.5t-189 39h-318v-1325h-188z" />
    <glyph glyph-name="uni0421" unicode="&#x421;" horiz-adv-x="1492" 
d="M782 -21q-194 0 -345 94t-236.5 266t-85.5 405q0 235 85.5 406.5t236.5 266t345 94.5q114 0 215 -33.5t181.5 -97.5t134 -155t73.5 -207h-189q-16 78 -54.5 137t-94.5 100t-123.5 61.5t-142.5 20.5q-139 0 -248.5 -70t-172 -202.5t-62.5 -320.5q0 -187 63 -319.5
t172.5 -202t247.5 -69.5q75 0 142.5 21t123 61.5t94.5 99.5t56 136h188q-19 -114 -73 -204.5t-134 -155t-181 -98.5t-216 -34z" />
    <glyph glyph-name="uni0422" unicode="&#x422;" horiz-adv-x="1306" 
d="M87 1324v166h1132v-166h-471v-1324h-188v1324h-473z" />
    <glyph glyph-name="uni0423" unicode="&#x423;" horiz-adv-x="1270" 
d="M251 0v167h103q74 0 118.5 23.5t66.5 78.5l29 71l-523 1150h205l197 -445q51 -116 89.5 -216t71 -194.5t67.5 -194.5h-53q49 136 100.5 281.5t122.5 323.5l179 445h201l-515 -1245q-29 -71 -69 -126.5t-108 -87t-182 -31.5h-100z" />
    <glyph glyph-name="uni0424" unicode="&#x424;" horiz-adv-x="1688" 
d="M779 107q-204 0 -353 78t-230 221t-81 339t81 339t230 221t353 78h130q205 0 353.5 -78t229.5 -221t81 -339t-81 -339t-229.5 -221t-353.5 -78h-130zM787 280h114q158 0 267.5 54t166.5 158t57 253t-57 253t-166.5 158t-267.5 54h-114q-157 0 -267 -54t-167 -158
t-57 -253t57 -253t167 -158t267 -54zM751 -83v1656h186v-1656h-186z" />
    <glyph glyph-name="uni0425" unicode="&#x425;" horiz-adv-x="1380" 
d="M50 0l582 832v-139l-549 797h217l216 -317q45 -65 75.5 -113t57.5 -94.5t59 -107.5h-32q32 60 59 106.5t59 95t76 113.5l220 317h213l-549 -789v138l576 -839h-216l-262 379q-39 59 -68.5 103.5t-55.5 89t-57 103.5h41q-30 -56 -57 -101t-57 -90t-71 -105l-264 -379h-213
z" />
    <glyph glyph-name="uni0426" unicode="&#x426;" horiz-adv-x="1462" 
d="M1290 0h-1117v1490h188v-1325h741v1325h188v-1490zM1256 -320v320h-75v165h253v-485h-178z" />
    <glyph glyph-name="uni0427" unicode="&#x427;" horiz-adv-x="1418" 
d="M649 556q-155 0 -266.5 50t-171.5 155.5t-60 270.5v458h188v-457q0 -164 94.5 -236.5t239.5 -72.5q123 0 233.5 41t207.5 112v-186q-96 -59 -209.5 -97t-255.5 -38zM1057 0v1490h188v-1490h-188z" />
    <glyph glyph-name="uni0428" unicode="&#x428;" horiz-adv-x="1944" 
d="M173 1490h188v-1325h517v1325h187v-1325h518v1325h188v-1490h-1598v1490z" />
    <glyph glyph-name="uni0429" unicode="&#x429;" horiz-adv-x="1972" 
d="M173 1490h188v-1325h517v1325h187v-1325h518v1325h188v-1490h-1598v1490zM1737 -320v320h-75v165h253v-485h-178z" />
    <glyph glyph-name="uni042A" unicode="&#x42a;" horiz-adv-x="1656" 
d="M87 1330v160h458v-160h-458zM651 901h407q155 0 267 -54t173.5 -153.5t61.5 -235.5q0 -140 -61 -243t-173 -159t-268 -56h-545v1490h188v-1326h356q146 0 231 80t85 216q0 85 -38.5 146.5t-109.5 95t-168 33.5h-406v166z" />
    <glyph glyph-name="uni042B" unicode="&#x42b;" horiz-adv-x="1778" 
d="M311 901h407q155 0 267 -54t173 -153.5t61 -235.5q0 -140 -60.5 -243t-173 -159t-267.5 -56h-545v1490h188v-1326h355q147 0 232 80t85 216q0 85 -39 146.5t-109.5 95t-168.5 33.5h-405v166zM1606 1490v-1490h-188v1490h188z" />
    <glyph glyph-name="uni042C" unicode="&#x42c;" horiz-adv-x="1316" 
d="M311 901h407q155 0 267 -54t173 -153.5t61 -235.5q0 -140 -60.5 -243t-173 -159t-267.5 -56h-545v1490h188v-1326h355q147 0 232 80t85 216q0 85 -39 146.5t-109.5 95t-168.5 33.5h-405v166z" />
    <glyph glyph-name="uni042D" unicode="&#x42d;" horiz-adv-x="1492" 
d="M711 -21q-116 0 -217 34.5t-181.5 98.5t-133.5 155t-73 204h189q16 -77 55 -136t94.5 -100t123.5 -61.5t143 -20.5q139 0 248 69.5t171.5 201.5t62.5 320q0 189 -62.5 321.5t-171.5 202t-248 69.5q-75 0 -143 -20.5t-123.5 -61.5t-94.5 -100t-55 -137h-189q20 116 74 207
t134 155t181 97.5t216 33.5q194 0 344.5 -94.5t236 -266t85.5 -406.5q0 -233 -85.5 -404.5t-236 -266t-344.5 -94.5zM567 678v165h691v-165h-691z" />
    <glyph glyph-name="uni042E" unicode="&#x42e;" horiz-adv-x="2071" 
d="M679 831v-160h-416v160h416zM361 1490v-1490h-188v1490h188zM1292 -21q-192 0 -342.5 94t-236.5 266t-86 405q0 234 86 406t236.5 266.5t342.5 94.5q193 0 342.5 -94.5t235.5 -266.5t86 -406q0 -233 -86 -405t-235.5 -266t-342.5 -94zM1292 153q134 0 242.5 68t173 200
t64.5 323q0 192 -64.5 324.5t-173 200.5t-242.5 68t-243 -68.5t-173.5 -200.5t-64.5 -324q0 -191 64.5 -322.5t173.5 -200t243 -68.5z" />
    <glyph glyph-name="uni042F" unicode="&#x42f;" horiz-adv-x="1313" 
d="M1140 0h-188v1325h-322q-115 0 -188 -36.5t-108 -102t-35 -154.5q0 -88 35 -152t107.5 -98.5t186.5 -34.5h407v-167h-412q-169 0 -282.5 56.5t-170.5 158.5t-57 237q0 134 56 237.5t169 162t282 58.5h520v-1490zM282 0h-218l366 671h212z" />
    <glyph glyph-name="uni0430" unicode="&#x430;" horiz-adv-x="1130" 
d="M466 -24q-106 0 -191.5 39t-136 115t-50.5 185q0 95 37.5 154t100 93.5t139 51.5t154.5 27q101 13 162.5 20t91 23.5t29.5 57.5v7q0 67 -26.5 115t-78.5 73.5t-129 25.5q-79 0 -135.5 -24.5t-92 -63t-49.5 -81.5l-173 45q34 101 103 162.5t158.5 90t184.5 28.5
q64 0 136 -16.5t135.5 -57.5t103.5 -116.5t40 -194.5v-735h-175v152h-10q-19 -39 -60 -80t-107 -68.5t-161 -27.5zM495 134q101 0 169 38.5t103 100.5t35 130v150q-11 -12 -45.5 -22t-80 -18t-90 -13.5t-75.5 -9.5q-64 -8 -120 -27.5t-90 -56.5t-34 -100q0 -56 29.5 -94.5
t80.5 -58t118 -19.5z" />
    <glyph glyph-name="uni0431" unicode="&#x431;" horiz-adv-x="1195" 
d="M602 -24q-144 0 -258 68.5t-180.5 195.5t-66.5 302v38q0 173 20 301.5t63.5 218.5t113.5 147.5t169.5 87.5t232.5 38q67 4 101.5 17.5t47.5 38t13 61.5h160q0 -83 -31 -140t-101 -88t-190 -40q-150 -10 -243.5 -48t-142 -129t-64.5 -261h4q31 76 91.5 139t143 101
t176.5 38q125 0 223.5 -70t156 -190t57.5 -272q0 -158 -64 -283.5t-176 -198t-256 -72.5zM604 133q99 0 169.5 47.5t108.5 134.5t38 206t-36.5 205t-105 132.5t-166.5 46.5q-100 0 -176 -49.5t-118.5 -137.5t-42.5 -204q0 -110 40 -196.5t113.5 -135.5t175.5 -49z" />
    <glyph glyph-name="uni0432" unicode="&#x432;" horiz-adv-x="1139" 
d="M151 0v1104h453q182 0 289 -79.5t107 -214.5q0 -97 -57.5 -153.5t-154.5 -75.5q64 -9 122 -43.5t95.5 -93.5t37.5 -144q0 -87 -44.5 -155t-126.5 -106.5t-197 -38.5h-524zM320 163h355q87 0 136 40.5t49 110.5q0 84 -49 131t-136 47h-355v-329zM320 641h287
q101 0 157.5 41.5t56.5 113.5q0 69 -57.5 107.5t-159.5 38.5h-284v-301z" />
    <glyph glyph-name="uni0433" unicode="&#x433;" horiz-adv-x="887" 
d="M844 1104v-164h-515v-940h-178v1104h693z" />
    <glyph glyph-name="uni0434" unicode="&#x434;" horiz-adv-x="1247" 
d="M36 -321v486h92q34 35 59 76t43 98t31.5 138t23.5 195l37 432h718v-939h170v-486h-177v321h-819v-321h-178zM330 165h533v775h-380l-24 -268q-16 -175 -43.5 -302.5t-85.5 -204.5z" />
    <glyph glyph-name="uni0435" unicode="&#x435;" horiz-adv-x="1173" 
d="M613 -24q-160 0 -276 72t-178 200t-62 297t61.5 299t174 203t261.5 73q94 0 181 -31.5t156 -99t109 -173.5t40 -253v-69h-868v150h771l-81 -54q0 109 -35.5 193t-104 131.5t-168.5 47.5q-99 0 -170.5 -48t-109.5 -127.5t-38 -174.5v-94q0 -121 41.5 -207t118 -131
t178.5 -45q68 0 122.5 20t93.5 59t59 96l173 -38q-25 -87 -87 -154t-154.5 -104.5t-207.5 -37.5z" />
    <glyph glyph-name="uni0436" unicode="&#x436;" horiz-adv-x="1641" 
d="M57 0l450 562l-444 542h211l369 -469h90v469h178v-469h87l368 469h212l-443 -542l448 -562h-214l-373 471h-85v-471h-178v471h-86l-374 -471h-216z" />
    <glyph glyph-name="uni0437" unicode="&#x437;" horiz-adv-x="999" 
d="M499 -14q-114 0 -206 37t-146.5 104t-57.5 155h181q4 -63 70 -104t158 -41q102 0 165.5 50.5t63.5 127.5q0 81 -68 132t-184 51h-75v134h75q96 0 158.5 47.5t62.5 125.5q0 75 -53 121.5t-141 46.5q-86 0 -150.5 -42.5t-66.5 -114.5h-171q2 91 54.5 159t140.5 106t195 38
q111 0 193.5 -41.5t127.5 -110.5t45 -153q0 -97 -60.5 -159.5t-151.5 -81.5v-6q125 -19 189.5 -89.5t64.5 -173.5q0 -91 -53 -163t-146.5 -113.5t-213.5 -41.5z" />
    <glyph glyph-name="uni0438" unicode="&#x438;" horiz-adv-x="1194" 
d="M1043 0h-178v802h-11l-532 -802h-171v1104h178v-804h10l534 804h170v-1104z" />
    <glyph glyph-name="uni0439" unicode="&#x439;" horiz-adv-x="1194" 
d="M1043 0h-178v802h-11l-532 -802h-171v1104h178v-804h10l534 804h170v-1104zM596 1261q-80 0 -145.5 37.5t-104 101.5t-38.5 143h131q0 -68 44.5 -111.5t112.5 -43.5q69 0 113.5 43.5t44.5 111.5h131q0 -79 -38 -143t-103.5 -101.5t-147.5 -37.5z" />
    <glyph glyph-name="uni043A" unicode="&#x43a;" horiz-adv-x="1093" 
d="M151 0v1104h178v-478h112l400 478h225l-447 -534l453 -570h-225l-363 462h-155v-462h-178z" />
    <glyph glyph-name="uni043B" unicode="&#x43b;" horiz-adv-x="1168" 
d="M19 0v165h40q49 0 82.5 18t54 66t32 136.5t17.5 228.5l20 490h752v-1104h-178v940h-405l-17 -389q-8 -184 -40 -307t-103 -183.5t-195 -60.5h-60z" />
    <glyph glyph-name="uni043C" unicode="&#x43c;" horiz-adv-x="1558" 
d="M151 0v1104h267l259 -619q22 -54 39 -101t30.5 -90.5t25.5 -85t24 -83.5h-32q11 40 22.5 81t24.5 85t30.5 92t39.5 102l256 619h270v-1104h-178v573q0 60 0.5 116.5t1 111.5t1.5 111t2 115h23q-24 -84 -46.5 -154.5t-49 -141t-62.5 -158.5l-243 -573h-156l-246 573
q-36 87 -63 157.5t-49.5 141.5t-46.5 155h27q1 -52 2 -106.5t2 -111t1.5 -115.5t0.5 -121v-573h-177z" />
    <glyph glyph-name="uni043D" unicode="&#x43d;" horiz-adv-x="1188" 
d="M900 650v-165h-614v165h614zM329 1104v-1104h-178v1104h178zM1037 1104v-1104h-177v1104h177z" />
    <glyph glyph-name="uni043E" unicode="&#x43e;" horiz-adv-x="1205" 
d="M602 -24q-151 0 -264.5 71.5t-177 200.5t-63.5 298q0 172 63.5 301.5t177 201t264.5 71.5t265 -71.5t177.5 -201t63.5 -301.5q0 -169 -63.5 -298t-177.5 -200.5t-265 -71.5zM602 135q110 0 182.5 56t108 149.5t35.5 205.5q0 113 -35.5 207.5t-108 151t-182.5 56.5
q-109 0 -181 -56.5t-108 -150.5t-36 -208q0 -112 36 -205.5t107.5 -149.5t181.5 -56z" />
    <glyph glyph-name="uni043F" unicode="&#x43f;" horiz-adv-x="1188" 
d="M1037 1104v-1104h-178v940h-530v-940h-178v1104h886z" />
    <glyph glyph-name="uni0440" unicode="&#x440;" horiz-adv-x="1233" 
d="M151 -418v1522h172v-174h16q22 37 60 81t102 76.5t164 32.5q140 0 245.5 -70t165.5 -198t60 -302q0 -175 -59.5 -303.5t-165 -199t-245.5 -70.5q-97 0 -161.5 32.5t-103 77.5t-61.5 83h-11v-588h-178zM639 136q102 0 172.5 54t107 148t36.5 213t-36 211.5t-106.5 145.5
t-173.5 53q-102 0 -172 -51.5t-106.5 -143.5t-36.5 -215t36.5 -216.5t107.5 -146t171 -52.5z" />
    <glyph glyph-name="uni0441" unicode="&#x441;" horiz-adv-x="1148" 
d="M602 -24q-151 0 -264.5 71.5t-177 200.5t-63.5 298q0 172 63.5 301.5t177 201t264.5 71.5q83 0 156 -22t132 -64t101 -101.5t62 -134.5l-173 -38q-11 44 -35.5 80.5t-59.5 63.5t-81 42t-102 15q-109 0 -181 -56.5t-108 -150.5t-36 -208q0 -112 36 -205.5t107.5 -149.5
t181.5 -56q56 0 102.5 15t82.5 43t60 66.5t36 83.5l173 -38q-20 -76 -62 -136t-101.5 -103.5t-133.5 -66.5t-157 -23z" />
    <glyph glyph-name="uni0442" unicode="&#x442;" horiz-adv-x="950" 
d="M387 0v945h-368v159h912v-159h-366v-945h-178z" />
    <glyph glyph-name="uni0443" unicode="&#x443;" horiz-adv-x="1128" 
d="M139 -408l35 155l38 -4q50 -11 91 -3t73.5 44t57.5 108l38 105l-423 1107h194l236 -651q36 -97 62 -193.5t54 -187.5h-61q28 91 54.5 187.5t61.5 193.5l237 651h192l-490 -1277q-32 -85 -78.5 -141t-108 -83t-138.5 -27q-43 0 -76 5.5t-49 10.5z" />
    <glyph glyph-name="uni0444" unicode="&#x444;" horiz-adv-x="1389" 
d="M605 -24q-150 0 -264.5 71.5t-179 200.5t-64.5 298q0 172 64.5 301.5t179 201t264.5 71.5h179q151 0 265 -71.5t178.5 -201t64.5 -301.5q0 -169 -64.5 -298t-178.5 -200.5t-265 -71.5h-179zM605 127h179q109 0 182.5 58t111 153.5t37.5 207.5q0 114 -37.5 211.5
t-111 157.5t-182.5 60h-179q-109 0 -182.5 -60t-111 -157.5t-37.5 -211.5q0 -112 37.5 -207.5t111 -153.5t182.5 -58zM605 -418v1908h179v-1908h-179z" />
    <glyph glyph-name="uni0445" unicode="&#x445;" horiz-adv-x="1100" 
d="M57 0l441 634l-1 -136l-417 606h208l140 -215q51 -79 91 -149.5t82 -137.5h-92q43 67 80 137.5t89 149.5l143 215h204l-419 -612v132l437 -624h-207l-165 249q-50 77 -89 145t-80 132h93q-41 -64 -77.5 -132t-87.5 -145l-167 -249h-206z" />
    <glyph glyph-name="uni0446" unicode="&#x446;" horiz-adv-x="1209" 
d="M151 0v1104h178v-939h529v939h179v-1104h-886zM1003 -320v320h-75v165h253v-485h-178z" />
    <glyph glyph-name="uni0447" unicode="&#x447;" horiz-adv-x="1167" 
d="M574 343q-193 0 -308 102.5t-115 307.5v351h178v-351q0 -126 70 -185.5t175 -59.5q108 0 196 20t176 51v-164q-58 -21 -115.5 -37.5t-120 -25.5t-136.5 -9zM838 0v1104h178v-1104h-178z" />
    <glyph glyph-name="uni0448" unicode="&#x448;" horiz-adv-x="1667" 
d="M151 1104h178v-939h416v939h177v-939h416v939h178v-1104h-1365v1104z" />
    <glyph glyph-name="uni0449" unicode="&#x449;" horiz-adv-x="1695" 
d="M151 1104h178v-939h416v939h177v-939h416v939h178v-1104h-1365v1104zM1482 -320v320h-75v165h253v-485h-178z" />
    <glyph glyph-name="uni044A" unicode="&#x44a;" horiz-adv-x="1308" 
d="M19 958v146h392v-146h-392zM482 712h323q128 0 218.5 -45.5t139 -125t48.5 -181.5t-48.5 -183.5t-139 -129t-218.5 -47.5h-474v1104h178v-939h294q101 0 164.5 52t63.5 137q0 86 -63.5 139.5t-164.5 53.5h-321v165z" />
    <glyph glyph-name="uni044B" unicode="&#x44b;" horiz-adv-x="1483" 
d="M302 712h323q128 0 219 -45.5t139 -125t48 -181.5t-48.5 -183.5t-139 -129t-218.5 -47.5h-474v1104h178v-939h294q101 0 164.5 52t63.5 137q0 86 -63.5 139.5t-164.5 53.5h-321v165zM1155 0v1104h178v-1104h-178z" />
    <glyph glyph-name="uni044C" unicode="&#x44c;" horiz-adv-x="1128" 
d="M302 712h323q128 0 219 -45.5t139 -125t48 -181.5t-48.5 -183.5t-139 -129t-218.5 -47.5h-474v1104h178v-939h294q101 0 164.5 52t63.5 137q0 86 -63.5 139.5t-164.5 53.5h-321v165z" />
    <glyph glyph-name="uni044D" unicode="&#x44d;" horiz-adv-x="1148" 
d="M546 -24q-83 0 -157 23t-133.5 66.5t-101.5 103.5t-62 136l173 38q12 -45 36 -83.5t60 -66.5t82.5 -43t102.5 -15q110 0 181.5 56t107.5 149.5t36 205.5q0 114 -36 208t-107.5 150.5t-181.5 56.5q-55 0 -101.5 -15t-81.5 -42t-59.5 -63.5t-35.5 -80.5l-173 38
q20 75 62 134.5t101 101.5t132 64t156 22q151 0 264.5 -71.5t177 -201t63.5 -301.5q0 -169 -63.5 -298t-177 -200.5t-264.5 -71.5zM902 473h-520v162h520v-162z" />
    <glyph glyph-name="uni044E" unicode="&#x44e;" horiz-adv-x="1699" 
d="M151 0v1104h170v-1104h-170zM281 471v160h401v-160h-401zM1096 -24q-151 0 -264.5 71.5t-177 200.5t-63.5 298q0 172 63.5 301.5t177 201t264.5 71.5q152 0 266 -71.5t177 -201t63 -301.5q0 -169 -63 -298t-177 -200.5t-266 -71.5zM1096 135q110 0 182.5 56t108.5 149.5
t36 205.5q0 113 -36 207.5t-108.5 151t-182.5 56.5q-108 0 -180.5 -56.5t-108 -150.5t-35.5 -208q0 -112 35.5 -205.5t108 -149.5t180.5 -56z" />
    <glyph glyph-name="uni044F" unicode="&#x44f;" horiz-adv-x="1121" 
d="M970 0h-177v949h-259q-141 0 -203.5 -50.5t-62.5 -143.5t63 -142t203 -49h335v-150h-348q-215 0 -322.5 92.5t-107.5 248.5q0 157 107 253t322 96h450v-1104zM246 0h-204l312 499h198z" />
    <glyph glyph-name="uni0450" unicode="&#x450;" horiz-adv-x="1173" 
d="M613 -24q-160 0 -276 72t-178 200t-62 297t61.5 299t174 203t261.5 73q94 0 181 -31.5t156 -99t109 -173.5t40 -253v-69h-868v150h771l-81 -54q0 109 -35.5 193t-104 131.5t-168.5 47.5q-99 0 -170.5 -48t-109.5 -127.5t-38 -174.5v-94q0 -121 41.5 -207t118 -131
t178.5 -45q68 0 122.5 20t93.5 59t59 96l173 -38q-25 -87 -87 -154t-154.5 -104.5t-207.5 -37.5zM521 1248l-193 295h200l140 -295h-147z" />
    <glyph glyph-name="uni0451" unicode="&#x451;" horiz-adv-x="1173" 
d="M613 -24q-160 0 -276 72t-178 200t-62 297t61.5 299t174 203t261.5 73q94 0 181 -31.5t156 -99t109 -173.5t40 -253v-69h-868v150h771l-81 -54q0 109 -35.5 193t-104 131.5t-168.5 47.5q-99 0 -170.5 -48t-109.5 -127.5t-38 -174.5v-94q0 -121 41.5 -207t118 -131
t178.5 -45q68 0 122.5 20t93.5 59t59 96l173 -38q-25 -87 -87 -154t-154.5 -104.5t-207.5 -37.5zM802 1292q-49 0 -84 35t-35 84q0 48 35 82.5t84 34.5q48 0 82.5 -34.5t34.5 -82.5q0 -49 -34.5 -84t-82.5 -35zM381 1292q-49 0 -83.5 35t-34.5 84q0 48 35 82.5t83 34.5
q49 0 83.5 -34.5t34.5 -82.5q0 -49 -34.5 -84t-83.5 -35z" />
    <glyph glyph-name="uni0452" unicode="&#x452;" horiz-adv-x="1191" 
d="M751 -425q-33 0 -60.5 2t-43.5 5v150q15 -2 35 -3t33 -1q78 0 112 24.5t34 76.5v171h178v-171q0 -123 -73.5 -188.5t-214.5 -65.5zM329 658v-658h-178v1490h178v-653h-36q51 152 145 217.5t221 65.5q112 0 198 -46.5t134.5 -140t48.5 -235.5v-698h-179v684
q0 130 -67 202.5t-184 72.5q-80 0 -143.5 -34t-100.5 -101t-37 -166zM2 1225v140h644v-140h-644z" />
    <glyph glyph-name="uni0453" unicode="&#x453;" horiz-adv-x="887" 
d="M844 1104v-164h-515v-940h-178v1104h693zM415 1248l140 295h200l-194 -295h-146z" />
    <glyph glyph-name="uni0454" unicode="&#x454;" horiz-adv-x="1148" 
d="M602 -24q-151 0 -264.5 71.5t-177 200.5t-63.5 298q0 172 63.5 301.5t177 201t264.5 71.5q83 0 156 -22t132 -64t101 -101.5t62 -134.5l-173 -38q-11 44 -35.5 80.5t-59.5 63.5t-81 42t-102 15q-109 0 -181 -56.5t-108 -150.5t-36 -208q0 -112 36 -205.5t107.5 -149.5
t181.5 -56q56 0 102.5 15t82.5 43t60 66.5t36 83.5l173 -38q-20 -76 -62 -136t-101.5 -103.5t-133.5 -66.5t-157 -23zM246 473v162h520v-162h-520z" />
    <glyph glyph-name="uni0455" unicode="&#x455;" horiz-adv-x="1057" 
d="M528 -24q-114 0 -204 34.5t-148 102.5t-75 168l170 32q21 -93 86.5 -137.5t168.5 -44.5q115 0 183.5 49.5t68.5 118.5q0 58 -41.5 96t-121.5 56l-183 44q-151 35 -225 110.5t-74 192.5q0 95 52.5 167.5t144.5 113.5t210 41q114 0 196 -36t132.5 -100t70.5 -148l-163 -33
q-18 65 -73.5 115.5t-161.5 50.5q-100 0 -164.5 -46t-64.5 -116q0 -62 45 -99t138 -59l169 -40q152 -36 224.5 -110.5t72.5 -189.5q0 -98 -55 -173t-152.5 -117.5t-225.5 -42.5z" />
    <glyph glyph-name="uni0456" unicode="&#x456;" horiz-adv-x="480" 
d="M151 0v1104h178v-1104h-178zM240 1292q-50 0 -86.5 35t-36.5 84t36.5 83.5t86.5 34.5q51 0 87.5 -34.5t36.5 -83.5t-36.5 -84t-87.5 -35z" />
    <glyph glyph-name="uni0457" unicode="&#x457;" horiz-adv-x="480" 
d="M151 0v1104h178v-1104h-178zM452 1292q-49 0 -84 35t-35 84q0 48 35 82.5t84 34.5q48 0 82.5 -34.5t34.5 -82.5q0 -49 -34.5 -84t-82.5 -35zM31 1292q-49 0 -83.5 35t-34.5 84q0 48 35 82.5t83 34.5q49 0 83.5 -34.5t34.5 -82.5q0 -49 -34.5 -84t-83.5 -35z" />
    <glyph glyph-name="uni0458" unicode="&#x458;" horiz-adv-x="480" 
d="M150 1104h179v-1199q0 -99 -36 -172t-106.5 -112t-174.5 -39h-45v162h39q75 0 109.5 42.5t34.5 124.5v1193zM240 1292q-50 0 -86.5 35t-36.5 84t36.5 83.5t86.5 34.5q51 0 87.5 -34.5t36.5 -83.5t-36.5 -84t-87.5 -35z" />
    <glyph glyph-name="uni0459" unicode="&#x459;" horiz-adv-x="1880" 
d="M43 0v165h40q49 0 82.5 18t54 66t32 136.5t17.5 228.5l20 490h752v-1104h-178v940h-405l-17 -389q-8 -184 -40 -307t-103 -183.5t-195 -60.5h-60zM1054 712h323q128 0 219 -45.5t139 -125t48 -181.5t-48.5 -183.5t-139 -129t-218.5 -47.5h-474v1104h178v-939h294
q101 0 164.5 52t63.5 137q0 86 -63.5 139.5t-164.5 53.5h-321v165z" />
    <glyph glyph-name="uni045A" unicode="&#x45a;" horiz-adv-x="1824" 
d="M1006 0v165h329q103 0 158 40.5t55 116.5q0 78 -55 120t-158 42h-332v164h333q181 0 286 -86t105 -234q0 -151 -105 -239.5t-286 -88.5h-330zM151 0v1104h178v-1104h-178zM286 482v166h614v-166h-614zM859 0v1104h178v-1104h-178z" />
    <glyph glyph-name="uni045B" unicode="&#x45b;" horiz-adv-x="1191" 
d="M329 658v-658h-178v1490h178v-653h-36q51 152 145 217.5t221 65.5q112 0 198 -46.5t134.5 -140t48.5 -235.5v-698h-179v684q0 130 -67 202.5t-184 72.5q-80 0 -143.5 -34t-100.5 -101t-37 -166zM1 1225v140h645v-140h-645z" />
    <glyph glyph-name="uni045C" unicode="&#x45c;" horiz-adv-x="1093" 
d="M151 0v1104h178v-478h112l400 478h225l-447 -534l453 -570h-225l-363 462h-155v-462h-178zM469 1248l140 295h200l-194 -295h-146z" />
    <glyph glyph-name="uni045D" unicode="&#x45d;" horiz-adv-x="1194" 
d="M1043 0h-178v802h-11l-532 -802h-171v1104h178v-804h10l534 804h170v-1104zM526 1248l-193 295h200l140 -295h-147z" />
    <glyph glyph-name="uni045E" unicode="&#x45e;" horiz-adv-x="1128" 
d="M139 -408l35 155l38 -4q50 -11 91 -3t73.5 44t57.5 108l38 105l-423 1107h194l236 -651q36 -97 62 -193.5t54 -187.5h-61q28 91 54.5 187.5t61.5 193.5l237 651h192l-490 -1277q-32 -85 -78.5 -141t-108 -83t-138.5 -27q-43 0 -76 5.5t-49 10.5zM564 1261
q-80 0 -145.5 37.5t-104 101.5t-38.5 143h131q0 -68 44.5 -111.5t112.5 -43.5q69 0 113.5 43.5t44.5 111.5h131q0 -79 -38 -143t-103.5 -101.5t-147.5 -37.5z" />
    <glyph glyph-name="uni045F" unicode="&#x45f;" horiz-adv-x="1188" 
d="M151 0v1104h178v-939h529v939h179v-1104h-886zM505 -320v384h179l-1 -384h-178z" />
    <glyph glyph-name="uni0460" unicode="&#x460;" horiz-adv-x="1817" 
d="M173 401v1089h188v-1089q0 -127 67 -188.5t154 -61.5q102 0 168 61.5t66 188.5v1089h187v-1089q0 -127 61.5 -188.5t156.5 -61.5q94 0 164.5 61.5t70.5 188.5v1089h188v-1089q0 -141 -57 -234.5t-152.5 -140t-213.5 -46.5q-102 0 -181.5 35.5t-130.5 107.5
q-55 -73 -139.5 -108t-187.5 -35q-119 0 -211.5 46.5t-145 140t-52.5 234.5z" />
    <glyph glyph-name="uni0461" unicode="&#x461;" horiz-adv-x="1634" 
d="M498 -20q-102 0 -180.5 47.5t-122.5 132t-44 193.5v751h178v-750q0 -96 54 -152.5t146 -56.5q94 0 147.5 56.5t53.5 152.5v750h178v-750q0 -96 53.5 -152.5t144.5 -56.5q92 0 145.5 56.5t53.5 152.5v750h178v-751q0 -109 -44 -193.5t-122 -132t-180 -47.5
q-108 0 -186.5 49t-120.5 133.5t-43 190.5h64q0 -105 -42.5 -189.5t-121 -134t-189.5 -49.5z" />
    <glyph glyph-name="uni0462" unicode="&#x462;" horiz-adv-x="1403" 
d="M397 901h407q155 0 267 -54t173 -153.5t61 -235.5q0 -140 -60.5 -243t-173 -159t-267.5 -56h-545v1490h188v-1326h355q147 0 232 80t85 216q0 85 -39 146.5t-109.5 95t-168.5 33.5h-405v166zM22 1100v156h808v-156h-808z" />
    <glyph glyph-name="uni0463" unicode="&#x463;" horiz-adv-x="1245" 
d="M19 958v146h770v-146h-770zM268 1104v386h170v-386h-170zM419 712h323q129 0 219.5 -45.5t138.5 -125t48 -181.5t-48 -183.5t-138.5 -129t-219.5 -47.5h-474v1104h178v-939h295q100 0 164 52t64 137q0 86 -64 139.5t-164 53.5h-322v165z" />
    <glyph glyph-name="uni0464" unicode="&#x464;" horiz-adv-x="1942" 
d="M1331 840v-165h-1017v165h1017zM1836 1024l-187 -2q-16 76 -55 134.5t-94.5 98.5t-123 60.5t-140.5 20.5q-133 0 -241.5 -68t-172 -200t-63.5 -324q0 -191 63.5 -322.5t172 -199.5t241.5 -68q73 0 140.5 20t123 60.5t94.5 99t55 134.5l187 -2q-21 -114 -74.5 -204
t-133.5 -153t-179.5 -96t-212.5 -33q-191 0 -340 92.5t-234 264t-85 407.5q0 237 85 408.5t234 264.5t340 93q111 0 210.5 -32.5t179.5 -95t134.5 -153t75.5 -205.5zM361 1490v-1490h-188v1490h188z" />
    <glyph glyph-name="uni0465" unicode="&#x465;" horiz-adv-x="1583" 
d="M1164 633v-162h-879v162h879zM329 1104v-1104h-178v1104h178zM1047 -24q-156 0 -269.5 73.5t-175 202.5t-61.5 294q0 169 63 298.5t176.5 202.5t264.5 73q119 0 215 -44.5t156.5 -125t74.5 -188.5h-179q-12 52 -46 97.5t-89 73.5t-131 28q-97 0 -170.5 -50.5t-114 -142.5
t-40.5 -217q0 -126 40 -219.5t113 -145t172 -51.5q104 0 173.5 53.5t91.5 146.5h180q-14 -103 -72 -184t-153 -128t-219 -47z" />
    <glyph glyph-name="uni0466" unicode="&#x466;" horiz-adv-x="1396" 
d="M790 552v-552h-185v552h185zM45 0l543 1490h216l547 -1490h-198l-315 887q-30 84 -68.5 204.5t-93.5 309.5h39q-55 -190 -94.5 -312.5t-66.5 -201.5l-310 -887h-199zM320 471v162h757v-162h-757z" />
    <glyph glyph-name="uni0467" unicode="&#x467;" horiz-adv-x="1157" 
d="M915 0l-299 774l-104 330h156l440 -1104h-193zM493 0v235q0 68 -31 104t-99 39v155q65 0 122.5 -26.5t93.5 -99.5q36 73 93.5 99.5t122.5 26.5v-155q-67 -3 -99 -38t-32 -105v-235h-171zM49 0l438 1104h154l-108 -330l-294 -774h-190z" />
    <glyph glyph-name="uni0468" unicode="&#x468;" horiz-adv-x="1905" 
d="M361 1490v-1490h-188v1490h188zM1298 552v-552h-184v552h184zM553 0l544 1490h216l547 -1490h-199l-314 887q-28 79 -67.5 201.5t-95.5 312.5h39q-55 -190 -94 -312.5t-67 -201.5l-310 -887h-199zM273 471v162h1312v-162h-1312z" />
    <glyph glyph-name="uni0469" unicode="&#x469;" horiz-adv-x="1577" 
d="M1335 0l-299 774l-104 330h156l441 -1104h-194zM151 0v1104h179v-1104h-179zM246 378v155h504v-155h-504zM913 0v235q0 68 -31 104t-99 39v155q64 0 122 -26.5t94 -99.5q36 73 93.5 99.5t122.5 26.5v-155q-68 -3 -99.5 -39t-31.5 -104v-235h-171zM469 0l438 1104h155
l-108 -330l-295 -774h-190z" />
    <glyph glyph-name="uni046A" unicode="&#x46a;" horiz-adv-x="1730" 
d="M151 0v367q0 143 54.5 243.5t160 153t255.5 52.5h489q150 0 255 -52.5t159.5 -153t54.5 -243.5v-367h-187v368q0 136 -74.5 210t-208.5 74h-487q-136 0 -209.5 -74t-73.5 -210v-368h-188zM772 0v781h186v-781h-186zM793 622l-535 868h219l455 -793l-32 -75h-107zM830 622
l-25 83l452 785h215l-534 -868h-108zM399 1327v163h918v-163h-918z" />
    <glyph glyph-name="uni046B" unicode="&#x46b;" horiz-adv-x="1420" 
d="M96 0v162q0 233 120.5 337t331.5 104h325q210 0 330.5 -104t120.5 -337v-162h-178v162q0 103 -34 163.5t-95 87t-144 26.5h-325q-83 0 -144.5 -26t-96 -86.5t-34.5 -164.5v-162h-177zM622 0v575h177v-575h-177zM606 449l-398 655h208l352 -621l-21 -34h-141zM687 449
l-17 40l344 615h215l-406 -655h-136zM367 944v160h737v-160h-737z" />
    <glyph glyph-name="uni046C" unicode="&#x46c;" horiz-adv-x="2331" 
d="M752 0v367q0 143 55 243.5t160 153t255 52.5h489q151 0 255.5 -52.5t159 -153t54.5 -243.5v-367h-187v368q0 136 -74 210t-209 74h-488q-134 0 -208 -74t-74 -210v-368h-188zM173 0v1490h188v-1490h-188zM316 652v164h946v-164h-946zM1373 0v781h186v-781h-186zM1394 622
l-535 868h220l454 -793l-32 -75h-107zM1431 622l-24 83l451 785h215l-533 -868h-109zM1000 1327v163h918v-163h-918z" />
    <glyph glyph-name="uni046D" unicode="&#x46d;" horiz-adv-x="1951" 
d="M627 0v144q0 117 38.5 197t97.5 131t123.5 78t118.5 38t81 11l319 3q231 2 340.5 -113t109.5 -327v-162h-177v162q0 103 -34 163.5t-95 87t-144 26.5h-325q-83 0 -145 -26t-96 -86.5t-34 -164.5v-162h-178zM151 0v1104h178v-1104h-178zM260 439v164h857v-160zM1153 0v575
h177v-575h-177zM1137 449l-397 655h208l351 -621l-21 -34h-141zM1218 449l-16 40l344 615h214l-406 -655h-136zM898 944v160h737v-160h-737z" />
    <glyph glyph-name="uni046E" unicode="&#x46e;" horiz-adv-x="1099" 
d="M177 1490h299q141 0 249.5 -47t170.5 -133t62 -203q0 -116 -62 -203t-173 -135t-261 -48h-147v125h143q158 0 226 70t68 172q0 109 -67 173t-209 64h-299v165zM315 799h147q246 0 384 -99t138 -292q0 -135 -62 -230.5t-171 -146.5t-248 -51h-51q-74 0 -107 -31.5
t-33 -80.5q0 -53 28 -88.5t65.5 -58.5t66.5 -36l-83 -133q-66 28 -128.5 73.5t-102 110.5t-39.5 152q0 130 92.5 193.5t248.5 63.5h42q87 0 148.5 33.5t93.5 93.5t32 142q0 130 -82 198.5t-236 68.5h-143v118zM423 1909l175 -173l175 173h146v-12l-270 -273h-104l-267 273
v12h145z" />
    <glyph glyph-name="uni046F" unicode="&#x46f;" horiz-adv-x="1050" 
d="M444 -418q-109 0 -190 35.5t-126 100.5t-45 153t44 153t124 100.5t187 35.5h73q105 0 161.5 40.5t56.5 115.5t-56.5 115.5t-161.5 40.5h-248v160h232q105 0 161.5 41t56.5 116t-56.5 115t-161.5 40h-353v160h353q118 0 204.5 -36.5t135 -103.5t48.5 -159
q0 -93 -51 -152.5t-138.5 -87.5t-198.5 -28h-232v59h248q111 0 198.5 -32.5t138.5 -96.5t51 -158t-48 -163.5t-134.5 -107.5t-205.5 -38h-73q-88 0 -136.5 -33.5t-48.5 -95.5t50 -95.5t141 -33.5h46v-160h-46zM357 1543l144 -175l142 175h178v-7l-235 -269h-170l-234 269v7
h175z" />
    <glyph glyph-name="uni0470" unicode="&#x470;" horiz-adv-x="1786" 
d="M1431 1490h182v-384q0 -168 -41.5 -293.5t-124 -209t-204.5 -125.5t-284 -42h-133q-160 0 -282.5 42t-204.5 125.5t-124 209t-42 293.5v384h182v-373q0 -188 47 -302.5t150.5 -166.5t273.5 -52h134q171 0 274.5 52t150 166.5t46.5 302.5v373zM802 1490h182v-1490h-182
v1490z" />
    <glyph glyph-name="uni0471" unicode="&#x471;" horiz-adv-x="1575" 
d="M698 -20q-173 0 -295.5 69.5t-187 202t-64.5 320.5v532h178v-530q0 -145 42.5 -241.5t125.5 -145t201 -48.5h178q120 0 202 48.5t125.5 145t43.5 241.5v530h178v-532q0 -188 -65 -320.5t-187.5 -202t-296.5 -69.5h-178zM698 -418v1793h178v-1793h-178z" />
    <glyph glyph-name="uni0472" unicode="&#x472;" horiz-adv-x="1559" 
d="M1285 824v-160h-1024v160h1024zM780 -21q-192 0 -342.5 94t-236.5 266t-86 405q0 234 86 406t236.5 266.5t342.5 94.5q193 0 342.5 -94.5t235.5 -266.5t86 -406q0 -233 -86 -405t-235.5 -266t-342.5 -94zM780 153q134 0 242.5 68t173 200t64.5 323q0 192 -64.5 324.5
t-173 200.5t-242.5 68t-243 -68.5t-173.5 -200.5t-64.5 -324q0 -191 64.5 -322.5t173.5 -200t243 -68.5z" />
    <glyph glyph-name="uni0473" unicode="&#x473;" horiz-adv-x="1205" 
d="M602 -24q-151 0 -264.5 71.5t-177 200.5t-63.5 298q0 172 63.5 301.5t177 201t264.5 71.5t265 -71.5t177.5 -201t63.5 -301.5q0 -169 -63.5 -298t-177.5 -200.5t-265 -71.5zM602 135q110 0 182.5 56t108 149.5t35.5 205.5q0 113 -35.5 207.5t-108 151t-182.5 56.5
q-109 0 -181 -56.5t-108 -150.5t-36 -208q0 -112 36 -205.5t107.5 -149.5t181.5 -56zM255 417l-78 61q59 74 121.5 131t144.5 57q68 0 123.5 -23.5t103 -47.5t88.5 -24q57 0 100.5 26t85.5 89l81 -54q-57 -86 -118.5 -138.5t-148.5 -52.5q-69 0 -124.5 23.5t-102.5 47
t-89 23.5q-49 0 -95 -29.5t-92 -88.5z" />
    <glyph glyph-name="uni0474" unicode="&#x474;" horiz-adv-x="1428" 
d="M1041 1206q50 141 111.5 220.5t179.5 79.5h52v-173h-23q-61 0 -84 -39t-49 -111l-434 -1183h-203l-546 1490h199l442 -1258h14z" />
    <glyph glyph-name="uni0475" unicode="&#x475;" horiz-adv-x="1200" 
d="M458 0l-409 1104h194l304 -873h10l233 671q37 105 108 153.5t177 48.5h76v-157h-75q-79 0 -108 -76l-325 -871h-185z" />
    <glyph glyph-name="uni0476" unicode="&#x476;" horiz-adv-x="1428" 
d="M1041 1206q50 141 111.5 220.5t179.5 79.5h52v-173h-23q-61 0 -84 -39t-49 -111l-434 -1183h-203l-546 1490h199l442 -1258h14zM801 1634l-171 295h199l118 -295h-146zM481 1634l-220 295h200l168 -295h-148z" />
    <glyph glyph-name="uni0477" unicode="&#x477;" horiz-adv-x="1200" 
d="M458 0l-409 1104h194l304 -873h10l233 671q37 105 108 153.5t177 48.5h76v-157h-75q-79 0 -108 -76l-325 -871h-185zM639 1248l-171 295h199l118 -295h-146zM319 1248l-220 295h200l168 -295h-148z" />
    <glyph glyph-name="uni0478" unicode="&#x478;" horiz-adv-x="2687" 
d="M780 -21q-192 0 -342.5 94t-236.5 266t-86 405q0 234 86 406t236.5 266.5t342.5 94.5q193 0 342.5 -94.5t235.5 -266.5t86 -406q0 -233 -86 -405t-235.5 -266t-342.5 -94zM780 153q134 0 242.5 68t173 200t64.5 323q0 192 -64.5 324.5t-173 200.5t-242.5 68t-243 -68.5
t-173.5 -200.5t-64.5 -324q0 -191 64.5 -322.5t173.5 -200t243 -68.5zM1698 -408l35 155l38 -4q50 -11 91 -3t73.5 44t57.5 108l38 105l-423 1107h194l236 -651q36 -97 62 -193.5t54 -187.5h-61q28 91 54.5 187.5t61.5 193.5l237 651h192l-490 -1277q-32 -85 -78.5 -141
t-108 -83t-138.5 -27q-43 0 -76 5.5t-49 10.5z" />
    <glyph glyph-name="uni0479" unicode="&#x479;" horiz-adv-x="2293" 
d="M602 -24q-151 0 -264.5 71.5t-177 200.5t-63.5 298q0 172 63.5 301.5t177 201t264.5 71.5t265 -71.5t177.5 -201t63.5 -301.5q0 -169 -63.5 -298t-177.5 -200.5t-265 -71.5zM602 135q110 0 182.5 56t108 149.5t35.5 205.5q0 113 -35.5 207.5t-108 151t-182.5 56.5
q-109 0 -181 -56.5t-108 -150.5t-36 -208q0 -112 36 -205.5t107.5 -149.5t181.5 -56zM1304 -408l35 155l38 -4q50 -11 91 -3t73.5 44t57.5 108l38 105l-423 1107h194l236 -651q36 -97 62 -193.5t54 -187.5h-61q28 91 54.5 187.5t61.5 193.5l237 651h192l-490 -1277
q-32 -85 -78.5 -141t-108 -83t-138.5 -27q-43 0 -76 5.5t-49 10.5z" />
    <glyph glyph-name="uni0480" unicode="&#x480;" horiz-adv-x="1449" 
d="M724 135q-127 0 -237 48t-193.5 138t-131 217.5t-47.5 285.5q0 212 82 366.5t225.5 239t328.5 84.5q109 0 205.5 -30.5t173.5 -89t128 -142t70 -190.5h-189q-19 92 -76 154t-138 94t-174 32q-130 0 -232.5 -61.5t-160.5 -177t-58 -279.5t58.5 -279.5t161 -176
t231.5 -60.5q94 0 175 32t137.5 93.5t76.5 150.5h83q-5 -95 -42.5 -177t-104 -143t-156 -95t-196.5 -34zM1140 0l7 584h181v-584h-188z" />
    <glyph glyph-name="uni0481" unicode="&#x481;" horiz-adv-x="1139" 
d="M710 135v-486h-177v486h177zM602 -24q-155 0 -268.5 73.5t-175 202.5t-61.5 294q0 169 62.5 299t176 202.5t264.5 72.5q120 0 215.5 -44.5t156.5 -125t75 -188.5h-179q-12 53 -46 98.5t-89 73t-131 27.5q-98 0 -171 -50.5t-113.5 -143t-40.5 -216.5q0 -126 40 -219
t112.5 -145t172.5 -52v-159z" />
    <glyph glyph-name="uni0482" unicode="&#x482;" horiz-adv-x="1279" 
d="M809 808l-207 -360l291 -172l-72 -128l-291 172l-182 -320h-175l225 398l-289 172l70 128l295 -172l200 362l-289 168l75 130l290 -170l185 326h171l-228 -406l294 -170l-76 -126z" />
    <glyph glyph-name="uni0483" unicode="&#x483;" 
d="M-222 1312h-545v-126h-176v240h547v108h174v-222z" />
    <glyph glyph-name="uni0484" unicode="&#x484;" 
d="M-923 1438h42q81 0 145 18t118.5 41t107.5 41t112 18q111 0 174.5 -52.5t63.5 -161.5v-38h-136v16q-1 53 -30.5 77.5t-75.5 24.5q-43 0 -90.5 -18t-103.5 -41t-125.5 -41t-157.5 -18h-44v134z" />
    <glyph glyph-name="uni0485" unicode="&#x485;" 
d="M-511 1301l-166 201v124h191l-3 -142l61 -115z" />
    <glyph glyph-name="uni0486" unicode="&#x486;" 
d="M-365 1502l-166 -201l-82 68l60 115l-4 142h192v-124z" />
    <glyph glyph-name="uni0487" unicode="&#x487;" 
d="M-320 1438h160v-134h-174q-51 0 -90.5 18t-78.5 41t-88 41t-121 18q-46 0 -89.5 -23.5t-43.5 -78.5v-16h-136v38q0 98 74.5 156t204.5 58q79 0 134 -18t96.5 -41.5t77.5 -41t74 -17.5z" />
    <glyph glyph-name="uni0488" unicode="&#x488;" 
d="M-658 1268h-114q1 81 58 133.5t156 52.5q95 0 152 -52.5t57 -133.5h-111q0 40 -23 70t-75 30q-55 0 -77.5 -31t-22.5 -69zM-63 990h-114q0 83 56.5 135.5t153.5 52.5q98 0 155.5 -52.5t57.5 -135.5h-114q1 41 -21.5 70.5t-77.5 29.5q-52 0 -74 -30t-22 -70zM124 488h-115
q1 80 57.5 133t153.5 53q98 0 155 -52.5t57 -133.5h-114q1 40 -21 70t-77 30q-50 0 -73 -30t-23 -70zM-75 -32h-114q1 81 58 135.5t156 54.5q95 0 152 -53.5t57 -136.5h-110q0 39 -23 70.5t-76 31.5t-76.5 -31.5t-23.5 -70.5zM-652 -318h-114q1 83 57.5 136.5t152.5 53.5
q98 0 155.5 -53.5t57.5 -136.5h-113q-1 40 -23 71t-77 31q-52 0 -74 -32t-22 -70zM-1228 990h-116q0 83 57 135.5t155 52.5t155 -52.5t57 -135.5h-112q-1 41 -23.5 70.5t-76.5 29.5q-52 0 -74 -29.5t-22 -70.5zM-1407 488h-112q-1 81 56 133.5t153 52.5q99 0 156.5 -52.5
t57.5 -133.5h-114q0 41 -23 70.5t-77 29.5q-52 0 -74 -31t-23 -69zM-1240 -32h-113q-1 81 56 135.5t153 54.5q97 0 154.5 -53.5t57.5 -136.5h-112q-1 39 -23 70.5t-77 31.5q-52 0 -73.5 -32.5t-22.5 -69.5z" />
    <glyph glyph-name="uni0489" unicode="&#x489;" 
d="M-666 1126l-12 14l122 338h96l-70 -352h-136zM-131 904l-96 100v14l325 154l66 -70zM360 422l-347 70v140l15 10l332 -122v-98zM13 -238l-198 300l96 98h18l149 -326zM-678 -414l70 352h136l12 -14l-122 -338h-96zM-1234 -148l-71 66l295 202l96 -100v-14zM-1166 422
l-333 122v98l347 -68v-140zM-1070 862l-146 328l64 66l198 -298l-100 -96h-16z" />
    <glyph glyph-name="uni048A" unicode="&#x48a;" horiz-adv-x="1523" 
d="M1350 0h-188v853q0 40 2 109t6 162.5t8 205.5l32 -11q-68 -120 -116.5 -205t-85.5 -147t-72 -116l-541 -851h-222v1490h188v-925q0 -42 -1 -107.5t-4.5 -142.5t-11.5 -156l-25 8q38 78 76 148t71.5 126.5t55.5 91.5l608 957h220v-1490zM764 1647q-80 0 -145.5 37.5
t-104 101.5t-38.5 143h131q0 -68 44.5 -111.5t112.5 -43.5q69 0 113.5 43.5t44.5 111.5h131q0 -79 -38 -143t-103.5 -101.5t-147.5 -37.5zM1228 -320l95 320h-65v165h292l-145 -485h-177z" />
    <glyph glyph-name="uni048B" unicode="&#x48b;" horiz-adv-x="1194" 
d="M1043 0h-178v802h-11l-532 -802h-171v1104h178v-804h10l534 804h170v-1104zM596 1261q-80 0 -145.5 37.5t-104 101.5t-38.5 143h131q0 -68 44.5 -111.5t112.5 -43.5q69 0 113.5 43.5t44.5 111.5h131q0 -79 -38 -143t-103.5 -101.5t-147.5 -37.5zM916 -320l95 320h-65v165
h292l-145 -485h-177z" />
    <glyph glyph-name="uni048C" unicode="&#x48c;" horiz-adv-x="1403" 
d="M397 901h407q155 0 267 -54t173 -153.5t61 -235.5q0 -140 -60.5 -243t-173 -159t-267.5 -56h-545v1490h188v-1326h355q147 0 232 80t85 216q0 85 -39 146.5t-109.5 95t-168.5 33.5h-405v166zM22 1100v156h808v-156h-808z" />
    <glyph glyph-name="uni048D" unicode="&#x48d;" horiz-adv-x="1245" 
d="M19 958v146h770v-146h-770zM268 1104v271h170v-271h-170zM419 712h323q129 0 219.5 -45.5t138.5 -125t48 -181.5t-48 -183.5t-138.5 -129t-219.5 -47.5h-474v1104h178v-939h295q100 0 164 52t64 137q0 86 -64 139.5t-164 53.5h-322v165z" />
    <glyph glyph-name="uni048E" unicode="&#x48e;" horiz-adv-x="1286" 
d="M819 958l302 -464l-134 -86l-302 464zM173 0v1490h515q170 0 283 -61.5t169 -167.5t56 -240t-56.5 -241t-169.5 -169t-283 -62h-377v166h371q115 0 187.5 39t106.5 108.5t34 158.5t-34 157.5t-107 107.5t-189 39h-318v-1325h-188z" />
    <glyph glyph-name="uni048F" unicode="&#x48f;" horiz-adv-x="1234" 
d="M785 392l338 -376l-116 -110l-338 376zM151 -418v1522h172v-174h16q22 37 60 81t102 76.5t164 32.5q140 0 245.5 -70t165.5 -198t60 -302q0 -175 -59.5 -303.5t-165 -199t-245.5 -70.5q-97 0 -161.5 32.5t-103 77.5t-61.5 83h-11v-588h-178zM639 136q102 0 172.5 54
t107 148t36.5 213t-36 211.5t-106.5 145.5t-173.5 53q-102 0 -172 -51.5t-106.5 -143.5t-36.5 -215t36.5 -216.5t107.5 -146t171 -52.5z" />
    <glyph glyph-name="uni0490" unicode="&#x490;" horiz-adv-x="1166" 
d="M900 1330v466h173v-466h-173zM1078 1490v-165h-717v-1325h-188v1490h905z" />
    <glyph glyph-name="uni0491" unicode="&#x491;" horiz-adv-x="887" 
d="M674 1104v276h170v-276h-170zM844 1104v-164h-515v-940h-178v1104h693z" />
    <glyph glyph-name="uni0492" unicode="&#x492;" horiz-adv-x="1166" 
d="M1078 1490v-165h-717v-1325h-188v1490h905zM-16 667v156h808v-156h-808z" />
    <glyph glyph-name="uni0493" unicode="&#x493;" horiz-adv-x="887" 
d="M844 1104v-164h-515v-940h-178v1104h693zM1 488v140h645v-140h-645z" />
    <glyph glyph-name="uni0494" unicode="&#x494;" horiz-adv-x="1320" 
d="M1078 1490v-165h-717v-1325h-188v1490h905zM589 -89v175h107q156 0 248 88t92 238q0 152 -92.5 242.5t-247.5 90.5q-156 0 -247.5 -95.5t-91.5 -260.5h-88q0 174 48 292.5t144 178.5t238 60q154 0 272 -64.5t185 -179t67 -264.5q0 -149 -67 -262t-186 -176t-274 -63h-107
z" />
    <glyph glyph-name="uni0495" unicode="&#x495;" horiz-adv-x="1095" 
d="M456 -322v160h80q90 0 155.5 39t101 112t35.5 177q0 93 -30.5 158t-87 98.5t-136.5 33.5t-136.5 -33.5t-86.5 -98.5t-30 -158h-39q0 124 32.5 226t103.5 163t184 61q110 0 200 -59t143 -160.5t53 -230.5q0 -141 -59.5 -251.5t-163.5 -173.5t-237 -63h-82zM844 1104v-164
h-515v-940h-178v1104h693z" />
    <glyph glyph-name="uni0496" unicode="&#x496;" horiz-adv-x="1984" 
d="M1068 1490v-1490h-188v1490h188zM50 0l481 774l-439 716h224l384 -663h552l381 663h224l-440 -718l480 -772h-215l-401 661h-615l-404 -661h-212zM1800 -320v320h-75v165h253v-485h-178z" />
    <glyph glyph-name="uni0497" unicode="&#x497;" horiz-adv-x="1681" 
d="M57 0l450 562l-444 542h211l369 -469h90v469h178v-469h87l368 469h212l-443 -542l448 -562h-214l-373 471h-85v-471h-178v471h-86l-374 -471h-216zM1485 -320v320h-75v165h253v-485h-178z" />
    <glyph glyph-name="uni0498" unicode="&#x498;" horiz-adv-x="1256" 
d="M632 -21q-148 0 -262 53t-181 146.5t-70 217.5h189q5 -78 47 -135t113 -87t160 -30q96 0 169.5 33t116 93.5t42.5 139.5q0 81 -42 142t-120 95.5t-189 34.5h-121v164h121q89 0 157 31t105.5 87.5t37.5 132.5t-33.5 132.5t-95.5 87t-145 30.5q-81 0 -148 -29t-108 -83.5
t-43 -132.5h-181q3 121 68 213t173.5 144t241.5 52q138 0 240.5 -55.5t158.5 -147.5t56 -201q0 -123 -67.5 -211t-183.5 -123v-10q95 -15 163 -64t104 -123.5t36 -167.5q0 -123 -66 -220t-181.5 -153t-261.5 -56zM540 -418v105h117q54 0 76.5 15t22.5 51t-22.5 50.5
t-76.5 14.5h-81l30 230h94v-48v-86q96 -4 142.5 -43.5t46.5 -118.5q0 -88 -57 -129t-174 -41h-118z" />
    <glyph glyph-name="uni0499" unicode="&#x499;" horiz-adv-x="999" 
d="M499 -14q-114 0 -206 37t-146.5 104t-57.5 155h181q4 -63 70 -104t158 -41q102 0 165.5 50.5t63.5 127.5q0 81 -68 132t-184 51h-75v134h75q96 0 158.5 47.5t62.5 125.5q0 75 -53 121.5t-141 46.5q-86 0 -150.5 -42.5t-66.5 -114.5h-171q2 91 54.5 159t140.5 106t195 38
q111 0 193.5 -41.5t127.5 -110.5t45 -153q0 -97 -60.5 -159.5t-151.5 -81.5v-6q125 -19 189.5 -89.5t64.5 -173.5q0 -91 -53 -163t-146.5 -113.5t-213.5 -41.5zM388 -418v105h117q54 0 76.5 15t22.5 51t-22.5 50.5t-76.5 14.5h-81l30 230h94v-48v-86q96 -4 142.5 -43.5
t46.5 -118.5q0 -88 -57 -129t-174 -41h-118z" />
    <glyph glyph-name="uni049A" unicode="&#x49a;" horiz-adv-x="1433" 
d="M173 0v1490h188v-649h209l488 649h227l-555 -722l579 -768h-226l-505 676h-217v-676h-188zM1216 -320v320h-75v165h253v-485h-178z" />
    <glyph glyph-name="uni049B" unicode="&#x49b;" horiz-adv-x="1138" 
d="M151 0v1104h178v-478h112l400 478h225l-447 -534l453 -570h-225l-363 462h-155v-462h-178zM962 -320v320h-75v165h253v-485h-178z" />
    <glyph glyph-name="uni049C" unicode="&#x49c;" horiz-adv-x="1348" 
d="M480 1074h161v-663h-161v663zM173 0v1490h188v-667h349l342 667h219l-392 -744l419 -746h-210l-366 644h-361v-644h-188z" />
    <glyph glyph-name="uni049D" unicode="&#x49d;" horiz-adv-x="1182" 
d="M151 0v1104h178v-478h302l317 478h207l-361 -534l367 -570h-207l-289 462h-336v-462h-178zM434 828h159v-570h-159v570z" />
    <glyph glyph-name="uni04A0" unicode="&#x4a0;" horiz-adv-x="1699" 
d="M603 1490v-160h-516v160h516zM513 0v1490h188v-649h209l488 649h227l-555 -722l579 -768h-226l-505 676h-217v-676h-188z" />
    <glyph glyph-name="uni04A1" unicode="&#x4a1;" horiz-adv-x="1273" 
d="M19 958v146h402v-146h-402zM331 0v1104h178v-478h112l400 478h225l-447 -534l453 -570h-225l-363 462h-155v-462h-178z" />
    <glyph glyph-name="uni04A2" unicode="&#x4a2;" horiz-adv-x="1534" 
d="M173 0v1490h188v-645h784v645h188v-1490h-188v679h-784v-679h-188zM1299 -320v320h-75v165h253v-485h-178z" />
    <glyph glyph-name="uni04A3" unicode="&#x4a3;" horiz-adv-x="1216" 
d="M900 650v-165h-614v165h614zM329 1104v-1104h-178v1104h178zM1037 1104v-1104h-177v1104h177zM1003 -320v320h-75v165h253v-485h-178z" />
    <glyph glyph-name="uni04A4" unicode="&#x4a4;" horiz-adv-x="2000" 
d="M1913 1490v-160h-634l-128 160h762zM173 0v1490h188v-645h784v645h188v-1490h-188v679h-784v-679h-188z" />
    <glyph glyph-name="uni04A5" unicode="&#x4a5;" horiz-adv-x="1382" 
d="M956 958v146h392v-146h-392zM900 650v-165h-614v165h614zM329 1104v-1104h-178v1104h178zM1037 1104v-1104h-177v1104h177z" />
    <glyph glyph-name="uni04A6" unicode="&#x4a6;" horiz-adv-x="2254" 
d="M1333 1490v-1490h-188v1324h-784v-1324h-188v1490h1160zM1523 -89v175h107q156 0 248 88t92 238q0 152 -92.5 242.5t-247.5 90.5q-156 0 -247.5 -95.5t-91.5 -260.5h-88q0 174 48 292.5t144 178.5t238 60q154 0 272 -64.5t185 -179t67 -264.5q0 -149 -67 -262t-186 -176
t-274 -63h-107z" />
    <glyph glyph-name="uni04A7" unicode="&#x4a7;" horiz-adv-x="1872" 
d="M1342 -292l-41 157q154 27 228.5 105.5t74.5 196.5q0 99 -48.5 168.5t-133.5 106.5t-194 37h-272v160h272q161 1 284.5 -56t193 -163t69.5 -253q0 -69 -24.5 -143t-77 -140.5t-135 -113.5t-196.5 -62zM1037 1104v-1104h-178v940h-530v-940h-178v1104h886z" />
    <glyph glyph-name="uni04A8" unicode="&#x4a8;" horiz-adv-x="2002" 
d="M1627 -22q-87 0 -171.5 16.5t-157.5 48.5t-124 76q-105 72 -184 172.5t-122 223.5t-43 260q0 166 62.5 289t173 190.5t253.5 67.5q145 0 256 -67t173.5 -185t62.5 -273q0 -160 -57.5 -290t-155.5 -228.5t-222 -165t-259 -100.5t-266 -34q-222 0 -386.5 94t-254.5 265.5
t-90 405.5t86 406t236.5 266.5t342.5 94.5v-174q-134 0 -243 -68t-173.5 -200.5t-64.5 -324.5q0 -184 65 -316.5t188 -203.5t294 -71q150 0 288 49.5t247.5 137.5t173 205t63.5 252q0 108 -38 187t-106 121.5t-160 42.5t-159.5 -45t-105 -127.5t-37.5 -195.5
q0 -115 41.5 -225.5t118 -200t181.5 -142.5q53 -40 119.5 -53.5t157.5 -13.5q50 0 106.5 10.5t123.5 38.5l55 -152q-37 -17 -81 -32t-95.5 -23.5t-111.5 -8.5z" />
    <glyph glyph-name="uni04A9" unicode="&#x4a9;" horiz-adv-x="1582" 
d="M688 -24q-189 0 -321 69t-201 197t-69 304q0 172 63.5 301.5t178 201t264.5 71.5v-159q-109 0 -181 -56.5t-108.5 -150.5t-36.5 -208q0 -128 46.5 -220.5t138 -141.5t228.5 -49q93 0 191 23t180.5 73t133 129.5t50.5 191.5q0 80 -28.5 140t-79 93t-119.5 33
q-67 0 -118 -33t-79 -93t-28 -141q0 -104 41 -181.5t109 -130t147 -82.5q46 -22 97 -27.5t92 -5.5q62 0 112.5 13t96.5 34l51 -135q-62 -30 -128 -42t-135 -12q-102 0 -201.5 25.5t-184.5 73.5q-122 68 -199.5 189.5t-77.5 280.5q0 124 51.5 220.5t143 151.5t210.5 55
q120 0 211.5 -55t143.5 -151.5t52 -219.5q0 -141 -63.5 -249t-170 -181t-237.5 -109.5t-266 -36.5z" />
    <glyph glyph-name="uni04AA" unicode="&#x4aa;" horiz-adv-x="1492" 
d="M782 -21q-194 0 -345 94t-236.5 266t-85.5 405q0 235 85.5 406.5t236.5 266t345 94.5q114 0 215 -33.5t181.5 -97.5t134 -155t73.5 -207h-189q-16 78 -54.5 137t-94.5 100t-123.5 61.5t-142.5 20.5q-139 0 -248.5 -70t-172 -202.5t-62.5 -320.5q0 -187 63 -319.5
t172.5 -202t247.5 -69.5q75 0 142.5 21t123 61.5t94.5 99.5t56 136h188q-19 -114 -73 -204.5t-134 -155t-181 -98.5t-216 -34zM666 -427v105h117q54 0 76.5 15t22.5 51t-22.5 50.5t-76.5 14.5h-81l30 230h94v-48v-86q96 -4 142.5 -43.5t46.5 -118.5q0 -88 -57 -129t-174 -41
h-118z" />
    <glyph glyph-name="uni04AB" unicode="&#x4ab;" horiz-adv-x="1148" 
d="M602 -24q-151 0 -264.5 71.5t-177 200.5t-63.5 298q0 172 63.5 301.5t177 201t264.5 71.5q83 0 156 -22t132 -64t101 -101.5t62 -134.5l-173 -38q-11 44 -35.5 80.5t-59.5 63.5t-81 42t-102 15q-109 0 -181 -56.5t-108 -150.5t-36 -208q0 -112 36 -205.5t107.5 -149.5
t181.5 -56q56 0 102.5 15t82.5 43t60 66.5t36 83.5l173 -38q-20 -76 -62 -136t-101.5 -103.5t-133.5 -66.5t-157 -23zM491 -418v105h117q54 0 76.5 15t22.5 51t-22.5 50.5t-76.5 14.5h-81l30 230h94v-48v-86q96 -4 142.5 -43.5t46.5 -118.5q0 -88 -57 -129t-174 -41h-118z
" />
    <glyph glyph-name="uni04AC" unicode="&#x4ac;" horiz-adv-x="1306" 
d="M87 1324v166h1132v-166h-471v-1324h-188v1324h-473zM714 -320v320h-75v165h253v-485h-178z" />
    <glyph glyph-name="uni04AD" unicode="&#x4ad;" horiz-adv-x="950" 
d="M387 0v945h-368v159h912v-159h-366v-945h-178zM531 -320v320h-75v165h253v-485h-178z" />
    <glyph glyph-name="uni04AE" unicode="&#x4ae;" horiz-adv-x="1374" 
d="M593 0v611l-548 879h217l296 -481q49 -79 88.5 -152.5t80.5 -176.5h-76q41 105 80.5 179t85.5 150l295 481h217l-548 -879v-611h-188z" />
    <glyph glyph-name="uni04AF" unicode="&#x4af;" horiz-adv-x="1128" 
d="M478 -19l-429 1123h194l236 -651q36 -97 62 -193.5t54 -187.5h-60q28 91 54.5 187.5t61.5 193.5l235 651h193l-430 -1123h-171zM475 -418v426h178v-426h-178z" />
    <glyph glyph-name="uni04B0" unicode="&#x4b0;" horiz-adv-x="1374" 
d="M593 0v611l-548 879h217l296 -481q49 -79 88.5 -152.5t80.5 -176.5h-76q41 105 80.5 179t85.5 150l295 481h217l-548 -879v-611h-188zM283 311v156h808v-156h-808z" />
    <glyph glyph-name="uni04B1" unicode="&#x4b1;" horiz-adv-x="1128" 
d="M478 -19l-429 1123h194l236 -651q36 -97 62 -193.5t54 -187.5h-60q28 91 54.5 187.5t61.5 193.5l235 651h193l-430 -1123h-171zM475 -418v426h178v-426h-178zM241 -140v140h645v-140h-645z" />
    <glyph glyph-name="uni04B2" unicode="&#x4b2;" horiz-adv-x="1418" 
d="M50 0l582 832v-139l-549 797h217l216 -317q45 -65 75.5 -113t57.5 -94.5t59 -107.5h-32q32 60 59 106.5t59 95t76 113.5l220 317h213l-549 -789v138l576 -839h-216l-262 379q-39 59 -68.5 103.5t-55.5 89t-57 103.5h41q-30 -56 -57 -101t-57 -90t-71 -105l-264 -379h-213
zM1230 -320v320h-75v165h253v-485h-178z" />
    <glyph glyph-name="uni04B3" unicode="&#x4b3;" horiz-adv-x="1145" 
d="M57 0l441 634l-1 -136l-417 606h208l140 -215q51 -79 91 -149.5t82 -137.5h-92q43 67 80 137.5t89 149.5l143 215h204l-419 -612v132l437 -624h-207l-165 249q-50 77 -89 145t-80 132h93q-41 -64 -77.5 -132t-87.5 -145l-167 -249h-206zM961 -320v320h-75v165h253v-485
h-178z" />
    <glyph glyph-name="uni04B4" unicode="&#x4b4;" horiz-adv-x="1862" 
d="M87 1330v160h1118v-160h-1118zM1674 0h-1117v1490h188v-1325h742v1325h187v-1490zM1640 -320v320h-75v165h254l-1 -485h-178z" />
    <glyph glyph-name="uni04B5" unicode="&#x4b5;" horiz-adv-x="1342" 
d="M727 1104v-160h-708v160h708zM284 0v1104h178v-939h529v939h179v-1104h-886zM1135 -320v320h-74v165h253l-1 -485h-178z" />
    <glyph glyph-name="uni04B6" unicode="&#x4b6;" horiz-adv-x="1446" 
d="M649 556q-155 0 -266.5 50t-171.5 155.5t-60 270.5v458h188v-457q0 -164 94.5 -236.5t239.5 -72.5q123 0 233.5 41t207.5 112v-186q-96 -59 -209.5 -97t-255.5 -38zM1057 0v1490h188v-1490h-188zM1211 -320v320h-75v165h253v-485h-178z" />
    <glyph glyph-name="uni04B7" unicode="&#x4b7;" horiz-adv-x="1195" 
d="M574 343q-193 0 -308 102.5t-115 307.5v351h178v-351q0 -126 70 -185.5t175 -59.5q108 0 196 20t176 51v-164q-58 -21 -115.5 -37.5t-120 -25.5t-136.5 -9zM838 0v1104h178v-1104h-178zM982 -320v320h-75v165h253v-485h-178z" />
    <glyph glyph-name="uni04B8" unicode="&#x4b8;" horiz-adv-x="1418" 
d="M649 556q-155 0 -266.5 50t-171.5 155.5t-60 270.5v458h188v-457q0 -164 94.5 -236.5t239.5 -72.5q123 0 233.5 41t207.5 112v-186q-96 -59 -209.5 -97t-255.5 -38zM1057 0v1490h188v-1490h-188zM617 319v644h162v-644h-162z" />
    <glyph glyph-name="uni04B9" unicode="&#x4b9;" horiz-adv-x="1167" 
d="M574 343q-193 0 -308 102.5t-115 307.5v351h178v-351q0 -126 70 -185.5t175 -59.5q108 0 196 20t176 51v-164q-58 -21 -115.5 -37.5t-120 -25.5t-136.5 -9zM838 0v1104h178v-1104h-178zM504 106v644h162v-644h-162z" />
    <glyph glyph-name="uni04BA" unicode="&#x4ba;" horiz-adv-x="1418" 
d="M769 934q155 0 266.5 -50t171.5 -155t60 -271v-458h-188v457q0 164 -94 236.5t-240 72.5q-123 0 -233.5 -41t-207.5 -112v186q96 59 209.5 97t255.5 38zM361 1490v-1490h-188v1490h188z" />
    <glyph glyph-name="uni04BB" unicode="&#x4bb;" horiz-adv-x="1191" 
d="M329 658v-658h-178v1490h178v-653h-36q51 152 145 217.5t221 65.5q112 0 198 -46.5t134.5 -140t48.5 -235.5v-698h-179v684q0 130 -67 202.5t-184 72.5q-80 0 -143.5 -34t-100.5 -101t-37 -166z" />
    <glyph glyph-name="uni04BC" unicode="&#x4bc;" horiz-adv-x="1714" 
d="M970 -21q-193 0 -342.5 94.5t-234 267t-84.5 405.5q0 175 48.5 316t137.5 241t211.5 154t270.5 54q194 0 331.5 -90t211 -249t73.5 -366v-144h-1144v165h1018l-57 -27q0 156 -49 277t-145 190.5t-239 69.5q-139 0 -248 -70t-172.5 -202t-63.5 -319q0 -188 63 -321
t171.5 -202.5t242.5 -69.5q80 0 147.5 22.5t121 64t92 100t60.5 130.5h193q-20 -109 -74 -199t-134.5 -155t-183.5 -101t-222 -36zM19 1057h175v-89q0 -66 8.5 -95.5t37 -37.5t86.5 -8h54v-164h-57q-151 0 -227.5 79t-76.5 235v80z" />
    <glyph glyph-name="uni04BD" unicode="&#x4bd;" horiz-adv-x="1447" 
d="M383 496q-181 0 -272.5 94.5t-91.5 263.5h158q0 -102 48 -156.5t158 -54.5v-147zM887 -24q-160 0 -276 72t-178 200t-62 297t61.5 299t174 203t261.5 73q94 0 181 -31.5t156 -99t109 -173.5t40 -253v-69h-868v150h771l-81 -54q0 109 -35.5 193t-104 131.5t-168.5 47.5
q-99 0 -170.5 -48t-109.5 -127.5t-38 -174.5v-94q0 -121 41.5 -207t118 -131t178.5 -45q68 0 122.5 20t93.5 59t59 96l173 -38q-25 -87 -87 -154t-154.5 -104.5t-207.5 -37.5z" />
    <glyph glyph-name="uni04BE" unicode="&#x4be;" horiz-adv-x="1714" 
d="M970 -21q-193 0 -342.5 94.5t-234 267t-84.5 405.5q0 175 48.5 316t137.5 241t211.5 154t270.5 54q194 0 331.5 -90t211 -249t73.5 -366v-144h-1144v165h1018l-57 -27q0 156 -49 277t-145 190.5t-239 69.5q-139 0 -248 -70t-172.5 -202t-63.5 -319q0 -188 63 -321
t171.5 -202.5t242.5 -69.5q80 0 147.5 22.5t121 64t92 100t60.5 130.5h193q-20 -109 -74 -199t-134.5 -155t-183.5 -101t-222 -36zM19 1057h175v-89q0 -66 8.5 -95.5t37 -37.5t86.5 -8h54v-164h-57q-151 0 -227.5 79t-76.5 235v80zM875 -320v384h179l-1 -384h-178z" />
    <glyph glyph-name="uni04BF" unicode="&#x4bf;" horiz-adv-x="1447" 
d="M383 496q-181 0 -272.5 94.5t-91.5 263.5h158q0 -102 48 -156.5t158 -54.5v-147zM887 -24q-160 0 -276 72t-178 200t-62 297t61.5 299t174 203t261.5 73q94 0 181 -31.5t156 -99t109 -173.5t40 -253v-69h-868v150h771l-81 -54q0 109 -35.5 193t-104 131.5t-168.5 47.5
q-99 0 -170.5 -48t-109.5 -127.5t-38 -174.5v-94q0 -121 41.5 -207t118 -131t178.5 -45q68 0 122.5 20t93.5 59t59 96l173 -38q-25 -87 -87 -154t-154.5 -104.5t-207.5 -37.5zM757 -418v105h117q54 0 76.5 15t22.5 51t-22.5 50.5t-76.5 14.5h-81l30 230h94v-48v-86
q96 -4 142.5 -43.5t46.5 -118.5q0 -88 -57 -129t-174 -41h-118z" />
    <glyph glyph-name="uni04C0" unicode="&#x4c0;" horiz-adv-x="534" 
d="M361 1490v-1490h-188v1490h188z" />
    <glyph glyph-name="uni04C1" unicode="&#x4c1;" horiz-adv-x="1947" 
d="M1068 1490v-1490h-188v1490h188zM50 0l481 774l-439 716h224l384 -663h552l381 663h224l-440 -718l480 -772h-215l-401 661h-615l-404 -661h-212zM973 1647q-80 0 -145.5 37.5t-104 101.5t-38.5 143h131q0 -68 44.5 -111.5t112.5 -43.5q69 0 113.5 43.5t44.5 111.5h131
q0 -79 -38 -143t-103.5 -101.5t-147.5 -37.5z" />
    <glyph glyph-name="uni04C2" unicode="&#x4c2;" horiz-adv-x="1641" 
d="M57 0l450 562l-444 542h211l369 -469h90v469h178v-469h87l368 469h212l-443 -542l448 -562h-214l-373 471h-85v-471h-178v471h-86l-374 -471h-216zM820 1261q-80 0 -145.5 37.5t-104 101.5t-38.5 143h131q0 -68 44.5 -111.5t112.5 -43.5q69 0 113.5 43.5t44.5 111.5h131
q0 -79 -38 -143t-103.5 -101.5t-147.5 -37.5z" />
    <glyph glyph-name="uni04C3" unicode="&#x4c3;" horiz-adv-x="1381" 
d="M436 673v163h215q188 0 323 -70t208 -200.5t73 -312.5q0 -172 -59 -295.5t-168.5 -190t-262.5 -66.5l-2 165q148 -1 229 109.5t75 298.5q-6 192 -119.5 295.5t-296.5 103.5h-215zM173 0v1490h187v-650h168l511 650h234l-670 -817h-243v-673h-187z" />
    <glyph glyph-name="uni04C4" unicode="&#x4c4;" horiz-adv-x="1186" 
d="M274 462v156h284q118 0 215 -31t168 -89.5t109.5 -139.5t38.5 -180q0 -111 -48.5 -200.5t-134.5 -150.5t-197 -88l-53 148q75 21 133 62t91.5 99t33.5 130q0 86 -46 149t-127 99t-186 36h-281zM151 0v1104h178v-478h112l397 478h228l-537 -642h-200v-462h-178z" />
    <glyph glyph-name="uni04C5" unicode="&#x4c5;" horiz-adv-x="1513" 
d="M87 0v165h40q71 0 113.5 28t66 106.5t35.5 228.5l80 962h918v-1490h-188v1325h-559l-67 -812q-10 -132 -33.5 -229t-66 -160t-112 -93.5t-171.5 -30.5h-56zM1212 -320l95 320h-65v165h292l-145 -485h-177z" />
    <glyph glyph-name="uni04C6" unicode="&#x4c6;" horiz-adv-x="1168" 
d="M19 0v165h40q49 0 82.5 18t54 66t32 136.5t17.5 228.5l20 490h752v-1104h-178v940h-405l-17 -389q-8 -184 -40 -307t-103 -183.5t-195 -60.5h-60zM890 -320l95 320h-65v165h292l-145 -485h-177z" />
    <glyph glyph-name="uni04C7" unicode="&#x4c7;" horiz-adv-x="1506" 
d="M938 -418v158q17 -2 37 -3t31 -1q79 0 109 24.5t30 76.5v291h188v-299q0 -123 -73.5 -188.5t-215.5 -65.5q-33 0 -61 2t-45 5zM173 0v1490h188v-645h784v645h188v-1490h-188v679h-784v-679h-188z" />
    <glyph glyph-name="uni04C8" unicode="&#x4c8;" horiz-adv-x="1188" 
d="M749 -425q-33 0 -60.5 2t-43.5 5v150q15 -2 35 -3t33 -1q79 0 113 24.5t34 76.5v171h177v-171q0 -123 -73 -188.5t-215 -65.5zM900 650v-165h-614v165h614zM329 1104v-1104h-178v1104h178zM1037 1104v-1104h-177v1104h177z" />
    <glyph glyph-name="uni04C9" unicode="&#x4c9;" horiz-adv-x="1506" 
d="M173 0v1490h188v-645h784v645h188v-1490h-188v679h-784v-679h-188zM1206 -320l95 320h-65v165h292l-145 -485h-177z" />
    <glyph glyph-name="uni04CA" unicode="&#x4ca;" horiz-adv-x="1188" 
d="M900 650v-165h-614v165h614zM329 1104v-1104h-178v1104h178zM1037 1104v-1104h-177v1104h177zM910 -320l95 320h-65v165h292l-145 -485h-177z" />
    <glyph glyph-name="uni04CB" unicode="&#x4cb;" horiz-adv-x="1446" 
d="M649 556q-155 0 -266.5 50t-171.5 155.5t-60 270.5v458h188v-457q0 -164 94.5 -236.5t239.5 -72.5q123 0 233.5 41t207.5 112v-186q-96 -59 -209.5 -97t-255.5 -38zM1057 0v1490h188v-1490h-188zM1211 -320v320h-75v165h253v-485h-178z" />
    <glyph glyph-name="uni04CC" unicode="&#x4cc;" horiz-adv-x="1195" 
d="M574 343q-193 0 -308 102.5t-115 307.5v351h178v-351q0 -126 70 -185.5t175 -59.5q108 0 196 20t176 51v-164q-58 -21 -115.5 -37.5t-120 -25.5t-136.5 -9zM838 0v1104h178v-1104h-178zM982 -320v320h-75v165h253v-485h-178z" />
    <glyph glyph-name="uni04CD" unicode="&#x4cd;" horiz-adv-x="1829" 
d="M173 0v1490h264l370 -945q13 -33 29.5 -82t35.5 -105t36 -111t29 -100h-42q13 43 30 97t35.5 110.5t36 107t30.5 83.5l364 945h265v-1490h-185v854q0 46 0.5 104.5t2 121.5t3 128.5t2.5 126.5h18q-21 -69 -45 -139t-46 -135t-41.5 -118t-33.5 -89l-336 -854h-161
l-341 854q-14 35 -32.5 87t-41 116t-47 135t-49.5 143h21q2 -56 3.5 -119.5t2.5 -128t2 -124.5t1 -109v-854h-180zM1525 -320l95 320h-65v165h292l-145 -485h-177z" />
    <glyph glyph-name="uni04CE" unicode="&#x4ce;" horiz-adv-x="1558" 
d="M151 0v1104h267l259 -619q22 -54 39 -101t30.5 -90.5t25.5 -85t24 -83.5h-32q11 40 22.5 81t24.5 85t30.5 92t39.5 102l256 619h270v-1104h-178v573q0 60 0.5 116.5t1 111.5t1.5 111t2 115h23q-24 -84 -46.5 -154.5t-49 -141t-62.5 -158.5l-243 -573h-156l-246 573
q-36 87 -63 157.5t-49.5 141.5t-46.5 155h27q1 -52 2 -106.5t2 -111t1.5 -115.5t0.5 -121v-573h-177zM1280 -320l95 320h-65v165h292l-145 -485h-177z" />
    <glyph glyph-name="uni04CF" unicode="&#x4cf;" horiz-adv-x="480" 
d="M329 1490v-1490h-178v1490h178z" />
    <glyph glyph-name="uni04D0" unicode="&#x4d0;" horiz-adv-x="1396" 
d="M45 0l543 1490h216l547 -1490h-198l-315 887q-30 84 -68.5 204.5t-93.5 309.5h39q-55 -190 -94.5 -312.5t-66.5 -201.5l-310 -887h-199zM320 416v165h757v-165h-757zM698 1647q-80 0 -145.5 37.5t-104 101.5t-38.5 143h131q0 -68 44.5 -111.5t112.5 -43.5
q69 0 113.5 43.5t44.5 111.5h131q0 -79 -38 -143t-103.5 -101.5t-147.5 -37.5z" />
    <glyph glyph-name="uni04D1" unicode="&#x4d1;" horiz-adv-x="1130" 
d="M466 -24q-106 0 -191.5 39t-136 115t-50.5 185q0 95 37.5 154t100 93.5t139 51.5t154.5 27q101 13 162.5 20t91 23.5t29.5 57.5v7q0 67 -26.5 115t-78.5 73.5t-129 25.5q-79 0 -135.5 -24.5t-92 -63t-49.5 -81.5l-173 45q34 101 103 162.5t158.5 90t184.5 28.5
q64 0 136 -16.5t135.5 -57.5t103.5 -116.5t40 -194.5v-735h-175v152h-10q-19 -39 -60 -80t-107 -68.5t-161 -27.5zM495 134q101 0 169 38.5t103 100.5t35 130v150q-11 -12 -45.5 -22t-80 -18t-90 -13.5t-75.5 -9.5q-64 -8 -120 -27.5t-90 -56.5t-34 -100q0 -56 29.5 -94.5
t80.5 -58t118 -19.5zM550 1261q-80 0 -145.5 37.5t-104 101.5t-38.5 143h131q0 -68 44.5 -111.5t112.5 -43.5q69 0 113.5 43.5t44.5 111.5h131q0 -79 -38 -143t-103.5 -101.5t-147.5 -37.5z" />
    <glyph glyph-name="uni04D2" unicode="&#x4d2;" horiz-adv-x="1396" 
d="M45 0l543 1490h216l547 -1490h-198l-315 887q-30 84 -68.5 204.5t-93.5 309.5h39q-55 -190 -94.5 -312.5t-66.5 -201.5l-310 -887h-199zM320 416v165h757v-165h-757zM909 1678q-49 0 -84 35t-35 84q0 48 35 82.5t84 34.5q48 0 82.5 -34.5t34.5 -82.5q0 -49 -34.5 -84
t-82.5 -35zM488 1678q-49 0 -83.5 35t-34.5 84q0 48 35 82.5t83 34.5q49 0 83.5 -34.5t34.5 -82.5q0 -49 -34.5 -84t-83.5 -35z" />
    <glyph glyph-name="uni04D3" unicode="&#x4d3;" horiz-adv-x="1130" 
d="M466 -24q-106 0 -191.5 39t-136 115t-50.5 185q0 95 37.5 154t100 93.5t139 51.5t154.5 27q101 13 162.5 20t91 23.5t29.5 57.5v7q0 67 -26.5 115t-78.5 73.5t-129 25.5q-79 0 -135.5 -24.5t-92 -63t-49.5 -81.5l-173 45q34 101 103 162.5t158.5 90t184.5 28.5
q64 0 136 -16.5t135.5 -57.5t103.5 -116.5t40 -194.5v-735h-175v152h-10q-19 -39 -60 -80t-107 -68.5t-161 -27.5zM495 134q101 0 169 38.5t103 100.5t35 130v150q-11 -12 -45.5 -22t-80 -18t-90 -13.5t-75.5 -9.5q-64 -8 -120 -27.5t-90 -56.5t-34 -100q0 -56 29.5 -94.5
t80.5 -58t118 -19.5zM761 1292q-49 0 -84 35t-35 84q0 48 35 82.5t84 34.5q48 0 82.5 -34.5t34.5 -82.5q0 -49 -34.5 -84t-82.5 -35zM340 1292q-49 0 -83.5 35t-34.5 84q0 48 35 82.5t83 34.5q49 0 83.5 -34.5t34.5 -82.5q0 -49 -34.5 -84t-83.5 -35z" />
    <glyph glyph-name="uni04D4" unicode="&#x4d4;" horiz-adv-x="2023" 
d="M45 0l707 1490h1143v-166h-733v-494h684v-166h-684v-498h741v-166h-922v1359h-104l-628 -1359h-204zM385 423v159h686v-159h-686z" />
    <glyph glyph-name="uni04D5" unicode="&#x4d5;" horiz-adv-x="1858" 
d="M472 -23q-110 0 -197 40t-137 116t-50 182q0 91 40.5 154t109 101.5t153.5 56t174 17.5h1097l-81 -60q11 109 -23.5 194.5t-105 134.5t-170.5 49q-99 0 -171.5 -48t-111.5 -127.5t-39 -174.5v-94q0 -121 42 -206.5t118 -131t177 -45.5q69 0 123.5 20t93.5 59t59 96
l174 -35q-24 -89 -86.5 -156t-155 -105t-208.5 -38q-120 0 -215.5 41t-157.5 114t-86 169l24 539q37 86 96.5 149t141 97.5t182.5 34.5q94 0 180.5 -31.5t155 -99t108 -173.5t39.5 -253v-69h-1199q-83 0 -151 -20.5t-108 -62t-40 -104.5q0 -86 64 -129.5t164 -43.5
q101 0 169 38.5t102 100.5t34 130v346q0 67 -26 115t-77.5 73.5t-128.5 25.5q-79 0 -135.5 -24.5t-92 -63t-49.5 -81.5l-173 45q34 101 103 162.5t158.5 90t184.5 28.5q78 0 156 -23.5t138.5 -82.5t84.5 -165l-32 -640h-19q-18 -50 -58 -92.5t-96 -73.5t-124 -48.5
t-142 -17.5z" />
    <glyph glyph-name="uni04D6" unicode="&#x4d6;" horiz-adv-x="1221" 
d="M173 0v1490h921v-166h-733v-486h682v-167h-682v-505h740v-166h-928zM637 1647q-80 0 -145.5 37.5t-104 101.5t-38.5 143h131q0 -68 44.5 -111.5t112.5 -43.5q69 0 113.5 43.5t44.5 111.5h131q0 -79 -38 -143t-103.5 -101.5t-147.5 -37.5z" />
    <glyph glyph-name="uni04D7" unicode="&#x4d7;" horiz-adv-x="1173" 
d="M613 -24q-160 0 -276 72t-178 200t-62 297t61.5 299t174 203t261.5 73q94 0 181 -31.5t156 -99t109 -173.5t40 -253v-69h-868v150h771l-81 -54q0 109 -35.5 193t-104 131.5t-168.5 47.5q-99 0 -170.5 -48t-109.5 -127.5t-38 -174.5v-94q0 -121 41.5 -207t118 -131
t178.5 -45q68 0 122.5 20t93.5 59t59 96l173 -38q-25 -87 -87 -154t-154.5 -104.5t-207.5 -37.5zM591 1261q-80 0 -145.5 37.5t-104 101.5t-38.5 143h131q0 -68 44.5 -111.5t112.5 -43.5q69 0 113.5 43.5t44.5 111.5h131q0 -79 -38 -143t-103.5 -101.5t-147.5 -37.5z" />
    <glyph glyph-name="uni04D8" unicode="&#x4d8;" horiz-adv-x="1520" 
d="M737 -21q-193 0 -331 90t-211.5 249t-73.5 366v144h1144v-165h-1017l56 27q0 -155 49 -276.5t146 -191t238 -69.5q140 0 249.5 70t172.5 202t63 319q0 188 -63 320.5t-171.5 202.5t-243.5 70q-79 0 -147 -22.5t-121.5 -64t-92 -100t-59.5 -130.5h-193q20 109 73.5 199
t134.5 155t184 101t221 36q193 0 342.5 -94.5t234 -266.5t84.5 -406q0 -175 -48.5 -316t-137.5 -241t-211.5 -154t-270.5 -54z" />
    <glyph glyph-name="uni04D9" unicode="&#x4d9;" horiz-adv-x="1173" 
d="M559 1128q161 0 276.5 -71.5t178 -199.5t62.5 -297t-62 -299t-174 -203.5t-262 -73.5q-93 0 -180 31.5t-156 99t-109 173.5t-40 254v68h868v-150h-772l82 55q0 -110 35.5 -194t104 -131.5t167.5 -47.5q100 0 171.5 48t109.5 128t38 174v95q0 121 -42 206.5t-117.5 131
t-178.5 45.5q-68 0 -123 -20t-93.5 -59.5t-58.5 -96.5l-173 38q25 88 87 154.5t154.5 104t206.5 37.5z" />
    <glyph glyph-name="uni04DA" unicode="&#x4da;" horiz-adv-x="1520" 
d="M737 -21q-193 0 -331 90t-211.5 249t-73.5 366v144h1144v-165h-1017l56 27q0 -155 49 -276.5t146 -191t238 -69.5q140 0 249.5 70t172.5 202t63 319q0 188 -63 320.5t-171.5 202.5t-243.5 70q-79 0 -147 -22.5t-121.5 -64t-92 -100t-59.5 -130.5h-193q20 109 73.5 199
t134.5 155t184 101t221 36q193 0 342.5 -94.5t234 -266.5t84.5 -406q0 -175 -48.5 -316t-137.5 -241t-211.5 -154t-270.5 -54zM957 1678q-49 0 -84 35t-35 84q0 48 35 82.5t84 34.5q48 0 82.5 -34.5t34.5 -82.5q0 -49 -34.5 -84t-82.5 -35zM536 1678q-49 0 -83.5 35
t-34.5 84q0 48 35 82.5t83 34.5q49 0 83.5 -34.5t34.5 -82.5q0 -49 -34.5 -84t-83.5 -35z" />
    <glyph glyph-name="uni04DB" unicode="&#x4db;" horiz-adv-x="1173" 
d="M559 1128q161 0 276.5 -71.5t178 -199.5t62.5 -297t-62 -299t-174 -203.5t-262 -73.5q-93 0 -180 31.5t-156 99t-109 173.5t-40 254v68h868v-150h-772l82 55q0 -110 35.5 -194t104 -131.5t167.5 -47.5q100 0 171.5 48t109.5 128t38 174v95q0 121 -42 206.5t-117.5 131
t-178.5 45.5q-68 0 -123 -20t-93.5 -59.5t-58.5 -96.5l-173 38q25 88 87 154.5t154.5 104t206.5 37.5zM811 1292q-49 0 -84 35t-35 84q0 48 35 82.5t84 34.5q48 0 82.5 -34.5t34.5 -82.5q0 -49 -34.5 -84t-82.5 -35zM390 1292q-49 0 -83.5 35t-34.5 84q0 48 35 82.5t83 34.5
q49 0 83.5 -34.5t34.5 -82.5q0 -49 -34.5 -84t-83.5 -35z" />
    <glyph glyph-name="uni04DC" unicode="&#x4dc;" horiz-adv-x="1947" 
d="M1068 1490v-1490h-188v1490h188zM50 0l481 774l-439 716h224l384 -663h552l381 663h224l-440 -718l480 -772h-215l-401 661h-615l-404 -661h-212zM1185 1678q-49 0 -84 35t-35 84q0 48 35 82.5t84 34.5q48 0 82.5 -34.5t34.5 -82.5q0 -49 -34.5 -84t-82.5 -35zM764 1678
q-49 0 -83.5 35t-34.5 84q0 48 35 82.5t83 34.5q49 0 83.5 -34.5t34.5 -82.5q0 -49 -34.5 -84t-83.5 -35z" />
    <glyph glyph-name="uni04DD" unicode="&#x4dd;" horiz-adv-x="1641" 
d="M57 0l450 562l-444 542h211l369 -469h90v469h178v-469h87l368 469h212l-443 -542l448 -562h-214l-373 471h-85v-471h-178v471h-86l-374 -471h-216zM1032 1292q-49 0 -84 35t-35 84q0 48 35 82.5t84 34.5q48 0 82.5 -34.5t34.5 -82.5q0 -49 -34.5 -84t-82.5 -35zM611 1292
q-49 0 -83.5 35t-34.5 84q0 48 35 82.5t83 34.5q49 0 83.5 -34.5t34.5 -82.5q0 -49 -34.5 -84t-83.5 -35z" />
    <glyph glyph-name="uni04DE" unicode="&#x4de;" horiz-adv-x="1256" 
d="M632 -21q-148 0 -262 53t-181 146.5t-70 217.5h189q5 -78 47 -135t113 -87t160 -30q96 0 169.5 33t116 93.5t42.5 139.5q0 81 -42 142t-120 95.5t-189 34.5h-121v164h121q89 0 157 31t105.5 87.5t37.5 132.5t-33.5 132.5t-95.5 87t-145 30.5q-81 0 -148 -29t-108 -83.5
t-43 -132.5h-181q3 121 68 213t173.5 144t241.5 52q138 0 240.5 -55.5t158.5 -147.5t56 -201q0 -123 -67.5 -211t-183.5 -123v-10q95 -15 163 -64t104 -123.5t36 -167.5q0 -123 -66 -220t-181.5 -153t-261.5 -56zM841 1678q-49 0 -84 35t-35 84q0 48 35 82.5t84 34.5
q48 0 82.5 -34.5t34.5 -82.5q0 -49 -34.5 -84t-82.5 -35zM420 1678q-49 0 -83.5 35t-34.5 84q0 48 35 82.5t83 34.5q49 0 83.5 -34.5t34.5 -82.5q0 -49 -34.5 -84t-83.5 -35z" />
    <glyph glyph-name="uni04DF" unicode="&#x4df;" horiz-adv-x="999" 
d="M499 -14q-114 0 -206 37t-146.5 104t-57.5 155h181q4 -63 70 -104t158 -41q102 0 165.5 50.5t63.5 127.5q0 81 -68 132t-184 51h-75v134h75q96 0 158.5 47.5t62.5 125.5q0 75 -53 121.5t-141 46.5q-86 0 -150.5 -42.5t-66.5 -114.5h-171q2 91 54.5 159t140.5 106t195 38
q111 0 193.5 -41.5t127.5 -110.5t45 -153q0 -97 -60.5 -159.5t-151.5 -81.5v-6q125 -19 189.5 -89.5t64.5 -173.5q0 -91 -53 -163t-146.5 -113.5t-213.5 -41.5zM710 1292q-49 0 -84 35t-35 84q0 48 35 82.5t84 34.5q48 0 82.5 -34.5t34.5 -82.5q0 -49 -34.5 -84t-82.5 -35z
M289 1292q-49 0 -83.5 35t-34.5 84q0 48 35 82.5t83 34.5q49 0 83.5 -34.5t34.5 -82.5q0 -49 -34.5 -84t-83.5 -35z" />
    <glyph glyph-name="uni04E0" unicode="&#x4e0;" horiz-adv-x="1257" 
d="M630 -21q-138 0 -252 50.5t-183 144t-76 222.5h190q7 -80 50 -136.5t113.5 -86t159.5 -29.5q93 0 166.5 33t115.5 96.5t42 154.5q0 84 -39.5 152t-122 109t-214.5 41h-136v150l390 435v10h-636v165h882v-144l-475 -527v32q168 16 288 -38.5t184.5 -156t64.5 -229.5
q0 -131 -65.5 -232t-180.5 -158.5t-266 -57.5z" />
    <glyph glyph-name="uni04E1" unicode="&#x4e1;" horiz-adv-x="1257" 
d="M630 -407q-138 0 -252 50.5t-183 144t-76 222.5h190q7 -80 50 -136.5t113.5 -86t159.5 -29.5q93 0 166.5 33t115.5 96.5t42 154.5q0 84 -39.5 152t-122 109t-214.5 41h-136v150l390 435v10h-636v165h882v-144l-475 -527v32q168 16 288 -38.5t184.5 -156t64.5 -229.5
q0 -131 -65.5 -232t-180.5 -158.5t-266 -57.5z" />
    <glyph glyph-name="uni04E2" unicode="&#x4e2;" horiz-adv-x="1523" 
d="M1350 0h-188v853q0 40 2 109t6 162.5t8 205.5l32 -11q-68 -120 -116.5 -205t-85.5 -147t-72 -116l-541 -851h-222v1490h188v-925q0 -42 -1 -107.5t-4.5 -142.5t-11.5 -156l-25 8q38 78 76 148t71.5 126.5t55.5 91.5l608 957h220v-1490zM1041 1860v-141h-554v141h554z" />
    <glyph glyph-name="uni04E3" unicode="&#x4e3;" horiz-adv-x="1194" 
d="M1043 0h-178v802h-11l-532 -802h-171v1104h178v-804h10l534 804h170v-1104zM874 1474v-141h-554v141h554z" />
    <glyph glyph-name="uni04E4" unicode="&#x4e4;" horiz-adv-x="1523" 
d="M1350 0h-188v853q0 40 2 109t6 162.5t8 205.5l32 -11q-68 -120 -116.5 -205t-85.5 -147t-72 -116l-541 -851h-222v1490h188v-925q0 -42 -1 -107.5t-4.5 -142.5t-11.5 -156l-25 8q38 78 76 148t71.5 126.5t55.5 91.5l608 957h220v-1490zM975 1678q-49 0 -84 35t-35 84
q0 48 35 82.5t84 34.5q48 0 82.5 -34.5t34.5 -82.5q0 -49 -34.5 -84t-82.5 -35zM554 1678q-49 0 -83.5 35t-34.5 84q0 48 35 82.5t83 34.5q49 0 83.5 -34.5t34.5 -82.5q0 -49 -34.5 -84t-83.5 -35z" />
    <glyph glyph-name="uni04E5" unicode="&#x4e5;" horiz-adv-x="1194" 
d="M1043 0h-178v802h-11l-532 -802h-171v1104h178v-804h10l534 804h170v-1104zM808 1292q-49 0 -84 35t-35 84q0 48 35 82.5t84 34.5q48 0 82.5 -34.5t34.5 -82.5q0 -49 -34.5 -84t-82.5 -35zM387 1292q-49 0 -83.5 35t-34.5 84q0 48 35 82.5t83 34.5q49 0 83.5 -34.5
t34.5 -82.5q0 -49 -34.5 -84t-83.5 -35z" />
    <glyph glyph-name="uni04E6" unicode="&#x4e6;" horiz-adv-x="1559" 
d="M780 -21q-192 0 -342.5 94t-236.5 266t-86 405q0 234 86 406t236.5 266.5t342.5 94.5q193 0 342.5 -94.5t235.5 -266.5t86 -406q0 -233 -86 -405t-235.5 -266t-342.5 -94zM780 153q134 0 242.5 68t173 200t64.5 323q0 192 -64.5 324.5t-173 200.5t-242.5 68t-243 -68.5
t-173.5 -200.5t-64.5 -324q0 -191 64.5 -322.5t173.5 -200t243 -68.5zM991 1678q-49 0 -84 35t-35 84q0 48 35 82.5t84 34.5q48 0 82.5 -34.5t34.5 -82.5q0 -49 -34.5 -84t-82.5 -35zM570 1678q-49 0 -83.5 35t-34.5 84q0 48 35 82.5t83 34.5q49 0 83.5 -34.5t34.5 -82.5
q0 -49 -34.5 -84t-83.5 -35z" />
    <glyph glyph-name="uni04E7" unicode="&#x4e7;" horiz-adv-x="1205" 
d="M602 -24q-151 0 -264.5 71.5t-177 200.5t-63.5 298q0 172 63.5 301.5t177 201t264.5 71.5t265 -71.5t177.5 -201t63.5 -301.5q0 -169 -63.5 -298t-177.5 -200.5t-265 -71.5zM602 135q110 0 182.5 56t108 149.5t35.5 205.5q0 113 -35.5 207.5t-108 151t-182.5 56.5
q-109 0 -181 -56.5t-108 -150.5t-36 -208q0 -112 36 -205.5t107.5 -149.5t181.5 -56zM813 1292q-49 0 -84 35t-35 84q0 48 35 82.5t84 34.5q48 0 82.5 -34.5t34.5 -82.5q0 -49 -34.5 -84t-82.5 -35zM392 1292q-49 0 -83.5 35t-34.5 84q0 48 35 82.5t83 34.5q49 0 83.5 -34.5
t34.5 -82.5q0 -49 -34.5 -84t-83.5 -35z" />
    <glyph glyph-name="uni04E8" unicode="&#x4e8;" horiz-adv-x="1559" 
d="M1285 824v-160h-1024v160h1024zM780 -21q-192 0 -342.5 94t-236.5 266t-86 405q0 234 86 406t236.5 266.5t342.5 94.5q193 0 342.5 -94.5t235.5 -266.5t86 -406q0 -233 -86 -405t-235.5 -266t-342.5 -94zM780 153q134 0 242.5 68t173 200t64.5 323q0 192 -64.5 324.5
t-173 200.5t-242.5 68t-243 -68.5t-173.5 -200.5t-64.5 -324q0 -191 64.5 -322.5t173.5 -200t243 -68.5z" />
    <glyph glyph-name="uni04E9" unicode="&#x4e9;" horiz-adv-x="1205" 
d="M602 -24q-151 0 -264.5 71.5t-177 200.5t-63.5 298q0 172 63.5 301.5t177 201t264.5 71.5t265 -71.5t177.5 -201t63.5 -301.5q0 -169 -63.5 -298t-177.5 -200.5t-265 -71.5zM602 135q110 0 182.5 56t108 149.5t35.5 205.5q0 113 -35.5 207.5t-108 151t-182.5 56.5
q-109 0 -181 -56.5t-108 -150.5t-36 -208q0 -112 36 -205.5t107.5 -149.5t181.5 -56zM255 417l-78 61q59 74 121.5 131t144.5 57q68 0 123.5 -23.5t103 -47.5t88.5 -24q57 0 100.5 26t85.5 89l81 -54q-57 -86 -118.5 -138.5t-148.5 -52.5q-69 0 -124.5 23.5t-102.5 47
t-89 23.5q-49 0 -95 -29.5t-92 -88.5z" />
    <glyph glyph-name="uni04EA" unicode="&#x4ea;" horiz-adv-x="1559" 
d="M1285 824v-160h-1024v160h1024zM780 -21q-192 0 -342.5 94t-236.5 266t-86 405q0 234 86 406t236.5 266.5t342.5 94.5q193 0 342.5 -94.5t235.5 -266.5t86 -406q0 -233 -86 -405t-235.5 -266t-342.5 -94zM780 153q134 0 242.5 68t173 200t64.5 323q0 192 -64.5 324.5
t-173 200.5t-242.5 68t-243 -68.5t-173.5 -200.5t-64.5 -324q0 -191 64.5 -322.5t173.5 -200t243 -68.5zM991 1678q-49 0 -84 35t-35 84q0 48 35 82.5t84 34.5q48 0 82.5 -34.5t34.5 -82.5q0 -49 -34.5 -84t-82.5 -35zM570 1678q-49 0 -83.5 35t-34.5 84q0 48 35 82.5
t83 34.5q49 0 83.5 -34.5t34.5 -82.5q0 -49 -34.5 -84t-83.5 -35z" />
    <glyph glyph-name="uni04EB" unicode="&#x4eb;" horiz-adv-x="1205" 
d="M602 -24q-151 0 -264.5 71.5t-177 200.5t-63.5 298q0 172 63.5 301.5t177 201t264.5 71.5t265 -71.5t177.5 -201t63.5 -301.5q0 -169 -63.5 -298t-177.5 -200.5t-265 -71.5zM602 135q110 0 182.5 56t108 149.5t35.5 205.5q0 113 -35.5 207.5t-108 151t-182.5 56.5
q-109 0 -181 -56.5t-108 -150.5t-36 -208q0 -112 36 -205.5t107.5 -149.5t181.5 -56zM255 417l-78 61q59 74 121.5 131t144.5 57q68 0 123.5 -23.5t103 -47.5t88.5 -24q57 0 100.5 26t85.5 89l81 -54q-57 -86 -118.5 -138.5t-148.5 -52.5q-69 0 -124.5 23.5t-102.5 47
t-89 23.5q-49 0 -95 -29.5t-92 -88.5zM813 1292q-49 0 -84 35t-35 84q0 48 35 82.5t84 34.5q48 0 82.5 -34.5t34.5 -82.5q0 -49 -34.5 -84t-82.5 -35zM392 1292q-49 0 -83.5 35t-34.5 84q0 48 35 82.5t83 34.5q49 0 83.5 -34.5t34.5 -82.5q0 -49 -34.5 -84t-83.5 -35z" />
    <glyph glyph-name="uni04EC" unicode="&#x4ec;" horiz-adv-x="1492" 
d="M711 -21q-116 0 -217 34.5t-181.5 98.5t-133.5 155t-73 204h189q16 -77 55 -136t94.5 -100t123.5 -61.5t143 -20.5q139 0 248 69.5t171.5 201.5t62.5 320q0 189 -62.5 321.5t-171.5 202t-248 69.5q-75 0 -143 -20.5t-123.5 -61.5t-94.5 -100t-55 -137h-189q20 116 74 207
t134 155t181 97.5t216 33.5q194 0 344.5 -94.5t236 -266t85.5 -406.5q0 -233 -85.5 -404.5t-236 -266t-344.5 -94.5zM567 678v165h691v-165h-691zM922 1678q-49 0 -84 35t-35 84q0 48 35 82.5t84 34.5q48 0 82.5 -34.5t34.5 -82.5q0 -49 -34.5 -84t-82.5 -35zM501 1678
q-49 0 -83.5 35t-34.5 84q0 48 35 82.5t83 34.5q49 0 83.5 -34.5t34.5 -82.5q0 -49 -34.5 -84t-83.5 -35z" />
    <glyph glyph-name="uni04ED" unicode="&#x4ed;" horiz-adv-x="1148" 
d="M546 -24q-83 0 -157 23t-133.5 66.5t-101.5 103.5t-62 136l173 38q12 -45 36 -83.5t60 -66.5t82.5 -43t102.5 -15q110 0 181.5 56t107.5 149.5t36 205.5q0 114 -36 208t-107.5 150.5t-181.5 56.5q-55 0 -101.5 -15t-81.5 -42t-59.5 -63.5t-35.5 -80.5l-173 38
q20 75 62 134.5t101 101.5t132 64t156 22q151 0 264.5 -71.5t177 -201t63.5 -301.5q0 -169 -63.5 -298t-177 -200.5t-264.5 -71.5zM902 473h-520v162h520v-162zM759 1292q-49 0 -84 35t-35 84q0 48 35 82.5t84 34.5q48 0 82.5 -34.5t34.5 -82.5q0 -49 -34.5 -84t-82.5 -35z
M338 1292q-49 0 -83.5 35t-34.5 84q0 48 35 82.5t83 34.5q49 0 83.5 -34.5t34.5 -82.5q0 -49 -34.5 -84t-83.5 -35z" />
    <glyph glyph-name="uni04EE" unicode="&#x4ee;" horiz-adv-x="1270" 
d="M251 0v167h103q74 0 118.5 23.5t66.5 78.5l29 71l-523 1150h205l197 -445q51 -116 89.5 -216t71 -194.5t67.5 -194.5h-53q49 136 100.5 281.5t122.5 323.5l179 445h201l-515 -1245q-29 -71 -69 -126.5t-108 -87t-182 -31.5h-100zM912 1860v-141h-554v141h554z" />
    <glyph glyph-name="uni04EF" unicode="&#x4ef;" horiz-adv-x="1128" 
d="M139 -408l35 155l38 -4q50 -11 91 -3t73.5 44t57.5 108l38 105l-423 1107h194l236 -651q36 -97 62 -193.5t54 -187.5h-61q28 91 54.5 187.5t61.5 193.5l237 651h192l-490 -1277q-32 -85 -78.5 -141t-108 -83t-138.5 -27q-43 0 -76 5.5t-49 10.5zM842 1474v-141h-554v141
h554z" />
    <glyph glyph-name="uni04F0" unicode="&#x4f0;" horiz-adv-x="1270" 
d="M251 0v167h103q74 0 118.5 23.5t66.5 78.5l29 71l-523 1150h205l197 -445q51 -116 89.5 -216t71 -194.5t67.5 -194.5h-53q49 136 100.5 281.5t122.5 323.5l179 445h201l-515 -1245q-29 -71 -69 -126.5t-108 -87t-182 -31.5h-100zM846 1678q-49 0 -84 35t-35 84
q0 48 35 82.5t84 34.5q48 0 82.5 -34.5t34.5 -82.5q0 -49 -34.5 -84t-82.5 -35zM425 1678q-49 0 -83.5 35t-34.5 84q0 48 35 82.5t83 34.5q49 0 83.5 -34.5t34.5 -82.5q0 -49 -34.5 -84t-83.5 -35z" />
    <glyph glyph-name="uni04F1" unicode="&#x4f1;" horiz-adv-x="1128" 
d="M139 -408l35 155l38 -4q50 -11 91 -3t73.5 44t57.5 108l38 105l-423 1107h194l236 -651q36 -97 62 -193.5t54 -187.5h-61q28 91 54.5 187.5t61.5 193.5l237 651h192l-490 -1277q-32 -85 -78.5 -141t-108 -83t-138.5 -27q-43 0 -76 5.5t-49 10.5zM775 1292q-49 0 -84 35
t-35 84q0 48 35 82.5t84 34.5q48 0 82.5 -34.5t34.5 -82.5q0 -49 -34.5 -84t-82.5 -35zM354 1292q-49 0 -83.5 35t-34.5 84q0 48 35 82.5t83 34.5q49 0 83.5 -34.5t34.5 -82.5q0 -49 -34.5 -84t-83.5 -35z" />
    <glyph glyph-name="uni04F2" unicode="&#x4f2;" horiz-adv-x="1270" 
d="M251 0v167h103q74 0 118.5 23.5t66.5 78.5l29 71l-523 1150h205l197 -445q51 -116 89.5 -216t71 -194.5t67.5 -194.5h-53q49 136 100.5 281.5t122.5 323.5l179 445h201l-515 -1245q-29 -71 -69 -126.5t-108 -87t-182 -31.5h-100zM472 1634h-146l118 295h199zM792 1634
h-148l168 295h200z" />
    <glyph glyph-name="uni04F3" unicode="&#x4f3;" horiz-adv-x="1128" 
d="M139 -408l35 155l38 -4q50 -11 91 -3t73.5 44t57.5 108l38 105l-423 1107h194l236 -651q36 -97 62 -193.5t54 -187.5h-61q28 91 54.5 187.5t61.5 193.5l237 651h192l-490 -1277q-32 -85 -78.5 -141t-108 -83t-138.5 -27q-43 0 -76 5.5t-49 10.5zM402 1248h-146l118 295
h199zM722 1248h-148l168 295h200z" />
    <glyph glyph-name="uni04F4" unicode="&#x4f4;" horiz-adv-x="1418" 
d="M649 556q-155 0 -266.5 50t-171.5 155.5t-60 270.5v458h188v-457q0 -164 94.5 -236.5t239.5 -72.5q123 0 233.5 41t207.5 112v-186q-96 -59 -209.5 -97t-255.5 -38zM1057 0v1490h188v-1490h-188zM909 1678q-49 0 -84 35t-35 84q0 48 35 82.5t84 34.5q48 0 82.5 -34.5
t34.5 -82.5q0 -49 -34.5 -84t-82.5 -35zM488 1678q-49 0 -83.5 35t-34.5 84q0 48 35 82.5t83 34.5q49 0 83.5 -34.5t34.5 -82.5q0 -49 -34.5 -84t-83.5 -35z" />
    <glyph glyph-name="uni04F5" unicode="&#x4f5;" horiz-adv-x="1167" 
d="M574 343q-193 0 -308 102.5t-115 307.5v351h178v-351q0 -126 70 -185.5t175 -59.5q108 0 196 20t176 51v-164q-58 -21 -115.5 -37.5t-120 -25.5t-136.5 -9zM838 0v1104h178v-1104h-178zM796 1292q-49 0 -84 35t-35 84q0 48 35 82.5t84 34.5q48 0 82.5 -34.5t34.5 -82.5
q0 -49 -34.5 -84t-82.5 -35zM375 1292q-49 0 -83.5 35t-34.5 84q0 48 35 82.5t83 34.5q49 0 83.5 -34.5t34.5 -82.5q0 -49 -34.5 -84t-83.5 -35z" />
    <glyph glyph-name="uni04F6" unicode="&#x4f6;" horiz-adv-x="1166" 
d="M1078 1490v-165h-717v-1325h-188v1490h905zM327 -320v320h-75v165h253v-485h-178z" />
    <glyph glyph-name="uni04F7" unicode="&#x4f7;" horiz-adv-x="887" 
d="M844 1104v-164h-515v-940h-178v1104h693zM295 -320v320h-75v165h253v-485h-178z" />
    <glyph glyph-name="uni04F8" unicode="&#x4f8;" horiz-adv-x="1778" 
d="M311 901h407q155 0 267 -54t173 -153.5t61 -235.5q0 -140 -60.5 -243t-173 -159t-267.5 -56h-545v1490h188v-1326h355q147 0 232 80t85 216q0 85 -39 146.5t-109.5 95t-168.5 33.5h-405v166zM1606 1490v-1490h-188v1490h188zM1071 1678q-49 0 -84 35t-35 84q0 48 35 82.5
t84 34.5q48 0 82.5 -34.5t34.5 -82.5q0 -49 -34.5 -84t-82.5 -35zM650 1678q-49 0 -83.5 35t-34.5 84q0 48 35 82.5t83 34.5q49 0 83.5 -34.5t34.5 -82.5q0 -49 -34.5 -84t-83.5 -35z" />
    <glyph glyph-name="uni04F9" unicode="&#x4f9;" horiz-adv-x="1483" 
d="M302 712h323q128 0 219 -45.5t139 -125t48 -181.5t-48.5 -183.5t-139 -129t-218.5 -47.5h-474v1104h178v-939h294q101 0 164.5 52t63.5 137q0 86 -63.5 139.5t-164.5 53.5h-321v165zM1155 0v1104h178v-1104h-178zM949 1292q-49 0 -84 35t-35 84q0 48 35 82.5t84 34.5
q48 0 82.5 -34.5t34.5 -82.5q0 -49 -34.5 -84t-82.5 -35zM528 1292q-49 0 -83.5 35t-34.5 84q0 48 35 82.5t83 34.5q49 0 83.5 -34.5t34.5 -82.5q0 -49 -34.5 -84t-83.5 -35z" />
    <glyph glyph-name="uni04FA" unicode="&#x4fa;" horiz-adv-x="1202" 
d="M1114 1490v-165h-717v-1325h-188v1490h905zM21 667v156h808v-156h-808zM249 -426q-30 0 -58.5 3t-52.5 8l11 154q26 -3 52.5 -4.5t51.5 -1.5q61 0 97.5 40t36.5 127v100h-76v161h249v-244q0 -166 -80 -254.5t-231 -88.5z" />
    <glyph glyph-name="uni04FB" unicode="&#x4fb;" horiz-adv-x="887" 
d="M844 1104v-164h-515v-940h-178v1104h693zM1 488v140h645v-140h-645zM181 -426q-30 0 -58.5 3t-52.5 8l11 154q26 -3 52.5 -4.5t51.5 -1.5q61 0 97.5 40t36.5 127v100h-76v161h249v-244q0 -166 -80 -254.5t-231 -88.5z" />
    <glyph glyph-name="uni04FC" unicode="&#x4fc;" horiz-adv-x="1429" 
d="M50 0l582 832v-139l-549 797h217l216 -317q45 -65 75.5 -113t57.5 -94.5t59 -107.5h-32q32 60 59 106.5t59 95t76 113.5l220 317h213l-549 -789v138l576 -839h-216l-262 379q-39 59 -68.5 103.5t-55.5 89t-57 103.5h41q-30 -56 -57 -101t-57 -90t-71 -105l-264 -379h-213
zM1116 -426q-30 0 -58.5 3t-52.5 8l11 154q26 -3 52.5 -4.5t51.5 -1.5q61 0 97.5 40t36.5 127v100h-76v161h249v-244q0 -166 -80 -254.5t-231 -88.5z" />
    <glyph glyph-name="uni04FD" unicode="&#x4fd;" horiz-adv-x="1048" 
d="M659 -432q-29 0 -58.5 2.5t-53.5 8.5l11 165q19 -4 53 -8t58 -4q66 0 101.5 43t35.5 127q0 35 -8 65t-28 67t-57 94l-190 294l-261 -422h-205l352 551l-351 553h205l260 -444l263 444h204l-356 -553l223 -347q43 -67 69.5 -121.5t39 -104t12.5 -101.5q0 -95 -38.5 -164.5
t-109.5 -107t-171 -37.5z" />
    <glyph glyph-name="uni04FE" unicode="&#x4fe;" horiz-adv-x="1380" 
d="M167 697v137h1037v-137h-1037zM50 0l582 832v-139l-549 797h217l216 -317q45 -65 75.5 -113t57.5 -94.5t59 -107.5h-32q32 60 59 106.5t59 95t76 113.5l220 317h213l-549 -789v138l576 -839h-216l-262 379q-39 59 -68.5 103.5t-55.5 89t-57 103.5h41q-30 -56 -57 -101
t-57 -90t-71 -105l-264 -379h-213z" />
    <glyph glyph-name="uni04FF" unicode="&#x4ff;" horiz-adv-x="1100" 
d="M107 494v136h879v-136h-879zM57 0l441 634l-1 -136l-417 606h208l140 -215q51 -79 91 -149.5t82 -137.5h-92q43 67 80 137.5t89 149.5l143 215h204l-419 -612v132l437 -624h-207l-165 249q-50 77 -89 145t-80 132h93q-41 -64 -77.5 -132t-87.5 -145l-167 -249h-206z" />
    </font>
</defs>
</svg>
