<?xml version="1.0" standalone="no"?>
<!DOCTYPE svg PUBLIC "-//W3C//DTD SVG 1.1//EN" "http://www.w3.org/Graphics/SVG/1.1/DTD/svg11.dtd" >
<svg xmlns="http://www.w3.org/2000/svg" xmlns:xlink="http://www.w3.org/1999/xlink" version="1.1">
<metadata>
Created by FontForge 20201107 at Fri May 24 21:06:21 2024
 By 
Copyright 2016 The Inter Project Authors (https://github.com/rsms/inter)
</metadata>
<defs>
<font id="Inter18pt-Bold" horiz-adv-x="0" >
  <font-face 
    font-family="Inter 18pt"
    font-weight="700"
    font-stretch="normal"
    units-per-em="2048"
    panose-1="2 0 5 3 0 0 0 2 0 4"
    ascent="1638"
    descent="-410"
    x-height="1104"
    cap-height="1490"
    bbox="-1618.02 -448 2751 1941"
    underline-thickness="193"
    underline-position="-378"
    unicode-range="U+0020-A69F"
  />
<missing-glyph horiz-adv-x="1344" 
d="M1016 -416h-688v2272h688v-2272zM512 -192v-64h320v64h-215l215 127v65h-320v-64h216zM512 320v-256h320v256h-320zM768 128h-192v128h192v-128zM512 704v-256h320v256h-192v-128h64v64h64v-128h-192v192h-64zM512 832v-64h320v224h-64v-160h-256zM512 960v-64h192v160
h128v64h-320v-64h128v-96h-128zM640 1248h-64v96h64v-96zM512 1408v-224h320v64h-128v160h-192zM512 1536v-64h320v64h-144v96h144v64h-320v-64h112v-96h-112z" />
    <glyph glyph-name=".notdef" horiz-adv-x="1344" 
d="M1016 -416h-688v2272h688v-2272zM512 -192v-64h320v64h-215l215 127v65h-320v-64h216zM512 320v-256h320v256h-320zM768 128h-192v128h192v-128zM512 704v-256h320v256h-192v-128h64v64h64v-128h-192v192h-64zM512 832v-64h320v224h-64v-160h-256zM512 960v-64h192v160
h128v64h-320v-64h128v-96h-128zM640 1248h-64v96h64v-96zM512 1408v-224h320v64h-128v160h-192zM512 1536v-64h320v64h-144v96h144v64h-320v-64h112v-96h-112z" />
    <glyph glyph-name=".null" horiz-adv-x="1077" 
 />
    <glyph glyph-name="nonmarkingreturn" horiz-adv-x="682" 
 />
    <glyph glyph-name="space" unicode=" " horiz-adv-x="475" 
 />
    <glyph glyph-name="three" horiz-adv-x="1310" 
d="M655 -21q-168 0 -293.5 59t-196.5 161.5t-73 234.5h305q2 -62 35.5 -108.5t91 -71.5t131.5 -25t131.5 26t90 73t32.5 109t-34.5 109t-97.5 73.5t-150 26.5h-136v227h136q75 0 131 25t87.5 69.5t31.5 104.5q0 59 -27.5 103t-77 69t-116.5 25t-121 -24.5t-86.5 -69
t-33.5 -106.5h-293q2 130 71.5 229.5t190 156t274.5 56.5q153 0 268.5 -55.5t180 -150t64.5 -212.5q0 -125 -78 -209t-202 -109v-9q107 -14 181.5 -61.5t112.5 -121t38 -165.5q0 -127 -73 -226.5t-201 -156t-294 -56.5z" />
    <glyph glyph-name="A" horiz-adv-x="1514" 
d="M40 0l513 1490h398l523 -1490h-340l-238 720q-43 140 -87.5 302.5t-94.5 357.5h70q-49 -195 -91 -358.5t-84 -301.5l-233 -720h-336zM361 341v241h792v-241h-792z" />
    <glyph glyph-name="B" horiz-adv-x="1347" 
d="M129 0v1490h593q163 0 273 -49t165.5 -135.5t55.5 -198.5q0 -87 -34.5 -153t-95 -108t-138.5 -60v-13q86 -4 160 -48.5t119.5 -123.5t45.5 -188q0 -119 -58 -212.5t-172.5 -147t-283.5 -53.5h-630zM434 249h269q131 0 193.5 51.5t62.5 138.5q0 63 -30 111t-86 75t-133 27
h-276v-403zM434 866h248q66 0 117 23t80 66.5t29 102.5q0 83 -58 134t-164 51h-252v-377z" />
    <glyph glyph-name="C" horiz-adv-x="1509" 
d="M782 -21q-199 0 -356.5 91t-248 262t-90.5 412q0 242 91 413.5t249 262.5t355 91q128 0 238.5 -36t195.5 -105t139.5 -168t71.5 -225h-309q-11 62 -40 111t-72 83t-98 51.5t-120 17.5q-118 0 -206.5 -59t-136.5 -169.5t-48 -267.5q0 -159 48.5 -269.5t136.5 -167.5
t206 -57q64 0 119 18t98.5 51.5t72.5 82.5t41 111h309q-14 -109 -64.5 -205t-134 -170.5t-196 -116.5t-251.5 -42z" />
    <glyph glyph-name="E" horiz-adv-x="1244" 
d="M129 0v1490h1014v-256h-708v-356h654v-251h-654v-371h709v-256h-1015z" />
    <glyph glyph-name="H" horiz-adv-x="1516" 
d="M129 0v1490h306v-601h646v601h306v-1490h-306v633h-646v-633h-306z" />
    <glyph glyph-name="I" horiz-adv-x="565" 
d="M435 1490v-1490h-306v1490h306z" />
    <glyph glyph-name="J" horiz-adv-x="1186" 
d="M563 -20q-231 0 -364 121.5t-133 346.5v90h302v-93q0 -106 52 -161t142 -55q89 0 140.5 55t51.5 161v1045h304v-1042q0 -225 -132.5 -346.5t-362.5 -121.5z" />
    <glyph glyph-name="M" horiz-adv-x="1891" 
d="M129 0v1490h465l242 -686q15 -48 35 -122.5t40.5 -159.5t38 -164.5t29.5 -137.5h-64q12 57 29.5 136t38 164.5t40 160.5t35.5 123l238 686h466v-1490h-306v704q0 49 1.5 121t4 155t4.5 167.5t3 159.5h23q-20 -82 -43.5 -169t-47 -169.5t-44 -151t-35.5 -113.5l-248 -704
h-256l-251 704q-16 45 -36.5 113t-44.5 150t-48 169t-46 171h28q1 -72 3 -156l4 -168t4 -156.5t2 -122.5v-704h-304z" />
    <glyph glyph-name="O" horiz-adv-x="1567" 
d="M784 -21q-198 0 -356 91t-249.5 262t-91.5 412q0 242 91.5 413.5t249.5 262.5t356 91t355.5 -91t249 -262.5t91.5 -413.5q0 -241 -91.5 -412.5t-249 -262t-355.5 -90.5zM784 250q116 0 203 57t135.5 167.5t48.5 269.5q0 160 -48.5 271t-135.5 168t-203 57
q-115 0 -202.5 -57.5t-136 -168t-48.5 -270.5q0 -159 48.5 -269t136 -167.5t202.5 -57.5z" />
    <glyph glyph-name="P" horiz-adv-x="1320" 
d="M129 0v1490h583q169 0 289 -63.5t183.5 -176t63.5 -260.5t-64.5 -260t-185.5 -175t-292 -63h-383v249h342q90 0 150.5 31.5t90.5 87.5t30 130q0 75 -30 130t-90.5 86t-151.5 31h-229v-1237h-306z" />
    <glyph glyph-name="S" horiz-adv-x="1340" 
d="M680 -22q-182 0 -315 56t-206.5 165.5t-76.5 268.5h297q4 -76 43 -128.5t105 -79t151 -26.5q82 0 143.5 24t95.5 67t34 99q0 51 -29.5 86t-87 60t-142.5 44l-162 40q-196 46 -303.5 145.5t-107.5 261.5q0 135 72.5 236t199 157.5t290.5 56.5q166 0 289.5 -57t192.5 -159
t72 -237h-294q-8 93 -77.5 145t-184.5 52q-77 0 -133 -22.5t-85.5 -62t-29.5 -90.5q0 -53 31.5 -88.5t87 -59t124.5 -39.5l136 -33q99 -22 181.5 -58.5t142.5 -88.5t92 -123t32 -162q0 -137 -69 -238.5t-198 -156.5t-311 -55z" />
    <glyph glyph-name="T" horiz-adv-x="1353" 
d="M68 1234v256h1216v-256h-454v-1234h-306v1234h-456z" />
    <glyph glyph-name="X" horiz-adv-x="1493" 
d="M42 0l615 875v-231l-567 846h353l164 -251q42 -66 72 -121t55.5 -106.5t55.5 -106.5h-81q31 55 57 106.5t56.5 106.5t73.5 121l166 251h345l-557 -830v220l601 -880h-360l-208 313q-38 58 -64 101.5t-47.5 83t-48.5 87.5h48q-27 -47 -49 -87t-48 -83.5t-66 -101.5
l-214 -313h-352z" />
    <glyph glyph-name="Y" horiz-adv-x="1478" 
d="M592 0v560l-552 930h357l252 -461q37 -68 68 -135t63 -155h-67q31 89 60.5 156.5t65.5 133.5l244 461h355l-543 -930v-560h-303z" />
    <glyph glyph-name="a" horiz-adv-x="1176" 
d="M437 -21q-106 0 -190 37t-132 110.5t-48 182.5q0 93 34 155t93 100t134.5 57.5t158.5 27.5q97 10 156 18.5t86 26.5t27 54v5q0 46 -20.5 78.5t-59.5 50t-95 17.5q-57 0 -99.5 -17.5t-69 -47t-37.5 -66.5l-275 35q23 100 88 171t166 108.5t230 37.5q94 0 178.5 -22
t150.5 -68t103.5 -116.5t37.5 -168.5v-745h-285v154h-9q-27 -52 -71.5 -91.5t-106.5 -61.5t-145 -22zM521 188q71 0 124 28t83 75t30 106v117q-13 -8 -38.5 -16t-57.5 -14t-64.5 -11t-59.5 -9q-54 -8 -96 -25.5t-65 -47t-23 -73.5q0 -42 21.5 -71t59 -44t86.5 -15z" />
    <glyph glyph-name="c" horiz-adv-x="1190" 
d="M619 -22q-166 0 -288 71.5t-188.5 200t-66.5 298.5q0 171 66.5 300t188.5 200.5t288 71.5q101 0 185.5 -26.5t149.5 -76.5t106.5 -120.5t55.5 -158.5l-280 -40q-9 43 -27 77t-45 58.5t-62.5 37.5t-79.5 13q-79 0 -132.5 -42t-81.5 -117.5t-28 -175.5q0 -99 28 -174.5
t81.5 -118t132.5 -42.5q44 0 79.5 13.5t63 38.5t46 60.5t26.5 80.5l280 -41q-13 -89 -54.5 -160t-106.5 -122.5t-150.5 -78.5t-186.5 -27z" />
    <glyph glyph-name="e" horiz-adv-x="1204" 
d="M623 -22q-169 0 -291.5 70t-189 198t-66.5 301q0 171 66 299.5t186 201t281 72.5q111 0 206 -36t166.5 -106.5t111 -176t39.5 -243.5v-83h-937v188h792l-139 -49q0 86 -27 149t-79.5 97.5t-129.5 34.5t-131 -35t-82.5 -96t-28.5 -140v-132q0 -93 32 -158t90.5 -98.5
t136.5 -33.5q53 0 96.5 15.5t74 45t46.5 72.5l271 -39q-26 -96 -93.5 -167.5t-169 -111t-231.5 -39.5z" />
    <glyph glyph-name="h" horiz-adv-x="1258" 
d="M421 634v-634h-298v1490h294v-664h-31q45 140 135.5 217t232.5 77q115 0 201 -50t133.5 -144t47.5 -226v-700h-299v647q0 105 -53 163.5t-148 58.5q-63 0 -111.5 -27.5t-76 -79.5t-27.5 -128z" />
    <glyph glyph-name="l" horiz-adv-x="544" 
d="M421 1490v-1490h-298v1490h298z" />
    <glyph glyph-name="o" horiz-adv-x="1241" 
d="M621 -22q-167 0 -289.5 71.5t-189 200t-66.5 298.5q0 172 66.5 300.5t189 200t289.5 71.5q166 0 288.5 -71.5t189 -200t66.5 -300.5q0 -170 -66.5 -298.5t-189 -200t-288.5 -71.5zM621 214q78 0 131.5 43t81.5 118.5t28 173.5q0 99 -28 174t-81.5 118t-131.5 43t-132 -43
t-81.5 -118t-27.5 -174q0 -98 27.5 -173.5t81 -118.5t132.5 -43z" />
    <glyph glyph-name="p" horiz-adv-x="1276" 
d="M123 -418v1522h293v-178h13q23 47 63 91.5t102.5 73.5t151.5 29q127 0 229.5 -65.5t163.5 -192t61 -311.5q0 -182 -59.5 -309t-162.5 -194t-234 -67q-86 0 -148 28.5t-102.5 72.5t-64.5 92h-8v-592h-298zM655 221q78 0 131 41.5t80.5 116t27.5 173.5q0 98 -27.5 172
t-80.5 115t-131 41q-76 0 -130.5 -40.5t-83 -114t-28.5 -173.5t29 -174t83.5 -115.5t129.5 -41.5z" />
    <glyph glyph-name="s" horiz-adv-x="1129" 
d="M565 -23q-135 0 -239.5 39.5t-170 114.5t-82.5 180l281 38q19 -76 73 -115t144 -39q85 0 134 32.5t49 82.5q0 43 -35.5 70.5t-106.5 42.5l-191 38q-160 33 -240 112t-80 204q0 105 57.5 182t162 119t244.5 42q134 0 232 -38t157.5 -108t75.5 -165l-267 -37
q-14 59 -62.5 96.5t-129.5 37.5q-75 0 -123.5 -31.5t-48.5 -81.5q0 -42 33 -70.5t108 -43.5l200 -40q162 -32 240.5 -106t78.5 -193q0 -109 -63 -190.5t-174.5 -127t-256.5 -45.5z" />
    <glyph glyph-name="x" horiz-adv-x="1168" 
d="M36 0l431 672l-2 -210l-407 642h323l100 -170q46 -82 84 -162t77 -156h-110q41 76 78.5 156t85.5 162l103 170h318l-415 -645l1 208l430 -667h-322l-120 200q-47 81 -86 160.5t-78 153.5h107q-39 -74 -76 -153.5t-84 -160.5l-119 -200h-319z" />
    <glyph glyph-name="y" horiz-adv-x="1211" 
d="M122 -401l54 228l58 -8q55 -12 96.5 -4t67 37.5t33.5 81.5l13 64l-417 1106h316l186 -567q34 -106 56.5 -212.5t49.5 -220.5h-72q27 114 54 221t61 212l193 567h313l-473 -1243q-34 -89 -85.5 -153t-126.5 -98t-181 -34q-57 0 -108.5 6.5t-87.5 16.5z" />
    <glyph glyph-name="AE" horiz-adv-x="2092" 
d="M40 0l639 1490h1311v-256h-707v-359h654v-251h-654v-368h709v-256h-1003v1281h-88l-528 -1281h-333zM390 355v222h747v-222h-747z" />
    <glyph glyph-name="ae" horiz-adv-x="1853" 
d="M457 -21q-117 0 -204.5 37.5t-136.5 111.5t-49 181q0 95 41 162t112 109.5t163.5 62.5t196.5 20h1000l-86 -51q5 85 -21.5 148.5t-80.5 99t-131 35.5q-76 0 -130.5 -35t-83.5 -96t-29 -140v-132q0 -95 32 -159.5t90 -97.5t136 -33q54 0 97.5 15.5t74 45.5t46.5 72
l276 -16q-22 -102 -88.5 -179t-171 -119.5t-239.5 -42.5q-108 0 -197 31t-153.5 88t-100.5 134l11 655q44 73 106 125.5t142.5 80.5t178.5 28q111 0 206 -36t166 -106.5t111 -176t40 -243.5v-83h-1194q-74 0 -126 -19.5t-79.5 -54t-27.5 -79.5q0 -67 46.5 -100.5
t120.5 -33.5q71 0 124 28t82.5 75t29.5 106v356q0 46 -20.5 78.5t-60 50t-95.5 17.5q-57 0 -99.5 -17.5t-69 -47t-37.5 -66.5l-275 35q23 98 88 169t165 109.5t228 38.5q118 0 203 -36.5t135.5 -108.5t61.5 -178l-15 -585h-75q-23 -59 -66.5 -102.5t-102 -72.5t-126.5 -43.5
t-139 -14.5z" />
    <glyph glyph-name="dotlessi" horiz-adv-x="544" 
d="M123 0v1104h298v-1104h-298z" />
    <glyph glyph-name="eturn" horiz-adv-x="1204" 
d="M581 1127q170 0 292.5 -70.5t188.5 -198.5t66 -301q0 -170 -66 -299t-186 -201.5t-281 -72.5q-111 0 -206 36t-166 107t-111 176t-40 243v84h937v-189h-792l139 49q0 -85 27 -148t80 -98t129 -35q77 0 131 35t82.5 96.5t28.5 139.5v132q0 94 -32 158.5t-89.5 98
t-136.5 33.5q-54 0 -97.5 -15.5t-74 -45t-46.5 -71.5l-270 39q26 96 93 167t169.5 111t230.5 40z" />
    <glyph glyph-name="uni0237" horiz-adv-x="544" 
d="M122 1104h299v-1168q1 -123 -47 -201t-138.5 -115.5t-216.5 -37.5h-74v236h46q72 0 101.5 31.5t29.5 96.5v1158z" />
    <glyph glyph-name="h.sc" horiz-adv-x="1261" 
d="M922 688v-240h-584v240h584zM421 1104v-1104h-298v1104h298zM1138 1104v-1104h-298v1104h298z" />
    <glyph glyph-name="hungarumlaut" horiz-adv-x="1095" 
d="M359 1243h-210l113 312h267zM708 1243h-214l175 312h286z" />
    <glyph glyph-name="gravecomb" 
d="M357 1243l-217 312h280l147 -312h-210z" />
    <glyph glyph-name="acutecomb" 
d="M148 1243l147 312h280l-217 -312h-210z" />
    <glyph glyph-name="uni0304" 
d="M728 1494v-190h-579v190h579z" />
    <glyph glyph-name="uni0306" 
d="M439 1240q-97 0 -175 41.5t-123.5 112t-45.5 157.5h175q0 -64 48.5 -105.5t120.5 -41.5t120 41.5t48 105.5h177q0 -87 -45.5 -157.5t-123.5 -112t-176 -41.5z" />
    <glyph glyph-name="uni0307" 
d="M289 1247q-69 0 -117.5 45t-48.5 110t48.5 110t116.5 45q70 0 118 -45t48 -110t-48 -110t-117 -45z" />
    <glyph glyph-name="uni0308" 
d="M851 1254q-64 0 -108.5 43.5t-44.5 104.5q0 62 44.5 105t108.5 43t108 -43t44 -105t-44 -105t-108 -43zM407 1254q-63 0 -107.5 43.5t-44.5 104.5q0 62 44.5 105t107.5 43q64 0 108 -43t44 -105t-44 -105t-108 -43z" />
    <glyph glyph-name="uni030F" 
d="M736 1243l-171 312h268l112 -312h-209zM386 1243l-246 312h286l175 -312h-215z" />
    <glyph glyph-name="uni0327" 
d="M233 -418v120h125q47 0 67.5 14.5t20.5 46.5t-20.5 46t-67.5 14h-90l37 221h115v-44l-4 -86q93 3 144 -39t51 -120q0 -91 -58 -132t-181 -41h-139z" />
    <glyph glyph-name="Pi" horiz-adv-x="1516" 
d="M1387 1490v-1490h-306v1234h-646v-1234h-306v1490h1258z" />
    <glyph glyph-name="Psi" horiz-adv-x="1821" 
d="M1391 1490h300v-424q0 -178 -48.5 -308t-139 -214t-215.5 -125t-278 -41h-199q-153 0 -278 41t-215.5 125t-139.5 214t-49 308v424h301v-416q0 -164 35 -260.5t116 -138.5t219 -42h220q140 0 220.5 42t115.5 138.5t35 260.5v416zM764 1490h293v-1490h-293v1490z" />
    <glyph glyph-name="gamma" horiz-adv-x="1207" 
d="M459 -71l-432 1175h316l185 -567q34 -105 60 -212t52 -221h-65q26 114 51.5 220.5t58.5 212.5l182 567h313l-433 -1175h-288zM454 -418v425h299v-425h-299z" />
    <glyph glyph-name="psi" horiz-adv-x="1691" 
d="M698 -20q-185 0 -313.5 65t-195 191.5t-66.5 311.5v556h294v-555q0 -115 30.5 -187t93 -106t157.5 -34h295q96 0 158.5 34t92.5 106t30 187v555h295v-556q0 -185 -67 -311.5t-195.5 -191.5t-313.5 -65h-295zM698 -418v1793h295v-1793h-295z" />
    <glyph glyph-name="uni03F4" horiz-adv-x="1567" 
d="M1276 845v-200h-965v200h965zM784 -21q-198 0 -356 91t-249.5 262t-91.5 412q0 242 91.5 413.5t249.5 262.5t356 91t355.5 -91t249 -262.5t91.5 -413.5q0 -241 -91.5 -412.5t-249 -262t-355.5 -90.5zM784 250q116 0 203 57t135.5 167.5t48.5 269.5q0 160 -48.5 271
t-135.5 168t-203 57q-115 0 -202.5 -57.5t-136 -168t-48.5 -270.5q0 -159 48.5 -269t136 -167.5t202.5 -57.5z" />
    <glyph glyph-name="uni0400" unicode="&#x400;" horiz-adv-x="1244" 
d="M129 0v1490h1014v-256h-708v-356h654v-251h-654v-371h709v-256h-1015zM538 1629l-217 312h280l147 -312h-210z" />
    <glyph glyph-name="uni0401" unicode="&#x401;" horiz-adv-x="1244" 
d="M129 0v1490h1014v-256h-708v-356h654v-251h-654v-371h709v-256h-1015zM860 1640q-64 0 -108.5 43.5t-44.5 104.5q0 62 44.5 105t108.5 43t108 -43t44 -105t-44 -105t-108 -43zM416 1640q-63 0 -107.5 43.5t-44.5 104.5q0 62 44.5 105t107.5 43q64 0 108 -43t44 -105
t-44 -105t-108 -43z" />
    <glyph glyph-name="uni0402" unicode="&#x402;" horiz-adv-x="1746" 
d="M68 1234v256h1216v-256h-454v-1234h-306v1234h-456zM986 -114v271h107q121 0 192.5 65t71.5 178q0 112 -72 178.5t-192 66.5q-122 0 -193 -68.5t-71 -187.5h-151q0 164 51 283.5t151.5 183.5t247.5 64q153 0 275 -66t194.5 -183.5t72.5 -270.5t-73.5 -268.5t-204 -180.5
t-299.5 -65h-107z" />
    <glyph glyph-name="uni0403" unicode="&#x403;" horiz-adv-x="1180" 
d="M1112 1490v-255h-677v-1235h-306v1490h983zM521 1629l147 312h280l-217 -312h-210z" />
    <glyph glyph-name="uni0404" unicode="&#x404;" horiz-adv-x="1509" 
d="M782 -21q-199 0 -356.5 91t-248 262t-90.5 412q0 242 91 413.5t249 262.5t355 91q128 0 238.5 -36t195.5 -105t139.5 -168t71.5 -225h-309q-12 67 -41 116t-72.5 82.5t-99.5 49.5t-124 16q-118 0 -204.5 -57t-133 -168t-46.5 -272q0 -163 47 -273.5t133 -166t203 -55.5
q68 0 124 16t100 49.5t73 82.5t42 116h309q-14 -109 -64.5 -205t-134 -170.5t-196 -116.5t-251.5 -42zM339 632v249h596v-249h-596z" />
    <glyph glyph-name="uni0405" unicode="&#x405;" horiz-adv-x="1340" 
d="M680 -22q-182 0 -315 56t-206.5 165.5t-76.5 268.5h297q4 -76 43 -128.5t105 -79t151 -26.5q82 0 143.5 24t95.5 67t34 99q0 51 -29.5 86t-87 60t-142.5 44l-162 40q-196 46 -303.5 145.5t-107.5 261.5q0 135 72.5 236t199 157.5t290.5 56.5q166 0 289.5 -57t192.5 -159
t72 -237h-294q-8 93 -77.5 145t-184.5 52q-77 0 -133 -22.5t-85.5 -62t-29.5 -90.5q0 -53 31.5 -88.5t87 -59t124.5 -39.5l136 -33q99 -22 181.5 -58.5t142.5 -88.5t92 -123t32 -162q0 -137 -69 -238.5t-198 -156.5t-311 -55z" />
    <glyph glyph-name="uni0406" unicode="&#x406;" horiz-adv-x="565" 
d="M435 1490v-1490h-306v1490h306z" />
    <glyph glyph-name="uni0407" unicode="&#x407;" horiz-adv-x="565" 
d="M435 1490v-1490h-306v1490h306zM505 1640q-64 0 -108.5 43.5t-44.5 104.5q0 62 44.5 105t108.5 43t108 -43t44 -105t-44 -105t-108 -43zM61 1640q-63 0 -107.5 43.5t-44.5 104.5q0 62 44.5 105t107.5 43q64 0 108 -43t44 -105t-44 -105t-108 -43z" />
    <glyph glyph-name="uni0408" unicode="&#x408;" horiz-adv-x="1186" 
d="M563 -20q-231 0 -364 121.5t-133 346.5v90h302v-93q0 -106 52 -161t142 -55q89 0 140.5 55t51.5 161v1045h304v-1042q0 -225 -132.5 -346.5t-362.5 -121.5z" />
    <glyph glyph-name="uni0409" unicode="&#x409;" horiz-adv-x="2275" 
d="M68 0v253h40q75 0 116 37.5t62 131.5t35 264l66 804h702v-253h-427l-54 -636q-15 -173 -51.5 -289t-96.5 -184.5t-145.5 -98t-198.5 -29.5h-48zM1257 965h378q174 0 300 -58t195 -165t69 -253q0 -150 -68 -260t-193 -169.5t-297 -59.5h-582v1490h306v-1240h266
q124 0 194.5 64t70.5 177q0 72 -32 123t-91 78.5t-142 27.5h-374v245z" />
    <glyph glyph-name="uni040A" unicode="&#x40a;" horiz-adv-x="2294" 
d="M129 0v1490h303v-528h772v-243h-772v-719h-303zM1276 965h378q174 0 300 -58t195 -165t69 -253q0 -150 -68 -260t-193 -169.5t-297 -59.5h-582v1490h306v-1240h266q124 0 194.5 64t70.5 177q0 72 -32 123t-91 78.5t-142 27.5h-374v245z" />
    <glyph glyph-name="uni040B" unicode="&#x40b;" horiz-adv-x="1819" 
d="M1173 924q160 0 277.5 -51t181.5 -161t64 -287v-425h-306v403q0 90 -28.5 150.5t-89 90.5t-157.5 30q-109 0 -197.5 -31.5t-156.5 -79.5v214q91 78 188 112.5t224 34.5zM829 1291v-1291h-306v1291h306zM68 1235v255h1266v-255h-1266z" />
    <glyph glyph-name="uni040C" unicode="&#x40c;" horiz-adv-x="1457" 
d="M129 0v1490h306v-603h166l428 603h361l-536 -725l561 -765h-360l-454 634h-166v-634h-306zM583 1629l147 312h280l-217 -312h-210z" />
    <glyph glyph-name="uni040D" unicode="&#x40d;" horiz-adv-x="1544" 
d="M1415 0h-312v686q0 49 3 128t8.5 177.5t11.5 207.5l42 -8q-58 -117 -103.5 -205t-85 -159.5t-83.5 -141.5l-429 -685h-338v1490h311v-720q0 -57 -3 -142t-8 -177.5t-11 -172.5l-32 18q37 94 75.5 174t75 145.5t68.5 118.5l473 756h337v-1490zM653 1629l-217 312h280
l147 -312h-210z" />
    <glyph glyph-name="uni040E" unicode="&#x40e;" horiz-adv-x="1403" 
d="M260 0v267h122q77 0 115.5 21t53.5 69l18 55l-529 1078h353l167 -370q52 -115 87.5 -221t61.5 -201.5t50 -180.5h-92q37 120 84.5 272.5t118.5 330.5l150 370h343l-530 -1201q-43 -94 -97.5 -158.5t-132 -97.5t-188.5 -33h-155zM702 1626q-97 0 -175 41.5t-123.5 112
t-45.5 157.5h175q0 -64 48.5 -105.5t120.5 -41.5t120 41.5t48 105.5h177q0 -87 -45.5 -157.5t-123.5 -112t-176 -41.5z" />
    <glyph glyph-name="uni040F" unicode="&#x40f;" horiz-adv-x="1479" 
d="M1350 0h-1221v1490h306v-1235h609v1235h306v-1490zM592 -320l-4 384h304l-5 -384h-295z" />
    <glyph glyph-name="uni0410" unicode="&#x410;" horiz-adv-x="1514" 
d="M40 0l513 1490h398l523 -1490h-340l-238 720q-43 140 -87.5 302.5t-94.5 357.5h70q-49 -195 -91 -358.5t-84 -301.5l-233 -720h-336zM361 341v241h792v-241h-792z" />
    <glyph glyph-name="uni0411" unicode="&#x411;" horiz-adv-x="1314" 
d="M129 0v1490h979v-250h-674v-358h319q149 0 258.5 -50t169 -144.5t59.5 -230.5q0 -140 -59.5 -242.5t-168.5 -158.5t-259 -56h-624zM434 241h275q110 0 173 57.5t63 154.5q0 93 -63 148t-173 55h-275v-415z" />
    <glyph glyph-name="uni0412" unicode="&#x412;" horiz-adv-x="1347" 
d="M129 0v1490h593q163 0 273 -49t165.5 -135.5t55.5 -198.5q0 -87 -34.5 -153t-95 -108t-138.5 -60v-13q86 -4 160 -48.5t119.5 -123.5t45.5 -188q0 -119 -58 -212.5t-172.5 -147t-283.5 -53.5h-630zM434 249h269q131 0 193.5 51.5t62.5 138.5q0 63 -30 111t-86 75t-133 27
h-276v-403zM434 866h248q66 0 117 23t80 66.5t29 102.5q0 83 -58 134t-164 51h-252v-377z" />
    <glyph glyph-name="uni0413" unicode="&#x413;" horiz-adv-x="1180" 
d="M1112 1490v-255h-677v-1235h-306v1490h983z" />
    <glyph glyph-name="uni0414" unicode="&#x414;" horiz-adv-x="1751" 
d="M68 -320v575h134q38 29 71.5 71.5t60.5 111t47 171.5t32 251l50 630h1038v-1235h182v-575h-299v320h-1017v-320h-299zM551 255h646v979h-452l-31 -374q-12 -146 -35 -262t-55.5 -201.5t-72.5 -141.5z" />
    <glyph glyph-name="uni0415" unicode="&#x415;" horiz-adv-x="1244" 
d="M129 0v1490h1014v-256h-708v-356h654v-251h-654v-371h709v-256h-1015z" />
    <glyph glyph-name="uni0416" unicode="&#x416;" horiz-adv-x="2159" 
d="M1232 1490v-1490h-305v1490h305zM42 0l461 781l-439 709h369l337 -632h626l329 632h367l-428 -707l453 -783h-359l-324 605h-706l-332 -605h-354z" />
    <glyph glyph-name="uni0417" unicode="&#x417;" horiz-adv-x="1310" 
d="M655 -21q-168 0 -293.5 59t-196.5 161.5t-73 234.5h305q2 -62 35.5 -108.5t91 -71.5t131.5 -25t131.5 26t90 73t32.5 109t-34.5 109t-97.5 73.5t-150 26.5h-136v227h136q75 0 131 25t87.5 69.5t31.5 104.5q0 59 -27.5 103t-77 69t-116.5 25t-121 -24.5t-86.5 -69
t-33.5 -106.5h-293q2 130 71.5 229.5t190 156t274.5 56.5q153 0 268.5 -55.5t180 -150t64.5 -212.5q0 -125 -78 -209t-202 -109v-9q107 -14 181.5 -61.5t112.5 -121t38 -165.5q0 -127 -73 -226.5t-201 -156t-294 -56.5z" />
    <glyph glyph-name="uni0418" unicode="&#x418;" horiz-adv-x="1544" 
d="M1415 0h-312v686q0 49 3 128t8.5 177.5t11.5 207.5l42 -8q-58 -117 -103.5 -205t-85 -159.5t-83.5 -141.5l-429 -685h-338v1490h311v-720q0 -57 -3 -142t-8 -177.5t-11 -172.5l-32 18q37 94 75.5 174t75 145.5t68.5 118.5l473 756h337v-1490z" />
    <glyph glyph-name="uni0419" unicode="&#x419;" horiz-adv-x="1544" 
d="M1415 0h-312v686q0 49 3 128t8.5 177.5t11.5 207.5l42 -8q-58 -117 -103.5 -205t-85 -159.5t-83.5 -141.5l-429 -685h-338v1490h311v-720q0 -57 -3 -142t-8 -177.5t-11 -172.5l-32 18q37 94 75.5 174t75 145.5t68.5 118.5l473 756h337v-1490zM753 1626q-97 0 -175 41.5
t-123.5 112t-45.5 157.5h175q0 -64 48.5 -105.5t120.5 -41.5t120 41.5t48 105.5h177q0 -87 -45.5 -157.5t-123.5 -112t-176 -41.5z" />
    <glyph glyph-name="Kacyr" unicode="&#x41a;" horiz-adv-x="1457" 
d="M129 0v1490h306v-603h166l428 603h361l-536 -725l561 -765h-360l-454 634h-166v-634h-306z" />
    <glyph glyph-name="uni041B" unicode="&#x41b;" horiz-adv-x="1523" 
d="M68 0v255h40q74 0 115 38t62.5 132.5t35.5 265.5l66 799h1007v-1490h-306v1235h-423l-54 -631q-15 -175 -52 -291.5t-97.5 -185.5t-146.5 -98t-200 -29h-47z" />
    <glyph glyph-name="uni041C" unicode="&#x41c;" horiz-adv-x="1891" 
d="M129 0v1490h465l242 -686q15 -48 35 -122.5t40.5 -159.5t38 -164.5t29.5 -137.5h-64q12 57 29.5 136t38 164.5t40 160.5t35.5 123l238 686h466v-1490h-306v704q0 49 1.5 121t4 155t4.5 167.5t3 159.5h23q-20 -82 -43.5 -169t-47 -169.5t-44 -151t-35.5 -113.5l-248 -704
h-256l-251 704q-16 45 -36.5 113t-44.5 150t-48 169t-46 171h28q1 -72 3 -156l4 -168t4 -156.5t2 -122.5v-704h-304z" />
    <glyph glyph-name="uni041D" unicode="&#x41d;" horiz-adv-x="1516" 
d="M129 0v1490h306v-601h646v601h306v-1490h-306v633h-646v-633h-306z" />
    <glyph glyph-name="uni041E" unicode="&#x41e;" horiz-adv-x="1567" 
d="M784 -21q-198 0 -356 91t-249.5 262t-91.5 412q0 242 91.5 413.5t249.5 262.5t356 91t355.5 -91t249 -262.5t91.5 -413.5q0 -241 -91.5 -412.5t-249 -262t-355.5 -90.5zM784 250q116 0 203 57t135.5 167.5t48.5 269.5q0 160 -48.5 271t-135.5 168t-203 57
q-115 0 -202.5 -57.5t-136 -168t-48.5 -270.5q0 -159 48.5 -269t136 -167.5t202.5 -57.5z" />
    <glyph glyph-name="uni041F" unicode="&#x41f;" horiz-adv-x="1516" 
d="M1387 1490v-1490h-306v1234h-646v-1234h-306v1490h1258z" />
    <glyph glyph-name="uni0420" unicode="&#x420;" horiz-adv-x="1320" 
d="M129 0v1490h583q169 0 289 -63.5t183.5 -176t63.5 -260.5t-64.5 -260t-185.5 -175t-292 -63h-383v249h342q90 0 150.5 31.5t90.5 87.5t30 130q0 75 -30 130t-90.5 86t-151.5 31h-229v-1237h-306z" />
    <glyph glyph-name="uni0421" unicode="&#x421;" horiz-adv-x="1509" 
d="M782 -21q-199 0 -356.5 91t-248 262t-90.5 412q0 242 91 413.5t249 262.5t355 91q128 0 238.5 -36t195.5 -105t139.5 -168t71.5 -225h-309q-11 62 -40 111t-72 83t-98 51.5t-120 17.5q-118 0 -206.5 -59t-136.5 -169.5t-48 -267.5q0 -159 48.5 -269.5t136.5 -167.5
t206 -57q64 0 119 18t98.5 51.5t72.5 82.5t41 111h309q-14 -109 -64.5 -205t-134 -170.5t-196 -116.5t-251.5 -42z" />
    <glyph glyph-name="uni0422" unicode="&#x422;" horiz-adv-x="1353" 
d="M68 1234v256h1216v-256h-454v-1234h-306v1234h-456z" />
    <glyph glyph-name="uni0423" unicode="&#x423;" horiz-adv-x="1403" 
d="M260 0v267h122q77 0 115.5 21t53.5 69l18 55l-529 1078h353l167 -370q52 -115 87.5 -221t61.5 -201.5t50 -180.5h-92q37 120 84.5 272.5t118.5 330.5l150 370h343l-530 -1201q-43 -94 -97.5 -158.5t-132 -97.5t-188.5 -33h-155z" />
    <glyph glyph-name="uni0424" unicode="&#x424;" horiz-adv-x="1705" 
d="M778 101q-216 0 -371 78.5t-237.5 223t-82.5 342.5t82.5 342.5t237.5 223.5t371 79h149q217 0 371.5 -79t237 -223.5t82.5 -342.5t-82.5 -342.5t-237 -223t-371.5 -78.5h-149zM786 354h133q135 0 223 43.5t132 130.5t44 217t-44 217t-132 130.5t-223 43.5h-133
q-134 0 -222.5 -43.5t-132.5 -130.5t-44 -217t44 -217t132.5 -130.5t222.5 -43.5zM702 -83v1656h302v-1656h-302z" />
    <glyph glyph-name="uni0425" unicode="&#x425;" horiz-adv-x="1493" 
d="M42 0l615 875v-231l-567 846h353l164 -251q42 -66 72 -121t55.5 -106.5t55.5 -106.5h-81q31 55 57 106.5t56.5 106.5t73.5 121l166 251h345l-557 -830v220l601 -880h-360l-208 313q-38 58 -64 101.5t-47.5 83t-48.5 87.5h48q-27 -47 -49 -87t-48 -83.5t-66 -101.5
l-214 -313h-352z" />
    <glyph glyph-name="uni0426" unicode="&#x426;" horiz-adv-x="1564" 
d="M1350 0h-1221v1490h306v-1235h609v1235h306v-1490zM1204 -320v320h-86v244h390l-14 -564h-290z" />
    <glyph glyph-name="uni0427" unicode="&#x427;" horiz-adv-x="1437" 
d="M653 528q-159 0 -278.5 51t-185.5 161.5t-66 286.5v463h306v-441q0 -135 69 -203.5t214 -68.5q110 0 200.5 32.5t158.5 79.5v-214q-93 -79 -192 -113t-226 -34zM1002 0v1490h306v-1490h-306z" />
    <glyph glyph-name="uni0428" unicode="&#x428;" horiz-adv-x="2014" 
d="M129 1490h306v-1235h423v1235h299v-1235h421v1235h306v-1490h-1755v1490z" />
    <glyph glyph-name="uni0429" unicode="&#x429;" horiz-adv-x="2070" 
d="M129 1490h306v-1235h423v1235h299v-1235h421v1235h306v-1490h-1755v1490zM1739 -320v320h-86v244h390l-14 -564h-290z" />
    <glyph glyph-name="uni042A" unicode="&#x42a;" horiz-adv-x="1688" 
d="M68 1237v253h534v-253h-534zM670 965h378q173 0 299.5 -58t195.5 -165t69 -253q0 -150 -68 -260t-193 -169.5t-297 -59.5h-582v1490h306v-1240h266q124 0 194.5 64t70.5 177q0 72 -32 123t-91 78.5t-142 27.5h-374v245z" />
    <glyph glyph-name="uni042B" unicode="&#x42b;" horiz-adv-x="1861" 
d="M327 965h379q173 0 299.5 -58t195 -165t68.5 -253q0 -150 -68 -260t-192.5 -169.5t-297.5 -59.5h-582v1490h306v-1240h267q124 0 194.5 64t70.5 177q0 72 -32 123t-91 78.5t-142 27.5h-375v245zM1731 1490v-1490h-306v1490h306z" />
    <glyph glyph-name="uni042C" unicode="&#x42c;" horiz-adv-x="1345" 
d="M327 965h379q173 0 299.5 -58t195 -165t68.5 -253q0 -150 -68 -260t-192.5 -169.5t-297.5 -59.5h-582v1490h306v-1240h267q124 0 194.5 64t70.5 177q0 72 -32 123t-91 78.5t-142 27.5h-375v245z" />
    <glyph glyph-name="uni042D" unicode="&#x42d;" horiz-adv-x="1509" 
d="M727 -21q-139 0 -252 42.5t-196.5 116.5t-133.5 170.5t-64 204.5h309q13 -67 42 -116t72.5 -82.5t100 -49.5t123.5 -16q118 0 204.5 55.5t133 166t46.5 273.5q0 161 -46.5 272t-132.5 168t-206 57q-67 0 -123.5 -16t-100 -49.5t-72 -82.5t-40.5 -116h-309
q17 126 71.5 225t139.5 168t195 105t239 36q198 0 355 -91t248.5 -262.5t91.5 -413.5q0 -240 -91 -411.5t-247.5 -262.5t-356.5 -91zM574 632v249h596v-249h-596z" />
    <glyph glyph-name="uni042E" unicode="&#x42e;" horiz-adv-x="2125" 
d="M751 872v-236h-455v236h455zM435 1490v-1490h-306v1490h306zM1341 -21q-198 0 -356 91t-249.5 262t-91.5 412q0 242 91.5 413.5t249.5 262.5t356 91q199 0 356.5 -91t249 -262.5t91.5 -413.5q0 -241 -91.5 -412.5t-249 -262t-356.5 -90.5zM1341 250q116 0 203 57
t135.5 167.5t48.5 269.5q0 160 -48.5 271t-135.5 168t-203 57q-115 0 -202 -57.5t-136 -168t-49 -270.5q0 -159 49 -269t136 -167.5t202 -57.5z" />
    <glyph glyph-name="uni042F" unicode="&#x42f;" horiz-adv-x="1342" 
d="M1213 0h-306v1237h-231q-90 0 -150.5 -27.5t-91 -79t-30.5 -126.5q0 -73 30.5 -124t91 -77.5t149.5 -26.5h356v-247h-393q-172 0 -294 57t-187 164t-65 254q0 148 63.5 257t183.5 169t289 60h585v-1490zM380 0h-337l366 677h329z" />
    <glyph glyph-name="uni0430" unicode="&#x430;" horiz-adv-x="1176" 
d="M437 -21q-106 0 -190 37t-132 110.5t-48 182.5q0 93 34 155t93 100t134.5 57.5t158.5 27.5q97 10 156 18.5t86 26.5t27 54v5q0 46 -20.5 78.5t-59.5 50t-95 17.5q-57 0 -99.5 -17.5t-69 -47t-37.5 -66.5l-275 35q23 100 88 171t166 108.5t230 37.5q94 0 178.5 -22
t150.5 -68t103.5 -116.5t37.5 -168.5v-745h-285v154h-9q-27 -52 -71.5 -91.5t-106.5 -61.5t-145 -22zM521 188q71 0 124 28t83 75t30 106v117q-13 -8 -38.5 -16t-57.5 -14t-64.5 -11t-59.5 -9q-54 -8 -96 -25.5t-65 -47t-23 -73.5q0 -42 21.5 -71t59 -44t86.5 -15z" />
    <glyph glyph-name="uni0431" unicode="&#x431;" horiz-adv-x="1235" 
d="M619 -24q-158 0 -280.5 69t-192.5 201t-70 320v33q0 131 18 245t59.5 207.5t114 163.5t181 112.5t260.5 52.5q72 6 107 17.5t46.5 34t11.5 58.5h236q-1 -112 -38.5 -180.5t-120.5 -103t-219 -44.5q-137 -11 -224 -48t-132.5 -119t-60.5 -228h6q29 68 88.5 127t141 95.5
t177.5 36.5q123 0 220.5 -63t154 -175t56.5 -259q0 -160 -68.5 -285t-190 -196.5t-281.5 -71.5zM621 208q76 0 130.5 36.5t84 105.5t29.5 167t-28.5 166.5t-82.5 104.5t-130 36t-133.5 -37.5t-89 -107t-31.5 -165.5q0 -94 30.5 -163t86.5 -106t134 -37z" />
    <glyph glyph-name="uni0432" unicode="&#x432;" horiz-adv-x="1164" 
d="M123 0v1104h472q205 0 324 -76.5t119 -220.5q0 -90 -63 -150.5t-182 -80.5q96 -6 163 -43.5t102.5 -96.5t35.5 -133q0 -94 -49 -162t-144 -104.5t-233 -36.5h-545zM401 227h264q67 0 104 31t37 85q0 61 -37 95.5t-104 34.5h-264v-246zM401 650h201q72 0 112.5 30.5
t40.5 83.5q0 52 -42.5 81.5t-117.5 29.5h-194v-225z" />
    <glyph glyph-name="uni0433" unicode="&#x433;" horiz-adv-x="923" 
d="M885 1104v-240h-464v-864h-298v1104h762z" />
    <glyph glyph-name="uni0434" unicode="&#x434;" horiz-adv-x="1344" 
d="M36 -327v568h86q36 24 60 72t38.5 113.5t24 143.5t15.5 162l30 372h846v-863h172v-568h-285v327h-695v-327h-292zM423 241h431v628h-310l-11 -137q-12 -174 -36 -294.5t-74 -196.5z" />
    <glyph glyph-name="uni0435" unicode="&#x435;" horiz-adv-x="1204" 
d="M623 -22q-169 0 -291.5 70t-189 198t-66.5 301q0 171 66 299.5t186 201t281 72.5q111 0 206 -36t166.5 -106.5t111 -176t39.5 -243.5v-83h-937v188h792l-139 -49q0 86 -27 149t-79.5 97.5t-129.5 34.5t-131 -35t-82.5 -96t-28.5 -140v-132q0 -93 32 -158t90.5 -98.5
t136.5 -33.5q53 0 96.5 15.5t74 45t46.5 72.5l271 -39q-26 -96 -93.5 -167.5t-169 -111t-231.5 -39.5z" />
    <glyph glyph-name="uni0436" unicode="&#x436;" horiz-adv-x="1754" 
d="M36 0l396 571l-394 533h342l299 -435h50v435h298v-435h48l299 435h343l-393 -533l395 -571h-350l-295 432h-47v-432h-298v432h-47l-296 -432h-350z" />
    <glyph glyph-name="uni0437" unicode="&#x437;" horiz-adv-x="1052" 
d="M523 -15q-141 0 -242.5 47t-155.5 127.5t-56 179.5h292q1 -54 46 -87.5t113 -33.5q72 0 115.5 35.5t43.5 89.5q0 60 -47 94.5t-130 34.5h-88v178h88q72 0 117 33t45 92q0 53 -38 86.5t-102 33.5q-63 0 -106 -31t-44 -84h-283q1 99 56.5 175.5t154 120.5t226.5 44
q125 0 219 -41t146.5 -112.5t52.5 -161.5q0 -96 -64 -156.5t-162 -72.5v-4q132 -14 199 -85t67 -172q0 -96 -58.5 -170.5t-163 -117t-241.5 -42.5z" />
    <glyph glyph-name="uni0438" unicode="&#x438;" horiz-adv-x="1264" 
d="M1141 0h-298v653h-7l-459 -653h-254v1104h297v-650h7l456 650h258v-1104z" />
    <glyph glyph-name="uni0439" unicode="&#x439;" horiz-adv-x="1264" 
d="M1141 0h-298v653h-7l-459 -653h-254v1104h297v-650h7l456 650h258v-1104zM631 1240q-97 0 -175 41.5t-123.5 112t-45.5 157.5h175q0 -64 48.5 -105.5t120.5 -41.5t120 41.5t48 105.5h177q0 -87 -45.5 -157.5t-123.5 -112t-176 -41.5z" />
    <glyph glyph-name="uni043A" unicode="&#x43a;" horiz-adv-x="1183" 
d="M123 0v1104h298v-447h85l317 447h352l-398 -546l402 -558h-355l-288 417h-115v-417h-298z" />
    <glyph glyph-name="uni043B" unicode="&#x43b;" horiz-adv-x="1230" 
d="M19 0v239h39q40 0 68.5 17t47.5 57t29 109.5t15 173.5l19 508h871v-1104h-299v866h-287l-14 -320q-9 -197 -55.5 -317.5t-129 -174.5t-200.5 -54h-104z" />
    <glyph glyph-name="uni043C" unicode="&#x43c;" horiz-adv-x="1647" 
d="M123 0v1104h454l159 -444q17 -54 33 -121.5t30 -138.5t26 -139t20 -123h-42q9 54 21 121.5t26 139t30.5 139t33.5 122.5l154 444h456v-1104h-291v431q0 53 1.5 120t3 141t3.5 147.5t2 141.5h24q-21 -99 -47.5 -196t-54.5 -186.5t-57 -167.5l-160 -431h-249l-163 431
q-29 80 -57.5 170.5t-55 187t-47.5 192.5h27q0 -64 2 -137.5t4 -148t3 -142.5t1 -122v-431h-290z" />
    <glyph glyph-name="uni043D" unicode="&#x43d;" horiz-adv-x="1261" 
d="M922 688v-240h-584v240h584zM421 1104v-1104h-298v1104h298zM1138 1104v-1104h-298v1104h298z" />
    <glyph glyph-name="uni043E" unicode="&#x43e;" horiz-adv-x="1241" 
d="M621 -22q-167 0 -289.5 71.5t-189 200t-66.5 298.5q0 172 66.5 300.5t189 200t289.5 71.5q166 0 288.5 -71.5t189 -200t66.5 -300.5q0 -170 -66.5 -298.5t-189 -200t-288.5 -71.5zM621 214q78 0 131.5 43t81.5 118.5t28 173.5q0 99 -28 174t-81.5 118t-131.5 43t-132 -43
t-81.5 -118t-27.5 -174q0 -98 27.5 -173.5t81 -118.5t132.5 -43z" />
    <glyph glyph-name="uni043F" unicode="&#x43f;" horiz-adv-x="1244" 
d="M1121 1104v-1104h-298v864h-401v-864h-299v1104h998z" />
    <glyph glyph-name="uni0440" unicode="&#x440;" horiz-adv-x="1276" 
d="M123 -418v1522h293v-178h13q23 47 63 91.5t102.5 73.5t151.5 29q127 0 229.5 -65.5t163.5 -192t61 -311.5q0 -182 -59.5 -309t-162.5 -194t-234 -67q-86 0 -148 28.5t-102.5 72.5t-64.5 92h-8v-592h-298zM655 221q78 0 131 41.5t80.5 116t27.5 173.5q0 98 -27.5 172
t-80.5 115t-131 41q-76 0 -130.5 -40.5t-83 -114t-28.5 -173.5t29 -174t83.5 -115.5t129.5 -41.5z" />
    <glyph glyph-name="uni0441" unicode="&#x441;" horiz-adv-x="1190" 
d="M619 -22q-166 0 -288 71.5t-188.5 200t-66.5 298.5q0 171 66.5 300t188.5 200.5t288 71.5q101 0 185.5 -26.5t149.5 -76.5t106.5 -120.5t55.5 -158.5l-280 -40q-9 43 -27 77t-45 58.5t-62.5 37.5t-79.5 13q-79 0 -132.5 -42t-81.5 -117.5t-28 -175.5q0 -99 28 -174.5
t81.5 -118t132.5 -42.5q44 0 79.5 13.5t63 38.5t46 60.5t26.5 80.5l280 -41q-13 -89 -54.5 -160t-106.5 -122.5t-150.5 -78.5t-186.5 -27z" />
    <glyph glyph-name="uni0442" unicode="&#x442;" horiz-adv-x="1043" 
d="M373 0v866h-354v238h1004v-238h-352v-866h-298z" />
    <glyph glyph-name="uni0443" unicode="&#x443;" horiz-adv-x="1211" 
d="M122 -401l54 228l58 -8q55 -12 96.5 -4t67 37.5t33.5 81.5l13 64l-417 1106h316l186 -567q34 -106 56.5 -212.5t49.5 -220.5h-72q27 114 54 221t61 212l193 567h313l-473 -1243q-34 -89 -85.5 -153t-126.5 -98t-181 -34q-57 0 -108.5 6.5t-87.5 16.5z" />
    <glyph glyph-name="uni0444" unicode="&#x444;" horiz-adv-x="1576" 
d="M639 -22q-167 0 -294 71.5t-198 200t-71 298.5q0 172 71 300.5t198 200t294 71.5h299q166 0 293 -71.5t198 -200t71 -300.5q0 -170 -71 -298.5t-198 -200t-293 -71.5h-299zM639 200h299q83 0 143 45.5t92.5 124t32.5 179.5t-32.5 180.5t-92.5 126t-143 46.5h-299
q-84 0 -144 -46.5t-92.5 -126t-32.5 -180.5t32.5 -179.5t92.5 -124t144 -45.5zM639 -418v1908h299v-1908h-299z" />
    <glyph glyph-name="uni0445" unicode="&#x445;" horiz-adv-x="1168" 
d="M36 0l431 672l-2 -210l-407 642h323l100 -170q46 -82 84 -162t77 -156h-110q41 76 78.5 156t85.5 162l103 170h318l-415 -645l1 208l430 -667h-322l-120 200q-47 81 -86 160.5t-78 153.5h107q-39 -74 -76 -153.5t-84 -160.5l-119 -200h-319z" />
    <glyph glyph-name="uni0446" unicode="&#x446;" horiz-adv-x="1335" 
d="M123 0v1104h298v-864h401v864h299v-1104h-998zM975 -320v320h-86v244h390l-14 -564h-290z" />
    <glyph glyph-name="uni0447" unicode="&#x447;" horiz-adv-x="1220" 
d="M632 317q-248 0 -378.5 103.5t-130.5 313.5v370h298v-368q0 -99 51.5 -139t159.5 -40q78 0 153 16.5t160 45.5v-240q-36 -16 -89 -30.5t-111.5 -23t-112.5 -8.5zM798 0v1104h299v-1104h-299z" />
    <glyph glyph-name="uni0448" unicode="&#x448;" horiz-adv-x="1749" 
d="M123 1104h298v-864h310v864h287v-864h310v864h298v-1104h-1503v1104z" />
    <glyph glyph-name="uni0449" unicode="&#x449;" horiz-adv-x="1805" 
d="M123 1104h298v-864h310v864h287v-864h310v864h298v-1104h-1503v1104zM1481 -320v320h-86v244h390l-14 -564h-290z" />
    <glyph glyph-name="uni044A" unicode="&#x44a;" horiz-adv-x="1371" 
d="M19 878v226h396v-226h-396zM503 758h331q144 0 247 -47.5t158.5 -132.5t55.5 -200q0 -112 -55.5 -197.5t-158.5 -133t-247 -47.5h-525v1104h298v-866h224q79 0 126 37.5t47 101.5q0 66 -47 104.5t-126 38.5h-328v238z" />
    <glyph glyph-name="uni044B" unicode="&#x44b;" horiz-adv-x="1621" 
d="M317 758h330q145 0 248 -47.5t158 -132.5t55 -200q0 -112 -55 -197.5t-158 -133t-248 -47.5h-524v1104h298v-866h224q79 0 125.5 37.5t46.5 101.5q0 66 -46.5 104.5t-125.5 38.5h-328v238zM1201 0v1104h298v-1104h-298z" />
    <glyph glyph-name="uni044C" unicode="&#x44c;" horiz-adv-x="1185" 
d="M317 758h330q145 0 248 -47.5t158 -132.5t55 -200q0 -112 -55 -197.5t-158 -133t-248 -47.5h-524v1104h298v-866h224q79 0 125.5 37.5t46.5 101.5q0 66 -46.5 104.5t-125.5 38.5h-328v238z" />
    <glyph glyph-name="uni044D" unicode="&#x44d;" horiz-adv-x="1191" 
d="M573 -22q-102 0 -187.5 27t-150.5 78.5t-106 122.5t-55 160l270 38q9 -44 28 -79.5t48 -61t67.5 -39t85.5 -13.5q84 0 140 43t84 119.5t28 175.5t-28 175.5t-84 119.5t-140 43q-46 0 -84.5 -13t-67.5 -37.5t-48 -59t-27 -76.5l-271 37q15 88 56 158.5t106 120.5t150 76.5
t186 26.5q166 0 287.5 -71.5t188 -200.5t66.5 -300q0 -170 -66.5 -298.5t-188 -200t-287.5 -71.5zM841 464h-379v180h379v-180z" />
    <glyph glyph-name="uni044E" unicode="&#x44e;" horiz-adv-x="1759" 
d="M123 0v1104h295v-1104h-295zM335 434v238h353v-238h-353zM1139 -22q-167 0 -289.5 71.5t-189 200t-66.5 298.5q0 172 66.5 300.5t189 200t289.5 71.5q166 0 288.5 -71.5t189 -200t66.5 -300.5q0 -170 -66.5 -298.5t-189 -200t-288.5 -71.5zM1139 214q78 0 131.5 43
t81.5 118.5t28 173.5q0 99 -28 174t-81.5 118t-131.5 43t-132 -43t-81.5 -118t-27.5 -174q0 -98 27.5 -173.5t81.5 -118.5t132 -43z" />
    <glyph glyph-name="uni044F" unicode="&#x44f;" horiz-adv-x="1173" 
d="M1050 0h-283v871h-196q-104 0 -152.5 -36.5t-48.5 -108.5q0 -70 49.5 -106t155.5 -36h310v-212h-344q-223 0 -344.5 96.5t-121.5 261.5q0 171 119.5 272.5t337.5 101.5h518v-1104zM354 0h-325l315 501h318z" />
    <glyph glyph-name="uni0450" unicode="&#x450;" horiz-adv-x="1204" 
d="M623 -22q-169 0 -291.5 70t-189 198t-66.5 301q0 171 66 299.5t186 201t281 72.5q111 0 206 -36t166.5 -106.5t111 -176t39.5 -243.5v-83h-937v188h792l-139 -49q0 86 -27 149t-79.5 97.5t-129.5 34.5t-131 -35t-82.5 -96t-28.5 -140v-132q0 -93 32 -158t90.5 -98.5
t136.5 -33.5q53 0 96.5 15.5t74 45t46.5 72.5l271 -39q-26 -96 -93.5 -167.5t-169 -111t-231.5 -39.5zM505 1243l-217 312h280l147 -312h-210z" />
    <glyph glyph-name="uni0451" unicode="&#x451;" horiz-adv-x="1204" 
d="M623 -22q-169 0 -291.5 70t-189 198t-66.5 301q0 171 66 299.5t186 201t281 72.5q111 0 206 -36t166.5 -106.5t111 -176t39.5 -243.5v-83h-937v188h792l-139 -49q0 86 -27 149t-79.5 97.5t-129.5 34.5t-131 -35t-82.5 -96t-28.5 -140v-132q0 -93 32 -158t90.5 -98.5
t136.5 -33.5q53 0 96.5 15.5t74 45t46.5 72.5l271 -39q-26 -96 -93.5 -167.5t-169 -111t-231.5 -39.5zM827 1254q-64 0 -108.5 43.5t-44.5 104.5q0 62 44.5 105t108.5 43t108 -43t44 -105t-44 -105t-108 -43zM383 1254q-63 0 -107.5 43.5t-44.5 104.5q0 62 44.5 105
t107.5 43q64 0 108 -43t44 -105t-44 -105t-108 -43z" />
    <glyph glyph-name="uni0452" unicode="&#x452;" horiz-adv-x="1258" 
d="M779 -431q-46 0 -87.5 3.5t-71.5 9.5v222q22 -3 47 -4.5t49 -1.5q66 0 93.5 21.5t27.5 69.5v111h298v-114q0 -157 -88.5 -237t-267.5 -80zM421 634v-634h-298v1490h294v-664h-31q45 140 135.5 217t232.5 77q115 0 201 -50t133.5 -144t47.5 -226v-700h-299v647
q0 105 -53 163.5t-148 58.5q-63 0 -111.5 -27.5t-76 -79.5t-27.5 -128zM-15 1204v181h728v-181h-728z" />
    <glyph glyph-name="uni0453" unicode="&#x453;" horiz-adv-x="923" 
d="M885 1104v-240h-464v-864h-298v1104h762zM395 1243l147 312h280l-217 -312h-210z" />
    <glyph glyph-name="uni0454" unicode="&#x454;" horiz-adv-x="1191" 
d="M619 -22q-166 0 -288 71.5t-188.5 200t-66.5 298.5q0 171 66.5 300t188.5 200.5t288 71.5q101 0 185.5 -26.5t149.5 -76.5t106.5 -120.5t55.5 -158.5l-270 -37q-9 42 -28 76.5t-48 59t-67 37.5t-85 13q-83 0 -139 -43t-84.5 -119.5t-28.5 -175.5t28.5 -175.5t84.5 -119.5
t139 -43q48 0 86.5 13.5t67.5 39t48 61t27 79.5l270 -38q-13 -89 -54.5 -160t-106.5 -122.5t-150.5 -78.5t-186.5 -27zM350 464v180h379v-180h-379z" />
    <glyph glyph-name="uni0455" unicode="&#x455;" horiz-adv-x="1129" 
d="M565 -23q-135 0 -239.5 39.5t-170 114.5t-82.5 180l281 38q19 -76 73 -115t144 -39q85 0 134 32.5t49 82.5q0 43 -35.5 70.5t-106.5 42.5l-191 38q-160 33 -240 112t-80 204q0 105 57.5 182t162 119t244.5 42q134 0 232 -38t157.5 -108t75.5 -165l-267 -37
q-14 59 -62.5 96.5t-129.5 37.5q-75 0 -123.5 -31.5t-48.5 -81.5q0 -42 33 -70.5t108 -43.5l200 -40q162 -32 240.5 -106t78.5 -193q0 -109 -63 -190.5t-174.5 -127t-256.5 -45.5z" />
    <glyph glyph-name="uni0456" unicode="&#x456;" horiz-adv-x="544" 
d="M123 0v1104h298v-1104h-298zM272 1247q-69 0 -117.5 45t-48.5 110t48.5 110t116.5 45q70 0 118 -45t48 -110t-48 -110t-117 -45z" />
    <glyph glyph-name="uni0457" unicode="&#x457;" horiz-adv-x="544" 
d="M123 0v1104h298v-1104h-298zM494 1254q-64 0 -108.5 43.5t-44.5 104.5q0 62 44.5 105t108.5 43t108 -43t44 -105t-44 -105t-108 -43zM50 1254q-63 0 -107.5 43.5t-44.5 104.5q0 62 44.5 105t107.5 43q64 0 108 -43t44 -105t-44 -105t-108 -43z" />
    <glyph glyph-name="uni0458" unicode="&#x458;" horiz-adv-x="544" 
d="M122 1104h299v-1168q1 -123 -47 -201t-138.5 -115.5t-216.5 -37.5h-74v236h46q72 0 101.5 31.5t29.5 96.5v1158zM272 1247q-69 0 -117.5 45t-48.5 110t48.5 110t116.5 45q70 0 118 -45t48 -110t-48 -110t-117 -45z" />
    <glyph glyph-name="uni0459" unicode="&#x459;" horiz-adv-x="1913" 
d="M38 0v239h39q40 0 68.5 17t47.5 57t29 109.5t15 173.5l19 508h871v-1104h-299v866h-287l-14 -320q-9 -197 -55.5 -317.5t-129 -174.5t-200.5 -54h-104zM1046 758h330q145 0 248 -47.5t158 -132.5t55 -200q0 -112 -55 -197.5t-158 -133t-248 -47.5h-524v1104h298v-866h224
q79 0 125.5 37.5t46.5 101.5q0 66 -46.5 104.5t-125.5 38.5h-328v238z" />
    <glyph glyph-name="uni045A" unicode="&#x45a;" horiz-adv-x="1876" 
d="M1059 0v238h288q80 0 121 29t41 85q0 59 -41 89t-121 30h-333v237h335q211 0 331 -94.5t120 -259.5t-120 -259.5t-331 -94.5h-290zM123 0v1104h298v-1104h-298zM338 446v241h576v-241h-576zM831 0v1104h298v-1104h-298z" />
    <glyph glyph-name="uni045B" unicode="&#x45b;" horiz-adv-x="1258" 
d="M421 634v-634h-298v1490h294v-664h-31q45 140 135.5 217t232.5 77q115 0 201 -50t133.5 -144t47.5 -226v-700h-299v647q0 105 -53 163.5t-148 58.5q-63 0 -111.5 -27.5t-76 -79.5t-27.5 -128zM-15 1205v180h728v-180h-728z" />
    <glyph glyph-name="uni045C" unicode="&#x45c;" horiz-adv-x="1183" 
d="M123 0v1104h298v-447h85l317 447h352l-398 -546l402 -558h-355l-288 417h-115v-417h-298zM480 1243l147 312h280l-217 -312h-210z" />
    <glyph glyph-name="uni045D" unicode="&#x45d;" horiz-adv-x="1264" 
d="M1141 0h-298v653h-7l-459 -653h-254v1104h297v-650h7l456 650h258v-1104zM532 1243l-217 312h280l147 -312h-210z" />
    <glyph glyph-name="uni045E" unicode="&#x45e;" horiz-adv-x="1211" 
d="M122 -401l54 228l58 -8q55 -12 96.5 -4t67 37.5t33.5 81.5l13 64l-417 1106h316l186 -567q34 -106 56.5 -212.5t49.5 -220.5h-72q27 114 54 221t61 212l193 567h313l-473 -1243q-34 -89 -85.5 -153t-126.5 -98t-181 -34q-57 0 -108.5 6.5t-87.5 16.5zM603 1240
q-97 0 -175 41.5t-123.5 112t-45.5 157.5h175q0 -64 48.5 -105.5t120.5 -41.5t120 41.5t48 105.5h177q0 -87 -45.5 -157.5t-123.5 -112t-176 -41.5z" />
    <glyph glyph-name="uni045F" unicode="&#x45f;" horiz-adv-x="1244" 
d="M123 0v1104h298v-864h401v864h299v-1104h-998zM474 -320l-4 384h304l-5 -384h-295z" />
    <glyph glyph-name="uni0460" unicode="&#x460;" horiz-adv-x="1990" 
d="M129 471v1019h305v-1020q0 -119 54 -181.5t151 -62.5q99 0 152 62t53 182v1020h302v-1020q0 -120 52.5 -182t149.5 -62q99 0 153.5 62t54.5 182v1020h304v-1019q0 -160 -67.5 -269.5t-183 -165.5t-261.5 -56q-111 0 -200.5 39.5t-151.5 116.5q-62 -77 -153.5 -116.5
t-203.5 -39.5q-147 0 -262 56t-181.5 165.5t-66.5 269.5z" />
    <glyph glyph-name="uni0461" unicode="&#x461;" horiz-adv-x="1792" 
d="M537 -20q-127 0 -220 52t-143.5 146.5t-50.5 221.5v704h297v-695q0 -88 43.5 -139.5t121.5 -51.5q80 0 123 51.5t43 139.5v695h292v-695q0 -88 43 -139.5t121 -51.5q79 0 121.5 51.5t42.5 139.5v695h298v-704q0 -127 -50.5 -221.5t-143.5 -146.5t-220 -52
q-125 0 -213 50.5t-136.5 145t-55.5 224.5h89q-6 -130 -53.5 -224t-135 -145t-213.5 -51z" />
    <glyph glyph-name="uni0462" unicode="&#x462;" horiz-adv-x="1450" 
d="M431 965h379q173 0 299.5 -58t195 -165t68.5 -253q0 -150 -68 -260t-192.5 -169.5t-297.5 -59.5h-582v1490h306v-1240h267q124 0 194.5 64t70.5 177q0 72 -32 123t-91 78.5t-142 27.5h-375v245zM21 1105v206h873v-206h-873z" />
    <glyph glyph-name="uni0463" unicode="&#x463;" horiz-adv-x="1300" 
d="M19 913v191h886v-191h-886zM238 1104v386h295v-386h-295zM432 758h331q144 0 247 -47.5t158.5 -132.5t55.5 -200q0 -112 -55.5 -197.5t-158.5 -133t-247 -47.5h-525v1104h298v-866h224q79 0 126 37.5t47 101.5q0 66 -47 104.5t-126 38.5h-328v238z" />
    <glyph glyph-name="uni0464" unicode="&#x464;" horiz-adv-x="2040" 
d="M1408 862v-239h-1034v239h1034zM1959 1023l-294 -38q-17 63 -49 110.5t-76 79t-97.5 47.5t-114.5 16q-107 0 -191 -52.5t-132.5 -162t-48.5 -280.5t48.5 -279.5t132.5 -160.5t191 -52q59 0 112 15.5t96.5 46t75 77t47.5 108.5l299 -37q-28 -113 -85.5 -202t-140 -151.5
t-184.5 -95t-220 -32.5q-194 0 -347 90.5t-240.5 261.5t-87.5 411q0 241 87.5 412.5t240.5 263t347 91.5q114 0 216 -32t185 -94.5t142.5 -153t87.5 -207.5zM434 1490v-1490h-305v1490h305z" />
    <glyph glyph-name="uni0465" unicode="&#x465;" horiz-adv-x="1686" 
d="M1198 645v-186h-884v186h884zM420 1104v-1104h-297v1104h297zM1118 -22q-169 0 -290.5 72.5t-187 201t-65.5 296.5q0 170 66 299t188 201t288 72q143 0 251.5 -52.5t172.5 -147t72 -222.5h-285q-8 55 -35.5 97t-71.5 65.5t-104 23.5q-73 0 -128.5 -39.5t-86.5 -114
t-31 -179.5t31 -180.5t86 -116t129 -40.5q84 0 140.5 50.5t70.5 138.5h285q-8 -126 -70.5 -222t-170.5 -149.5t-254 -53.5z" />
    <glyph glyph-name="uni0466" unicode="&#x466;" horiz-adv-x="1514" 
d="M879 552v-552h-247v552h247zM40 0l513 1490h398l523 -1490h-340l-238 720q-43 140 -87.5 302.5t-94.5 357.5h70q-49 -195 -91 -358.5t-84 -301.5l-233 -720h-336zM361 453v198h792v-198h-792z" />
    <glyph glyph-name="uni0467" unicode="&#x467;" horiz-adv-x="1201" 
d="M878 0l-247 724l-95 380h215l423 -1104h-296zM506 0v213q0 71 -25.5 98.5t-95.5 28.5v191q66 0 124.5 -24t91.5 -90q33 66 91.5 90t124.5 24v-191q-69 -1 -95.5 -28t-26.5 -99v-213h-189zM27 0l419 1104h217l-98 -381l-243 -723h-295z" />
    <glyph glyph-name="uni0468" unicode="&#x468;" horiz-adv-x="2024" 
d="M435 1490v-1490h-306v1490h306zM1389 552v-552h-247v552h247zM550 0l513 1490h398l523 -1490h-340l-237 720q-43 138 -88 301.5t-95 358.5h70q-49 -195 -91 -358.5t-84 -301.5l-233 -720h-336zM346 453v198h1317v-198h-1317z" />
    <glyph glyph-name="uni0469" unicode="&#x469;" horiz-adv-x="1697" 
d="M1374 0l-248 724l-94 380h215l423 -1104h-296zM123 0v1104h298v-1104h-298zM278 344v190h563v-190h-563zM1002 0v213q0 71 -26 98.5t-96 28.5v191q66 0 125 -24t91 -90q33 66 92 90t124 24v-191q-69 -1 -95 -28.5t-26 -98.5v-213h-189zM522 0l419 1104h218l-98 -381
l-244 -723h-295z" />
    <glyph glyph-name="uni046A" unicode="&#x46a;" horiz-adv-x="1797" 
d="M123 0v322q0 154 55 264.5t171.5 170.5t298.5 60h501q183 0 299 -60t171 -170.5t55 -264.5v-322h-302v334q0 120 -60.5 183.5t-171.5 63.5h-483q-112 0 -172 -63.5t-60 -183.5v-334h-302zM757 0v698h280v-698h-280zM781 563l-555 927h308l421 -777l-24 -150h-150z
M860 563l-12 156l418 771h302l-557 -927h-151zM443 1247v243h907v-243h-907z" />
    <glyph glyph-name="uni046B" unicode="&#x46b;" horiz-adv-x="1524" 
d="M104 0v178q0 229 130.5 330.5t362.5 101.5h332q230 0 360.5 -101.5t130.5 -330.5v-178h-283v179q0 75 -23.5 120t-70 65.5t-114.5 20.5h-332q-64 0 -110.5 -18.5t-72 -63t-25.5 -124.5v-179h-285zM625 0v511h283v-511h-283zM632 395l-430 709h325l303 -612l-29 -97h-169z
M742 395l-25 103l305 606h319l-433 -709h-166zM396 910v194h785v-194h-785z" />
    <glyph glyph-name="uni046C" unicode="&#x46c;" horiz-adv-x="2413" 
d="M739 0v322q0 154 55 264.5t171.5 170.5t298.5 60h501q183 0 299 -60t171 -170.5t55 -264.5v-322h-302v334q0 120 -60.5 183.5t-171.5 63.5h-483q-112 0 -172 -63.5t-60 -183.5v-334h-302zM129 0v1490h305v-1490h-305zM374 582v235h942v-235h-942zM1373 0v698h280v-698
h-280zM1397 563l-555 927h308l421 -777l-24 -150h-150zM1476 563l-12 156l418 771h302l-557 -927h-151zM1062 1247v243h899v-243h-899z" />
    <glyph glyph-name="uni046D" unicode="&#x46d;" horiz-adv-x="2078" 
d="M656 0v137q0 105 40 176.5t105.5 116t144 68.5t157 32.5t143.5 8.5l237 71q239 1 365 -105.5t126 -326.5v-178h-284v179q0 75 -23.5 120t-69.5 65.5t-114 20.5h-332q-64 0 -111 -18.5t-72.5 -63t-25.5 -124.5v-179h-286zM123 0v1104h297v-1104h-297zM248 385v225h923
v-223zM1178 0v511h282v-511h-282zM1184 395l-428 709h324l303 -612l-30 -97h-169zM1294 395l-24 103l305 606h319l-433 -709h-167zM949 910v194h785v-194h-785z" />
    <glyph glyph-name="uni046E" unicode="&#x46e;" horiz-adv-x="1158" 
d="M217 1490h267q172 0 291 -42t181.5 -126t62.5 -208q0 -126 -62 -217.5t-179 -140t-283 -48.5h-159v168h154q120 0 175.5 54t55.5 138q0 87 -57 131.5t-180 44.5h-267v246zM336 792h151q274 0 426 -98t152 -290q0 -130 -64.5 -225t-181 -147t-272.5 -52h-61q-59 0 -87 -26
t-28 -68q0 -39 21 -68.5t55 -50.5t71 -37l-85 -178q-100 22 -175 71.5t-116.5 126.5t-41.5 177q0 150 97 224.5t268 74.5h64q74 0 127 24.5t81.5 70.5t28.5 110q0 102 -73 150t-209 48h-148v163zM496 1915l158 -142l159 142h244v-10l-311 -281h-183l-315 281v10h248z" />
    <glyph glyph-name="uni046F" unicode="&#x46f;" horiz-adv-x="1099" 
d="M472 -418q-118 0 -210 38.5t-145 109.5t-53 167t52 167t143 110t207 39h69q71 0 109 27.5t38 77.5t-38 77.5t-109 27.5h-264v235h240q68 0 104.5 28t36.5 80q0 50 -36.5 76.5t-104.5 26.5h-371v235h369q131 0 229 -34t153 -102t55 -168q0 -107 -59.5 -166.5t-159.5 -84
t-221 -24.5h-235v75h252q129 0 231.5 -33.5t162 -100.5t59.5 -168q0 -97 -55.5 -169t-156.5 -112t-238 -40h-59q-53 0 -81.5 -20.5t-28.5 -58.5q0 -39 30 -59.5t86 -20.5h44v-236h-45zM395 1555l140 -170l140 170h255v-6l-280 -297h-231l-278 297v6h254z" />
    <glyph glyph-name="uni0470" unicode="&#x470;" horiz-adv-x="1821" 
d="M1391 1490h300v-424q0 -178 -48.5 -308t-139 -214t-215.5 -125t-278 -41h-199q-153 0 -278 41t-215.5 125t-139.5 214t-49 308v424h301v-416q0 -164 35 -260.5t116 -138.5t219 -42h220q140 0 220.5 42t115.5 138.5t35 260.5v416zM764 1490h293v-1490h-293v1490z" />
    <glyph glyph-name="uni0471" unicode="&#x471;" horiz-adv-x="1691" 
d="M698 -20q-185 0 -313.5 65t-195 191.5t-66.5 311.5v556h294v-555q0 -115 30.5 -187t93 -106t157.5 -34h295q96 0 158.5 34t92.5 106t30 187v555h295v-556q0 -185 -67 -311.5t-195.5 -191.5t-313.5 -65h-295zM698 -418v1793h295v-1793h-295z" />
    <glyph glyph-name="uni0472" unicode="&#x472;" horiz-adv-x="1567" 
d="M1276 845v-200h-965v200h965zM784 -21q-198 0 -356 91t-249.5 262t-91.5 412q0 242 91.5 413.5t249.5 262.5t356 91t355.5 -91t249 -262.5t91.5 -413.5q0 -241 -91.5 -412.5t-249 -262t-355.5 -90.5zM784 250q116 0 203 57t135.5 167.5t48.5 269.5q0 160 -48.5 271
t-135.5 168t-203 57q-115 0 -202.5 -57.5t-136 -168t-48.5 -270.5q0 -159 48.5 -269t136 -167.5t202.5 -57.5z" />
    <glyph glyph-name="uni0473" unicode="&#x473;" horiz-adv-x="1241" 
d="M621 -22q-167 0 -289.5 71.5t-189 200t-66.5 298.5q0 172 66.5 300.5t189 200t289.5 71.5q166 0 288.5 -71.5t189 -200t66.5 -300.5q0 -170 -66.5 -298.5t-189 -200t-288.5 -71.5zM621 214q78 0 131.5 43t81.5 118.5t28 173.5q0 99 -28 174t-81.5 118t-131.5 43t-132 -43
t-81.5 -118t-27.5 -174q0 -98 27.5 -173.5t81 -118.5t132.5 -43zM325 407l-87 69q71 92 132 138t129 46q54 0 99.5 -18t82.5 -35.5t66 -17.5q43 0 83.5 21t81.5 87l90 -61q-67 -99 -127.5 -144t-136.5 -45q-55 0 -99 17.5t-79.5 35t-65.5 17.5q-40 0 -82 -26t-87 -84z" />
    <glyph glyph-name="uni0474" unicode="&#x474;" horiz-adv-x="1534" 
d="M1022 1151q56 181 147.5 268t248.5 87h76v-270h-34q-51 0 -76.5 -30t-46.5 -91l-389 -1115h-391l-517 1490h339l369 -1151h12z" />
    <glyph glyph-name="uni0475" unicode="&#x475;" horiz-adv-x="1250" 
d="M417 0l-390 1104h316l241 -794h10l167 551q36 124 116.5 183.5t206.5 59.5h139v-236h-109q-52 0 -70 -48l-291 -820h-336z" />
    <glyph glyph-name="uni0476" unicode="&#x476;" horiz-adv-x="1534" 
d="M1022 1151q56 181 147.5 268t248.5 87h76v-270h-34q-51 0 -76.5 -30t-46.5 -91l-389 -1115h-391l-517 1490h339l369 -1151h12zM842 1629l-171 312h268l112 -312h-209zM492 1629l-246 312h286l175 -312h-215z" />
    <glyph glyph-name="uni0477" unicode="&#x477;" horiz-adv-x="1250" 
d="M417 0l-390 1104h316l241 -794h10l167 551q36 124 116.5 183.5t206.5 59.5h139v-236h-109q-52 0 -70 -48l-291 -820h-336zM661 1243l-171 312h268l112 -312h-209zM311 1243l-246 312h286l175 -312h-215z" />
    <glyph glyph-name="uni0478" unicode="&#x478;" horiz-adv-x="2778" 
d="M784 -21q-198 0 -356 91t-249.5 262t-91.5 412q0 242 91.5 413.5t249.5 262.5t356 91t355.5 -91t249 -262.5t91.5 -413.5q0 -241 -91.5 -412.5t-249 -262t-355.5 -90.5zM784 250q116 0 203 57t135.5 167.5t48.5 269.5q0 160 -48.5 271t-135.5 168t-203 57
q-115 0 -202.5 -57.5t-136 -168t-48.5 -270.5q0 -159 48.5 -269t136 -167.5t202.5 -57.5zM1689 -401l54 228l58 -8q55 -12 96.5 -4t67 37.5t33.5 81.5l13 64l-417 1106h316l186 -567q34 -106 56.5 -212.5t49.5 -220.5h-72q27 114 54 221t61 212l193 567h313l-473 -1243
q-34 -89 -85.5 -153t-126.5 -98t-181 -34q-57 0 -108.5 6.5t-87.5 16.5z" />
    <glyph glyph-name="uni0479" unicode="&#x479;" horiz-adv-x="2415" 
d="M621 -22q-167 0 -289.5 71.5t-189 200t-66.5 298.5q0 172 66.5 300.5t189 200t289.5 71.5q166 0 288.5 -71.5t189 -200t66.5 -300.5q0 -170 -66.5 -298.5t-189 -200t-288.5 -71.5zM621 214q78 0 131.5 43t81.5 118.5t28 173.5q0 99 -28 174t-81.5 118t-131.5 43t-132 -43
t-81.5 -118t-27.5 -174q0 -98 27.5 -173.5t81 -118.5t132.5 -43zM1326 -401l54 228l58 -8q55 -12 96.5 -4t67 37.5t33.5 81.5l13 64l-417 1106h316l186 -567q34 -106 56.5 -212.5t49.5 -220.5h-72q27 114 54 221t61 212l193 567h313l-473 -1243q-34 -89 -85.5 -153
t-126.5 -98t-181 -34q-57 0 -108.5 6.5t-87.5 16.5z" />
    <glyph glyph-name="uni0480" unicode="&#x480;" horiz-adv-x="1464" 
d="M696 134q-120 0 -229.5 45.5t-195 134t-135 216.5t-49.5 292q0 220 87.5 374t238 235t339.5 81q123 0 229.5 -33t188 -97t133.5 -156.5t67 -210.5h-309q-12 72 -53.5 123t-105.5 77.5t-144 26.5q-110 0 -191.5 -49.5t-125.5 -143.5t-44 -227q0 -135 44.5 -228.5
t125.5 -142t190 -48.5q79 0 142.5 25.5t105.5 74t56 117.5h102q-7 -100 -39 -188t-89.5 -155t-142 -105t-196.5 -38zM1068 0l2 620h296v-620h-298z" />
    <glyph glyph-name="uni0481" unicode="&#x481;" horiz-adv-x="1187" 
d="M775 214v-554h-285v554h285zM619 -22q-168 0 -290 72.5t-187.5 201t-65.5 296.5q0 170 66 299t188 201t288 72q143 0 252 -52.5t173 -147t71 -222.5h-284q-8 55 -35 97t-70.5 65.5t-102.5 23.5q-73 0 -127.5 -39.5t-84.5 -114t-30 -179.5t29.5 -180.5t84 -116
t128.5 -40.5z" />
    <glyph glyph-name="uni0482" unicode="&#x482;" horiz-adv-x="1358" 
d="M853 808l-214 -360l299 -172l-74 -128l-298 172l-187 -320h-179l230 398l-295 172l71 128l303 -172l206 362l-299 168l78 130l298 -170l189 326h176l-233 -406l301 -170l-77 -126z" />
    <glyph glyph-name="uni0483" unicode="&#x483;" 
d="M-249 1312h-559v-126h-182l1 240h562l-2 108h180v-222z" />
    <glyph glyph-name="uni0484" unicode="&#x484;" 
d="M-984 1438h23q82 0 150.5 17.5t128.5 41t117.5 41.5t119.5 18q113 0 178.5 -52t65.5 -162v-38h-140v16q0 54 -31 78t-77 24q-45 0 -96.5 -18t-113 -41t-136 -41t-164.5 -18h-25v134z" />
    <glyph glyph-name="uni0485" unicode="&#x485;" 
d="M-504 1307l-171 195v144h197l-4 -162l62 -108z" />
    <glyph glyph-name="uni0486" unicode="&#x486;" 
d="M-404 1502l-169 -195l-85 69l60 108l-1 162h195v-144z" />
    <glyph glyph-name="uni0487" unicode="&#x487;" 
d="M-395 1438h165v-134h-181q-52 0 -92 17.5t-80 41t-91 41.5t-125 18q-49 0 -92 -24t-43 -78v-16h-140v38q0 98 76.5 156t210.5 58q81 0 137.5 -18t99 -41.5t79 -41t76.5 -17.5z" />
    <glyph glyph-name="uni0488" unicode="&#x488;" 
d="M-733 1268h-117q1 81 59 133.5t159 52.5q99 0 157 -52.5t58 -133.5h-114q0 39 -23.5 69.5t-77.5 30.5q-55 0 -78 -30.5t-23 -69.5zM-124 990h-118q0 83 58.5 135.5t157.5 52.5q101 0 160 -52.5t59 -135.5h-117q1 39 -21.5 69.5t-80.5 30.5q-53 0 -75.5 -30.5t-22.5 -69.5
zM68 488h-118q1 81 59.5 133.5t157.5 52.5q100 0 158.5 -52.5t58.5 -133.5h-115q0 40 -23 70t-79 30q-52 0 -75.5 -30t-23.5 -70zM-136 -32h-116q0 81 58.5 135.5t158.5 54.5q99 0 157.5 -53.5t58.5 -136.5h-113q0 39 -24 70.5t-79 31.5q-53 0 -76.5 -31.5t-24.5 -70.5z
M-727 -318h-117q0 83 58 136.5t158 53.5t158.5 -53.5t58.5 -136.5h-115q0 40 -23 71t-79 31q-54 0 -76.5 -31t-22.5 -71zM-1320 990h-117q0 83 58 135.5t159 52.5q99 0 158 -52.5t59 -135.5h-116q-1 39 -23.5 69.5t-77.5 30.5t-77 -30.5t-23 -69.5zM-1502 488h-116
q-1 81 57.5 133.5t157.5 52.5q101 0 160 -52.5t59 -133.5h-117q1 39 -22.5 69.5t-79.5 30.5q-53 0 -76 -30.5t-23 -69.5zM-1332 -32h-115q-1 82 57.5 136t157.5 54q100 0 158.5 -54t58.5 -136h-116q0 39 -22.5 70.5t-78.5 31.5q-54 0 -76.5 -32t-23.5 -70z" />
    <glyph glyph-name="uni0489" unicode="&#x489;" 
d="M-693 1126l-12 14l126 338h99l-73 -352h-140zM-142 904l-101 100l2 14l333 154l69 -70zM361 422l-356 70v140l16 10l340 -122v-98zM3 -238l-203 300l99 98h18l155 -326zM-705 -414l72 352h141l12 -14l-127 -338h-98zM-1277 -148l-72 66l302 202l102 -100l-2 -14z
M-1206 422l-342 122v98l356 -68v-140zM-1107 862l-152 328l67 66l202 -298l-101 -96h-16z" />
    <glyph glyph-name="uni048A" unicode="&#x48a;" horiz-adv-x="1544" 
d="M1415 0h-312v686q0 49 3 128t8.5 177.5t11.5 207.5l42 -8q-58 -117 -103.5 -205t-85 -159.5t-83.5 -141.5l-429 -685h-338v1490h311v-720q0 -57 -3 -142t-8 -177.5t-11 -172.5l-32 18q37 94 75.5 174t75 145.5t68.5 118.5l473 756h337v-1490zM753 1626q-97 0 -175 41.5
t-123.5 112t-45.5 157.5h175q0 -64 48.5 -105.5t120.5 -41.5t120 41.5t48 105.5h177q0 -87 -45.5 -157.5t-123.5 -112t-176 -41.5zM1114 -320l100 320h-81v238h433l-175 -558h-277z" />
    <glyph glyph-name="uni048B" unicode="&#x48b;" horiz-adv-x="1264" 
d="M1141 0h-298v653h-7l-459 -653h-254v1104h297v-650h7l456 650h258v-1104zM631 1240q-97 0 -175 41.5t-123.5 112t-45.5 157.5h175q0 -64 48.5 -105.5t120.5 -41.5t120 41.5t48 105.5h177q0 -87 -45.5 -157.5t-123.5 -112t-176 -41.5zM879 -320l100 320h-81v238h433
l-175 -558h-277z" />
    <glyph glyph-name="uni048C" unicode="&#x48c;" horiz-adv-x="1450" 
d="M431 965h379q173 0 299.5 -58t195 -165t68.5 -253q0 -150 -68 -260t-192.5 -169.5t-297.5 -59.5h-582v1490h306v-1240h267q124 0 194.5 64t70.5 177q0 72 -32 123t-91 78.5t-142 27.5h-375v245zM21 1105v206h873v-206h-873z" />
    <glyph glyph-name="uni048D" unicode="&#x48d;" horiz-adv-x="1300" 
d="M19 913v191h886v-191h-886zM238 1104v271h295v-271h-295zM432 758h331q144 0 247 -47.5t158.5 -132.5t55.5 -200q0 -112 -55.5 -197.5t-158.5 -133t-247 -47.5h-525v1104h298v-866h224q79 0 126 37.5t47 101.5q0 66 -47 104.5t-126 38.5h-328v238z" />
    <glyph glyph-name="uni048E" unicode="&#x48e;" horiz-adv-x="1338" 
d="M761 976l362 -559l-132 -85l-363 559zM136 0v1490h583q169 0 288.5 -63.5t183 -176t63.5 -260.5t-64 -260t-185.5 -175t-292.5 -63h-382v249h341q91 0 151 31.5t90 87.5t30 130q0 75 -30 130t-90.5 86t-151.5 31h-228v-1237h-306z" />
    <glyph glyph-name="uni048F" unicode="&#x48f;" horiz-adv-x="1242" 
d="M750 444l392 -465l-108 -88l-391 465zM129 -418v1522h294v-178h12q23 47 63.5 91.5t102.5 73.5t151 29q127 0 229.5 -65.5t163.5 -192t61 -311.5q0 -182 -59 -309t-162 -194t-234 -67q-86 0 -148 28.5t-103 72.5t-64 92h-8v-592h-299zM662 221q77 0 130 41.5t81 116
t28 173.5q0 98 -27.5 172t-81 115t-130.5 41t-131 -40.5t-82.5 -114t-28.5 -173.5t28.5 -174t83 -115.5t130.5 -41.5z" />
    <glyph glyph-name="uni0490" unicode="&#x490;" horiz-adv-x="1180" 
d="M820 1237v558h289v-558h-289zM1112 1490v-255h-677v-1235h-306v1490h983z" />
    <glyph glyph-name="uni0491" unicode="&#x491;" horiz-adv-x="923" 
d="M610 1104v287h275v-287h-275zM885 1104v-240h-464v-864h-298v1104h762z" />
    <glyph glyph-name="uni0492" unicode="&#x492;" horiz-adv-x="1180" 
d="M1112 1490v-255h-677v-1235h-306v1490h983zM-62 642v206h873v-206h-873z" />
    <glyph glyph-name="uni0493" unicode="&#x493;" horiz-adv-x="923" 
d="M885 1104v-240h-464v-864h-298v1104h762zM-17 465v180h728v-180h-728z" />
    <glyph glyph-name="uni0494" unicode="&#x494;" horiz-adv-x="1351" 
d="M1112 1490v-255h-677v-1235h-306v1490h983zM591 -114v271h107q121 0 192.5 65t71.5 178q0 112 -72 178.5t-192 66.5q-122 0 -193 -68.5t-71 -187.5h-151q0 164 51 283.5t151.5 183.5t247.5 64q153 0 275 -66t194.5 -183.5t72.5 -270.5t-73.5 -268.5t-204 -180.5
t-299.5 -65h-107z" />
    <glyph glyph-name="uni0495" unicode="&#x495;" horiz-adv-x="1162" 
d="M506 -347v227h60q79 0 134.5 32.5t84 94.5t28.5 151q0 78 -23.5 131.5t-69 81t-110.5 27.5q-62 0 -105 -26.5t-65.5 -78t-22.5 -125.5h-64q0 130 36.5 233.5t109 163.5t180.5 60q106 0 199 -59.5t150.5 -164.5t57.5 -243q0 -146 -67.5 -260.5t-184.5 -179.5t-264 -65h-64
zM885 1104v-240h-464v-864h-298v1104h762z" />
    <glyph glyph-name="uni0496" unicode="&#x496;" horiz-adv-x="2230" 
d="M1232 1490v-1490h-305v1490h305zM42 0l461 781l-439 709h369l337 -632h626l329 632h367l-428 -707l453 -783h-359l-324 605h-706l-332 -605h-354zM1912 -320v320h-86v244h390l-14 -564h-290z" />
    <glyph glyph-name="uni0497" unicode="&#x497;" horiz-adv-x="1821" 
d="M36 0l396 571l-394 533h342l299 -435h50v435h298v-435h48l299 435h343l-393 -533l395 -571h-350l-295 432h-47v-432h-298v432h-47l-296 -432h-350zM1509 -320v320h-86v244h390l-14 -564h-290z" />
    <glyph glyph-name="uni0498" unicode="&#x498;" horiz-adv-x="1310" 
d="M655 -21q-168 0 -293.5 59t-196.5 161.5t-73 234.5h305q2 -62 35.5 -108.5t91 -71.5t131.5 -25t131.5 26t90 73t32.5 109t-34.5 109t-97.5 73.5t-150 26.5h-136v227h136q75 0 131 25t87.5 69.5t31.5 104.5q0 59 -27.5 103t-77 69t-116.5 25t-121 -24.5t-86.5 -69
t-33.5 -106.5h-293q2 130 71.5 229.5t190 156t274.5 56.5q153 0 268.5 -55.5t180 -150t64.5 -212.5q0 -125 -78 -209t-202 -109v-9q107 -14 181.5 -61.5t112.5 -121t38 -165.5q0 -127 -73 -226.5t-201 -156t-294 -56.5zM547 -418v120h125q47 0 67.5 14.5t20.5 46.5t-20.5 46
t-67.5 14h-90l37 221h115v-44l-4 -86q93 3 144 -39t51 -120q0 -91 -58 -132t-181 -41h-139z" />
    <glyph glyph-name="uni0499" unicode="&#x499;" horiz-adv-x="1052" 
d="M523 -15q-141 0 -242.5 47t-155.5 127.5t-56 179.5h292q1 -54 46 -87.5t113 -33.5q72 0 115.5 35.5t43.5 89.5q0 60 -47 94.5t-130 34.5h-88v178h88q72 0 117 33t45 92q0 53 -38 86.5t-102 33.5q-63 0 -106 -31t-44 -84h-283q1 99 56.5 175.5t154 120.5t226.5 44
q125 0 219 -41t146.5 -112.5t52.5 -161.5q0 -96 -64 -156.5t-162 -72.5v-4q132 -14 199 -85t67 -172q0 -96 -58.5 -170.5t-163 -117t-241.5 -42.5zM401 -418v120h125q47 0 67.5 14.5t20.5 46.5t-20.5 46t-67.5 14h-90l37 221h115v-44l-4 -86q93 3 144 -39t51 -120
q0 -91 -58 -132t-181 -41h-139z" />
    <glyph glyph-name="uni049A" unicode="&#x49a;" horiz-adv-x="1546" 
d="M129 0v1490h306v-603h166l428 603h361l-536 -725l561 -765h-360l-454 634h-166v-634h-306zM1196 -320v320h-86v244h390l-14 -564h-290z" />
    <glyph glyph-name="uni049B" unicode="&#x49b;" horiz-adv-x="1252" 
d="M123 0v1104h298v-447h85l317 447h352l-398 -546l402 -558h-355l-288 417h-115v-417h-298zM951 -320v320h-86v244h390l-14 -564h-290z" />
    <glyph glyph-name="uni049C" unicode="&#x49c;" horiz-adv-x="1457" 
d="M523 1129h172v-767h-172v767zM129 0v1490h302v-618h301l287 618h359l-389 -707l426 -783h-364l-296 587h-324v-587h-302z" />
    <glyph glyph-name="uni049D" unicode="&#x49d;" horiz-adv-x="1287" 
d="M123 0v1104h298v-447h280l234 447h344l-312 -546l316 -558h-346l-210 419h-306v-419h-298zM507 855h156v-639h-156v639z" />
    <glyph glyph-name="uni04A0" unicode="&#x4a0;" horiz-adv-x="1799" 
d="M619 1490v-253h-551v253h551zM471 0v1490h306v-603h166l428 603h361l-536 -725l561 -765h-360l-454 634h-166v-634h-306z" />
    <glyph glyph-name="uni04A1" unicode="&#x4a1;" horiz-adv-x="1369" 
d="M19 878v226h400v-226h-400zM309 0v1104h298v-447h85l318 447h352l-399 -546l402 -558h-355l-287 417h-116v-417h-298z" />
    <glyph glyph-name="uni04A2" unicode="&#x4a2;" horiz-adv-x="1572" 
d="M129 0v1490h306v-601h646v601h306v-1490h-306v633h-646v-633h-306zM1241 -320v320h-86v244h390l-14 -564h-290z" />
    <glyph glyph-name="uni04A3" unicode="&#x4a3;" horiz-adv-x="1317" 
d="M922 688v-240h-584v240h584zM421 1104v-1104h-298v1104h298zM1138 1104v-1104h-298v1104h298zM993 -320v320h-86v244h390l-14 -564h-290z" />
    <glyph glyph-name="uni04A4" unicode="&#x4a4;" horiz-adv-x="2045" 
d="M1976 1490v-250h-646l-243 250h889zM129 0v1490h306v-601h646v601h306v-1490h-306v633h-646v-633h-306z" />
    <glyph glyph-name="uni04A5" unicode="&#x4a5;" horiz-adv-x="1452" 
d="M1032 878v226h395v-226h-395zM922 688v-240h-584v240h584zM421 1104v-1104h-298v1104h298zM1138 1104v-1104h-298v1104h298z" />
    <glyph glyph-name="uni04A6" unicode="&#x4a6;" horiz-adv-x="2292" 
d="M1387 1490v-1490h-306v1234h-646v-1234h-306v1490h1258zM1532 -114v271h107q121 0 192.5 65t71.5 178q0 112 -72 178.5t-192 66.5q-122 0 -193 -68.5t-71 -187.5h-151q0 164 51 283.5t151.5 183.5t247.5 64q153 0 275 -66t194.5 -183.5t72.5 -270.5t-73.5 -268.5
t-204 -180.5t-299.5 -65h-107z" />
    <glyph glyph-name="uni04A7" unicode="&#x4a7;" horiz-adv-x="1919" 
d="M1404 -296l-95 205q121 36 185.5 98.5t65.5 169.5q1 86 -39.5 142.5t-113.5 84.5t-171 28h-213v237h213q180 1 317 -55t213.5 -165t76.5 -270q0 -74 -25.5 -147.5t-79.5 -138t-137 -114t-197 -75.5zM1121 1104v-1104h-298v864h-401v-864h-299v1104h998z" />
    <glyph glyph-name="uni04A8" unicode="&#x4a8;" horiz-adv-x="2135" 
d="M1703 -22q-91 0 -185.5 20t-183.5 56.5t-165 87.5q-96 73 -173 172.5t-121.5 218.5t-44.5 252q0 172 69.5 300t195 198.5t291.5 70.5q167 0 292 -68.5t195 -191.5t70 -287q0 -152 -56.5 -280.5t-158 -230t-236.5 -172t-293 -108t-327 -37.5q-241 0 -417.5 91t-272 262
t-95.5 412q0 240 91 412t248.5 263.5t357.5 91.5v-271q-115 0 -202 -57t-136 -168t-49 -271q0 -157 52 -267.5t157.5 -168.5t265.5 -58q166 0 305.5 41.5t243 116.5t160 177t56.5 222q0 83 -32.5 146t-89 98t-129.5 35q-74 0 -130.5 -38t-88.5 -105t-32 -156
q0 -108 42.5 -207t120 -175.5t179.5 -117.5q48 -35 104.5 -45t125.5 -10q59 0 124.5 11t143.5 43l91 -242q-51 -24 -115 -38.5t-129 -21t-119 -6.5z" />
    <glyph glyph-name="uni04A9" unicode="&#x4a9;" horiz-adv-x="1710" 
d="M739 -22q-214 0 -362 69.5t-224.5 197.5t-76.5 304q0 171 70 299.5t196.5 200t293.5 71.5v-236q-79 0 -137 -43t-88.5 -118t-30.5 -173q0 -106 40.5 -182.5t126.5 -117t222 -40.5q95 0 178 20.5t145.5 62.5t98 106t35.5 150q0 55 -17.5 95.5t-49.5 63t-75 22.5
q-42 0 -73.5 -23t-49 -65t-17.5 -100q0 -77 29 -138t83 -104.5t130 -67.5q42 -19 94.5 -26.5t102.5 -7.5q51 0 99.5 14.5t97.5 38.5l92 -214q-68 -31 -153 -43.5t-165 -12.5q-136 0 -252.5 31t-207.5 98q-108 75 -178.5 185t-70.5 249q0 129 56.5 225t155.5 149t227 53
q129 0 227.5 -53t153.5 -147t55 -218q0 -126 -66 -231t-178.5 -182.5t-251.5 -119.5t-285 -42z" />
    <glyph glyph-name="uni04AA" unicode="&#x4aa;" horiz-adv-x="1509" 
d="M782 -21q-199 0 -356.5 91t-248 262t-90.5 412q0 242 91 413.5t249 262.5t355 91q128 0 238.5 -36t195.5 -105t139.5 -168t71.5 -225h-309q-11 62 -40 111t-72 83t-98 51.5t-120 17.5q-118 0 -206.5 -59t-136.5 -169.5t-48 -267.5q0 -159 48.5 -269.5t136.5 -167.5
t206 -57q64 0 119 18t98.5 51.5t72.5 82.5t41 111h309q-14 -109 -64.5 -205t-134 -170.5t-196 -116.5t-251.5 -42zM647 -419v120h125q47 0 67.5 14.5t20.5 46.5t-20.5 46t-67.5 14h-90l37 221h115v-44l-4 -86q93 3 144 -39t51 -120q0 -91 -58 -132t-181 -41h-139z" />
    <glyph glyph-name="uni04AB" unicode="&#x4ab;" horiz-adv-x="1190" 
d="M619 -22q-166 0 -288 71.5t-188.5 200t-66.5 298.5q0 171 66.5 300t188.5 200.5t288 71.5q101 0 185.5 -26.5t149.5 -76.5t106.5 -120.5t55.5 -158.5l-280 -40q-9 43 -27 77t-45 58.5t-62.5 37.5t-79.5 13q-79 0 -132.5 -42t-81.5 -117.5t-28 -175.5q0 -99 28 -174.5
t81.5 -118t132.5 -42.5q44 0 79.5 13.5t63 38.5t46 60.5t26.5 80.5l280 -41q-13 -89 -54.5 -160t-106.5 -122.5t-150.5 -78.5t-186.5 -27zM491 -418v120h125q47 0 67.5 14.5t20.5 46.5t-20.5 46t-67.5 14h-90l37 221h115v-44l-4 -86q93 3 144 -39t51 -120q0 -91 -58 -132
t-181 -41h-139z" />
    <glyph glyph-name="uni04AC" unicode="&#x4ac;" horiz-adv-x="1353" 
d="M68 1234v256h1216v-256h-454v-1234h-306v1234h-456zM684 -320v320h-86v244h390l-14 -564h-290z" />
    <glyph glyph-name="uni04AD" unicode="&#x4ad;" horiz-adv-x="1043" 
d="M373 0v866h-354v238h1004v-238h-352v-866h-298zM526 -320v320h-86v244h390l-14 -564h-290z" />
    <glyph glyph-name="uni04AE" unicode="&#x4ae;" horiz-adv-x="1478" 
d="M592 0v560l-552 930h357l252 -461q37 -68 68 -135t63 -155h-67q31 89 60.5 156.5t65.5 133.5l244 461h355l-543 -930v-560h-303z" />
    <glyph glyph-name="uni04AF" unicode="&#x4af;" horiz-adv-x="1207" 
d="M459 -71l-432 1175h316l185 -567q34 -105 60 -212t52 -221h-65q26 114 51.5 220.5t58.5 212.5l182 567h313l-433 -1175h-288zM454 -418v425h299v-425h-299z" />
    <glyph glyph-name="uni04B0" unicode="&#x4b0;" horiz-adv-x="1478" 
d="M592 0v560l-552 930h357l252 -461q37 -68 68 -135t63 -155h-67q31 89 60.5 156.5t65.5 133.5l244 461h355l-543 -930v-560h-303zM306 248v206h873v-206h-873z" />
    <glyph glyph-name="uni04B1" unicode="&#x4b1;" horiz-adv-x="1207" 
d="M459 -71l-432 1175h316l185 -567q34 -105 60 -212t52 -221h-65q26 114 51.5 220.5t58.5 212.5l182 567h313l-433 -1175h-288zM454 -418v425h299v-425h-299zM239 -180v180h728v-180h-728z" />
    <glyph glyph-name="uni04B2" unicode="&#x4b2;" horiz-adv-x="1565" 
d="M42 0l615 875v-231l-567 846h353l164 -251q42 -66 72 -121t55.5 -106.5t55.5 -106.5h-81q31 55 57 106.5t56.5 106.5t73.5 121l166 251h345l-557 -830v220l601 -880h-360l-208 313q-38 58 -64 101.5t-47.5 83t-48.5 87.5h48q-27 -47 -49 -87t-48 -83.5t-66 -101.5
l-214 -313h-352zM1238 -320v320h-86v244h390l-14 -564h-290z" />
    <glyph glyph-name="uni04B3" unicode="&#x4b3;" horiz-adv-x="1239" 
d="M36 0l431 672l-2 -210l-407 642h323l100 -170q46 -82 84 -162t77 -156h-110q41 76 78.5 156t85.5 162l103 170h318l-415 -645l1 208l430 -667h-322l-120 200q-47 81 -86 160.5t-78 153.5h107q-39 -74 -76 -153.5t-84 -160.5l-119 -200h-319zM927 -320v320h-86v244h390
l-14 -564h-290z" />
    <glyph glyph-name="uni04B4" unicode="&#x4b4;" horiz-adv-x="1942" 
d="M68 1237v253h1175v-253h-1175zM1746 0h-1221v1490h306v-1235h609v1235h306v-1490zM1601 -320v320h-87v244h390l-13 -564h-290z" />
    <glyph glyph-name="uni04B5" unicode="&#x4b5;" horiz-adv-x="1451" 
d="M745 1104v-238h-726v238h726zM238 0v1104h299v-864h401v864h299v-1104h-999zM1091 -320v320h-86v244h390l-14 -564h-290z" />
    <glyph glyph-name="uni04B6" unicode="&#x4b6;" horiz-adv-x="1493" 
d="M653 528q-159 0 -278.5 51t-185.5 161.5t-66 286.5v463h306v-441q0 -135 69 -203.5t214 -68.5q110 0 200.5 32.5t158.5 79.5v-214q-93 -79 -192 -113t-226 -34zM1002 0v1490h306v-1490h-306zM1162 -320v320h-86v244h390l-14 -564h-290z" />
    <glyph glyph-name="uni04B7" unicode="&#x4b7;" horiz-adv-x="1275" 
d="M632 317q-248 0 -378.5 103.5t-130.5 313.5v370h298v-368q0 -99 51.5 -139t159.5 -40q78 0 153 16.5t160 45.5v-240q-36 -16 -89 -30.5t-111.5 -23t-112.5 -8.5zM798 0v1104h299v-1104h-299zM951 -320v320h-86v244h390l-14 -564h-290z" />
    <glyph glyph-name="uni04B8" unicode="&#x4b8;" horiz-adv-x="1437" 
d="M653 528q-159 0 -278.5 51t-185.5 161.5t-66 286.5v463h306v-441q0 -135 69 -203.5t214 -68.5q110 0 200.5 32.5t158.5 79.5v-214q-93 -79 -192 -113t-226 -34zM1002 0v1490h306v-1490h-306zM624 301v715h183v-715h-183z" />
    <glyph glyph-name="uni04B9" unicode="&#x4b9;" horiz-adv-x="1220" 
d="M632 317q-248 0 -378.5 103.5t-130.5 313.5v370h298v-368q0 -99 51.5 -139t159.5 -40q78 0 153 16.5t160 45.5v-240q-36 -16 -89 -30.5t-111.5 -23t-112.5 -8.5zM798 0v1104h299v-1104h-299zM519 83v715h183v-715h-183z" />
    <glyph glyph-name="uni04BA" unicode="&#x4ba;" horiz-adv-x="1437" 
d="M784 962q160 0 279.5 -51t185.5 -161t66 -287v-463h-306v441q0 135 -69 203.5t-214 68.5q-111 0 -201.5 -32t-157.5 -80v214q92 79 191.5 113t225.5 34zM435 1490v-1490h-306v1490h306z" />
    <glyph glyph-name="uni04BB" unicode="&#x4bb;" horiz-adv-x="1258" 
d="M421 634v-634h-298v1490h294v-664h-31q45 140 135.5 217t232.5 77q115 0 201 -50t133.5 -144t47.5 -226v-700h-299v647q0 105 -53 163.5t-148 58.5q-63 0 -111.5 -27.5t-76 -79.5t-27.5 -128z" />
    <glyph glyph-name="uni04BC" unicode="&#x4bc;" horiz-adv-x="1820" 
d="M1073 -21q-197 0 -355 92t-249.5 264t-91.5 412q0 176 50.5 316.5t143.5 240.5t222 153.5t286 53.5q196 0 341.5 -90t225.5 -249t80 -365v-178h-1137v232h906l-65 -20q0 108 -39 199t-117 145.5t-194 54.5q-120 0 -208 -59t-137 -169.5t-49 -267.5q0 -156 49.5 -267
t138 -169t205.5 -58q63 0 115.5 16t94 47t70 74t43.5 98h311q-16 -112 -70 -204.5t-139 -160t-194.5 -104.5t-236.5 -37zM19 1057h265v-64q0 -62 7 -89.5t31.5 -34.5t76.5 -7h60v-234h-85q-179 0 -267 86.5t-88 262.5v80z" />
    <glyph glyph-name="uni04BD" unicode="&#x4bd;" horiz-adv-x="1533" 
d="M429 474q-202 0 -306 105t-104 301h218q0 -106 43 -161.5t149 -55.5v-189zM952 -22q-169 0 -292 70t-189 198t-66 301q0 171 66 299.5t186 201t281 72.5q111 0 206 -36t166.5 -106.5t111 -176t39.5 -243.5v-83h-937v188h792l-139 -49q0 86 -27 149t-79.5 97.5
t-129.5 34.5t-131 -35t-82.5 -96t-28.5 -140v-132q0 -93 32 -158t90 -98.5t136 -33.5q54 0 97.5 15.5t74 45t46.5 72.5l271 -39q-26 -96 -93.5 -167.5t-169.5 -111t-231 -39.5z" />
    <glyph glyph-name="uni04BE" unicode="&#x4be;" horiz-adv-x="1820" 
d="M1073 -21q-197 0 -355 92t-249.5 264t-91.5 412q0 176 50.5 316.5t143.5 240.5t222 153.5t286 53.5q196 0 341.5 -90t225.5 -249t80 -365v-178h-1137v232h906l-65 -20q0 108 -39 199t-117 145.5t-194 54.5q-120 0 -208 -59t-137 -169.5t-49 -267.5q0 -156 49.5 -267
t138 -169t205.5 -58q63 0 115.5 16t94 47t70 74t43.5 98h311q-16 -112 -70 -204.5t-139 -160t-194.5 -104.5t-236.5 -37zM19 1057h265v-64q0 -62 7 -89.5t31.5 -34.5t76.5 -7h60v-234h-85q-179 0 -267 86.5t-88 262.5v80zM922 -320l-4 384h304l-5 -384h-295z" />
    <glyph glyph-name="uni04BF" unicode="&#x4bf;" horiz-adv-x="1533" 
d="M429 474q-202 0 -306 105t-104 301h218q0 -106 43 -161.5t149 -55.5v-189zM952 -22q-169 0 -292 70t-189 198t-66 301q0 171 66 299.5t186 201t281 72.5q111 0 206 -36t166.5 -106.5t111 -176t39.5 -243.5v-83h-937v188h792l-139 -49q0 86 -27 149t-79.5 97.5
t-129.5 34.5t-131 -35t-82.5 -96t-28.5 -140v-132q0 -93 32 -158t90 -98.5t136 -33.5q54 0 97.5 15.5t74 45t46.5 72.5l271 -39q-26 -96 -93.5 -167.5t-169.5 -111t-231 -39.5zM811 -418v120h125q47 0 67.5 14.5t20.5 46.5t-20.5 46t-67.5 14h-90l37 221h115v-44l-4 -86
q93 3 144 -39t51 -120q0 -91 -58 -132t-181 -41h-139z" />
    <glyph glyph-name="uni04C0" unicode="&#x4c0;" horiz-adv-x="565" 
d="M435 1490v-1490h-306v1490h306z" />
    <glyph glyph-name="uni04C1" unicode="&#x4c1;" horiz-adv-x="2159" 
d="M1232 1490v-1490h-305v1490h305zM42 0l461 781l-439 709h369l337 -632h626l329 632h367l-428 -707l453 -783h-359l-324 605h-706l-332 -605h-354zM1079 1626q-97 0 -175 41.5t-123.5 112t-45.5 157.5h175q0 -64 48.5 -105.5t120.5 -41.5t120 41.5t48 105.5h177
q0 -87 -45.5 -157.5t-123.5 -112t-176 -41.5z" />
    <glyph glyph-name="uni04C2" unicode="&#x4c2;" horiz-adv-x="1754" 
d="M36 0l396 571l-394 533h342l299 -435h50v435h298v-435h48l299 435h343l-393 -533l395 -571h-350l-295 432h-47v-432h-298v432h-47l-296 -432h-350zM877 1240q-97 0 -175 41.5t-123.5 112t-45.5 157.5h175q0 -64 48.5 -105.5t120.5 -41.5t120 41.5t48 105.5h177
q0 -87 -45.5 -157.5t-123.5 -112t-176 -41.5z" />
    <glyph glyph-name="uni04C3" unicode="&#x4c3;" horiz-adv-x="1411" 
d="M503 599v219h203q193 0 332 -69t214 -197t76 -307q0 -185 -68 -319t-195 -205.5t-305 -71.5v234q127 0 199.5 96t71.5 262q-1 169 -89 263.5t-236 94.5h-203zM129 0v1490h297v-616h109l426 616h361l-643 -891h-253v-599h-297z" />
    <glyph glyph-name="uni04C4" unicode="&#x4c4;" horiz-adv-x="1262" 
d="M270 417v227h329q134 0 241.5 -38.5t183.5 -106t116 -154.5t40 -184q0 -108 -47 -198t-131.5 -159.5t-196.5 -113.5l-127 207q68 26 117 64t76 88t27 112q0 75 -38.5 132.5t-109 90.5t-166.5 33h-314zM123 0v1104h298v-447h85l316 447h353l-499 -687h-255v-417h-298z" />
    <glyph glyph-name="uni04C5" unicode="&#x4c5;" horiz-adv-x="1523" 
d="M68 0v255h40q74 0 115 38t62.5 132.5t35.5 265.5l66 799h1007v-1490h-306v1235h-423l-54 -631q-15 -175 -52 -291.5t-97.5 -185.5t-146.5 -98t-200 -29h-47zM1132 -320l100 320h-81v238h433l-175 -558h-277z" />
    <glyph glyph-name="uni04C6" unicode="&#x4c6;" horiz-adv-x="1230" 
d="M19 0v239h39q40 0 68.5 17t47.5 57t29 109.5t15 173.5l19 508h871v-1104h-299v866h-287l-14 -320q-9 -197 -55.5 -317.5t-129 -174.5t-200.5 -54h-104zM846 -320l100 320h-81v238h433l-175 -558h-277z" />
    <glyph glyph-name="uni04C7" unicode="&#x4c7;" horiz-adv-x="1516" 
d="M868 -418v236q22 -2 47.5 -3.5t48.5 -1.5q66 0 91.5 21t25.5 69v223h306v-240q0 -157 -91 -237t-271 -80q-46 0 -86.5 3.5t-70.5 9.5zM129 0v1490h306v-601h646v601h306v-1490h-306v633h-646v-633h-306z" />
    <glyph glyph-name="uni04C8" unicode="&#x4c8;" horiz-adv-x="1261" 
d="M782 -431q-46 0 -87.5 3.5t-71.5 9.5v222q22 -3 47 -4.5t49 -1.5q66 0 93.5 21.5t27.5 69.5v111h298v-114q0 -157 -88.5 -237t-267.5 -80zM922 688v-240h-584v240h584zM421 1104v-1104h-298v1104h298zM1138 1104v-1104h-298v1104h298z" />
    <glyph glyph-name="uni04C9" unicode="&#x4c9;" horiz-adv-x="1516" 
d="M129 0v1490h306v-601h646v601h306v-1490h-306v633h-646v-633h-306zM1125 -320l100 320h-81v238h433l-175 -558h-277z" />
    <glyph glyph-name="uni04CA" unicode="&#x4ca;" horiz-adv-x="1261" 
d="M922 688v-240h-584v240h584zM421 1104v-1104h-298v1104h298zM1138 1104v-1104h-298v1104h298zM876 -320l100 320h-81v238h433l-175 -558h-277z" />
    <glyph glyph-name="uni04CB" unicode="&#x4cb;" horiz-adv-x="1493" 
d="M653 528q-159 0 -278.5 51t-185.5 161.5t-66 286.5v463h306v-441q0 -135 69 -203.5t214 -68.5q110 0 200.5 32.5t158.5 79.5v-214q-93 -79 -192 -113t-226 -34zM1002 0v1490h306v-1490h-306zM1162 -320v320h-86v244h390l-14 -564h-290z" />
    <glyph glyph-name="uni04CC" unicode="&#x4cc;" horiz-adv-x="1275" 
d="M632 317q-248 0 -378.5 103.5t-130.5 313.5v370h298v-368q0 -99 51.5 -139t159.5 -40q78 0 153 16.5t160 45.5v-240q-36 -16 -89 -30.5t-111.5 -23t-112.5 -8.5zM798 0v1104h299v-1104h-299zM951 -320v320h-86v244h390l-14 -564h-290z" />
    <glyph glyph-name="uni04CD" unicode="&#x4cd;" horiz-adv-x="1891" 
d="M129 0v1490h465l242 -686q15 -48 35 -122.5t40.5 -159.5t38 -164.5t29.5 -137.5h-64q12 57 29.5 136t38 164.5t40 160.5t35.5 123l238 686h466v-1490h-306v704q0 49 1.5 121t4 155t4.5 167.5t3 159.5h23q-20 -82 -43.5 -169t-47 -169.5t-44 -151t-35.5 -113.5l-248 -704
h-256l-251 704q-16 45 -36.5 113t-44.5 150t-48 169t-46 171h28q1 -72 3 -156l4 -168t4 -156.5t2 -122.5v-704h-304zM1498 -320l100 320h-81v238h433l-175 -558h-277z" />
    <glyph glyph-name="uni04CE" unicode="&#x4ce;" horiz-adv-x="1647" 
d="M123 0v1104h454l159 -444q17 -54 33 -121.5t30 -138.5t26 -139t20 -123h-42q9 54 21 121.5t26 139t30.5 139t33.5 122.5l154 444h456v-1104h-291v431q0 53 1.5 120t3 141t3.5 147.5t2 141.5h24q-21 -99 -47.5 -196t-54.5 -186.5t-57 -167.5l-160 -431h-249l-163 431
q-29 80 -57.5 170.5t-55 187t-47.5 192.5h27q0 -64 2 -137.5t4 -148t3 -142.5t1 -122v-431h-290zM1262 -320l100 320h-81v238h433l-175 -558h-277z" />
    <glyph glyph-name="uni04CF" unicode="&#x4cf;" horiz-adv-x="544" 
d="M421 1490v-1490h-298v1490h298z" />
    <glyph glyph-name="uni04D0" unicode="&#x4d0;" horiz-adv-x="1514" 
d="M40 0l513 1490h398l523 -1490h-340l-238 720q-43 140 -87.5 302.5t-94.5 357.5h70q-49 -195 -91 -358.5t-84 -301.5l-233 -720h-336zM361 341v241h792v-241h-792zM755 1626q-97 0 -175 41.5t-123.5 112t-45.5 157.5h175q0 -64 48.5 -105.5t120.5 -41.5t120 41.5t48 105.5
h177q0 -87 -45.5 -157.5t-123.5 -112t-176 -41.5z" />
    <glyph glyph-name="uni04D1" unicode="&#x4d1;" horiz-adv-x="1176" 
d="M437 -21q-106 0 -190 37t-132 110.5t-48 182.5q0 93 34 155t93 100t134.5 57.5t158.5 27.5q97 10 156 18.5t86 26.5t27 54v5q0 46 -20.5 78.5t-59.5 50t-95 17.5q-57 0 -99.5 -17.5t-69 -47t-37.5 -66.5l-275 35q23 100 88 171t166 108.5t230 37.5q94 0 178.5 -22
t150.5 -68t103.5 -116.5t37.5 -168.5v-745h-285v154h-9q-27 -52 -71.5 -91.5t-106.5 -61.5t-145 -22zM521 188q71 0 124 28t83 75t30 106v117q-13 -8 -38.5 -16t-57.5 -14t-64.5 -11t-59.5 -9q-54 -8 -96 -25.5t-65 -47t-23 -73.5q0 -42 21.5 -71t59 -44t86.5 -15zM583 1240
q-97 0 -175 41.5t-123.5 112t-45.5 157.5h175q0 -64 48.5 -105.5t120.5 -41.5t120 41.5t48 105.5h177q0 -87 -45.5 -157.5t-123.5 -112t-176 -41.5z" />
    <glyph glyph-name="uni04D2" unicode="&#x4d2;" horiz-adv-x="1514" 
d="M40 0l513 1490h398l523 -1490h-340l-238 720q-43 140 -87.5 302.5t-94.5 357.5h70q-49 -195 -91 -358.5t-84 -301.5l-233 -720h-336zM361 341v241h792v-241h-792zM977 1640q-64 0 -108.5 43.5t-44.5 104.5q0 62 44.5 105t108.5 43t108 -43t44 -105t-44 -105t-108 -43z
M533 1640q-63 0 -107.5 43.5t-44.5 104.5q0 62 44.5 105t107.5 43q64 0 108 -43t44 -105t-44 -105t-108 -43z" />
    <glyph glyph-name="uni04D3" unicode="&#x4d3;" horiz-adv-x="1176" 
d="M437 -21q-106 0 -190 37t-132 110.5t-48 182.5q0 93 34 155t93 100t134.5 57.5t158.5 27.5q97 10 156 18.5t86 26.5t27 54v5q0 46 -20.5 78.5t-59.5 50t-95 17.5q-57 0 -99.5 -17.5t-69 -47t-37.5 -66.5l-275 35q23 100 88 171t166 108.5t230 37.5q94 0 178.5 -22
t150.5 -68t103.5 -116.5t37.5 -168.5v-745h-285v154h-9q-27 -52 -71.5 -91.5t-106.5 -61.5t-145 -22zM521 188q71 0 124 28t83 75t30 106v117q-13 -8 -38.5 -16t-57.5 -14t-64.5 -11t-59.5 -9q-54 -8 -96 -25.5t-65 -47t-23 -73.5q0 -42 21.5 -71t59 -44t86.5 -15zM805 1254
q-64 0 -108.5 43.5t-44.5 104.5q0 62 44.5 105t108.5 43t108 -43t44 -105t-44 -105t-108 -43zM361 1254q-63 0 -107.5 43.5t-44.5 104.5q0 62 44.5 105t107.5 43q64 0 108 -43t44 -105t-44 -105t-108 -43z" />
    <glyph glyph-name="uni04D4" unicode="&#x4d4;" horiz-adv-x="2092" 
d="M40 0l639 1490h1311v-256h-707v-359h654v-251h-654v-368h709v-256h-1003v1281h-88l-528 -1281h-333zM390 355v222h747v-222h-747z" />
    <glyph glyph-name="uni04D5" unicode="&#x4d5;" horiz-adv-x="1853" 
d="M457 -21q-117 0 -204.5 37.5t-136.5 111.5t-49 181q0 95 41 162t112 109.5t163.5 62.5t196.5 20h1000l-86 -51q5 85 -21.5 148.5t-80.5 99t-131 35.5q-76 0 -130.5 -35t-83.5 -96t-29 -140v-132q0 -95 32 -159.5t90 -97.5t136 -33q54 0 97.5 15.5t74 45.5t46.5 72
l276 -16q-22 -102 -88.5 -179t-171 -119.5t-239.5 -42.5q-108 0 -197 31t-153.5 88t-100.5 134l11 655q44 73 106 125.5t142.5 80.5t178.5 28q111 0 206 -36t166 -106.5t111 -176t40 -243.5v-83h-1194q-74 0 -126 -19.5t-79.5 -54t-27.5 -79.5q0 -67 46.5 -100.5
t120.5 -33.5q71 0 124 28t82.5 75t29.5 106v356q0 46 -20.5 78.5t-60 50t-95.5 17.5q-57 0 -99.5 -17.5t-69 -47t-37.5 -66.5l-275 35q23 98 88 169t165 109.5t228 38.5q118 0 203 -36.5t135.5 -108.5t61.5 -178l-15 -585h-75q-23 -59 -66.5 -102.5t-102 -72.5t-126.5 -43.5
t-139 -14.5z" />
    <glyph glyph-name="uni04D6" unicode="&#x4d6;" horiz-adv-x="1244" 
d="M129 0v1490h1014v-256h-708v-356h654v-251h-654v-371h709v-256h-1015zM638 1626q-97 0 -175 41.5t-123.5 112t-45.5 157.5h175q0 -64 48.5 -105.5t120.5 -41.5t120 41.5t48 105.5h177q0 -87 -45.5 -157.5t-123.5 -112t-176 -41.5z" />
    <glyph glyph-name="uni04D7" unicode="&#x4d7;" horiz-adv-x="1204" 
d="M623 -22q-169 0 -291.5 70t-189 198t-66.5 301q0 171 66 299.5t186 201t281 72.5q111 0 206 -36t166.5 -106.5t111 -176t39.5 -243.5v-83h-937v188h792l-139 -49q0 86 -27 149t-79.5 97.5t-129.5 34.5t-131 -35t-82.5 -96t-28.5 -140v-132q0 -93 32 -158t90.5 -98.5
t136.5 -33.5q53 0 96.5 15.5t74 45t46.5 72.5l271 -39q-26 -96 -93.5 -167.5t-169 -111t-231.5 -39.5zM605 1240q-97 0 -175 41.5t-123.5 112t-45.5 157.5h175q0 -64 48.5 -105.5t120.5 -41.5t120 41.5t48 105.5h177q0 -87 -45.5 -157.5t-123.5 -112t-176 -41.5z" />
    <glyph glyph-name="uni04D8" unicode="&#x4d8;" horiz-adv-x="1525" 
d="M736 -21q-196 0 -340 90t-223 249t-79 365v178h1132v-232h-906l65 20q0 -107 39 -198.5t117 -146t194 -54.5q120 0 208.5 59t137 169.5t48.5 267.5q0 156 -49 266.5t-137.5 169t-206.5 58.5q-63 0 -115.5 -16t-94 -47t-70 -74t-43.5 -98h-310q15 112 69 204.5t139 160
t195 104.5t236 37q197 0 355 -91.5t249.5 -263.5t91.5 -413q0 -176 -50.5 -316.5t-143.5 -240.5t-222 -153.5t-286 -53.5z" />
    <glyph glyph-name="uni04D9" unicode="&#x4d9;" horiz-adv-x="1204" 
d="M581 1127q170 0 292.5 -70.5t188.5 -198.5t66 -301q0 -170 -66 -299t-186 -201.5t-281 -72.5q-111 0 -206 36t-166 107t-111 176t-40 243v84h937v-189h-792l139 49q0 -85 27 -148t80 -98t129 -35q77 0 131 35t82.5 96.5t28.5 139.5v132q0 94 -32 158.5t-89.5 98
t-136.5 33.5q-54 0 -97.5 -15.5t-74 -45t-46.5 -71.5l-270 39q26 96 93 167t169.5 111t230.5 40z" />
    <glyph glyph-name="uni04DA" unicode="&#x4da;" horiz-adv-x="1525" 
d="M736 -21q-196 0 -340 90t-223 249t-79 365v178h1132v-232h-906l65 20q0 -107 39 -198.5t117 -146t194 -54.5q120 0 208.5 59t137 169.5t48.5 267.5q0 156 -49 266.5t-137.5 169t-206.5 58.5q-63 0 -115.5 -16t-94 -47t-70 -74t-43.5 -98h-310q15 112 69 204.5t139 160
t195 104.5t236 37q197 0 355 -91.5t249.5 -263.5t91.5 -413q0 -176 -50.5 -316.5t-143.5 -240.5t-222 -153.5t-286 -53.5zM965 1640q-64 0 -108.5 43.5t-44.5 104.5q0 62 44.5 105t108.5 43t108 -43t44 -105t-44 -105t-108 -43zM521 1640q-63 0 -107.5 43.5t-44.5 104.5
q0 62 44.5 105t107.5 43q64 0 108 -43t44 -105t-44 -105t-108 -43z" />
    <glyph glyph-name="uni04DB" unicode="&#x4db;" horiz-adv-x="1204" 
d="M581 1127q170 0 292.5 -70.5t188.5 -198.5t66 -301q0 -170 -66 -299t-186 -201.5t-281 -72.5q-111 0 -206 36t-166 107t-111 176t-40 243v84h937v-189h-792l139 49q0 -85 27 -148t80 -98t129 -35q77 0 131 35t82.5 96.5t28.5 139.5v132q0 94 -32 158.5t-89.5 98
t-136.5 33.5q-54 0 -97.5 -15.5t-74 -45t-46.5 -71.5l-270 39q26 96 93 167t169.5 111t230.5 40zM834 1254q-64 0 -108.5 43.5t-44.5 104.5q0 62 44.5 105t108.5 43t108 -43t44 -105t-44 -105t-108 -43zM390 1254q-63 0 -107.5 43.5t-44.5 104.5q0 62 44.5 105t107.5 43
q64 0 108 -43t44 -105t-44 -105t-108 -43z" />
    <glyph glyph-name="uni04DC" unicode="&#x4dc;" horiz-adv-x="2159" 
d="M1232 1490v-1490h-305v1490h305zM42 0l461 781l-439 709h369l337 -632h626l329 632h367l-428 -707l453 -783h-359l-324 605h-706l-332 -605h-354zM1301 1640q-64 0 -108.5 43.5t-44.5 104.5q0 62 44.5 105t108.5 43t108 -43t44 -105t-44 -105t-108 -43zM857 1640
q-63 0 -107.5 43.5t-44.5 104.5q0 62 44.5 105t107.5 43q64 0 108 -43t44 -105t-44 -105t-108 -43z" />
    <glyph glyph-name="uni04DD" unicode="&#x4dd;" horiz-adv-x="1754" 
d="M36 0l396 571l-394 533h342l299 -435h50v435h298v-435h48l299 435h343l-393 -533l395 -571h-350l-295 432h-47v-432h-298v432h-47l-296 -432h-350zM1099 1254q-64 0 -108.5 43.5t-44.5 104.5q0 62 44.5 105t108.5 43t108 -43t44 -105t-44 -105t-108 -43zM655 1254
q-63 0 -107.5 43.5t-44.5 104.5q0 62 44.5 105t107.5 43q64 0 108 -43t44 -105t-44 -105t-108 -43z" />
    <glyph glyph-name="uni04DE" unicode="&#x4de;" horiz-adv-x="1310" 
d="M655 -21q-168 0 -293.5 59t-196.5 161.5t-73 234.5h305q2 -62 35.5 -108.5t91 -71.5t131.5 -25t131.5 26t90 73t32.5 109t-34.5 109t-97.5 73.5t-150 26.5h-136v227h136q75 0 131 25t87.5 69.5t31.5 104.5q0 59 -27.5 103t-77 69t-116.5 25t-121 -24.5t-86.5 -69
t-33.5 -106.5h-293q2 130 71.5 229.5t190 156t274.5 56.5q153 0 268.5 -55.5t180 -150t64.5 -212.5q0 -125 -78 -209t-202 -109v-9q107 -14 181.5 -61.5t112.5 -121t38 -165.5q0 -127 -73 -226.5t-201 -156t-294 -56.5zM880 1640q-64 0 -108.5 43.5t-44.5 104.5
q0 62 44.5 105t108.5 43t108 -43t44 -105t-44 -105t-108 -43zM436 1640q-63 0 -107.5 43.5t-44.5 104.5q0 62 44.5 105t107.5 43q64 0 108 -43t44 -105t-44 -105t-108 -43z" />
    <glyph glyph-name="uni04DF" unicode="&#x4df;" horiz-adv-x="1052" 
d="M523 -15q-141 0 -242.5 47t-155.5 127.5t-56 179.5h292q1 -54 46 -87.5t113 -33.5q72 0 115.5 35.5t43.5 89.5q0 60 -47 94.5t-130 34.5h-88v178h88q72 0 117 33t45 92q0 53 -38 86.5t-102 33.5q-63 0 -106 -31t-44 -84h-283q1 99 56.5 175.5t154 120.5t226.5 44
q125 0 219 -41t146.5 -112.5t52.5 -161.5q0 -96 -64 -156.5t-162 -72.5v-4q132 -14 199 -85t67 -172q0 -96 -58.5 -170.5t-163 -117t-241.5 -42.5zM751 1254q-64 0 -108.5 43.5t-44.5 104.5q0 62 44.5 105t108.5 43t108 -43t44 -105t-44 -105t-108 -43zM307 1254
q-63 0 -107.5 43.5t-44.5 104.5q0 62 44.5 105t107.5 43q64 0 108 -43t44 -105t-44 -105t-108 -43z" />
    <glyph glyph-name="uni04E0" unicode="&#x4e0;" horiz-adv-x="1309" 
d="M656 -21q-166 0 -291.5 58t-196.5 161t-76 236h306q3 -62 37.5 -108.5t92 -71.5t128.5 -25q74 0 131 27.5t89.5 79t32.5 124.5q0 65 -33 118.5t-97 85t-159 31.5h-171v200l342 336v8h-621v251h989v-225l-490 -468v65q171 20 294.5 -31.5t191 -153.5t67.5 -234
q0 -139 -73.5 -243.5t-201 -162.5t-291.5 -58z" />
    <glyph glyph-name="uni04E1" unicode="&#x4e1;" horiz-adv-x="1309" 
d="M656 -407q-166 0 -291.5 58t-196.5 161t-76 236h306q3 -62 37.5 -108.5t92 -71.5t128.5 -25q74 0 131 27.5t89.5 79t32.5 124.5q0 65 -33 118.5t-97 85t-159 31.5h-171v200l342 336v8h-621v251h989v-225l-490 -468v65q171 20 294.5 -31.5t191 -153.5t67.5 -234
q0 -139 -73.5 -243.5t-201 -162.5t-291.5 -58z" />
    <glyph glyph-name="uni04E2" unicode="&#x4e2;" horiz-adv-x="1544" 
d="M1415 0h-312v686q0 49 3 128t8.5 177.5t11.5 207.5l42 -8q-58 -117 -103.5 -205t-85 -159.5t-83.5 -141.5l-429 -685h-338v1490h311v-720q0 -57 -3 -142t-8 -177.5t-11 -172.5l-32 18q37 94 75.5 174t75 145.5t68.5 118.5l473 756h337v-1490zM1043 1880v-190h-579v190
h579z" />
    <glyph glyph-name="uni04E3" unicode="&#x4e3;" horiz-adv-x="1264" 
d="M1141 0h-298v653h-7l-459 -653h-254v1104h297v-650h7l456 650h258v-1104zM921 1494v-190h-579v190h579z" />
    <glyph glyph-name="uni04E4" unicode="&#x4e4;" horiz-adv-x="1544" 
d="M1415 0h-312v686q0 49 3 128t8.5 177.5t11.5 207.5l42 -8q-58 -117 -103.5 -205t-85 -159.5t-83.5 -141.5l-429 -685h-338v1490h311v-720q0 -57 -3 -142t-8 -177.5t-11 -172.5l-32 18q37 94 75.5 174t75 145.5t68.5 118.5l473 756h337v-1490zM975 1640q-64 0 -108.5 43.5
t-44.5 104.5q0 62 44.5 105t108.5 43t108 -43t44 -105t-44 -105t-108 -43zM531 1640q-63 0 -107.5 43.5t-44.5 104.5q0 62 44.5 105t107.5 43q64 0 108 -43t44 -105t-44 -105t-108 -43z" />
    <glyph glyph-name="uni04E5" unicode="&#x4e5;" horiz-adv-x="1264" 
d="M1141 0h-298v653h-7l-459 -653h-254v1104h297v-650h7l456 650h258v-1104zM854 1254q-64 0 -108.5 43.5t-44.5 104.5q0 62 44.5 105t108.5 43t108 -43t44 -105t-44 -105t-108 -43zM410 1254q-63 0 -107.5 43.5t-44.5 104.5q0 62 44.5 105t107.5 43q64 0 108 -43t44 -105
t-44 -105t-108 -43z" />
    <glyph glyph-name="uni04E6" unicode="&#x4e6;" horiz-adv-x="1567" 
d="M784 -21q-198 0 -356 91t-249.5 262t-91.5 412q0 242 91.5 413.5t249.5 262.5t356 91t355.5 -91t249 -262.5t91.5 -413.5q0 -241 -91.5 -412.5t-249 -262t-355.5 -90.5zM784 250q116 0 203 57t135.5 167.5t48.5 269.5q0 160 -48.5 271t-135.5 168t-203 57
q-115 0 -202.5 -57.5t-136 -168t-48.5 -270.5q0 -159 48.5 -269t136 -167.5t202.5 -57.5zM1006 1640q-64 0 -108.5 43.5t-44.5 104.5q0 62 44.5 105t108.5 43t108 -43t44 -105t-44 -105t-108 -43zM562 1640q-63 0 -107.5 43.5t-44.5 104.5q0 62 44.5 105t107.5 43
q64 0 108 -43t44 -105t-44 -105t-108 -43z" />
    <glyph glyph-name="uni04E7" unicode="&#x4e7;" horiz-adv-x="1241" 
d="M621 -22q-167 0 -289.5 71.5t-189 200t-66.5 298.5q0 172 66.5 300.5t189 200t289.5 71.5q166 0 288.5 -71.5t189 -200t66.5 -300.5q0 -170 -66.5 -298.5t-189 -200t-288.5 -71.5zM621 214q78 0 131.5 43t81.5 118.5t28 173.5q0 99 -28 174t-81.5 118t-131.5 43t-132 -43
t-81.5 -118t-27.5 -174q0 -98 27.5 -173.5t81 -118.5t132.5 -43zM842 1254q-64 0 -108.5 43.5t-44.5 104.5q0 62 44.5 105t108.5 43t108 -43t44 -105t-44 -105t-108 -43zM398 1254q-63 0 -107.5 43.5t-44.5 104.5q0 62 44.5 105t107.5 43q64 0 108 -43t44 -105t-44 -105
t-108 -43z" />
    <glyph glyph-name="uni04E8" unicode="&#x4e8;" horiz-adv-x="1567" 
d="M1276 845v-200h-965v200h965zM784 -21q-198 0 -356 91t-249.5 262t-91.5 412q0 242 91.5 413.5t249.5 262.5t356 91t355.5 -91t249 -262.5t91.5 -413.5q0 -241 -91.5 -412.5t-249 -262t-355.5 -90.5zM784 250q116 0 203 57t135.5 167.5t48.5 269.5q0 160 -48.5 271
t-135.5 168t-203 57q-115 0 -202.5 -57.5t-136 -168t-48.5 -270.5q0 -159 48.5 -269t136 -167.5t202.5 -57.5z" />
    <glyph glyph-name="uni04E9" unicode="&#x4e9;" horiz-adv-x="1241" 
d="M621 -22q-167 0 -289.5 71.5t-189 200t-66.5 298.5q0 172 66.5 300.5t189 200t289.5 71.5q166 0 288.5 -71.5t189 -200t66.5 -300.5q0 -170 -66.5 -298.5t-189 -200t-288.5 -71.5zM621 214q78 0 131.5 43t81.5 118.5t28 173.5q0 99 -28 174t-81.5 118t-131.5 43t-132 -43
t-81.5 -118t-27.5 -174q0 -98 27.5 -173.5t81 -118.5t132.5 -43zM325 407l-87 69q71 92 132 138t129 46q54 0 99.5 -18t82.5 -35.5t66 -17.5q43 0 83.5 21t81.5 87l90 -61q-67 -99 -127.5 -144t-136.5 -45q-55 0 -99 17.5t-79.5 35t-65.5 17.5q-40 0 -82 -26t-87 -84z" />
    <glyph glyph-name="uni04EA" unicode="&#x4ea;" horiz-adv-x="1567" 
d="M1276 845v-200h-965v200h965zM784 -21q-198 0 -356 91t-249.5 262t-91.5 412q0 242 91.5 413.5t249.5 262.5t356 91t355.5 -91t249 -262.5t91.5 -413.5q0 -241 -91.5 -412.5t-249 -262t-355.5 -90.5zM784 250q116 0 203 57t135.5 167.5t48.5 269.5q0 160 -48.5 271
t-135.5 168t-203 57q-115 0 -202.5 -57.5t-136 -168t-48.5 -270.5q0 -159 48.5 -269t136 -167.5t202.5 -57.5zM1006 1640q-64 0 -108.5 43.5t-44.5 104.5q0 62 44.5 105t108.5 43t108 -43t44 -105t-44 -105t-108 -43zM562 1640q-63 0 -107.5 43.5t-44.5 104.5q0 62 44.5 105
t107.5 43q64 0 108 -43t44 -105t-44 -105t-108 -43z" />
    <glyph glyph-name="uni04EB" unicode="&#x4eb;" horiz-adv-x="1241" 
d="M621 -22q-167 0 -289.5 71.5t-189 200t-66.5 298.5q0 172 66.5 300.5t189 200t289.5 71.5q166 0 288.5 -71.5t189 -200t66.5 -300.5q0 -170 -66.5 -298.5t-189 -200t-288.5 -71.5zM621 214q78 0 131.5 43t81.5 118.5t28 173.5q0 99 -28 174t-81.5 118t-131.5 43t-132 -43
t-81.5 -118t-27.5 -174q0 -98 27.5 -173.5t81 -118.5t132.5 -43zM325 407l-87 69q71 92 132 138t129 46q54 0 99.5 -18t82.5 -35.5t66 -17.5q43 0 83.5 21t81.5 87l90 -61q-67 -99 -127.5 -144t-136.5 -45q-55 0 -99 17.5t-79.5 35t-65.5 17.5q-40 0 -82 -26t-87 -84z
M842 1254q-64 0 -108.5 43.5t-44.5 104.5q0 62 44.5 105t108.5 43t108 -43t44 -105t-44 -105t-108 -43zM398 1254q-63 0 -107.5 43.5t-44.5 104.5q0 62 44.5 105t107.5 43q64 0 108 -43t44 -105t-44 -105t-108 -43z" />
    <glyph glyph-name="uni04EC" unicode="&#x4ec;" horiz-adv-x="1509" 
d="M727 -21q-139 0 -252 42.5t-196.5 116.5t-133.5 170.5t-64 204.5h309q13 -67 42 -116t72.5 -82.5t100 -49.5t123.5 -16q118 0 204.5 55.5t133 166t46.5 273.5q0 161 -46.5 272t-132.5 168t-206 57q-67 0 -123.5 -16t-100 -49.5t-72 -82.5t-40.5 -116h-309
q17 126 71.5 225t139.5 168t195 105t239 36q198 0 355 -91t248.5 -262.5t91.5 -413.5q0 -240 -91 -411.5t-247.5 -262.5t-356.5 -91zM574 632v249h596v-249h-596zM949 1640q-64 0 -108.5 43.5t-44.5 104.5q0 62 44.5 105t108.5 43t108 -43t44 -105t-44 -105t-108 -43z
M505 1640q-63 0 -107.5 43.5t-44.5 104.5q0 62 44.5 105t107.5 43q64 0 108 -43t44 -105t-44 -105t-108 -43z" />
    <glyph glyph-name="uni04ED" unicode="&#x4ed;" horiz-adv-x="1191" 
d="M573 -22q-102 0 -187.5 27t-150.5 78.5t-106 122.5t-55 160l270 38q9 -44 28 -79.5t48 -61t67.5 -39t85.5 -13.5q84 0 140 43t84 119.5t28 175.5t-28 175.5t-84 119.5t-140 43q-46 0 -84.5 -13t-67.5 -37.5t-48 -59t-27 -76.5l-271 37q15 88 56 158.5t106 120.5t150 76.5
t186 26.5q166 0 287.5 -71.5t188 -200.5t66.5 -300q0 -170 -66.5 -298.5t-188 -200t-287.5 -71.5zM841 464h-379v180h379v-180zM794 1254q-64 0 -108.5 43.5t-44.5 104.5q0 62 44.5 105t108.5 43t108 -43t44 -105t-44 -105t-108 -43zM350 1254q-63 0 -107.5 43.5
t-44.5 104.5q0 62 44.5 105t107.5 43q64 0 108 -43t44 -105t-44 -105t-108 -43z" />
    <glyph glyph-name="uni04EE" unicode="&#x4ee;" horiz-adv-x="1403" 
d="M260 0v267h122q77 0 115.5 21t53.5 69l18 55l-529 1078h353l167 -370q52 -115 87.5 -221t61.5 -201.5t50 -180.5h-92q37 120 84.5 272.5t118.5 330.5l150 370h343l-530 -1201q-43 -94 -97.5 -158.5t-132 -97.5t-188.5 -33h-155zM992 1880v-190h-579v190h579z" />
    <glyph glyph-name="uni04EF" unicode="&#x4ef;" horiz-adv-x="1211" 
d="M122 -401l54 228l58 -8q55 -12 96.5 -4t67 37.5t33.5 81.5l13 64l-417 1106h316l186 -567q34 -106 56.5 -212.5t49.5 -220.5h-72q27 114 54 221t61 212l193 567h313l-473 -1243q-34 -89 -85.5 -153t-126.5 -98t-181 -34q-57 0 -108.5 6.5t-87.5 16.5zM893 1494v-190h-579
v190h579z" />
    <glyph glyph-name="uni04F0" unicode="&#x4f0;" horiz-adv-x="1403" 
d="M260 0v267h122q77 0 115.5 21t53.5 69l18 55l-529 1078h353l167 -370q52 -115 87.5 -221t61.5 -201.5t50 -180.5h-92q37 120 84.5 272.5t118.5 330.5l150 370h343l-530 -1201q-43 -94 -97.5 -158.5t-132 -97.5t-188.5 -33h-155zM925 1640q-64 0 -108.5 43.5t-44.5 104.5
q0 62 44.5 105t108.5 43t108 -43t44 -105t-44 -105t-108 -43zM481 1640q-63 0 -107.5 43.5t-44.5 104.5q0 62 44.5 105t107.5 43q64 0 108 -43t44 -105t-44 -105t-108 -43z" />
    <glyph glyph-name="uni04F1" unicode="&#x4f1;" horiz-adv-x="1211" 
d="M122 -401l54 228l58 -8q55 -12 96.5 -4t67 37.5t33.5 81.5l13 64l-417 1106h316l186 -567q34 -106 56.5 -212.5t49.5 -220.5h-72q27 114 54 221t61 212l193 567h313l-473 -1243q-34 -89 -85.5 -153t-126.5 -98t-181 -34q-57 0 -108.5 6.5t-87.5 16.5zM825 1254
q-64 0 -108.5 43.5t-44.5 104.5q0 62 44.5 105t108.5 43t108 -43t44 -105t-44 -105t-108 -43zM381 1254q-63 0 -107.5 43.5t-44.5 104.5q0 62 44.5 105t107.5 43q64 0 108 -43t44 -105t-44 -105t-108 -43z" />
    <glyph glyph-name="uni04F2" unicode="&#x4f2;" horiz-adv-x="1403" 
d="M260 0v267h122q77 0 115.5 21t53.5 69l18 55l-529 1078h353l167 -370q52 -115 87.5 -221t61.5 -201.5t50 -180.5h-92q37 120 84.5 272.5t118.5 330.5l150 370h343l-530 -1201q-43 -94 -97.5 -158.5t-132 -97.5t-188.5 -33h-155zM560 1629h-210l113 312h267zM909 1629
h-214l175 312h286z" />
    <glyph glyph-name="uni04F3" unicode="&#x4f3;" horiz-adv-x="1211" 
d="M122 -401l54 228l58 -8q55 -12 96.5 -4t67 37.5t33.5 81.5l13 64l-417 1106h316l186 -567q34 -106 56.5 -212.5t49.5 -220.5h-72q27 114 54 221t61 212l193 567h313l-473 -1243q-34 -89 -85.5 -153t-126.5 -98t-181 -34q-57 0 -108.5 6.5t-87.5 16.5zM461 1243h-210
l113 312h267zM810 1243h-214l175 312h286z" />
    <glyph glyph-name="uni04F4" unicode="&#x4f4;" horiz-adv-x="1437" 
d="M653 528q-159 0 -278.5 51t-185.5 161.5t-66 286.5v463h306v-441q0 -135 69 -203.5t214 -68.5q110 0 200.5 32.5t158.5 79.5v-214q-93 -79 -192 -113t-226 -34zM1002 0v1490h306v-1490h-306zM938 1640q-64 0 -108.5 43.5t-44.5 104.5q0 62 44.5 105t108.5 43t108 -43
t44 -105t-44 -105t-108 -43zM494 1640q-63 0 -107.5 43.5t-44.5 104.5q0 62 44.5 105t107.5 43q64 0 108 -43t44 -105t-44 -105t-108 -43z" />
    <glyph glyph-name="uni04F5" unicode="&#x4f5;" horiz-adv-x="1220" 
d="M632 317q-248 0 -378.5 103.5t-130.5 313.5v370h298v-368q0 -99 51.5 -139t159.5 -40q78 0 153 16.5t160 45.5v-240q-36 -16 -89 -30.5t-111.5 -23t-112.5 -8.5zM798 0v1104h299v-1104h-299zM832 1254q-64 0 -108.5 43.5t-44.5 104.5q0 62 44.5 105t108.5 43t108 -43
t44 -105t-44 -105t-108 -43zM388 1254q-63 0 -107.5 43.5t-44.5 104.5q0 62 44.5 105t107.5 43q64 0 108 -43t44 -105t-44 -105t-108 -43z" />
    <glyph glyph-name="uni04F6" unicode="&#x4f6;" horiz-adv-x="1180" 
d="M1112 1490v-255h-677v-1235h-306v1490h983zM290 -320v320h-86v244h390l-14 -564h-290z" />
    <glyph glyph-name="uni04F7" unicode="&#x4f7;" horiz-adv-x="923" 
d="M885 1104v-240h-464v-864h-298v1104h762zM276 -320v320h-86v244h390l-14 -564h-290z" />
    <glyph glyph-name="uni04F8" unicode="&#x4f8;" horiz-adv-x="1861" 
d="M327 965h379q173 0 299.5 -58t195 -165t68.5 -253q0 -150 -68 -260t-192.5 -169.5t-297.5 -59.5h-582v1490h306v-1240h267q124 0 194.5 64t70.5 177q0 72 -32 123t-91 78.5t-142 27.5h-375v245zM1731 1490v-1490h-306v1490h306zM1115 1640q-64 0 -108.5 43.5t-44.5 104.5
q0 62 44.5 105t108.5 43t108 -43t44 -105t-44 -105t-108 -43zM671 1640q-63 0 -107.5 43.5t-44.5 104.5q0 62 44.5 105t107.5 43q64 0 108 -43t44 -105t-44 -105t-108 -43z" />
    <glyph glyph-name="uni04F9" unicode="&#x4f9;" horiz-adv-x="1621" 
d="M317 758h330q145 0 248 -47.5t158 -132.5t55 -200q0 -112 -55 -197.5t-158 -133t-248 -47.5h-524v1104h298v-866h224q79 0 125.5 37.5t46.5 101.5q0 66 -46.5 104.5t-125.5 38.5h-328v238zM1201 0v1104h298v-1104h-298zM1031 1254q-64 0 -108.5 43.5t-44.5 104.5
q0 62 44.5 105t108.5 43t108 -43t44 -105t-44 -105t-108 -43zM587 1254q-63 0 -107.5 43.5t-44.5 104.5q0 62 44.5 105t107.5 43q64 0 108 -43t44 -105t-44 -105t-108 -43z" />
    <glyph glyph-name="uni04FA" unicode="&#x4fa;" horiz-adv-x="1262" 
d="M1194 1490v-255h-677v-1235h-306v1490h983zM20 642v206h873v-206h-873zM303 -429q-38 0 -73 2.5t-72 8.5l12 223q23 -3 52 -5t53 -2q62 0 95.5 36t33.5 111v55h-103v210h387l-5 -246q-4 -194 -101 -293.5t-279 -99.5z" />
    <glyph glyph-name="uni04FB" unicode="&#x4fb;" horiz-adv-x="923" 
d="M885 1104v-240h-464v-864h-298v1104h762zM-17 465v180h728v-180h-728zM207 -429q-38 0 -73 2.5t-72 8.5l12 223q23 -3 52 -5t53 -2q62 0 95.5 36t33.5 111v55h-103v210h387l-5 -246q-4 -194 -101 -293.5t-279 -99.5z" />
    <glyph glyph-name="uni04FC" unicode="&#x4fc;" horiz-adv-x="1602" 
d="M42 0l615 875v-231l-567 846h353l164 -251q42 -66 72 -121t55.5 -106.5t55.5 -106.5h-81q31 55 57 106.5t56.5 106.5t73.5 121l166 251h345l-557 -830v220l601 -880h-360l-208 313q-38 58 -64 101.5t-47.5 83t-48.5 87.5h48q-27 -47 -49 -87t-48 -83.5t-66 -101.5
l-214 -313h-352zM1170 -429q-38 0 -73 2.5t-72 8.5l12 223q23 -3 52 -5t53 -2q62 0 95.5 36t33.5 111v55h-103v210h387l-5 -246q-4 -194 -101 -293.5t-279 -99.5z" />
    <glyph glyph-name="uni04FD" unicode="&#x4fd;" horiz-adv-x="1098" 
d="M677 -432q-36 0 -73 2.5t-73 8.5l11 236q20 -4 48 -8t52 -4q60 0 94 32.5t34 98.5q0 27 -7.5 53.5t-26 61t-50.5 85.5l-133 213l-207 -347h-310l328 551l-317 553h310l196 -354l201 354h308l-320 -553l206 -343q40 -67 62.5 -122.5t32 -102t9.5 -87.5
q0 -102 -44.5 -175.5t-128 -113t-202.5 -39.5z" />
    <glyph glyph-name="uni04FE" unicode="&#x4fe;" horiz-adv-x="1493" 
d="M160 682v169h1169v-169h-1169zM42 0l615 875v-231l-567 846h353l164 -251q42 -66 72 -121t55.5 -106.5t55.5 -106.5h-81q31 55 57 106.5t56.5 106.5t73.5 121l166 251h345l-557 -830v220l601 -880h-360l-208 313q-38 58 -64 101.5t-47.5 83t-48.5 87.5h48
q-27 -47 -49 -87t-48 -83.5t-66 -101.5l-214 -313h-352z" />
    <glyph glyph-name="uni04FF" unicode="&#x4ff;" horiz-adv-x="1168" 
d="M96 492v146h973v-146h-973zM36 0l431 672l-2 -210l-407 642h323l100 -170q46 -82 84 -162t77 -156h-110q41 76 78.5 156t85.5 162l103 170h318l-415 -645l1 208l430 -667h-322l-120 200q-47 81 -86 160.5t-78 153.5h107q-39 -74 -76 -153.5t-84 -160.5l-119 -200h-319z
" />
    <glyph glyph-name="uni052F" unicode="&#x52f;" horiz-adv-x="1286" 
d="M19 0v239h39q40 0 68.5 17t47.5 57t29 109.5t15 173.5l19 508h871v-1104h-299v866h-287l-14 -320q-9 -197 -55.5 -317.5t-129 -174.5t-200.5 -54h-104zM962 -320v320h-86v244h390l-14 -564h-290z" />
    <glyph glyph-name="m.sc" horiz-adv-x="1647" 
d="M123 0v1104h454l159 -444q17 -54 33 -121.5t30 -138.5t26 -139t20 -123h-42q9 54 21 121.5t26 139t30.5 139t33.5 122.5l154 444h456v-1104h-291v431q0 53 1.5 120t3 141t3.5 147.5t2 141.5h24q-21 -99 -47.5 -196t-54.5 -186.5t-57 -167.5l-160 -431h-249l-163 431
q-29 80 -57.5 170.5t-55 187t-47.5 192.5h27q0 -64 2 -137.5t4 -148t3 -142.5t1 -122v-431h-290z" />
    </font>
</defs>
</svg>
